<svg width="52" height="52" viewBox="0 0 52 52" fill="none" xmlns="http://www.w3.org/2000/svg">
<rect width="52" height="52" rx="12" fill="#4CAF50"/>
<path d="M20.1564 10.1255C20.1002 10.188 20.0627 10.3005 20.0814 10.363C20.0939 10.4317 20.4439 11.0005 20.8502 11.6255C21.4377 12.5442 21.5689 12.7817 21.5002 12.8255C20.2752 13.5442 19.7564 13.9317 19.1064 14.6192C18.2314 15.5567 17.5939 16.6942 17.3064 17.838C17.2252 18.1442 17.1627 18.6567 17.1439 19.138L17.1064 19.938H26.0002H34.8939L34.8564 19.138C34.7814 17.2817 34.0127 15.663 32.5439 14.2755C32.0377 13.7942 31.2377 13.2192 30.7002 12.9442C30.5502 12.8692 30.4377 12.7692 30.4564 12.7317C30.4689 12.688 30.8127 12.1505 31.2127 11.5317C31.6127 10.9192 31.9377 10.363 31.9377 10.3067C31.9377 10.188 31.7439 10.0005 31.6127 10.0005C31.4689 10.0005 31.3127 10.2005 30.5627 11.3755C30.1752 11.9755 29.8502 12.4755 29.8439 12.488C29.8314 12.5005 29.5127 12.4067 29.1252 12.2817C27.1439 11.6442 24.8502 11.6442 22.8689 12.288C22.4877 12.4067 22.1689 12.5005 22.1627 12.488C22.1502 12.4755 21.8002 11.9317 21.3752 11.2817C20.9564 10.6255 20.5752 10.0755 20.5377 10.0505C20.4189 9.96925 20.2752 9.99425 20.1564 10.1255ZM22.3439 15.338C22.7002 15.5692 22.8314 16.0255 22.6502 16.4067C22.5064 16.7192 22.2377 16.8755 21.8502 16.8755C21.5814 16.8755 21.5189 16.8505 21.3064 16.6317C21.0877 16.4192 21.0627 16.3567 21.0627 16.088C21.0627 15.713 21.2189 15.438 21.5064 15.2942C21.7502 15.1692 22.1127 15.188 22.3439 15.338ZM30.4814 15.2942C30.7814 15.4317 30.9377 15.7067 30.9377 16.088C30.9377 16.3567 30.9127 16.4192 30.6939 16.6317C30.4814 16.8505 30.4189 16.8755 30.1502 16.8755C29.7627 16.8755 29.4939 16.7192 29.3502 16.4067C29.1502 15.988 29.3189 15.5192 29.7564 15.3005C30.0252 15.163 30.2002 15.1567 30.4814 15.2942Z" fill="white"/>
<path d="M13.6438 20.557C13.2126 20.7007 12.8188 21.0382 12.5938 21.4445L12.4063 21.782L12.3876 26.3632C12.3751 29.3132 12.3938 31.0257 12.4376 31.182C12.5376 31.5507 12.8688 31.9945 13.2126 32.2195C14.2751 32.907 15.6813 32.457 16.1188 31.2945C16.2501 30.9382 16.2501 30.882 16.2501 26.557C16.2501 23.457 16.2313 22.0945 16.1751 21.8882C16.0251 21.2632 15.4626 20.682 14.8438 20.507C14.4813 20.407 14.0188 20.4257 13.6438 20.557Z" fill="white"/>
<path d="M37.1313 20.5069C36.6562 20.6444 36.1813 21.0569 35.925 21.5569L35.7812 21.8444V26.4382C35.7812 30.8132 35.7875 31.0444 35.9 31.3444C36.0625 31.7569 36.4875 32.2007 36.8938 32.3819C37.3625 32.5882 38.1 32.5882 38.525 32.3819C38.9 32.2007 39.2563 31.8507 39.45 31.4882L39.5938 31.2194V26.5007V21.7819L39.4062 21.4444C38.975 20.6632 37.9938 20.2632 37.1313 20.5069Z" fill="white"/>
<path d="M17.1878 27.4568C17.1878 34.8943 17.1628 34.4818 17.6003 34.9881C17.719 35.1318 17.9753 35.3193 18.1753 35.4193C18.519 35.5881 18.569 35.5943 19.669 35.6193L20.8065 35.6381L20.8253 38.1506C20.844 40.6256 20.844 40.6631 20.9878 40.9256C21.1815 41.2881 21.5815 41.6756 21.9315 41.8318C22.369 42.0381 23.1065 42.0256 23.5628 41.8068C23.9753 41.6131 24.3003 41.2943 24.5065 40.8943L24.6565 40.5943L24.6753 38.1068L24.694 35.6256H26.0003H27.3065L27.3253 38.1068L27.344 40.5943L27.494 40.8943C27.7003 41.2943 28.0253 41.6131 28.4378 41.8068C28.894 42.0256 29.6315 42.0381 30.069 41.8318C30.419 41.6756 30.819 41.2881 31.0128 40.9256C31.1565 40.6631 31.1565 40.6256 31.1753 38.1506L31.194 35.6381L32.3315 35.6193C33.4315 35.5943 33.4815 35.5881 33.8253 35.4193C34.0253 35.3193 34.2815 35.1318 34.4003 34.9881C34.8378 34.4818 34.8128 34.8943 34.8128 27.4568V20.7506H26.0003H17.1878V27.4568Z" fill="white"/>
</svg>
