<svg width="48" height="48" viewBox="0 0 48 48" fill="none" xmlns="http://www.w3.org/2000/svg">
<g clip-path="url(#clip0_445_2315)">
<path opacity="0.934" fill-rule="evenodd" clip-rule="evenodd" d="M44.7656 -0.046875C45.0781 -0.046875 45.3907 -0.046875 45.7031 -0.046875C45.9696 0.172898 46.1414 0.454148 46.2188 0.796875C46.2813 1.79688 46.2813 2.79687 46.2188 3.79688C46.0215 4.58815 45.5371 4.85378 44.7656 4.59375C44.5938 4.48437 44.4532 4.34375 44.3438 4.17188C44.2812 2.92188 44.2812 1.67187 44.3438 0.421875C44.4718 0.247344 44.6125 0.0910943 44.7656 -0.046875Z" fill="#E7BA04"/>
<path opacity="0.899" fill-rule="evenodd" clip-rule="evenodd" d="M37.4541 0.984385C38.436 0.826342 38.8891 1.23259 38.8135 2.20313C38.5617 2.81782 38.1086 3.02094 37.4541 2.81251C36.9019 2.45812 36.7613 1.97374 37.0322 1.35938C37.1632 1.21217 37.3038 1.08717 37.4541 0.984385Z" fill="#E7BA04"/>
<path opacity="0.938" fill-rule="evenodd" clip-rule="evenodd" d="M21.3285 2.10938C22.0255 2.32105 22.5411 2.75855 22.8754 3.42188C24.063 5.60937 24.063 7.79688 22.8754 9.98438C22.543 10.6455 22.0274 11.0829 21.3285 11.2969C20.5585 11.1324 20.2617 10.6637 20.4379 9.89062C21.9169 8.33627 22.1982 6.58627 21.2817 4.64062C21.0316 4.32813 20.7817 4.01562 20.5317 3.70312C20.2055 2.85539 20.4711 2.32415 21.3285 2.10938Z" fill="#E7BA04"/>
<path opacity="0.939" fill-rule="evenodd" clip-rule="evenodd" d="M29.952 2.76563C30.6031 2.60389 31.0562 2.82263 31.3114 3.42188C31.3581 3.82694 31.3738 4.23319 31.3582 4.64063C31.7969 4.62509 32.2343 4.64071 32.6707 4.68751C33.3197 5.18263 33.3821 5.74513 32.8582 6.37501C32.3806 6.57911 31.8806 6.65723 31.3582 6.60938C31.4137 7.13487 31.3356 7.63488 31.1239 8.10938C30.5599 8.6241 30.0287 8.59285 29.5301 8.01563C29.4 7.55887 29.3531 7.09012 29.3895 6.60938C28.9132 6.63285 28.4445 6.58597 27.9832 6.46876C27.4006 5.93365 27.3694 5.37115 27.8895 4.78126C28.3777 4.65032 28.8777 4.60344 29.3895 4.64063C29.3739 4.20202 29.3896 3.76452 29.4364 3.32813C29.5639 3.09164 29.7357 2.90414 29.952 2.76563Z" fill="#E7BA04"/>
<path opacity="0.896" fill-rule="evenodd" clip-rule="evenodd" d="M15.8921 5.57811C16.6987 5.40237 17.1675 5.71487 17.2983 6.51561C17.1246 7.36795 16.6245 7.66483 15.7983 7.40623C15.152 6.75222 15.1832 6.14285 15.8921 5.57811Z" fill="#E7BA04"/>
<path opacity="0.943" fill-rule="evenodd" clip-rule="evenodd" d="M42.2343 6.51562C43.3447 6.55045 43.7041 7.08171 43.3124 8.10938C42.7986 8.67156 42.158 8.95281 41.3905 8.95312C40.742 8.80752 40.0857 8.76065 39.4218 8.8125C39.2954 8.96007 39.233 9.13195 39.2343 9.32812C39.8242 12.5976 38.4961 13.8788 35.2499 13.1719C34.9144 13.2323 34.7425 13.4354 34.7343 13.7812C35.3631 17.0431 34.0506 18.34 30.7968 17.6719C30.4601 17.9134 30.0851 18.0696 29.6718 18.1406C28.9029 17.9797 28.606 17.5109 28.7812 16.7344C29.26 16.0339 29.9319 15.6901 30.7968 15.7031C31.2948 15.781 31.7948 15.8435 32.2968 15.8906C32.5322 15.9105 32.7353 15.848 32.9062 15.7031C32.8661 14.8912 32.8348 14.0788 32.8124 13.2656C33.1149 11.9476 33.9431 11.2601 35.2968 11.2031C35.9453 11.3487 36.6016 11.3956 37.2655 11.3438C37.3124 11.2969 37.3593 11.25 37.4062 11.2031C37.3485 10.3926 37.3173 9.58012 37.3124 8.76562C37.4953 7.77009 38.0735 7.12947 39.0468 6.84375C39.8558 6.76108 40.6527 6.80796 41.4374 6.98438C41.7189 6.84093 41.9845 6.68468 42.2343 6.51562Z" fill="#E7BA04"/>
<path opacity="0.886" fill-rule="evenodd" clip-rule="evenodd" d="M26.1098 12.2344C27.2584 12.1264 27.6803 12.6264 27.3754 13.7344C26.8078 14.3566 26.2453 14.3566 25.6879 13.7344C25.4061 13.1035 25.5467 12.6035 26.1098 12.2344Z" fill="#E7BA04"/>
<path opacity="0.942" fill-rule="evenodd" clip-rule="evenodd" d="M1.63928 47.9531C1.35803 47.9531 1.07678 47.9531 0.795528 47.9531C0.249784 47.5802 0.109159 47.0802 0.373653 46.4531C5.18067 35.6204 9.96194 24.7766 14.7174 13.9219C15.0402 13.081 15.6496 12.6748 16.5455 12.7031C17.4089 12.7565 18.2214 12.9909 18.983 13.4063C21.4806 14.8721 23.7932 16.5909 25.9205 18.5625C28.2305 20.7158 30.3712 23.0126 32.3424 25.4531C33.1291 26.5211 33.8791 27.6149 34.5924 28.7344C35.1857 29.6861 35.545 30.7174 35.6705 31.8281C35.6602 32.6461 35.2852 33.2243 34.5455 33.5625C23.5557 38.3343 12.5869 43.1312 1.63928 47.9531ZM16.6393 14.7656C16.6613 14.7097 16.7082 14.6785 16.7799 14.6719C17.995 15.1465 19.1357 15.7559 20.2018 16.5C25.1118 20.1286 29.2837 24.4568 32.7174 29.4844C33.0847 30.172 33.4128 30.8752 33.7018 31.5938C33.0042 31.4804 32.3479 31.2305 31.733 30.8438C27.0673 27.7416 22.9892 23.9759 19.4987 19.5469C18.3047 18.0963 17.3516 16.5025 16.6393 14.7656ZM15.4205 17.2031C18.7315 22.2189 22.7627 26.6095 27.5143 30.375C28.6847 31.2573 29.9034 32.0698 31.1705 32.8125C29.2992 33.6777 27.4086 34.5058 25.4987 35.2969C24.612 34.504 23.7526 33.676 22.9205 32.8125C22.3858 32.5197 21.9014 32.5979 21.4674 33.0469C21.2621 33.4714 21.2934 33.8776 21.5612 34.2656C22.2017 34.9062 22.8424 35.5469 23.483 36.1875C20.4604 37.5036 17.4449 38.8316 14.4362 40.1719C12.3268 38.0625 10.2174 35.9531 8.10803 33.8438C9.44828 30.835 10.7763 27.8195 12.0924 24.7969C13.5143 26.2188 14.9361 27.6406 16.358 29.0625C16.9824 29.4404 17.498 29.331 17.9049 28.7344C17.9834 28.3786 17.9522 28.0349 17.8112 27.7031C16.1849 26.0924 14.5755 24.4675 12.983 22.8281C13.8143 20.9586 14.6268 19.0836 15.4205 17.2031ZM7.17053 35.8594C8.91856 37.5449 10.6373 39.2636 12.3268 41.0156C9.31812 42.3715 6.30249 43.7152 3.2799 45.0469C3.26848 44.8904 3.29973 44.7342 3.37365 44.5781C4.69257 41.6907 5.95819 38.7845 7.17053 35.8594Z" fill="#E7BA04"/>
<path opacity="0.93" fill-rule="evenodd" clip-rule="evenodd" d="M43.4531 13.1719C44.6723 13.1562 45.891 13.1719 47.1094 13.2188C47.7751 13.7131 47.8375 14.2756 47.2969 14.9063C47.1481 14.9871 46.9918 15.0496 46.8281 15.0938C45.6665 15.1797 44.5103 15.1485 43.3594 15C42.7228 14.3496 42.754 13.7402 43.4531 13.1719Z" fill="#E7BA04"/>
<path opacity="0.889" fill-rule="evenodd" clip-rule="evenodd" d="M45.8917 18.7031C47.0403 18.5952 47.4622 19.0952 47.1573 20.2031C46.5898 20.8253 46.0273 20.8253 45.4698 20.2031C45.2046 19.5781 45.3452 19.0781 45.8917 18.7031Z" fill="#E7BA04"/>
<path opacity="0.944" fill-rule="evenodd" clip-rule="evenodd" d="M39.8896 18.9844C42.2319 18.8427 43.4038 19.9365 43.4052 22.2656C43.0057 23.9154 41.9588 24.7122 40.2646 24.6563C38.4273 24.2556 37.5992 23.1149 37.7802 21.2344C38.0844 20.1023 38.7876 19.3523 39.8896 18.9844ZM40.2646 20.9531C41.2252 20.9077 41.5845 21.3451 41.3427 22.2656C40.7369 22.9084 40.2057 22.846 39.749 22.0781C39.6433 21.5709 39.8152 21.1959 40.2646 20.9531Z" fill="#E7BA04"/>
<path opacity="0.897" fill-rule="evenodd" clip-rule="evenodd" d="M33.9833 21.5156C34.9032 21.6382 35.2314 22.1382 34.9677 23.0156C34.625 23.4633 34.1719 23.6039 33.6083 23.4375C33.0579 22.9339 32.9953 22.3714 33.4208 21.75C33.6187 21.6708 33.8062 21.5927 33.9833 21.5156Z" fill="#E7BA04"/>
<path opacity="0.934" fill-rule="evenodd" clip-rule="evenodd" d="M41.4833 27.7969C43.6234 27.5567 45.4203 28.213 46.8739 29.7656C47.0643 30.8879 46.6112 31.341 45.5146 31.125C43.4521 29.3125 41.3896 29.3125 39.3271 31.125C38.1874 31.3604 37.7344 30.9073 37.9677 29.7656C38.9132 28.7069 40.085 28.0507 41.4833 27.7969Z" fill="#E7BA04"/>
<path opacity="0.886" fill-rule="evenodd" clip-rule="evenodd" d="M19.3584 29.9531C20.4061 29.953 20.7968 30.453 20.5302 31.4531C20.1348 31.9341 19.6505 32.0434 19.0771 31.7812C18.6335 31.3092 18.5866 30.7936 18.9365 30.2344C19.0914 30.1501 19.232 30.0563 19.3584 29.9531Z" fill="#E7BA04"/>
<path opacity="0.886" fill-rule="evenodd" clip-rule="evenodd" d="M40.3579 33.7031C41.2782 33.6702 41.7001 34.1076 41.6235 35.0156C41.2235 35.7071 40.6766 35.8477 39.9829 35.4375C39.5247 34.7178 39.6497 34.1396 40.3579 33.7031Z" fill="#E7BA04"/>
</g>
<defs>
<clipPath id="clip0_445_2315">
<rect width="48" height="48" fill="white"/>
</clipPath>
</defs>
</svg>
