<svg width="52" height="52" viewBox="0 0 52 52" fill="none" xmlns="http://www.w3.org/2000/svg">
<rect width="52" height="52" rx="12" fill="#EE4323"/>
<path d="M32.427 22.5029C32.361 22.4689 32.304 22.4339 32.237 22.3989C32.337 22.6399 32.369 22.8459 32.366 23.0289C32.401 22.8799 32.425 22.7269 32.428 22.5669C32.43 22.7649 32.406 22.9519 32.36 23.1249C32.3636 23.093 32.3656 23.0609 32.366 23.0289C32.311 23.2589 32.22 23.4729 32.098 23.6679C32.1187 23.6478 32.1384 23.6268 32.157 23.6049C31.437 24.8099 29.473 25.0729 28.504 23.8289C26.949 21.8309 28.536 19.6779 28.758 17.5629C29.036 14.9119 27.374 12.3379 25.312 10.7979C26.447 12.6349 24.951 15.0639 23.755 16.4229C22.595 17.7399 21.183 18.8399 19.903 20.0359C18.527 21.3209 17.204 22.6749 16.073 24.1829C13.811 27.2009 12.425 30.9979 13.443 34.7639C14.46 38.5279 17.72 40.9239 21.401 41.7709C19.544 40.9679 17.806 38.9279 17.802 36.8399C17.797 34.5639 19.239 32.6309 21.034 31.3609C20.818 32.1759 20.701 32.9209 21.235 33.6499C21.482 33.9831 21.8195 34.2384 22.2074 34.3852C22.5954 34.532 23.0173 34.5642 23.423 34.4779C25.342 34.0579 25.431 31.9479 24.293 30.7179C23.168 29.5009 22.079 28.1249 22.508 26.3599C22.723 25.4749 23.266 24.6459 23.955 24.0539C23.426 25.4449 24.93 26.8159 25.92 27.4989C27.639 28.6839 29.524 29.5799 31.105 30.9689C32.767 32.4289 33.995 34.4029 33.747 36.6929C33.478 39.1749 31.506 40.9009 29.294 41.7719C33.968 40.7399 38.798 37.1119 38.897 31.9279C38.979 27.6629 36.053 24.3809 32.429 22.5019L32.427 22.5029Z" fill="white"/>
</svg>
