<svg width="65" height="64" viewBox="0 0 65 64" fill="none" xmlns="http://www.w3.org/2000/svg">
<g clip-path="url(#clip0_402_5973)">
<path opacity="0.954" fill-rule="evenodd" clip-rule="evenodd" d="M64.4375 44.3125C64.4375 45.6459 64.4375 46.9791 64.4375 48.3125C63.8683 49.7661 62.7849 50.4745 61.1875 50.4375C60.9304 51.1601 60.6387 51.8684 60.3125 52.5625C61.6101 53.8606 61.756 55.2773 60.75 56.8125C59.9232 57.7651 58.9857 58.5776 57.9375 59.25C56.6735 59.6215 55.5901 59.3299 54.6875 58.375C54.5625 58.2916 54.4375 58.2916 54.3125 58.375C53.703 58.6824 53.078 58.9531 52.4375 59.1875C52.249 61.7493 50.874 62.8325 48.3125 62.4375C45.7629 62.8215 44.4087 61.7381 44.25 59.1875C43.5391 58.9573 42.8516 58.6656 42.1875 58.3125C41.0115 59.4608 39.6781 59.6899 38.1875 59C37.375 58.1875 36.5625 57.375 35.75 56.5625C35.027 55.0763 35.2145 53.722 36.3125 52.5C36.0197 51.7898 35.728 51.0815 35.4375 50.375C31.6351 50.3731 27.8435 50.2898 24.0625 50.125C23.2865 49.1298 23.4531 48.3381 24.5625 47.75C27.1039 47.6875 29.6455 47.6666 32.1875 47.6875C32.1667 46.645 32.1875 45.6034 32.25 44.5625C32.7355 43.016 33.798 42.2451 35.4375 42.25C35.7044 41.5751 35.996 40.9085 36.3125 40.25C35.106 38.9878 34.9185 37.5919 35.75 36.0625C36.5209 35.2916 37.2916 34.5209 38.0625 33.75C39.5865 32.9965 40.9406 33.2258 42.125 34.4375C42.8031 34.0359 43.5115 33.7025 44.25 33.4375C44.44 30.952 45.7943 29.8686 48.3125 30.1875C50.8076 29.8719 52.1619 30.9551 52.375 33.4375C53.1307 33.7865 53.9016 34.0573 54.6875 34.25C55.3926 33.4801 56.2676 33.1676 57.3125 33.3125C57.3125 29.1041 57.3125 24.8959 57.3125 20.6875C39.2291 20.6875 21.1459 20.6875 3.0625 20.6875C3.04166 28.6043 3.0625 36.521 3.125 44.4375C3.40231 45.9749 4.25649 47.0374 5.6875 47.625C8.47916 47.6666 11.2708 47.7084 14.0625 47.75C15.0405 48.1451 15.3114 48.8326 14.875 49.8125C14.7233 50.0061 14.5358 50.1519 14.3125 50.25C11.2708 50.3334 8.22916 50.3334 5.1875 50.25C3.0772 49.6816 1.6397 48.3691 0.875 46.3125C0.745775 45.8334 0.599942 45.3751 0.4375 44.9375C0.4375 32.2291 0.4375 19.5209 0.4375 6.8125C0.854076 4.8334 1.89574 3.2709 3.5625 2.125C4.08597 1.86722 4.62764 1.65888 5.1875 1.5C21.8125 1.41667 38.4375 1.41667 55.0625 1.5C57.9147 2.38638 59.519 4.32388 59.875 7.3125C59.9166 16.5625 59.9584 25.8125 60 35.0625C61.7835 36.6746 61.8876 38.3829 60.3125 40.1875C60.6527 40.8335 60.9445 41.5001 61.1875 42.1875C62.7499 42.2155 63.8332 42.9239 64.4375 44.3125ZM5.6875 4.0625C22.0209 4.04167 38.3542 4.0625 54.6875 4.125C55.9781 4.64114 56.7906 5.57864 57.125 6.9375C57.3064 10.6413 57.3689 14.3496 57.3125 18.0625C39.2291 18.0625 21.1459 18.0625 3.0625 18.0625C3.04168 14.4789 3.0625 10.8956 3.125 7.3125C3.40984 5.7592 4.264 4.67588 5.6875 4.0625ZM47.0625 32.8125C47.8969 32.7918 48.7303 32.8125 49.5625 32.875C49.6636 33.5521 49.7261 34.2396 49.75 34.9375C49.8541 35.375 50.125 35.6459 50.5625 35.75C51.8646 36.031 53.073 36.531 54.1875 37.25C54.6041 37.3334 55.0209 37.3334 55.4375 37.25C55.956 36.8358 56.456 36.3983 56.9375 35.9375C57.5815 36.519 58.2065 37.1231 58.8125 37.75C58.2396 38.239 57.7604 38.8015 57.375 39.4375C57.2916 39.7291 57.2916 40.0209 57.375 40.3125C58.1247 41.562 58.6665 42.8954 59 44.3125C59.1929 44.5473 59.422 44.7348 59.6875 44.875C60.3854 44.8989 61.0729 44.9614 61.75 45.0625C61.8125 45.9365 61.8332 46.8115 61.8125 47.6875C61.1445 47.6668 60.4779 47.6876 59.8125 47.75C59.3334 47.8959 59.0209 48.2084 58.875 48.6875C58.4626 50.1131 57.9419 51.4881 57.3125 52.8125C57.3144 53.0793 57.3769 53.3293 57.5 53.5625C57.9375 54 58.375 54.4375 58.8125 54.875C58.2855 55.5896 57.6605 56.1938 56.9375 56.6875C56.4272 56.3656 55.9689 55.9698 55.5625 55.5C55.3293 55.3769 55.0793 55.3144 54.8125 55.3125C53.3061 55.9815 51.7644 56.5856 50.1875 57.125C49.9391 57.2899 49.7933 57.519 49.75 57.8125C49.6876 58.4779 49.6668 59.1445 49.6875 59.8125C48.8115 59.8333 47.9365 59.8125 47.0625 59.75C46.9614 59.0729 46.8989 58.3854 46.875 57.6875C46.7347 57.422 46.5472 57.1929 46.3125 57C44.9366 56.6528 43.645 56.111 42.4375 55.375C41.9631 55.2704 41.5049 55.312 41.0625 55.5C40.625 55.9375 40.1875 56.375 39.75 56.8125C39.0984 56.2029 38.4943 55.557 37.9375 54.875C38.3273 54.3599 38.7648 53.8808 39.25 53.4375C39.2933 53.2228 39.3558 53.0144 39.4375 52.8125C39.1698 52.0233 38.8155 51.2733 38.375 50.5625C38.1245 49.8111 37.8745 49.0611 37.625 48.3125C37.4204 48.0238 37.1495 47.8363 36.8125 47.75C36.1562 47.7259 35.5104 47.6634 34.875 47.5625C34.7916 46.7291 34.7916 45.8959 34.875 45.0625C35.5939 44.9613 36.323 44.8988 37.0625 44.875C37.1974 44.7555 37.3431 44.6514 37.5 44.5625C37.9135 43.1131 38.4969 41.7381 39.25 40.4375C39.3334 40.0625 39.3334 39.6875 39.25 39.3125C38.8795 38.8168 38.4629 38.3584 38 37.9375C37.9166 37.8125 37.9166 37.6875 38 37.5625C38.5435 36.9981 39.106 36.4564 39.6875 35.9375C40.0814 36.2688 40.4564 36.623 40.8125 37C41.1237 37.2429 41.4779 37.3886 41.875 37.4375C43.3004 36.7149 44.7795 36.1106 46.3125 35.625C46.6012 35.4204 46.7887 35.1495 46.875 34.8125C46.9019 34.1356 46.9644 33.469 47.0625 32.8125Z" fill="url(#paint0_linear_402_5973)"/>
<path opacity="0.942" fill-rule="evenodd" clip-rule="evenodd" d="M11.1875 6.8125C14.6446 6.62423 16.3737 8.24923 16.375 11.6875C15.7044 14.3979 13.9753 15.5854 11.1875 15.25C9.10107 14.6441 7.97607 13.2484 7.8125 11.0625C8.02307 8.89602 9.14808 7.47935 11.1875 6.8125ZM11.6875 9.4375C10.2564 10.3058 10.1314 11.3266 11.3125 12.5C12.4289 12.9199 13.2206 12.5866 13.6875 11.5C13.7783 10.1111 13.1115 9.42363 11.6875 9.4375Z" fill="url(#paint1_linear_402_5973)"/>
<path opacity="0.945" fill-rule="evenodd" clip-rule="evenodd" d="M22.1885 6.8125C25.2445 6.61873 26.9945 8.0354 27.4385 11.0625C27.166 13.7101 25.7076 15.1267 23.0635 15.3125C20.0623 14.9984 18.6665 13.3316 18.876 10.3125C19.2836 8.46779 20.3878 7.30113 22.1885 6.8125ZM22.6885 9.4375C21.4361 10.0666 21.1653 10.9833 21.876 12.1875C22.822 12.9079 23.697 12.8246 24.501 11.9375C24.9661 10.3257 24.362 9.49235 22.6885 9.4375Z" fill="url(#paint2_linear_402_5973)"/>
<path opacity="0.954" fill-rule="evenodd" clip-rule="evenodd" d="M37.0628 6.8125C41.3963 6.79166 45.7297 6.8125 50.0628 6.875C52.9985 7.93418 53.9777 9.95501 53.0003 12.9375C52.3533 14.1258 51.3742 14.8965 50.0628 15.25C45.5153 15.3718 40.9735 15.3301 36.4378 15.125C33.7265 13.7204 32.9973 11.6163 34.2503 8.8125C34.9485 7.78824 35.886 7.12158 37.0628 6.8125ZM37.5628 9.4375C37.209 9.56379 36.8965 9.77211 36.6253 10.0625C36.0194 11.2004 36.2903 12.0546 37.4378 12.625C41.4794 12.7084 45.5212 12.7084 49.5628 12.625C50.0347 12.4447 50.3888 12.1322 50.6253 11.6875C50.9217 10.6346 50.5675 9.90544 49.5628 9.5C45.563 9.4375 41.563 9.41668 37.5628 9.4375Z" fill="url(#paint3_linear_402_5973)"/>
<path opacity="0.937" fill-rule="evenodd" clip-rule="evenodd" d="M20.1872 27.6875C21.5586 27.4965 22.1627 28.0797 21.9997 29.4375C21.1637 33.0312 20.2887 36.6146 19.3747 40.1875C18.6247 41.0209 17.8747 41.0209 17.1247 40.1875C16.9393 39.7872 16.8976 39.3705 16.9997 38.9375C17.8331 35.4375 18.6663 31.9375 19.4997 28.4375C19.6697 28.1221 19.8988 27.8721 20.1872 27.6875Z" fill="url(#paint4_linear_402_5973)"/>
<path opacity="0.932" fill-rule="evenodd" clip-rule="evenodd" d="M12.1866 28.5625C13.3495 28.5794 13.8704 29.1626 13.7491 30.3125C12.6849 31.6264 11.6224 32.9389 10.5616 34.25C11.4927 35.3899 12.4719 36.494 13.4991 37.5625C14.1155 38.746 13.7821 39.496 12.4991 39.8125C12.1577 39.7981 11.8452 39.694 11.5616 39.5C10.2024 38.016 8.88992 36.4952 7.62414 34.9375C7.49064 34.279 7.57398 33.654 7.87414 33.0625C8.79572 32.0995 9.67072 31.0995 10.4991 30.0625C11.0145 29.4833 11.577 28.9832 12.1866 28.5625Z" fill="url(#paint5_linear_402_5973)"/>
<path opacity="0.932" fill-rule="evenodd" clip-rule="evenodd" d="M26.1882 28.5625C26.5346 28.5526 26.8678 28.6151 27.1882 28.75C28.5468 30.15 29.8593 31.5875 31.1257 33.0625C31.6553 34.1416 31.4886 35.1 30.6257 35.9375C29.5168 37.0878 28.4543 38.2753 27.4382 39.5C25.9627 40.1278 25.2335 39.6486 25.2507 38.0625C26.2896 36.7526 27.3521 35.461 28.4382 34.1875C27.3992 32.9191 26.3367 31.6691 25.2507 30.4375C25.0368 29.5318 25.3493 28.9068 26.1882 28.5625Z" fill="url(#paint6_linear_402_5973)"/>
<path opacity="0.945" fill-rule="evenodd" clip-rule="evenodd" d="M47.4369 38.5625C51.1506 38.429 53.8381 40.0124 55.4994 43.3125C56.8601 47.4389 55.756 50.7096 52.1869 53.125C47.8838 55.0235 44.363 54.086 41.6244 50.3125C40.0183 47.1546 40.2683 44.1546 42.3744 41.3125C43.7586 39.8186 45.4461 38.902 47.4369 38.5625ZM47.8119 41.1875C45.7596 41.5936 44.3221 42.7604 43.4994 44.6875C42.788 47.6606 43.8089 49.8065 46.5619 51.125C50.0785 51.9606 52.3494 50.6481 53.3744 47.1875C53.4495 43.4083 51.5954 41.4083 47.8119 41.1875Z" fill="url(#paint7_linear_402_5973)"/>
<path opacity="0.893" fill-rule="evenodd" clip-rule="evenodd" d="M19.0624 47.6875C20.4597 47.7725 20.9389 48.4809 20.4999 49.8125C20.032 50.2824 19.4695 50.4283 18.8124 50.25C18.1113 49.8404 17.8822 49.2362 18.1249 48.4375C18.3885 48.1098 18.701 47.8598 19.0624 47.6875Z" fill="url(#paint8_linear_402_5973)"/>
</g>
<defs>
<linearGradient id="paint0_linear_402_5973" x1="32.4375" y1="1.4375" x2="32.4375" y2="62.5167" gradientUnits="userSpaceOnUse">
<stop stop-color="#E7B900"/>
<stop offset="1" stop-color="#E78B00"/>
</linearGradient>
<linearGradient id="paint1_linear_402_5973" x1="12.0938" y1="6.79784" x2="12.0938" y2="15.3054" gradientUnits="userSpaceOnUse">
<stop stop-color="#E7B900"/>
<stop offset="1" stop-color="#E78B00"/>
</linearGradient>
<linearGradient id="paint2_linear_402_5973" x1="23.147" y1="6.79501" x2="23.147" y2="15.3125" gradientUnits="userSpaceOnUse">
<stop stop-color="#E7B900"/>
<stop offset="1" stop-color="#E78B00"/>
</linearGradient>
<linearGradient id="paint3_linear_402_5973" x1="43.5114" y1="6.80469" x2="43.5114" y2="15.318" gradientUnits="userSpaceOnUse">
<stop stop-color="#E7B900"/>
<stop offset="1" stop-color="#E78B00"/>
</linearGradient>
<linearGradient id="paint4_linear_402_5973" x1="19.4855" y1="27.6522" x2="19.4855" y2="40.8125" gradientUnits="userSpaceOnUse">
<stop stop-color="#E7B900"/>
<stop offset="1" stop-color="#E78B00"/>
</linearGradient>
<linearGradient id="paint5_linear_402_5973" x1="10.6808" y1="28.5625" x2="10.6808" y2="39.8125" gradientUnits="userSpaceOnUse">
<stop stop-color="#E7B900"/>
<stop offset="1" stop-color="#E78B00"/>
</linearGradient>
<linearGradient id="paint6_linear_402_5973" x1="28.3067" y1="28.5615" x2="28.3067" y2="39.767" gradientUnits="userSpaceOnUse">
<stop stop-color="#E7B900"/>
<stop offset="1" stop-color="#E78B00"/>
</linearGradient>
<linearGradient id="paint7_linear_402_5973" x1="48.3224" y1="38.5547" x2="48.3224" y2="54.0782" gradientUnits="userSpaceOnUse">
<stop stop-color="#E7B900"/>
<stop offset="1" stop-color="#E78B00"/>
</linearGradient>
<linearGradient id="paint8_linear_402_5973" x1="19.3443" y1="47.6875" x2="19.3443" y2="50.3235" gradientUnits="userSpaceOnUse">
<stop stop-color="#E7B900"/>
<stop offset="1" stop-color="#E78B00"/>
</linearGradient>
<clipPath id="clip0_402_5973">
<rect width="64" height="64" fill="white" transform="translate(0.5)"/>
</clipPath>
</defs>
</svg>
