<svg width="22" height="22" viewBox="0 0 22 22" fill="none" xmlns="http://www.w3.org/2000/svg">
<path d="M12.0085 17.4167C11.8272 17.4159 11.6502 17.3614 11.4999 17.2601C11.3496 17.1587 11.2327 17.0151 11.164 16.8473C11.0953 16.6795 11.078 16.4952 11.1141 16.3175C11.1502 16.1398 11.2381 15.9769 11.3669 15.8492L15.5835 11.6509C15.6694 11.5657 15.7376 11.4643 15.7842 11.3526C15.8307 11.2409 15.8547 11.121 15.8547 11C15.8547 10.879 15.8307 10.7592 15.7842 10.6475C15.7376 10.5358 15.6694 10.4344 15.5835 10.3492L11.3669 6.15087C11.2809 6.06565 11.2127 5.96427 11.1662 5.85256C11.1197 5.74086 11.0957 5.62105 11.0957 5.50003C11.0957 5.37902 11.1197 5.25921 11.1662 5.14751C11.2127 5.0358 11.2809 4.93442 11.3669 4.8492C11.5386 4.67847 11.7709 4.58264 12.0131 4.58264C12.2553 4.58264 12.4876 4.67847 12.6594 4.8492L16.8669 9.0567C17.3818 9.57233 17.6711 10.2713 17.6711 11C17.6711 11.7288 17.3818 12.4277 16.8669 12.9434L12.6594 17.1509C12.5737 17.2358 12.4721 17.303 12.3604 17.3487C12.2488 17.3943 12.1292 17.4174 12.0085 17.4167Z" fill="#E7B900"/>
<path d="M5.59153 17.4167C5.41024 17.4159 5.23325 17.3614 5.08293 17.2601C4.93261 17.1587 4.81572 17.0151 4.74704 16.8473C4.67836 16.6795 4.66097 16.4952 4.69707 16.3175C4.73317 16.1398 4.82115 15.9769 4.94987 15.8492L9.79903 11L4.94987 6.15087C4.86395 6.06565 4.79576 5.96427 4.74922 5.85256C4.70268 5.74086 4.67872 5.62105 4.67872 5.50003C4.67872 5.37902 4.70268 5.25921 4.74922 5.14751C4.79576 5.0358 4.86395 4.93442 4.94987 4.8492C5.12162 4.67847 5.35395 4.58264 5.59612 4.58264C5.83829 4.58264 6.07062 4.67847 6.24237 4.8492L11.7424 10.3492C11.8283 10.4344 11.8965 10.5358 11.943 10.6475C11.9896 10.7592 12.0135 10.879 12.0135 11C12.0135 11.121 11.9896 11.2409 11.943 11.3526C11.8965 11.4643 11.8283 11.5657 11.7424 11.6509L6.24237 17.1509C6.15671 17.2358 6.05513 17.303 5.94345 17.3487C5.83176 17.3943 5.71217 17.4174 5.59153 17.4167Z" fill="#E7B900"/>
</svg>
