<svg width="32" height="32" viewBox="0 0 32 32" fill="none" xmlns="http://www.w3.org/2000/svg">
<path d="M16 0L29.8564 8V24L16 32L2.14359 24V8L16 0Z" fill="#171F28"/>
<g clip-path="url(#clip0_402_6390)">
<path d="M20.0833 9.58325H11.9167C11.1434 9.58418 10.4021 9.89177 9.85529 10.4385C9.30851 10.9853 9.00093 11.7267 9 12.4999V19.4999C9.00093 20.2732 9.30851 21.0145 9.85529 21.5613C10.4021 22.1081 11.1434 22.4157 11.9167 22.4166H20.0833C20.8566 22.4157 21.5979 22.1081 22.1447 21.5613C22.6915 21.0145 22.9991 20.2732 23 19.4999V12.4999C22.9991 11.7267 22.6915 10.9853 22.1447 10.4385C21.5979 9.89177 20.8566 9.58418 20.0833 9.58325ZM11.9167 10.7499H20.0833C20.4326 10.7506 20.7737 10.8558 21.0627 11.052C21.3517 11.2481 21.5754 11.5263 21.705 11.8507L17.2378 16.3184C16.9091 16.6459 16.464 16.8297 16 16.8297C15.536 16.8297 15.0909 16.6459 14.7622 16.3184L10.295 11.8507C10.4246 11.5263 10.6483 11.2481 10.9373 11.052C11.2263 10.8558 11.5674 10.7506 11.9167 10.7499ZM20.0833 21.2499H11.9167C11.4525 21.2499 11.0074 21.0655 10.6792 20.7374C10.351 20.4092 10.1667 19.964 10.1667 19.4999V13.3749L13.9373 17.1433C14.4849 17.6894 15.2266 17.9961 16 17.9961C16.7733 17.9961 17.5151 17.6894 18.0627 17.1433L21.8333 13.3749V19.4999C21.8333 19.964 21.649 20.4092 21.3208 20.7374C20.9926 21.0655 20.5475 21.2499 20.0833 21.2499Z" fill="white"/>
</g>
<defs>
<clipPath id="clip0_402_6390">
<rect width="14" height="14" fill="white" transform="translate(9 9)"/>
</clipPath>
</defs>
</svg>
