<svg width="18" height="18" viewBox="0 0 18 18" fill="none" xmlns="http://www.w3.org/2000/svg">
<g clip-path="url(#clip0_562_7370)">
<path d="M17.9655 4.15674L11.652 10.4702C10.948 11.1724 9.99431 11.5668 9 11.5668C8.00569 11.5668 7.05197 11.1724 6.348 10.4702L0.0345 4.15674C0.024 4.27524 0 4.38249 0 4.50024V13.5002C0.00119089 14.4944 0.396661 15.4476 1.09966 16.1506C1.80267 16.8536 2.7558 17.249 3.75 17.2502H14.25C15.2442 17.249 16.1973 16.8536 16.9003 16.1506C17.6033 15.4476 17.9988 14.4944 18 13.5002V4.50024C18 4.38249 17.976 4.27524 17.9655 4.15674Z" fill="#192734"/>
<path d="M10.5921 9.4095L17.4426 2.55825C17.1107 2.00799 16.6427 1.55253 16.0836 1.2358C15.5245 0.919067 14.8932 0.751755 14.2506 0.75H3.75059C3.10801 0.751755 2.47672 0.919067 1.91761 1.2358C1.35851 1.55253 0.890453 2.00799 0.558594 2.55825L7.40909 9.4095C7.83177 9.83049 8.40403 10.0669 9.00059 10.0669C9.59716 10.0669 10.1694 9.83049 10.5921 9.4095Z" fill="#192734"/>
</g>
<defs>
<clipPath id="clip0_562_7370">
<rect width="18" height="18" fill="white"/>
</clipPath>
</defs>
</svg>
