<svg width="52" height="52" viewBox="0 0 52 52" fill="none" xmlns="http://www.w3.org/2000/svg">
<rect width="52" height="52" rx="12" fill="#FF4D11"/>
<g clip-path="url(#clip0_504_1114)">
<path d="M14.3975 13.0711C13.8338 13.2488 13.4326 13.5992 13.1838 14.1172L13.0264 14.4473V16.25V18.0527L13.1838 18.3828C13.3818 18.8043 13.6967 19.1191 14.1182 19.3172L14.4482 19.4746H26.001H37.5537L37.8939 19.3121C38.3104 19.1141 38.615 18.8094 38.8182 18.3828L38.9756 18.0527V16.25V14.4473L38.8182 14.1172C38.615 13.6906 38.3104 13.3859 37.8939 13.1879L37.5537 13.0254L26.0771 13.0152C16.9061 13.0102 14.56 13.0203 14.3975 13.0711Z" fill="white"/>
<path d="M14.3162 21.7648C13.7627 21.9324 13.2752 22.4301 13.1025 23.0039C13.001 23.3289 13.001 23.466 13.0111 30.4434L13.0264 37.5527L13.1838 37.8828C13.3818 38.3043 13.6967 38.6191 14.1182 38.8172L14.4482 38.9746H18.9678H23.4873L23.8275 38.807C24.2439 38.6039 24.6248 38.2027 24.7924 37.7914L24.9092 37.502L24.9244 30.5246C24.9346 25.8984 24.9193 23.4508 24.8838 23.2629C24.7721 22.6434 24.3811 22.1203 23.8275 21.8512L23.5381 21.709L19.0439 21.6988C15.2557 21.6887 14.5143 21.6988 14.3162 21.7648Z" fill="white"/>
<path d="M28.3775 21.7648C27.9002 21.9121 27.4178 22.3793 27.2096 22.8922C27.0928 23.1766 27.0928 23.202 27.0928 25.4668C27.0928 27.7418 27.0928 27.752 27.2096 28.0414C27.3771 28.4527 27.758 28.8539 28.1744 29.057L28.5146 29.2246H33.0342H37.5537L37.8939 29.0621C38.3104 28.8641 38.615 28.5594 38.8182 28.1328L38.9756 27.8027L38.9908 25.5734C39.0061 23.4559 39.001 23.3289 38.9045 23.009C38.7217 22.4148 38.2443 21.9324 37.6654 21.7598C37.2896 21.648 28.7432 21.6531 28.3775 21.7648Z" fill="white"/>
<path d="M28.3775 31.5148C27.9002 31.6621 27.4178 32.1293 27.2096 32.6422C27.0928 32.9266 27.0928 32.952 27.0928 35.2168C27.0928 37.4918 27.0928 37.502 27.2096 37.7914C27.3771 38.2027 27.758 38.6039 28.1744 38.807L28.5146 38.9746H33.0342H37.5537L37.8939 38.8121C38.3104 38.6141 38.615 38.3094 38.8182 37.8828L38.9756 37.5527L38.9908 35.3234C39.0061 33.2059 39.001 33.0789 38.9045 32.759C38.7217 32.1648 38.2443 31.6824 37.6654 31.5098C37.2896 31.398 28.7432 31.4031 28.3775 31.5148Z" fill="white"/>
</g>
<defs>
<clipPath id="clip0_504_1114">
<rect width="26" height="26" fill="white" transform="translate(13 13)"/>
</clipPath>
</defs>
</svg>
