<svg width="48" height="48" viewBox="0 0 48 48" fill="none" xmlns="http://www.w3.org/2000/svg">
<g clip-path="url(#clip0_445_2273)">
<path opacity="0.949" fill-rule="evenodd" clip-rule="evenodd" d="M27.5165 -0.046875C28.1416 -0.046875 28.7665 -0.046875 29.3915 -0.046875C29.6078 0.0916305 29.7796 0.27913 29.9071 0.515625C29.8986 4.08072 29.0236 7.42448 27.2821 10.5469C25.8563 13.1297 24.0438 15.4109 21.8446 17.3906C21.774 20.2983 21.0865 23.0483 19.7821 25.6406C19.219 26.6413 18.5159 27.5319 17.6728 28.3125C17.0866 28.5292 16.6022 28.3885 16.2196 27.8906C15.859 26.4169 15.484 24.9481 15.0946 23.4844C14.579 23.7634 14.0946 23.7165 13.6415 23.3438C11.2821 20.9843 8.92278 18.625 6.5634 16.2656C6.19579 15.8096 6.14892 15.3253 6.42277 14.8125C4.95907 14.4232 3.49032 14.0482 2.01652 13.6875C1.51859 13.3049 1.37796 12.8205 1.59465 12.2344C2.88127 10.9105 4.3969 9.92616 6.14152 9.28125C8.20362 8.55213 10.3286 8.14587 12.5165 8.0625C16.5571 3.6034 21.5571 0.900276 27.5165 -0.046875ZM27.1415 2.10938C27.3602 2.10938 27.5791 2.10938 27.7978 2.10938C26.9987 7.41083 24.655 11.8952 20.7665 15.5625C18.6588 17.4045 16.5651 19.2638 14.4853 21.1406C12.5803 19.2826 10.6897 17.4076 8.8134 15.5156C8.75089 15.4531 8.75089 15.3907 8.8134 15.3281C11.0757 12.7844 13.3726 10.2688 15.704 7.78125C19.0059 4.86469 22.8184 2.97406 27.1415 2.10938ZM10.1728 10.3594C10.2421 10.3471 10.3046 10.3628 10.3603 10.4062C9.61027 11.25 8.86027 12.0938 8.11027 12.9375C7.06225 12.7614 6.031 12.5114 5.01652 12.1875C6.63416 11.2683 8.35291 10.6589 10.1728 10.3594ZM19.454 19.6406C19.243 21.5393 18.6649 23.3206 17.7196 24.9844C17.4471 23.9722 17.1814 22.9567 16.9228 21.9375C17.6924 21.0897 18.5361 20.3242 19.454 19.6406Z" fill="#E7BA04"/>
<path opacity="0.97" fill-rule="evenodd" clip-rule="evenodd" d="M47.9531 16.4531C47.9531 26.7656 47.9531 37.0781 47.9531 47.3906C47.7969 47.6093 47.6094 47.7968 47.3906 47.9531C43.7656 47.9531 40.1407 47.9531 36.5156 47.9531C36.2994 47.8147 36.1275 47.6272 36 47.3906C35.9375 37.0781 35.9375 26.7656 36 16.4531C36.1839 16.2061 36.4182 16.0342 36.7031 15.9375C40.2031 15.875 43.7032 15.875 47.2031 15.9375C47.4915 16.054 47.7416 16.226 47.9531 16.4531ZM38.0156 17.9531C40.6406 17.9531 43.2656 17.9531 45.8906 17.9531C45.8906 27.2656 45.8906 36.5782 45.8906 45.8906C43.2656 45.8906 40.6406 45.8906 38.0156 45.8906C38.0156 36.5782 38.0156 27.2656 38.0156 17.9531Z" fill="#E7BA04"/>
<path opacity="0.947" fill-rule="evenodd" clip-rule="evenodd" d="M-0.046875 29.3906C-0.046875 29.0782 -0.046875 28.7656 -0.046875 28.4531C0.679239 26.0419 1.60112 23.6981 2.71875 21.4219C3.92509 19.6654 5.56571 19.056 7.64062 19.5938C9.86878 20.5338 10.7907 22.2056 10.4062 24.6094C10.1171 25.7362 9.47644 26.5956 8.48438 27.1875C6.22794 28.3148 3.88419 29.2209 1.45312 29.9062C0.811901 30.0922 0.311901 29.9203 -0.046875 29.3906ZM2.67188 27.2344C3.1512 25.4994 3.82308 23.8432 4.6875 22.2656C5.58474 21.4004 6.56912 21.2911 7.64062 21.9375C8.50583 22.8348 8.6152 23.8192 7.96875 24.8906C7.50331 25.2928 6.98768 25.6209 6.42188 25.875C5.2008 26.4122 3.9508 26.8653 2.67188 27.2344Z" fill="#E7BA04"/>
<path opacity="0.965" fill-rule="evenodd" clip-rule="evenodd" d="M31.4523 47.9531C27.7961 47.9531 24.1398 47.9531 20.4836 47.9531C20.2305 47.8082 20.0586 47.5895 19.968 47.2969C19.9313 40.4217 19.9625 33.5467 20.0617 26.6719C20.1627 26.3519 20.3658 26.1175 20.6711 25.9688C24.2336 25.9062 27.7961 25.9062 31.3586 25.9688C31.6612 26.1153 31.8644 26.3497 31.968 26.6719C32.0305 33.5156 32.0305 40.3594 31.968 47.2031C31.8514 47.4915 31.6795 47.7415 31.4523 47.9531ZM22.0773 27.9844C24.7023 27.9844 27.3273 27.9844 29.9523 27.9844C29.9523 33.9532 29.9523 39.9218 29.9523 45.8906C27.2961 45.8906 24.6398 45.8906 21.9836 45.8906C22.058 39.9222 22.0893 33.9534 22.0773 27.9844Z" fill="#E7BA04"/>
<path opacity="0.969" fill-rule="evenodd" clip-rule="evenodd" d="M15.4226 47.9531C11.7664 47.9531 8.11012 47.9531 4.45387 47.9531C4.22668 47.7415 4.0548 47.4915 3.93824 47.2031C3.84622 43.6038 3.87746 40.0101 4.03199 36.4219C4.17262 36.2813 4.31324 36.1406 4.45387 36C8.11012 35.9375 11.7664 35.9375 15.4226 36C15.6927 36.1173 15.8646 36.3203 15.9382 36.6094C16.0008 40.1719 16.0008 43.7344 15.9382 47.2969C15.8476 47.5895 15.6757 47.8082 15.4226 47.9531ZM5.95387 38.0156C8.61011 38.0156 11.2664 38.0156 13.9226 38.0156C13.9226 40.6406 13.9226 43.2656 13.9226 45.8906C11.2664 45.8906 8.61011 45.8906 5.95387 45.8906C5.95387 43.2656 5.95387 40.6406 5.95387 38.0156Z" fill="#E7BA04"/>
</g>
<defs>
<clipPath id="clip0_445_2273">
<rect width="48" height="48" fill="white"/>
</clipPath>
</defs>
</svg>
