<svg width="52" height="52" viewBox="0 0 52 52" fill="none" xmlns="http://www.w3.org/2000/svg">
<rect width="52" height="52" rx="12" fill="#FF9A00"/>
<g clip-path="url(#clip0_504_1121)">
<path d="M20.2195 10.4272C19.6445 10.6085 19.207 11.0522 18.9945 11.6647C18.9133 11.9022 18.8945 12.221 18.8945 13.1772V14.396H28.932H38.9633L38.9445 13.096C38.9258 11.9022 38.9133 11.7772 38.782 11.4897C38.5945 11.0835 38.207 10.6897 37.807 10.5085L37.4883 10.3647L28.9883 10.3522C21.9758 10.346 20.4383 10.3585 20.2195 10.4272ZM30.5883 12.5147C30.807 12.7397 30.8195 12.9147 30.6133 13.1147L30.4633 13.271H28.9695C27.5508 13.271 27.4633 13.2647 27.307 13.1397C27.0945 12.971 27.0883 12.696 27.3008 12.4897L27.4508 12.3335H28.9258H30.407L30.5883 12.5147Z" fill="white"/>
<path d="M10.5812 13.6834C9.93748 13.8584 8.83123 14.5584 8.43123 15.0396C8.00623 15.5584 7.67498 16.4709 7.71873 16.9834L7.73748 17.2021L10.375 15.6584C11.8312 14.8084 13.0187 14.0896 13.0187 14.0646C13.0187 13.9959 12.5062 13.7709 12.1125 13.6709C11.7062 13.5584 11.0187 13.5646 10.5812 13.6834Z" fill="white"/>
<path d="M10.8384 16.3897C9.38213 17.246 8.16338 17.996 8.12588 18.0522C8.09463 18.1085 8.08213 18.2335 8.09463 18.321C8.13213 18.571 16.1759 32.521 16.3946 32.7272C16.5009 32.821 16.6321 32.896 16.6884 32.896C16.8259 32.896 21.8071 30.0397 22.0696 29.8085C22.2321 29.671 22.2759 29.5835 22.2571 29.4647C22.2259 29.2585 14.0509 15.0897 13.8821 14.9397C13.8134 14.8835 13.6946 14.8335 13.6196 14.8335C13.5509 14.8335 12.2946 15.5335 10.8384 16.3897ZM13.2821 17.471C13.4384 17.596 19.7696 28.6147 19.7696 28.7647C19.7696 28.946 19.5009 29.2085 19.3134 29.2085C19.2259 29.2085 19.1009 29.1585 19.0321 29.096C18.8446 28.9397 12.5196 18.0022 12.5196 17.8397C12.5196 17.5147 13.0259 17.2772 13.2821 17.471ZM11.2009 18.546C11.3884 18.6522 17.7634 29.671 17.7696 29.9022C17.7696 30.2522 17.3571 30.4522 17.0946 30.221C16.9196 30.071 10.5821 19.071 10.5821 18.9147C10.5821 18.746 10.8134 18.4585 10.9446 18.4585C11.0009 18.4647 11.1196 18.5022 11.2009 18.546Z" fill="white"/>
<path d="M18.893 18.521V21.7147L20.9117 25.2272C23.7992 30.2335 23.7055 30.071 23.768 30.571C23.793 30.8022 23.9367 32.4835 24.0867 34.3085C24.3492 37.5772 24.3555 37.6335 24.243 37.8835C24.0242 38.371 23.4617 38.771 23.0055 38.771C22.6242 38.7647 22.393 38.621 19.468 36.6022L18.8867 36.196L18.9055 38.5335C18.9242 40.8272 18.9242 40.871 19.0742 41.1897C19.2555 41.596 19.7055 42.0272 20.1117 42.1835C20.4117 42.296 20.6992 42.3022 28.9867 42.3022H37.5492L37.843 42.1585C38.218 41.971 38.5867 41.6022 38.7742 41.221L38.9242 40.9272L38.943 28.1272L38.9555 15.3335H28.9242H18.893V18.521ZM29.843 17.671C31.8305 18.0647 33.368 19.496 33.868 21.4272C34.0242 22.021 34.0242 23.271 33.8742 23.8272C33.593 24.871 33.2367 25.4897 32.4867 26.246C31.993 26.7397 31.843 26.8522 31.268 27.1335C30.4805 27.5147 30.0555 27.6335 29.268 27.6835C26.2055 27.8835 23.7055 25.3772 23.9117 22.3085C24.043 20.4335 25.143 18.8397 26.8492 18.0522C27.7992 17.6147 28.8555 17.4772 29.843 17.671ZM32.1117 29.3647C32.268 29.5147 32.268 29.521 32.268 30.7397C32.268 31.9585 32.268 31.9647 32.1117 32.1147L31.9617 32.271H28.9492C25.9367 32.271 25.9305 32.271 25.7867 32.1335C25.643 32.0022 25.643 31.9772 25.643 30.7585C25.643 29.521 25.643 29.5147 25.7992 29.3647L25.9492 29.2085H28.9555H31.9617L32.1117 29.3647ZM32.1117 33.8022C32.268 33.9522 32.268 33.9585 32.268 35.1772V36.4085L32.0867 36.5897L31.9055 36.771H28.9242H25.9492L25.7992 36.6147C25.643 36.4647 25.643 36.4585 25.643 35.2085C25.643 33.9585 25.643 33.9522 25.7992 33.8022L25.9492 33.646H28.9555H31.9617L32.1117 33.8022ZM30.5867 39.1397C30.8055 39.3647 30.818 39.5397 30.6117 39.7397L30.4617 39.896H28.968C27.5492 39.896 27.4617 39.8897 27.3055 39.7647C27.093 39.596 27.0867 39.321 27.2992 39.1147L27.4492 38.9585H28.9242H30.4055L30.5867 39.1397Z" fill="white"/>
<path d="M28.1063 18.6085C26.5813 18.9585 25.4063 20.0335 24.9563 21.4897C24.775 22.0897 24.7313 22.9272 24.8563 23.5085C24.9563 23.9772 25.2938 24.746 25.5188 25.021L25.65 25.1772L25.75 25.021C25.8063 24.9335 26.05 24.6647 26.2938 24.421C27.6375 23.0772 29.7938 22.971 31.3688 24.171C31.5813 24.3272 31.8625 24.6022 31.9938 24.771C32.125 24.946 32.2625 25.0772 32.3 25.0647C32.425 25.0272 32.9 23.9835 32.9875 23.5522C33.35 21.8147 32.5688 20.0272 31.05 19.096C30.2688 18.6147 28.9938 18.4085 28.1063 18.6085ZM29.7625 19.621C30.7813 20.171 30.9438 21.671 30.075 22.4147C29.0375 23.3085 27.3625 22.6585 27.225 21.3147C27.0813 19.9335 28.55 18.9585 29.7625 19.621Z" fill="white"/>
<path d="M28.5381 20.3957C27.8881 20.7895 28.0944 21.7957 28.8381 21.877C29.3131 21.927 29.7694 21.5395 29.7694 21.0832C29.7694 20.8395 29.5631 20.5082 29.3256 20.3832C29.0506 20.2395 28.7881 20.2395 28.5381 20.3957Z" fill="white"/>
<path d="M28.2067 24.2958C27.5692 24.477 27.038 24.8208 26.6192 25.327C26.2692 25.7458 26.2505 25.7958 26.413 25.9458C27.1567 26.627 28.6505 26.9833 29.7692 26.7458C30.2567 26.6458 31.288 26.177 31.4755 25.977C31.5755 25.8645 31.5692 25.8395 31.3692 25.5458C30.6755 24.5145 29.3255 23.9833 28.2067 24.2958Z" fill="white"/>
<path d="M26.582 30.771V31.396H28.957H31.332V30.771V30.146H28.957H26.582V30.771Z" fill="white"/>
<path d="M26.582 35.2085V35.8335H28.957H31.332V35.2085V34.5835H28.957H26.582V35.2085Z" fill="white"/>
<path d="M22.7072 30.4774C22.5759 30.6024 17.2322 33.6524 17.0822 33.6899C16.8072 33.7649 16.9072 33.8462 18.4759 34.8649L19.7384 35.6899L20.2072 35.2712C20.4697 35.0462 20.8134 34.7649 20.9822 34.6524C21.3822 34.3774 22.1947 34.0024 22.7572 33.8399C23.0009 33.7649 23.2072 33.6962 23.2072 33.6899C23.2072 33.6837 23.1384 32.9712 23.0509 32.1149C22.9634 31.2524 22.8947 30.5149 22.8947 30.4712C22.8947 30.3712 22.8197 30.3774 22.7072 30.4774Z" fill="white"/>
<path d="M22.6682 34.8272C22.387 34.921 22.0057 35.096 21.8245 35.2085C21.487 35.4147 20.7182 36.0147 20.5807 36.1772C20.5245 36.246 20.7307 36.4147 21.7307 37.0772C22.4057 37.5272 22.9932 37.896 23.037 37.896C23.0807 37.896 23.1995 37.8147 23.2932 37.7147L23.4682 37.5272L23.3995 36.4772C23.3057 35.0897 23.262 34.646 23.212 34.646C23.1932 34.646 22.9432 34.7272 22.6682 34.8272Z" fill="white"/>
</g>
<defs>
<clipPath id="clip0_504_1121">
<rect width="32" height="32" fill="white" transform="translate(7.33203 10.333)"/>
</clipPath>
</defs>
</svg>
