<svg width="52" height="52" viewBox="0 0 52 52" fill="none" xmlns="http://www.w3.org/2000/svg">
<path opacity="0.947" fill-rule="evenodd" clip-rule="evenodd" d="M5.94141 4.01169C11.1974 3.96183 16.4447 4.01261 21.6836 4.16404C21.8251 4.28298 21.9098 4.43532 21.9375 4.62107C21.9713 6.00909 22.0052 7.39711 22.0391 8.78513C24.9326 9.69452 26.1174 11.658 25.5938 14.6758C25.0138 16.4579 23.8119 17.5412 21.9883 17.9258C22.0052 19.348 21.9883 20.7699 21.9375 22.1914C21.8529 22.4791 21.6666 22.6654 21.3789 22.75C19.6185 22.8177 17.858 22.8177 16.0977 22.75C15.8099 22.6654 15.6237 22.4791 15.5391 22.1914C15.255 19.8406 13.9516 18.842 11.6289 19.1953C10.2945 19.7869 9.60042 20.8195 9.54688 22.2929C9.46225 22.513 9.3099 22.6654 9.08985 22.75C7.21867 22.8488 5.35669 22.815 3.50391 22.6484C3.41928 22.5638 3.33463 22.4791 3.25 22.3945C3.18229 17.181 3.18229 11.9674 3.25 6.75388C3.62306 5.3145 4.52019 4.40044 5.94141 4.01169ZM6.2461 5.73826C10.918 5.73826 15.5898 5.73826 20.2617 5.73826C20.2448 7.12669 20.2617 8.51471 20.3125 9.90232C20.3922 10.0837 20.5107 10.2361 20.668 10.3594C22.6338 10.4258 23.751 11.4244 24.0195 13.3554C23.7263 15.3236 22.5753 16.3562 20.5664 16.4531C20.4444 16.5448 20.3597 16.6632 20.3125 16.8086C20.2617 18.23 20.2448 19.6519 20.2617 21.0742C19.2123 21.0742 18.1627 21.0742 17.1133 21.0742C16.5247 18.6964 15.0013 17.4438 12.543 17.3164C10.1728 17.4868 8.64936 18.7056 7.97266 20.9726C6.92536 21.0741 5.87588 21.1079 4.82422 21.0742C4.80729 16.6053 4.82422 12.1366 4.875 7.66794C4.92459 6.72313 5.38162 6.0799 6.2461 5.73826Z" fill="#212A35"/>
<path opacity="0.949" fill-rule="evenodd" clip-rule="evenodd" d="M30.4178 12.543C35.5638 12.526 40.7095 12.543 45.8553 12.5938C47.2833 12.9722 48.2142 13.8693 48.6483 15.2852C48.716 25.2383 48.716 35.1914 48.6483 45.1446C48.2937 46.5825 47.3966 47.4796 45.9569 47.836C35.8683 47.9037 25.7797 47.9037 15.6912 47.836C14.2186 47.4467 13.2876 46.5156 12.8983 45.043C12.7976 39.821 12.8315 34.6074 12.9998 29.4024C13.0915 29.2804 13.21 29.1957 13.3553 29.1485C14.7772 29.1146 16.199 29.0807 17.6209 29.0469C18.6543 25.9906 20.7532 24.8396 23.9178 25.5938C25.4903 26.2678 26.4382 27.4358 26.7615 29.0977C27.811 29.0977 28.8605 29.0977 29.91 29.0977C29.8632 27.8011 29.9139 26.5146 30.0623 25.2383C30.1469 25.1537 30.2316 25.069 30.3162 24.9844C32.8287 24.776 33.8951 23.4387 33.5155 20.9727C32.9097 19.5909 31.8433 18.8969 30.3162 18.8906C30.1589 18.7673 30.0405 18.615 29.9608 18.4336C29.893 16.6732 29.893 14.9127 29.9608 13.1524C30.0216 12.8727 30.1739 12.6695 30.4178 12.543ZM31.6365 14.2695C36.3085 14.2526 40.9804 14.2695 45.6522 14.3203C46.5187 14.6487 46.9757 15.275 47.0233 16.1992C47.074 20.4986 47.091 24.798 47.074 29.0977C45.6518 29.0807 44.2299 29.0977 42.8084 29.1485C42.5883 29.2331 42.436 29.3854 42.3514 29.6055C41.992 32.2977 40.5193 33.2625 37.9334 32.5C36.8323 31.771 36.2737 30.7384 36.2576 29.4024C36.1135 29.3049 35.9612 29.2203 35.8006 29.1485C34.413 29.0977 33.025 29.0807 31.6365 29.0977C31.6365 28.2174 31.6365 27.3373 31.6365 26.457C33.3038 26.1273 34.4718 25.1794 35.1405 23.6133C35.8272 21.3753 35.2686 19.5302 33.4647 18.0781C32.8991 17.7528 32.3067 17.4989 31.6873 17.3164C31.6365 16.3014 31.6197 15.2858 31.6365 14.2695ZM21.5819 27.0664C23.8924 26.9901 25.1281 28.1073 25.2889 30.418C25.4122 30.5753 25.5645 30.6937 25.7459 30.7735C27.1336 30.8242 28.5215 30.8412 29.91 30.8242C29.91 31.8737 29.91 32.9232 29.91 33.9727C27.5334 34.5385 26.2809 36.045 26.1522 38.4922C26.3016 40.9093 27.5372 42.4497 29.8592 43.1133C29.91 44.1283 29.9268 45.1439 29.91 46.1602C25.238 46.1771 20.5661 46.1602 15.8944 46.1094C15.2244 45.8796 14.8011 45.4225 14.6248 44.7383C14.574 40.1004 14.5571 35.4624 14.574 30.8242C16.0397 30.8716 17.4954 30.8208 18.9412 30.6719C19.2768 30.2849 19.4291 29.8279 19.3983 29.3008C19.7385 28.1651 20.4664 27.4203 21.5819 27.0664ZM31.6365 31.332C32.686 31.332 33.7355 31.332 34.785 31.332C35.3526 33.7106 36.8591 34.9633 39.3045 35.0899C41.7532 35.0245 43.2936 33.8057 43.9256 31.4336C44.9729 31.3321 46.0224 31.2983 47.074 31.332C47.091 35.6317 47.074 39.9311 47.0233 44.2305C46.9943 45.173 46.5373 45.7992 45.6522 46.1094C40.9804 46.1602 36.3085 46.1771 31.6365 46.1602C31.6535 44.7379 31.6365 43.316 31.5858 41.8945C31.4672 41.776 31.3488 41.6576 31.2303 41.5391C28.7205 41.3329 27.6541 39.9957 28.0311 37.5274C28.5929 36.2229 29.5916 35.5627 31.0272 35.5469C31.2129 35.5192 31.3653 35.4345 31.4842 35.293C31.6327 33.9827 31.6835 32.6624 31.6365 31.332Z" fill="#212A35"/>
</svg>
