<svg width="52" height="52" viewBox="0 0 52 52" fill="none" xmlns="http://www.w3.org/2000/svg">
<rect width="52" height="52" rx="12" fill="black"/>
<path d="M31.5937 10.0436C31.2375 10.0936 30.4875 10.3248 29.9812 10.5373C27.75 11.4936 26.0812 13.4936 25.5875 15.8123C25.5 16.2248 25.4687 17.4061 25.5375 17.5873C25.6062 17.7686 26.3437 17.7061 27.2187 17.4373C29.3125 16.7998 31.1125 14.8936 31.7687 12.6248C31.9812 11.9061 32.0875 11.0248 32.0312 10.4623C31.9875 9.96859 32.0125 9.98734 31.5937 10.0436Z" fill="white"/>
<path d="M19.35 17.5937C17.6438 17.9187 16.0625 18.8437 14.7125 20.3187C13.4875 21.6562 12.775 23.2375 12.475 25.2812C12.0938 27.925 12.5375 31.025 13.7188 33.9687C14.6688 36.3312 16.2125 38.7812 17.6813 40.2562C18.9813 41.5562 20.0813 42.0687 21.3688 41.9812C22.025 41.9375 22.3375 41.8437 23.4875 41.3687C24.5688 40.9187 25.1313 40.7625 26.0125 40.6875C27.2688 40.575 28.2688 40.7562 29.675 41.3687C30.7438 41.8312 31.0875 41.9312 31.7188 41.975C33.6 42.1062 35.3313 40.775 37.4688 37.5375C37.8563 36.95 38.3438 36.1562 38.55 35.7812C38.9188 35.1187 39.625 33.625 39.625 33.5125C39.625 33.4812 39.4438 33.3812 39.225 33.2875C38.2813 32.8812 37.0688 31.875 36.4375 30.9625C34.7563 28.5312 34.7 25.3687 36.3 22.9437C36.675 22.375 37.5625 21.5062 38.175 21.1L38.7375 20.725L38.3688 20.3062C37.1063 18.8875 35.3813 17.8937 33.6938 17.6C32.2688 17.3562 30.975 17.5375 29.0625 18.25C27.7875 18.725 27.3375 18.8312 26.5313 18.8312C25.6875 18.825 25.275 18.7312 23.7375 18.2062C23.1 17.9875 22.325 17.7562 22.0188 17.6875C21.2625 17.5187 19.9938 17.475 19.35 17.5937Z" fill="white"/>
</svg>
