<svg width="53" height="52" viewBox="0 0 53 52" fill="none" xmlns="http://www.w3.org/2000/svg">
<g clip-path="url(#clip0_732_2818)">
<path opacity="0.911" fill-rule="evenodd" clip-rule="evenodd" d="M23.5684 -0.0507812C23.873 -0.0507812 24.1777 -0.0507812 24.4824 -0.0507812C24.7059 0.128217 24.8244 0.365196 24.8379 0.660156C24.8918 1.56153 24.9764 2.45867 25.0918 3.35156C24.7846 4.28607 24.2599 4.43841 23.5176 3.80859C23.3878 2.7925 23.2694 1.77688 23.1621 0.761719C23.2076 0.439505 23.343 0.168671 23.5684 -0.0507812Z" fill="#212A35"/>
<path opacity="0.937" fill-rule="evenodd" clip-rule="evenodd" d="M33.5229 -0.0507812C34.0646 -0.0507812 34.6063 -0.0507812 35.1479 -0.0507812C36.969 0.574905 37.7984 1.86137 37.6362 3.80859C37.4814 4.35515 37.2444 4.86296 36.9253 5.33203C35.4526 7.27865 33.98 9.22526 32.5073 11.1719C34.5351 11.6895 35.483 12.9929 35.3511 15.082C37.5611 15.3272 38.6444 16.546 38.6011 18.7383C40.2102 18.7405 41.3106 19.4853 41.9018 20.9727C42.2022 22.021 42.0668 23.0027 41.4956 23.918C39.6505 26.3724 37.8055 28.8268 35.9604 31.2812C39.0443 31.2869 42.125 31.3546 45.2026 31.4844C46.6753 31.8737 47.6063 32.8047 47.9956 34.2773C48.11 36.7459 48.1607 39.2173 48.1479 41.6914C48.1607 44.1655 48.11 46.6369 47.9956 49.1055C47.5425 50.5898 46.5777 51.5378 45.1011 51.9492C43.8823 51.9492 42.6636 51.9492 41.4448 51.9492C40.9954 51.5634 40.9278 51.1063 41.2417 50.5781C42.4548 50.4668 43.6735 50.3652 44.8979 50.2734C45.5919 49.9857 46.0829 49.4948 46.3706 48.8008C46.5367 44.2337 46.5706 39.6634 46.4722 35.0898C46.3208 34.1245 45.7962 33.4643 44.8979 33.1094C43.0749 32.9936 41.2468 32.9428 39.4136 32.957C37.7208 32.974 36.0282 32.9909 34.3354 33.0078C30.8734 35.828 26.9801 36.6405 22.6558 35.4453C21.0293 34.9203 19.5736 34.1078 18.2886 33.0078C15.1063 32.9401 11.9239 32.9401 8.74169 33.0078C7.56541 33.2104 6.90526 33.9045 6.76122 35.0898C6.69351 39.4909 6.69351 43.892 6.76122 48.293C6.99399 49.5076 7.72186 50.2015 8.94482 50.375C18.8641 50.4088 28.7833 50.4427 38.7026 50.4766C39.2377 50.967 39.2377 51.458 38.7026 51.9492C28.5126 51.9492 18.3224 51.9492 8.13232 51.9492C6.65572 51.5378 5.69088 50.5898 5.23779 49.1055C5.07271 44.4361 5.03884 39.7643 5.13622 35.0898C5.31685 33.2511 6.2817 32.0493 8.03075 31.4844C10.9053 31.3551 13.7828 31.2873 16.6636 31.2812C15.7173 30.0829 15.0232 28.7457 14.5815 27.2695C13.4643 23.0716 12.3472 18.8737 11.23 14.6758C11.0399 12.8046 11.734 11.3658 13.312 10.3594C14.5416 9.83049 15.5741 10.0844 16.4097 11.1211C17.6962 12.8815 18.9825 14.642 20.269 16.4023C21.831 14.345 23.4052 12.2969 24.9917 10.2578C25.4404 10.0458 25.8297 10.1305 26.1597 10.5117C26.2426 10.8635 26.2087 11.2021 26.0581 11.5273C24.4501 13.6094 22.8419 15.6914 21.2339 17.7734C20.3274 18.2039 19.5318 18.0515 18.8472 17.3164C17.5471 15.4781 16.2099 13.6669 14.8354 11.8828C14.4802 11.683 14.1416 11.717 13.8198 11.9844C12.7939 12.8626 12.54 13.929 13.0581 15.1836C14.0557 18.8693 15.0374 22.5594 16.0034 26.2539C16.872 29.5603 18.8524 31.947 21.9448 33.4141C26.7834 35.2724 30.9643 34.3075 34.4878 30.5195C36.4906 27.8736 38.4541 25.1991 40.3784 22.4961C40.4989 20.9915 39.8049 20.2976 38.2964 20.4141C37.9164 20.5906 37.5948 20.8445 37.3315 21.1758C36.5638 22.3215 35.7344 23.4218 34.8433 24.4766C33.7666 24.6855 33.4111 24.2623 33.7768 23.207C34.8655 21.8137 35.9149 20.3918 36.9253 18.9414C37.0268 17.1134 36.1974 16.4532 34.437 16.9609C33.5368 18.0677 32.6735 19.2018 31.8472 20.3633C31.4234 20.8577 30.9664 20.8916 30.4761 20.4648C30.3009 20.2153 30.2501 19.9445 30.3237 19.6523C31.3341 18.2019 32.3835 16.7801 33.4722 15.3867C33.9894 14.2301 33.6679 13.4007 32.5073 12.8984C31.7725 12.7326 31.18 12.9526 30.73 13.5586C30.1714 14.3203 29.6128 15.082 29.0542 15.8438C28.3047 16.1967 27.8307 15.9767 27.6323 15.1836C27.7913 14.832 27.9774 14.4935 28.1909 14.168C30.8134 10.7511 33.3862 7.29798 35.9097 3.80859C36.1945 2.7703 35.8391 2.04244 34.8433 1.625C34.3415 1.51932 33.8676 1.58703 33.4214 1.82812C31.6501 4.03382 29.9404 6.28512 28.2925 8.58203C27.8785 8.94095 27.4384 8.97481 26.9722 8.68359C26.7468 8.21956 26.7806 7.77945 27.0737 7.36328C28.8123 5.04907 30.5896 2.76391 32.4058 0.507812C32.7629 0.271558 33.1353 0.0853598 33.5229 -0.0507812Z" fill="#212A35"/>
<path opacity="0.904" fill-rule="evenodd" clip-rule="evenodd" d="M19.1999 2.082C19.5531 2.04993 19.8917 2.10071 20.2155 2.23435C21.109 2.9583 21.9722 3.72001 22.8053 4.5195C22.9902 5.34917 22.6685 5.7385 21.8405 5.68747C20.8289 4.95254 19.8641 4.15696 18.946 3.30075C18.7449 2.83692 18.8296 2.43067 19.1999 2.082Z" fill="#212A35"/>
<path opacity="0.917" fill-rule="evenodd" clip-rule="evenodd" d="M20.7256 6.44922C21.4694 6.46485 21.7911 6.83724 21.6904 7.56641C21.6107 7.7478 21.4923 7.90014 21.335 8.02344C20.1579 8.22989 18.973 8.2976 17.7803 8.22656C17.4864 7.93115 17.4018 7.57568 17.5264 7.16016C17.5772 6.97396 17.6957 6.85547 17.8818 6.80469C18.8423 6.67444 19.7902 6.55595 20.7256 6.44922Z" fill="#212A35"/>
<path opacity="0.927" fill-rule="evenodd" clip-rule="evenodd" d="M12.3976 37.1211C13.5491 37.1041 14.7002 37.1211 15.8507 37.1719C16.4695 37.4028 16.6557 37.8261 16.4093 38.4414C16.3176 38.5634 16.1992 38.6481 16.0539 38.6953C15.1404 38.7461 14.2264 38.763 13.3117 38.7461C13.3117 39.457 13.3117 40.168 13.3117 40.8789C14.0911 40.8621 14.8698 40.8789 15.6476 40.9297C16.1967 41.1308 16.3828 41.5202 16.2062 42.0977C16.0877 42.2162 15.9693 42.3346 15.8507 42.4531C15.005 42.5039 14.1587 42.5208 13.3117 42.5039C13.3117 43.2149 13.3117 43.9258 13.3117 44.6367C14.2264 44.6199 15.1404 44.6367 16.0539 44.6875C16.7466 45.2353 16.7127 45.7432 15.9523 46.211C14.7336 46.2787 13.5148 46.2787 12.2961 46.211C12.1147 46.1312 11.9623 46.0128 11.839 45.8555C11.6717 43.1899 11.6377 40.5153 11.7375 37.832C11.8409 37.4751 12.0609 37.2381 12.3976 37.1211Z" fill="#212A35"/>
<path opacity="0.929" fill-rule="evenodd" clip-rule="evenodd" d="M21.6387 37.1211C22.2405 37.0576 22.6636 37.2946 22.9082 37.832C23.7685 40.2434 24.6487 42.6471 25.5489 45.043C25.6459 46.1505 25.1889 46.472 24.1778 46.0078C23.9652 45.5227 23.7621 45.0319 23.5684 44.5351C22.485 44.3998 21.4018 44.3998 20.3184 44.5351C20.1223 45.0051 19.936 45.4791 19.7598 45.957C19.2052 46.3933 18.7313 46.3256 18.3379 45.7539C18.2702 45.5169 18.2702 45.2799 18.3379 45.043C19.252 42.5716 20.166 40.1002 21.0801 37.6289C21.2229 37.401 21.4091 37.2318 21.6387 37.1211ZM21.8418 40.168C21.5878 41.0485 21.2831 41.9118 20.9278 42.7578C21.6074 42.8422 22.2844 42.8252 22.959 42.707C22.6612 41.9323 22.3735 41.1536 22.0957 40.3711C22.0534 40.2435 21.9688 40.1758 21.8418 40.168Z" fill="#212A35"/>
<path opacity="0.921" fill-rule="evenodd" clip-rule="evenodd" d="M29.9672 37.1211C31.0921 37.0311 32.1077 37.3189 33.0141 37.9844C33.3948 38.3132 33.4794 38.7024 33.268 39.1524C33.0873 39.3823 32.8503 39.5177 32.557 39.5586C32.1369 39.3437 31.7137 39.1237 31.2875 38.8985C30.7288 38.6736 30.1872 38.7075 29.6625 39C29.309 39.345 29.2752 39.7175 29.561 40.1172C30.5547 40.5295 31.5365 40.9695 32.5063 41.4375C33.9583 42.7891 33.9921 44.1772 32.6078 45.6016C30.7197 46.6101 29.01 46.3562 27.4789 44.8399C27.1284 44.1251 27.3316 43.6849 28.0883 43.5196C28.2881 43.5238 28.4743 43.5746 28.6469 43.6719C29.3655 44.4758 30.2458 44.7465 31.2875 44.4844C32.1376 43.9934 32.2053 43.4179 31.4906 42.7578C30.5428 42.3516 29.5948 41.9453 28.6469 41.5391C27.6105 40.5341 27.4582 39.4 28.1899 38.1367C28.6922 37.6238 29.2846 37.2851 29.9672 37.1211Z" fill="#212A35"/>
<path opacity="0.921" fill-rule="evenodd" clip-rule="evenodd" d="M35.553 37.2226C35.8259 37.206 36.0968 37.2229 36.3655 37.2734C37.0618 38.1739 37.722 39.1048 38.346 40.0664C38.9763 39.1954 39.5687 38.2983 40.1233 37.375C40.8775 37.0244 41.3514 37.2445 41.5452 38.0351C41.4889 38.2494 41.4042 38.4526 41.2913 38.6445C40.5804 39.7279 39.8694 40.8111 39.1585 41.8945C39.1247 43.2148 39.0907 44.5351 39.0569 45.8555C38.4664 46.4349 37.9586 46.3671 37.5335 45.6523C37.4997 44.3658 37.4657 43.0794 37.4319 41.793C36.6618 40.6252 35.9169 39.4403 35.1976 38.2383C35.1145 37.8289 35.233 37.4904 35.553 37.2226Z" fill="#212A35"/>
</g>
<defs>
<clipPath id="clip0_732_2818">
<rect width="52" height="52" fill="white" transform="translate(0.666016)"/>
</clipPath>
</defs>
</svg>
