<svg width="65" height="64" viewBox="0 0 65 64" fill="none" xmlns="http://www.w3.org/2000/svg">
<g clip-path="url(#clip0_402_5948)">
<path opacity="0.951" fill-rule="evenodd" clip-rule="evenodd" d="M31.8125 -0.0625C32.2292 -0.0625 32.6459 -0.0625 33.0625 -0.0625C33.3509 0.122174 33.58 0.372174 33.75 0.6875C33.8334 2.85416 33.8334 5.02084 33.75 7.1875C33.4912 7.74417 33.0537 7.99417 32.4375 7.9375C31.8214 7.99417 31.3839 7.74417 31.125 7.1875C31.0417 5.02084 31.0417 2.85416 31.125 0.6875C31.295 0.372174 31.5242 0.122174 31.8125 -0.0625Z" fill="url(#paint0_linear_402_5948)"/>
<path opacity="0.938" fill-rule="evenodd" clip-rule="evenodd" d="M10.312 8.81251C10.7056 8.77643 11.0806 8.83893 11.437 9.00001C12.8328 10.3958 14.2286 11.7917 15.6245 13.1875C16.0217 14.1064 15.7926 14.8355 14.937 15.375C14.4626 15.4796 14.0044 15.438 13.562 15.25C12.2078 13.8125 10.8537 12.375 9.4995 10.9375C9.12251 9.96243 9.39335 9.25409 10.312 8.81251Z" fill="url(#paint1_linear_402_5948)"/>
<path opacity="0.944" fill-rule="evenodd" clip-rule="evenodd" d="M53.5625 9.0625C54.998 9.10065 55.5188 9.80899 55.125 11.1875C53.7708 12.5416 52.4166 13.8959 51.0625 15.25C49.2556 15.8586 48.5681 15.2545 49 13.4375C50.4728 11.9016 51.9937 10.4432 53.5625 9.0625Z" fill="url(#paint2_linear_402_5948)"/>
<path opacity="0.952" fill-rule="evenodd" clip-rule="evenodd" d="M37.4378 63.9375C34.1045 63.9375 30.7712 63.9375 27.4378 63.9375C26.0573 63.369 25.1198 62.369 24.6253 60.9375C24.4648 58.4856 24.3814 56.0272 24.3753 53.5625C24.1196 50.3631 22.6821 47.8422 20.0628 46C14.4376 40.6644 12.5834 34.2269 14.5003 26.6875C16.9662 19.5132 21.9037 15.1174 29.3128 13.5C36.6043 12.4987 42.5835 14.8112 47.2503 20.4375C51.8376 26.9815 52.3792 33.8565 48.8753 41.0625C48.2573 42.0554 47.5907 43.0136 46.8753 43.9375C45.4587 45.2709 44.042 46.6041 42.6253 47.9375C41.2737 49.6587 40.5653 51.6171 40.5003 53.8125C40.4587 56.1875 40.4169 58.5625 40.3753 60.9375C39.8731 62.4187 38.8939 63.4187 37.4378 63.9375ZM32.3128 15.9375C39.8615 16.3036 44.9656 20.0119 47.6253 27.0625C49.2217 32.7062 48.18 37.7896 44.5003 42.3125C43.292 43.4375 42.0837 44.5625 40.8753 45.6875C39.0743 47.8176 38.0118 50.276 37.6878 53.0625C34.1888 53.1875 30.6888 53.2291 27.1878 53.1875C26.9537 49.7401 25.5371 46.8859 22.9378 44.625C18.2241 40.9929 16.1199 36.1804 16.6253 30.1875C17.8424 23.2201 21.8216 18.6576 28.5628 16.5C29.8173 16.2142 31.0673 16.0267 32.3128 15.9375ZM27.1878 55.9375C30.6878 55.9375 34.1878 55.9375 37.6878 55.9375C37.7454 57.5332 37.6829 59.1166 37.5003 60.6875C37.3486 60.8811 37.1611 61.0269 36.9378 61.125C35.4587 61.1459 33.9795 61.1666 32.5003 61.1875C30.9263 61.206 29.3638 61.1435 27.8128 61C27.5136 60.756 27.3261 60.4435 27.2503 60.0625C27.1878 58.6881 27.1669 57.3131 27.1878 55.9375Z" fill="url(#paint3_linear_402_5948)"/>
<path opacity="0.945" fill-rule="evenodd" clip-rule="evenodd" d="M31.8134 19.9375C37.3433 19.8661 41.2808 22.3245 43.6259 27.3125C44.3102 29.0014 44.5602 30.7514 44.3759 32.5625C43.9663 33.2636 43.3622 33.4928 42.5634 33.25C42.2979 33.1098 42.0688 32.9223 41.8759 32.6875C41.4648 26.5265 38.1939 23.1724 32.0634 22.625C31.1724 22.2803 30.8599 21.6345 31.1259 20.6875C31.2959 20.3721 31.525 20.1221 31.8134 19.9375Z" fill="url(#paint4_linear_402_5948)"/>
<path opacity="0.951" fill-rule="evenodd" clip-rule="evenodd" d="M0.4375 32.5625C0.4375 32.1459 0.4375 31.7291 0.4375 31.3125C0.622174 31.0241 0.872174 30.795 1.1875 30.625C3.35416 30.5416 5.52084 30.5416 7.6875 30.625C8.24417 30.8839 8.49417 31.3214 8.4375 31.9375C8.49417 32.5536 8.24417 32.9911 7.6875 33.25C5.52084 33.3334 3.35416 33.3334 1.1875 33.25C0.872174 33.08 0.622174 32.8509 0.4375 32.5625Z" fill="url(#paint5_linear_402_5948)"/>
<path opacity="0.951" fill-rule="evenodd" clip-rule="evenodd" d="M64.4375 31.3125C64.4375 31.7291 64.4375 32.1459 64.4375 32.5625C64.2529 32.8509 64.0029 33.08 63.6875 33.25C61.5209 33.3334 59.3542 33.3334 57.1875 33.25C56.6309 32.9911 56.3809 32.5536 56.4375 31.9375C56.3809 31.3214 56.6309 30.8839 57.1875 30.625C59.3542 30.5416 61.5209 30.5416 63.6875 30.625C64.0029 30.795 64.2529 31.0241 64.4375 31.3125Z" fill="url(#paint6_linear_402_5948)"/>
<path opacity="0.943" fill-rule="evenodd" clip-rule="evenodd" d="M13.9376 48.5625C15.4626 48.5239 16.0251 49.2321 15.6251 50.6875C14.271 52.0416 12.9168 53.3959 11.5626 54.75C9.83661 55.2728 9.14911 54.6686 9.50011 52.9375C10.9662 51.4505 12.4453 49.9921 13.9376 48.5625Z" fill="url(#paint7_linear_402_5948)"/>
<path opacity="0.937" fill-rule="evenodd" clip-rule="evenodd" d="M49.6879 48.5625C50.1226 48.523 50.5394 48.5855 50.9379 48.75C52.3338 50.1459 53.7295 51.5416 55.1254 52.9375C55.4208 53.6442 55.3166 54.29 54.8129 54.875C54.1643 54.9981 53.5393 54.9356 52.9379 54.6875C51.6061 53.3766 50.2936 52.0432 49.0004 50.6875C48.5988 49.7661 48.8279 49.0577 49.6879 48.5625Z" fill="url(#paint8_linear_402_5948)"/>
</g>
<defs>
<linearGradient id="paint0_linear_402_5948" x1="32.4375" y1="-0.0625" x2="32.4375" y2="7.94536" gradientUnits="userSpaceOnUse">
<stop stop-color="#E7B900"/>
<stop offset="1" stop-color="#E78B00"/>
</linearGradient>
<linearGradient id="paint1_linear_402_5948" x1="12.5742" y1="8.8026" x2="12.5742" y2="15.4311" gradientUnits="userSpaceOnUse">
<stop stop-color="#E7B900"/>
<stop offset="1" stop-color="#E78B00"/>
</linearGradient>
<linearGradient id="paint2_linear_402_5948" x1="52.0636" y1="9.0625" x2="52.0636" y2="15.4791" gradientUnits="userSpaceOnUse">
<stop stop-color="#E7B900"/>
<stop offset="1" stop-color="#E78B00"/>
</linearGradient>
<linearGradient id="paint3_linear_402_5948" x1="32.4605" y1="13.2731" x2="32.4605" y2="63.9375" gradientUnits="userSpaceOnUse">
<stop stop-color="#E7B900"/>
<stop offset="1" stop-color="#E78B00"/>
</linearGradient>
<linearGradient id="paint4_linear_402_5948" x1="37.7344" y1="19.936" x2="37.7344" y2="33.3437" gradientUnits="userSpaceOnUse">
<stop stop-color="#E7B900"/>
<stop offset="1" stop-color="#E78B00"/>
</linearGradient>
<linearGradient id="paint5_linear_402_5948" x1="4.44143" y1="30.5625" x2="4.44143" y2="33.3125" gradientUnits="userSpaceOnUse">
<stop stop-color="#E7B900"/>
<stop offset="1" stop-color="#E78B00"/>
</linearGradient>
<linearGradient id="paint6_linear_402_5948" x1="60.4336" y1="30.5625" x2="60.4336" y2="33.3125" gradientUnits="userSpaceOnUse">
<stop stop-color="#E7B900"/>
<stop offset="1" stop-color="#E78B00"/>
</linearGradient>
<linearGradient id="paint7_linear_402_5948" x1="12.5805" y1="48.561" x2="12.5805" y2="54.9319" gradientUnits="userSpaceOnUse">
<stop stop-color="#E7B900"/>
<stop offset="1" stop-color="#E78B00"/>
</linearGradient>
<linearGradient id="paint8_linear_402_5948" x1="52.0489" y1="48.551" x2="52.0489" y2="54.9362" gradientUnits="userSpaceOnUse">
<stop stop-color="#E7B900"/>
<stop offset="1" stop-color="#E78B00"/>
</linearGradient>
<clipPath id="clip0_402_5948">
<rect width="64" height="64" fill="white" transform="translate(0.5)"/>
</clipPath>
</defs>
</svg>
