<svg width="52" height="52" viewBox="0 0 52 52" fill="none" xmlns="http://www.w3.org/2000/svg">
<rect width="52" height="52" rx="12" fill="#EF533F"/>
<g clip-path="url(#clip0_504_696)">
<path d="M41.9623 25.2716H41.912C42.179 25.5056 42.1122 25.6726 41.7118 25.7726L37.3543 26.9237L41.3095 32.2832C41.443 32.4838 41.4765 32.6264 41.4101 32.7111C41.2683 32.8428 41.1019 32.9507 40.92 33.0275L40.909 33.032L35.8009 34.888C32.5619 36.0236 30.7922 36.6416 30.4917 36.7422H30.4414C30.189 36.8684 29.891 36.9424 29.5765 36.9424C29.5637 36.9424 29.5509 36.9424 29.539 36.9424H29.5408C29.2181 36.8702 28.952 36.6691 28.7957 36.3975L28.7929 36.392C28.4589 35.9581 27.2402 33.8378 25.1367 30.0313C21.5618 30.9657 19.3237 31.5335 18.4222 31.7347C18.2878 31.7868 18.1323 31.8169 17.9696 31.8169C17.4238 31.8169 16.9575 31.4759 16.7719 30.995L16.7691 30.9859L15.4663 28.1269C12.0938 20.8809 10.324 17.0409 10.157 16.6069C9.85653 15.9389 9.99002 15.5713 10.5575 15.5043L11.2085 15.454C14.6846 15.1876 16.6213 15.0377 17.0187 15.0041C17.0489 15.0014 17.0846 15.0005 17.1202 15.0005C17.3095 15.0005 17.4896 15.0389 17.6542 15.1084L17.645 15.1047C17.7986 15.2099 17.9239 15.3443 18.0171 15.4997L18.0199 15.5052L25.784 28.4789L35.501 26.1749L32.2937 21.6163C32.0597 21.2822 32.2099 21.082 32.7445 21.0156L37.2528 20.2668C37.3141 20.2531 37.3845 20.2448 37.4576 20.2448C37.5637 20.2448 37.6661 20.2622 37.7611 20.2933L37.7538 20.2915C37.955 20.3966 38.1232 20.5411 38.2521 20.7157L38.2549 20.7193L40.2078 23.1239C41.2763 24.4557 41.8608 25.1719 41.9614 25.2725L41.9623 25.2716ZM24.2809 28.8775C24.4479 28.844 24.4647 28.7437 24.3312 28.5767L17.0635 16.0044C17.0279 15.9431 16.963 15.902 16.888 15.902C16.8798 15.902 16.8706 15.9029 16.8624 15.9038L11.5541 16.3545C11.5205 16.3545 11.5038 16.3881 11.5038 16.4551C11.5047 16.5283 11.523 16.5968 11.555 16.6572L11.5541 16.6544L18.1159 30.1785C18.1494 30.2456 18.1829 30.2791 18.2165 30.2791H18.467L22.0226 29.4243C23.4916 29.0592 24.2443 28.8775 24.2809 28.8775ZM39.608 31.7328L36.4007 27.3251C36.3605 27.2501 36.3001 27.1907 36.2279 27.1504L36.2261 27.1495C36.2041 27.1449 36.1785 27.1422 36.1529 27.1422C36.0981 27.1422 36.045 27.1541 35.9984 27.1751L36.0011 27.1742L26.4862 29.6793L29.6423 34.9886C29.7429 35.1556 29.8264 35.2477 29.8928 35.2647C29.9175 35.2693 29.9458 35.272 29.9751 35.272C30.0354 35.272 30.093 35.2601 30.1461 35.2391L30.1433 35.24L39.5093 32.0327C39.6427 31.9992 39.7095 31.9657 39.7095 31.9321C39.7049 31.8846 39.6866 31.8416 39.6592 31.8069V31.8078L39.608 31.7328ZM40.2087 25.0211C40.4757 24.954 40.5759 24.8705 40.5095 24.7705C38.8705 22.7335 37.9522 21.5815 37.7547 21.3145C37.6962 21.1911 37.5728 21.1061 37.4293 21.1061C37.4027 21.1061 37.3762 21.1088 37.3515 21.1143H37.3543L33.7483 21.7653C33.6149 21.7988 33.5981 21.8823 33.6981 22.0158L36.5534 25.9225C37.7883 25.622 39.007 25.3212 40.2096 25.0201L40.2087 25.0211Z" fill="white"/>
</g>
<defs>
<clipPath id="clip0_504_696">
<rect width="32" height="21.9429" fill="white" transform="translate(10 15)"/>
</clipPath>
</defs>
</svg>
