<svg width="32" height="32" viewBox="0 0 32 32" fill="none" xmlns="http://www.w3.org/2000/svg">
<path d="M16 0L29.8564 8V24L16 32L2.14359 24V8L16 0Z" fill="#171F28"/>
<g clip-path="url(#clip0_402_6402)">
<path d="M15.9733 23.0037L15.5666 22.6551C15.0061 22.1857 10.1113 17.9585 10.1113 14.8663C10.1113 11.6289 12.7358 9.00439 15.9733 9.00439C19.2107 9.00439 21.8352 11.6289 21.8352 14.8663C21.8352 17.9585 16.9405 22.1858 16.3822 22.6574L15.9733 23.0037ZM15.9733 10.2719C13.437 10.2748 11.3817 12.3301 11.3789 14.8663C11.3789 16.8088 14.3903 19.912 15.9733 21.3324C17.5562 19.9115 20.5676 16.8065 20.5676 14.8663C20.5648 12.3301 18.5095 10.2748 15.9733 10.2719Z" fill="white"/>
<path d="M15.973 17.1897C14.6897 17.1897 13.6494 16.1494 13.6494 14.8661C13.6494 13.5828 14.6897 12.5425 15.973 12.5425C17.2563 12.5425 18.2966 13.5828 18.2966 14.8661C18.2966 16.1494 17.2564 17.1897 15.973 17.1897ZM15.973 13.7043C15.3314 13.7043 14.8112 14.2244 14.8112 14.8661C14.8112 15.5077 15.3314 16.0279 15.973 16.0279C16.6147 16.0279 17.1348 15.5077 17.1348 14.8661C17.1348 14.2244 16.6147 13.7043 15.973 13.7043Z" fill="white"/>
</g>
<defs>
<clipPath id="clip0_402_6402">
<rect width="14" height="14" fill="white" transform="translate(9 9)"/>
</clipPath>
</defs>
</svg>
