<svg width="18" height="18" viewBox="0 0 18 18" fill="none" xmlns="http://www.w3.org/2000/svg">
<path d="M9 0C7.01155 0.0021837 5.10516 0.793061 3.69911 2.19911C2.29306 3.60516 1.50218 5.51155 1.5 7.5C1.5 11.4615 7.8 16.8997 8.5155 17.5072L9 17.9167L9.4845 17.5072C10.2 16.8997 16.5 11.4615 16.5 7.5C16.4978 5.51155 15.7069 3.60516 14.3009 2.19911C12.8948 0.793061 10.9885 0.0021837 9 0ZM9 11.25C8.25832 11.25 7.5333 11.0301 6.91661 10.618C6.29993 10.206 5.81928 9.62029 5.53545 8.93506C5.25162 8.24984 5.17736 7.49584 5.32206 6.76841C5.46675 6.04098 5.8239 5.3728 6.34835 4.84835C6.8728 4.3239 7.54098 3.96675 8.26841 3.82206C8.99584 3.67736 9.74984 3.75162 10.4351 4.03545C11.1203 4.31928 11.706 4.79993 12.118 5.41661C12.5301 6.0333 12.75 6.75832 12.75 7.5C12.7488 8.4942 12.3533 9.44733 11.6503 10.1503C10.9473 10.8533 9.9942 11.2488 9 11.25Z" fill="#192734"/>
<path d="M9 9.75C10.2426 9.75 11.25 8.74264 11.25 7.5C11.25 6.25736 10.2426 5.25 9 5.25C7.75736 5.25 6.75 6.25736 6.75 7.5C6.75 8.74264 7.75736 9.75 9 9.75Z" fill="#192734"/>
</svg>
