<svg width="65" height="64" viewBox="0 0 65 64" fill="none" xmlns="http://www.w3.org/2000/svg">
<g clip-path="url(#clip0_402_5929)">
<path opacity="0.947" fill-rule="evenodd" clip-rule="evenodd" d="M31.1863 1.31252C35.1519 0.97103 37.7562 2.67936 38.9988 6.43752C39.5508 10.8151 37.6967 13.5443 33.4363 14.625C29.5308 14.8924 27.0099 13.1633 25.8738 9.43752C25.3664 5.21933 27.1373 2.51099 31.1863 1.31252ZM31.6863 4.06252C33.9913 3.89094 35.5122 4.89094 36.2488 7.06252C36.5356 9.90579 35.2647 11.5308 32.4363 11.9375C29.6079 11.5308 28.3371 9.90579 28.6238 7.06252C29.1344 5.53094 30.1553 4.53094 31.6863 4.06252Z" fill="url(#paint0_linear_402_5929)"/>
<path opacity="0.951" fill-rule="evenodd" clip-rule="evenodd" d="M0.4375 15.9375C0.4375 15.0625 0.4375 14.1875 0.4375 13.3125C1.9283 8.85805 4.96996 7.21221 9.5625 8.375C13.0824 10.1445 14.3949 12.957 13.5 16.8125C12.0672 20.2071 9.50474 21.6862 5.8125 21.25C2.95655 20.5399 1.16489 18.769 0.4375 15.9375ZM6.6875 10.6875C9.26051 10.8022 10.7189 12.1355 11.0625 14.6875C10.8302 16.6356 9.78856 17.9065 7.9375 18.5C5.54909 18.7356 3.98659 17.7149 3.25 15.4375C3.07724 12.8834 4.22306 11.3 6.6875 10.6875Z" fill="url(#paint1_linear_402_5929)"/>
<path opacity="0.951" fill-rule="evenodd" clip-rule="evenodd" d="M64.4381 13.3125C64.4381 14.1875 64.4381 15.0625 64.4381 15.9375C63.2678 19.9149 60.6012 21.6857 56.4381 21.25C52.5812 20.1431 50.8103 17.5806 51.1256 13.5625C52.2757 9.28929 55.0466 7.47679 59.4381 8.125C62.0761 8.92445 63.7427 10.6536 64.4381 13.3125ZM57.4381 10.6875C60.3686 10.9257 61.7643 12.509 61.6256 15.4375C60.6167 18.2024 58.7208 19.0981 55.9381 18.125C53.8102 16.6539 53.3311 14.7581 54.5006 12.4375C55.2557 11.4466 56.2348 10.8632 57.4381 10.6875Z" fill="url(#paint2_linear_402_5929)"/>
<path opacity="0.958" fill-rule="evenodd" clip-rule="evenodd" d="M64.4375 28.1875C64.4375 34.7709 64.4375 41.3541 64.4375 47.9375C63.7101 50.769 61.9185 52.5399 59.0625 53.25C55.8128 53.3125 52.5628 53.3334 49.3125 53.3125C48.121 56.2399 46.8919 59.1566 45.625 62.0625C45.094 62.6995 44.4481 62.8454 43.6875 62.5C43.1149 62.0702 42.9274 61.5077 43.125 60.8125C44.4826 57.6977 45.816 54.5727 47.125 51.4375C47.3204 51.034 47.6329 50.7631 48.0625 50.625C51.5625 50.5834 55.0625 50.5416 58.5625 50.5C60.1666 50.0625 61.1875 49.0416 61.625 47.4375C61.7084 41.1875 61.7084 34.9375 61.625 28.6875C61.2891 27.6018 60.5599 26.9559 59.4375 26.75C57.855 26.4105 56.5425 26.848 55.5 28.0625C53.4825 30.6593 51.42 33.2217 49.3125 35.75C49.1459 35.8334 48.9791 35.9166 48.8125 36C46.3541 36.0416 43.8959 36.0834 41.4375 36.125C41.0521 36.2232 40.7814 36.4524 40.625 36.8125C40.4719 37.3856 40.4094 37.969 40.4375 38.5625C44.2301 38.6041 48.0218 38.5625 51.8125 38.4375C53.0841 36.7707 54.3759 35.1249 55.6875 33.5C56.845 33.0576 57.5532 33.4326 57.8125 34.625C57.756 35.0511 57.6101 35.447 57.375 35.8125C56.178 37.3317 55.0112 38.8734 53.875 40.4375C53.871 42.3241 53.7878 44.1991 53.625 46.0625C53.4321 46.2972 53.203 46.4847 52.9375 46.625C50.9375 46.6666 48.9375 46.7084 46.9375 46.75C45.9435 46.9441 45.256 47.5066 44.875 48.4375C43.375 52.9375 41.875 57.4375 40.375 61.9375C39.9456 62.5992 39.3415 62.8284 38.5625 62.625C37.7845 62.1244 37.5554 61.4369 37.875 60.5625C39.3334 56.1875 40.7916 51.8125 42.25 47.4375C42.892 45.7511 44.0795 44.6469 45.8125 44.125C47.5551 43.9464 49.3051 43.8839 51.0625 43.9375C51.0625 43.0625 51.0625 42.1875 51.0625 41.3125C38.6459 41.3125 26.2291 41.3125 13.8125 41.3125C13.8125 42.1875 13.8125 43.0625 13.8125 43.9375C15.5699 43.8839 17.3199 43.9464 19.0625 44.125C20.7955 44.6469 21.983 45.7511 22.625 47.4375C24.1836 52.0507 25.7044 56.6757 27.1875 61.3125C26.8506 62.6686 26.0589 63.0227 24.8125 62.375C24.6624 62.2621 24.5581 62.1164 24.5 61.9375C23 57.4375 21.5 52.9375 20 48.4375C19.619 47.5066 18.9315 46.9441 17.9375 46.75C15.9375 46.7084 13.9375 46.6666 11.9375 46.625C11.672 46.4847 11.4429 46.2972 11.25 46.0625C11.0873 44.1991 11.004 42.3241 11 40.4375C9.8637 38.8734 8.69703 37.3317 7.5 35.8125C6.67821 34.5144 6.99071 33.681 8.4375 33.3125C8.70426 33.3144 8.95426 33.3769 9.1875 33.5C10.4992 35.1249 11.7908 36.7707 13.0625 38.4375C16.8533 38.5625 20.6449 38.6041 24.4375 38.5625C24.5357 37.7624 24.3691 37.0331 23.9375 36.375C23.7709 36.2916 23.6041 36.2084 23.4375 36.125C20.9791 36.0834 18.5209 36.0416 16.0625 36C15.8959 35.9166 15.7291 35.8334 15.5625 35.75C13.455 33.2217 11.3925 30.6593 9.375 28.0625C8.33251 26.848 7.02001 26.4105 5.4375 26.75C4.31509 26.9559 3.58593 27.6018 3.25 28.6875C3.16666 34.9375 3.16666 41.1875 3.25 47.4375C3.6875 49.0416 4.70834 50.0625 6.3125 50.5C9.8125 50.5416 13.3125 50.5834 16.8125 50.625C17.2421 50.7631 17.5546 51.034 17.75 51.4375C19.059 54.5727 20.3924 57.6977 21.75 60.8125C21.8959 62.1666 21.2916 62.7709 19.9375 62.625C19.4928 62.3885 19.1803 62.0344 19 61.5625C17.8172 58.8229 16.6715 56.0729 15.5625 53.3125C12.3122 53.3334 9.06224 53.3125 5.8125 53.25C2.95655 52.5399 1.16489 50.769 0.4375 47.9375C0.4375 41.3541 0.4375 34.7709 0.4375 28.1875C1.36215 25.2463 3.38299 23.8296 6.5 23.9375C8.54997 23.8375 10.2167 24.5875 11.5 26.1875C13.3304 28.5389 15.1845 30.8721 17.0625 33.1875C19.3948 33.2916 21.728 33.3541 24.0625 33.375C25.571 33.7584 26.5501 34.6959 27 36.1875C27.1571 36.9711 27.2196 37.7627 27.1875 38.5625C30.6875 38.5625 34.1875 38.5625 37.6875 38.5625C37.5321 37.1509 37.8446 35.8591 38.625 34.6875C39.4383 33.7705 40.459 33.3122 41.6875 33.3125C41.7084 30.3955 41.6875 27.4789 41.625 24.5625C41.1459 22.0834 39.6666 20.6041 37.1875 20.125C34.0209 20.0416 30.8541 20.0416 27.6875 20.125C25.2084 20.6041 23.7291 22.0834 23.25 24.5625C23.2084 26.2291 23.1666 27.8959 23.125 29.5625C22.6712 30.6944 21.9005 30.9653 20.8125 30.375C20.7236 30.2181 20.6195 30.0724 20.5 29.9375C20.4166 27.9375 20.4166 25.9375 20.5 23.9375C21.2709 20.3334 23.4584 18.1459 27.0625 17.375C30.6459 17.2916 34.2291 17.2916 37.8125 17.375C41.4166 18.1459 43.6041 20.3334 44.375 23.9375C44.4375 27.0623 44.4584 30.1872 44.4375 33.3125C45.5656 33.354 46.6906 33.3123 47.8125 33.1875C49.6905 30.8721 51.5446 28.5389 53.375 26.1875C55.1307 24.2134 57.3182 23.4841 59.9375 24C62.3075 24.4745 63.8075 25.8704 64.4375 28.1875Z" fill="url(#paint3_linear_402_5929)"/>
<path opacity="0.94" fill-rule="evenodd" clip-rule="evenodd" d="M31.0625 22.5625C31.9791 22.5625 32.8959 22.5625 33.8125 22.5625C33.8125 23.4791 33.8125 24.3959 33.8125 25.3125C32.8959 25.3125 31.9791 25.3125 31.0625 25.3125C31.0625 24.3959 31.0625 23.4791 31.0625 22.5625Z" fill="url(#paint4_linear_402_5929)"/>
<path opacity="0.965" fill-rule="evenodd" clip-rule="evenodd" d="M31.0625 43.9375C31.9791 43.9375 32.8959 43.9375 33.8125 43.9375C33.8125 50.1875 33.8125 56.4375 33.8125 62.6875C32.8959 62.6875 31.9791 62.6875 31.0625 62.6875C31.0625 56.4375 31.0625 50.1875 31.0625 43.9375Z" fill="url(#paint5_linear_402_5929)"/>
</g>
<defs>
<linearGradient id="paint0_linear_402_5929" x1="32.4414" y1="1.26985" x2="32.4414" y2="14.6519" gradientUnits="userSpaceOnUse">
<stop stop-color="#E7B900"/>
<stop offset="1" stop-color="#E78B00"/>
</linearGradient>
<linearGradient id="paint1_linear_402_5929" x1="7.10479" y1="8.01395" x2="7.10479" y2="21.3245" gradientUnits="userSpaceOnUse">
<stop stop-color="#E7B900"/>
<stop offset="1" stop-color="#E78B00"/>
</linearGradient>
<linearGradient id="paint2_linear_402_5929" x1="57.764" y1="7.99693" x2="57.764" y2="21.3145" gradientUnits="userSpaceOnUse">
<stop stop-color="#E7B900"/>
<stop offset="1" stop-color="#E78B00"/>
</linearGradient>
<linearGradient id="paint3_linear_402_5929" x1="32.4375" y1="17.3125" x2="32.4375" y2="62.6967" gradientUnits="userSpaceOnUse">
<stop stop-color="#E7B900"/>
<stop offset="1" stop-color="#E78B00"/>
</linearGradient>
<linearGradient id="paint4_linear_402_5929" x1="32.4375" y1="22.5625" x2="32.4375" y2="25.3125" gradientUnits="userSpaceOnUse">
<stop stop-color="#E7B900"/>
<stop offset="1" stop-color="#E78B00"/>
</linearGradient>
<linearGradient id="paint5_linear_402_5929" x1="32.4375" y1="43.9375" x2="32.4375" y2="62.6875" gradientUnits="userSpaceOnUse">
<stop stop-color="#E7B900"/>
<stop offset="1" stop-color="#E78B00"/>
</linearGradient>
<clipPath id="clip0_402_5929">
<rect width="64" height="64" fill="white" transform="translate(0.5)"/>
</clipPath>
</defs>
</svg>
