<svg width="52" height="52" viewBox="0 0 52 52" fill="none" xmlns="http://www.w3.org/2000/svg">
<rect width="52" height="52" rx="12" fill="#00A9FF"/>
<path opacity="0.986" fill-rule="evenodd" clip-rule="evenodd" d="M24.0311 11.2811C25.2049 11.2446 26.3716 11.3175 27.5311 11.4999C28.5043 11.6895 29.1814 12.2416 29.5624 13.1561C29.6707 14.3251 30.2436 15.1689 31.2811 15.6874C31.6031 15.8122 31.9364 15.8851 32.2811 15.9061C32.8936 15.775 33.5083 15.65 34.1249 15.5311C35.1601 15.6007 35.9726 16.059 36.5624 16.9061C37.5935 18.218 38.3644 19.6763 38.8749 21.2811C39.0471 22.1964 38.8388 23.0089 38.2499 23.7186C36.9448 24.7178 36.6739 25.9469 37.4374 27.4061C37.6457 27.6978 37.8957 27.9478 38.1874 28.1561C38.8052 28.877 39.0344 29.7103 38.8749 30.6561C38.2559 32.6141 37.2454 34.3328 35.8436 35.8124C35.3453 36.1591 34.7933 36.3569 34.1874 36.4061C33.5541 36.2751 32.9187 36.1501 32.2811 36.0311C31.2709 36.0828 30.5104 36.5411 29.9999 37.4061C29.8156 37.8516 29.6698 38.3099 29.5624 38.7811C29.2238 39.5989 28.6301 40.1302 27.7811 40.3749C25.9061 40.7499 24.0311 40.7499 22.1561 40.3749C21.3072 40.1302 20.7134 39.5989 20.3749 38.7811C20.2669 37.6124 19.6939 36.7686 18.6561 36.2499C18.3342 36.1251 18.0009 36.0521 17.6561 36.0311C17.0436 36.1623 16.429 36.2873 15.8124 36.4061C15.1821 36.3697 14.6092 36.1718 14.0936 35.8124C12.6921 34.3335 11.6817 32.6148 11.0624 30.6561C10.8901 29.7408 11.0985 28.9283 11.6874 28.2186C12.9925 27.2195 13.2633 25.9903 12.4999 24.5311C12.2915 24.2394 12.0415 23.9894 11.7499 23.7811C11.128 23.0606 10.8988 22.2273 11.0624 21.2811C11.6759 19.355 12.6655 17.6571 14.0311 16.1874C14.7349 15.6469 15.5265 15.4594 16.4061 15.6249C18.6179 16.2483 19.9408 15.4254 20.3749 13.1561C20.7134 12.3383 21.3072 11.8071 22.1561 11.5624C22.7861 11.4412 23.4111 11.3474 24.0311 11.2811ZM24.9061 17.9686C25.9709 17.9863 26.9917 18.2051 27.9686 18.6249C28.5996 19.1784 28.6934 19.8139 28.2499 20.5311C27.9769 20.8134 27.6436 20.9801 27.2499 21.0311C24.8079 20.1485 22.6829 20.6276 20.8749 22.4686C20.1492 23.3156 19.7534 24.2948 19.6874 25.4061C20.4053 24.5198 21.1761 24.4573 21.9999 25.2186C22.3777 25.7739 22.3569 26.3156 21.9374 26.8436C21.1353 27.6457 20.3332 28.4478 19.5311 29.2499C18.3611 29.7847 17.6215 29.4201 17.3124 28.1561C16.5308 24.8556 17.3953 22.0744 19.9061 19.8124C21.3759 18.6593 23.0426 18.0447 24.9061 17.9686ZM30.9686 22.4061C31.5221 22.3444 31.97 22.5319 32.3124 22.9686C33.5662 26.5262 32.8058 29.5783 30.0311 32.1249C27.5614 34.0134 24.8739 34.4093 21.9686 33.3124C21.3959 32.844 21.2605 32.2711 21.5624 31.5936C21.8268 31.1903 22.2018 30.9611 22.6874 30.9061C25.1294 31.7888 27.2544 31.3096 29.0624 29.4686C29.7881 28.6216 30.1839 27.6425 30.2499 26.5311C29.5304 27.4158 28.7596 27.4783 27.9374 26.7186C27.5602 26.1623 27.581 25.6206 27.9999 25.0936C28.8019 24.2916 29.6041 23.4894 30.4061 22.6874C30.5994 22.5908 30.7869 22.497 30.9686 22.4061Z" fill="white"/>
</svg>
