<svg width="52" height="52" viewBox="0 0 52 52" fill="none" xmlns="http://www.w3.org/2000/svg">
<path opacity="0.934" d="M22.9887 1.54435H22.9552L22.9253 1.55952C22.4117 1.81994 22.055 2.22811 21.8593 2.77732L21.8524 2.79669L21.8513 2.81722C21.7845 4.11951 21.6271 5.41016 21.3793 6.68923C21.06 8.04293 20.469 9.25644 19.6056 10.3313C18.4396 11.5919 17.2394 12.8237 16.0047 14.0268L16.0043 14.0265L15.997 14.0349C14.035 16.2771 12.6962 18.8538 11.981 21.7628C11.8208 21.621 11.6835 21.4581 11.5689 21.2739C11.1976 20.6259 10.9178 19.9416 10.7293 19.2208L10.7212 19.1897L10.7003 19.1652C10.2921 18.6869 9.84962 18.4116 9.37161 18.3762C8.89372 18.3408 8.41421 18.5477 7.93732 18.9602L7.91404 18.9803L7.90133 19.0084C6.66055 21.745 5.86524 24.6077 5.5155 27.5959C4.79817 32.292 5.62751 36.6927 8.00269 40.7925L8.00247 40.7926L8.00714 40.7997C11.7419 46.4356 16.9869 49.6557 23.7321 50.4546L23.7403 50.4556H23.7486H23.7564H23.7642H23.772H23.7798H23.7875H23.7953H23.8031H23.8109H23.8187H23.8265H23.8343H23.8421H23.8499H23.8577H23.8655H23.8733H23.881H23.8888H23.8966H23.9044H23.9122H23.92H23.9278H23.9356H23.9434H23.9512H23.959H23.9667H23.9745H23.9823H23.9901H23.9979H24.0057H24.0135H24.0213H24.0291H24.0369H24.0447H24.0525H24.0602H24.068H24.0758H24.0836H24.0914H24.0992H24.107H24.1148H24.1226H24.1304H24.1382H24.146H24.1537H24.1615H24.1693H24.1771H24.1849H24.1927H24.2005H24.2083H24.2161H24.2239H24.2317H24.2395H24.2472H24.255H24.2628H24.2706H24.2784H24.2862H24.294H24.3018H24.3096H24.3174H24.3252H24.3329H24.3407H24.3485H24.3563H24.3641H24.3719H24.3797H24.3875H24.3953H24.4031H24.4109H24.4187H24.4264H24.4342H24.442H24.4498H24.4576H24.4654H24.4732H24.481H24.4888H24.4966H24.5044H24.5122H24.5199H24.5277H24.5355H24.5433H24.5511H24.5589H24.5667H24.5745H24.5823H24.5901H24.5979H24.6056H24.6134H24.6212H24.629H24.6368H24.6446H24.6524H24.6602H24.668H24.6758H24.6836H24.6914H24.6991H24.7069H24.7147H24.7225H24.7303H24.7381H24.7459H24.7537H24.7615H24.7693H24.7771H24.7849H24.7926H24.8004H24.8082H24.816H24.8238H24.8316H24.8394H24.8472H24.855H24.8628H24.8706H24.8784H24.8861H24.8939H24.9017H24.9095H24.9173H24.9251H24.9329H24.9407H24.9485H24.9563H24.9641H24.9718H24.9796H24.9874H24.9952H25.003H25.0108H25.0186H25.0264H25.0342H25.042H25.0498H25.0576H25.0653H25.0731H25.0809H25.0887H25.0965H25.1043H25.1121H25.1199H25.1277H25.1355H25.1433H25.1511H25.1588H25.1666H25.1744H25.1822H25.19H25.1978H25.2056H25.2134H25.2212H25.229H25.2368H25.2446H25.2523H25.2601H25.2679H25.2757H25.2835H25.2913H25.2991H25.3069H25.3147H25.3225H25.3303H25.338H25.3458H25.3536H25.3614H25.3692H25.377H25.3848H25.3926H25.4004H25.4082H25.416H25.4238H25.4315H25.4393H25.4471H25.4549H25.4627H25.4705H25.4783H25.4861H25.4939H25.5017H25.5095H25.5173H25.525H25.5328H25.5406H25.5484H25.5562H25.564H25.5718H25.5796H25.5874H25.5952H25.603H25.6108H25.6185H25.6263H25.6341H25.6419H25.6497H25.6575H25.6653H25.6731H25.6809H25.6887H25.6965H25.7042H25.712H25.7198H25.7276H25.7354H25.7432H25.751H25.7588H25.7666H25.7744H25.7822H25.79H25.7977H25.8055H25.8133H25.8211H25.8289H25.8367H25.8445H25.8523H25.8601H25.8679H25.8757H25.8835H25.8912H25.899H25.9068H25.9146H25.9224H25.9302H25.938H25.9458H25.9536H25.9614H25.9692H25.9769H25.9847H25.9925H26.0003H26.0081H26.0159H26.0237H26.0315H26.0393H26.0471H26.0549H26.0627H26.0704H26.0782H26.086H26.0938H26.1016H26.1094H26.1172H26.125H26.1328H26.1406H26.1484H26.1562H26.1639H26.1717H26.1795H26.1873H26.1951H26.2029H26.2107H26.2185H26.2263H26.2341H26.2419H26.2497H26.2574H26.2652H26.273H26.2808H26.2886H26.2964H26.3042H26.312H26.3198H26.3276H26.3354H26.3431H26.3509H26.3587H26.3665H26.3743H26.3821H26.3899H26.3977H26.4055H26.4133H26.4211H26.4289H26.4366H26.4444H26.4522H26.46H26.4678H26.4756H26.4834H26.4912H26.499H26.5068H26.5146H26.5224H26.5301H26.5379H26.5457H26.5535H26.5613H26.5691H26.5769H26.5847H26.5925H26.6003H26.6081H26.6159H26.6236H26.6314H26.6392H26.647H26.6548H26.6626H26.6704H26.6782H26.686H26.6938H26.7016H26.7093H26.7171H26.7249H26.7327H26.7405H26.7483H26.7561H26.7639H26.7717H26.7795H26.7873H26.7951H26.8028H26.8106H26.8184H26.8262H26.834H26.8418H26.8496H26.8574H26.8652H26.873H26.8808H26.8886H26.8963H26.9041H26.9119H26.9197H26.9275H26.9353H26.9431H26.9509H26.9587H26.9665H26.9743H26.982H26.9898H26.9976H27.0054H27.0132H27.021H27.0288H27.0366H27.0444H27.0522H27.06H27.0678H27.0755H27.0833H27.0911H27.0989H27.1067H27.1145H27.1223H27.1301H27.1379H27.1457H27.1535H27.1613H27.169H27.1768H27.1846H27.1924H27.2002H27.208H27.2158H27.2236H27.2314H27.2392H27.247H27.2548H27.2625H27.2703H27.2781H27.2859H27.2937H27.3015H27.3093H27.3171H27.3249H27.3327H27.3405H27.3482H27.356H27.3638H27.3716H27.3794H27.3872H27.395H27.4028H27.4106H27.4184H27.4262H27.434H27.4417H27.4495H27.4573H27.4651H27.4729H27.4807H27.4885H27.4963H27.5041H27.5119H27.5197H27.5275H27.5352H27.543H27.5508H27.5586H27.5664H27.5742H27.582H27.5898H27.5976H27.6054H27.6132H27.621H27.6287H27.6365H27.6443H27.6521H27.6599H27.6677H27.6755H27.6833H27.6911H27.6989H27.7067H27.7144H27.7222H27.73H27.7378H27.7455L27.7531 50.4548C30.1324 50.1942 32.426 49.5729 34.6335 48.5914L34.6335 48.5914L34.6369 48.5898C40.847 45.6291 44.6273 40.7641 45.9695 34.0058L45.97 34.0059L45.9713 33.9941C46.6315 28.0949 45.3575 22.6487 42.1506 17.6607L42.1424 17.648L42.1318 17.6374L41.6094 17.115L41.59 17.0956L41.5647 17.0849C41.034 16.861 40.5479 16.8113 40.1174 16.9607C39.6867 17.1101 39.3366 17.4499 39.0601 17.9541L39.0524 17.9681L39.0481 17.9836C38.7994 18.869 38.4504 19.7089 38.001 20.5035C35.918 12.3425 31.3174 6.02776 24.203 1.56579L24.1689 1.54435H24.1285H24.1263H24.1241H24.1218H24.1196H24.1174H24.1152H24.1129H24.1107H24.1085H24.1063H24.104H24.1018H24.0996H24.0973H24.0951H24.0929H24.0907H24.0884H24.0862H24.084H24.0818H24.0795H24.0773H24.0751H24.0729H24.0706H24.0684H24.0662H24.064H24.0617H24.0595H24.0573H24.0551H24.0528H24.0506H24.0484H24.0461H24.0439H24.0417H24.0395H24.0372H24.035H24.0328H24.0306H24.0283H24.0261H24.0239H24.0217H24.0194H24.0172H24.015H24.0128H24.0105H24.0083H24.0061H24.0038H24.0016H23.9994H23.9972H23.9949H23.9927H23.9905H23.9883H23.986H23.9838H23.9816H23.9794H23.9771H23.9749H23.9727H23.9705H23.9682H23.966H23.9638H23.9616H23.9593H23.9571H23.9549H23.9526H23.9504H23.9482H23.946H23.9437H23.9415H23.9393H23.9371H23.9348H23.9326H23.9304H23.9282H23.9259H23.9237H23.9215H23.9193H23.917H23.9148H23.9126H23.9104H23.9081H23.9059H23.9037H23.9014H23.8992H23.897H23.8948H23.8925H23.8903H23.8881H23.8859H23.8836H23.8814H23.8792H23.877H23.8747H23.8725H23.8703H23.8681H23.8658H23.8636H23.8614H23.8592H23.8569H23.8547H23.8525H23.8502H23.848H23.8458H23.8436H23.8413H23.8391H23.8369H23.8347H23.8324H23.8302H23.828H23.8258H23.8235H23.8213H23.8191H23.8169H23.8146H23.8124H23.8102H23.8079H23.8057H23.8035H23.8013H23.799H23.7968H23.7946H23.7924H23.7901H23.7879H23.7857H23.7835H23.7812H23.779H23.7768H23.7746H23.7723H23.7701H23.7679H23.7657H23.7634H23.7612H23.759H23.7567H23.7545H23.7523H23.7501H23.7478H23.7456H23.7434H23.7412H23.7389H23.7367H23.7345H23.7323H23.73H23.7278H23.7256H23.7234H23.7211H23.7189H23.7167H23.7145H23.7122H23.71H23.7078H23.7055H23.7033H23.7011H23.6989H23.6966H23.6944H23.6922H23.69H23.6877H23.6855H23.6833H23.6811H23.6788H23.6766H23.6744H23.6722H23.6699H23.6677H23.6655H23.6632H23.661H23.6588H23.6566H23.6543H23.6521H23.6499H23.6477H23.6454H23.6432H23.641H23.6388H23.6365H23.6343H23.6321H23.6299H23.6276H23.6254H23.6232H23.621H23.6187H23.6165H23.6143H23.612H23.6098H23.6076H23.6054H23.6031H23.6009H23.5987H23.5965H23.5942H23.592H23.5898H23.5876H23.5853H23.5831H23.5809H23.5787H23.5764H23.5742H23.572H23.5698H23.5675H23.5653H23.5631H23.5608H23.5586H23.5564H23.5542H23.5519H23.5497H23.5475H23.5453H23.543H23.5408H23.5386H23.5364H23.5341H23.5319H23.5297H23.5275H23.5252H23.523H23.5208H23.5186H23.5163H23.5141H23.5119H23.5096H23.5074H23.5052H23.503H23.5007H23.4985H23.4963H23.4941H23.4918H23.4896H23.4874H23.4852H23.4829H23.4807H23.4785H23.4763H23.474H23.4718H23.4696H23.4674H23.4651H23.4629H23.4607H23.4584H23.4562H23.454H23.4518H23.4495H23.4473H23.4451H23.4429H23.4406H23.4384H23.4362H23.434H23.4317H23.4295H23.4273H23.4251H23.4228H23.4206H23.4184H23.4161H23.4139H23.4117H23.4095H23.4072H23.405H23.4028H23.4006H23.3983H23.3961H23.3939H23.3917H23.3894H23.3872H23.385H23.3828H23.3805H23.3783H23.3761H23.3739H23.3716H23.3694H23.3672H23.3649H23.3627H23.3605H23.3583H23.356H23.3538H23.3516H23.3494H23.3471H23.3449H23.3427H23.3405H23.3382H23.336H23.3338H23.3316H23.3293H23.3271H23.3249H23.3227H23.3204H23.3182H23.316H23.3137H23.3115H23.3093H23.3071H23.3048H23.3026H23.3004H23.2982H23.2959H23.2937H23.2915H23.2893H23.287H23.2848H23.2826H23.2804H23.2781H23.2759H23.2737H23.2715H23.2692H23.267H23.2648H23.2625H23.2603H23.2581H23.2559H23.2536H23.2514H23.2492H23.247H23.2447H23.2425H23.2403H23.2381H23.2358H23.2336H23.2314H23.2292H23.2269H23.2247H23.2225H23.2202H23.218H23.2158H23.2136H23.2113H23.2091H23.2069H23.2047H23.2024H23.2002H23.198H23.1958H23.1935H23.1913H23.1891H23.1869H23.1846H23.1824H23.1802H23.178H23.1757H23.1735H23.1713H23.169H23.1668H23.1646H23.1624H23.1601H23.1579H23.1557H23.1535H23.1512H23.149H23.1468H23.1446H23.1423H23.1401H23.1379H23.1357H23.1334H23.1312H23.129H23.1268H23.1245H23.1223H23.1201H23.1178H23.1156H23.1134H23.1112H23.1089H23.1067H23.1045H23.1023H23.1H23.0978H23.0956H23.0934H23.0911H23.0889H23.0867H23.0845H23.0822H23.08H23.0778H23.0756H23.0733H23.0711H23.0689H23.0666H23.0644H23.0622H23.06H23.0577H23.0555H23.0533H23.0511H23.0488H23.0466H23.0444H23.0422H23.0399H23.0377H23.0355H23.0333H23.031H23.0288H23.0266H23.0243H23.0221H23.0199H23.0177H23.0154H23.0132H23.011H23.0088H23.0065H23.0043H23.0021H22.9999H22.9976H22.9954H22.9932H22.991H22.9887ZM23.7922 3.74872C30.6966 8.33922 34.9248 14.7492 36.4808 22.9866L36.4846 23.0066L36.4938 23.0247C36.6472 23.3232 36.8494 23.5321 37.1097 23.6188C37.3697 23.7055 37.6578 23.6602 37.9616 23.5145L37.9727 23.5091L37.9828 23.5019C38.7897 22.9218 39.4217 22.1926 39.8775 21.3156L39.8785 21.3136C40.2068 20.657 40.4939 19.9833 40.7399 19.2926C43.8565 24.2879 44.8116 29.6752 43.6065 35.4621C41.6119 41.6015 37.5472 45.6653 31.4018 47.6639C24.858 49.4711 18.9218 48.309 13.5793 44.1753C8.87431 40.1175 6.81914 34.9864 7.4089 28.7677L7.40903 28.7661C7.63099 26.105 8.24343 23.5457 9.24643 21.0877C9.78523 22.6276 10.8014 23.7557 12.2905 24.4645L12.3003 24.4692L12.3108 24.4723C12.5694 24.5492 12.8151 24.5601 13.0434 24.4962C13.2721 24.4322 13.4722 24.2961 13.6442 24.0971L13.6725 24.0643L13.6774 24.0212C14.0698 20.5704 15.4487 17.5922 17.8158 15.0821C19.3218 13.7033 20.6877 12.2102 21.913 10.603L21.9187 10.5956L21.9233 10.5875C23.1324 8.4688 23.7555 6.18849 23.7922 3.74872Z" fill="#212A35" stroke="#212A35" stroke-width="0.280562"/>
<path opacity="0.934" d="M18.9832 24.2459L18.9831 24.2452L18.9695 24.2481C16.2813 24.8144 14.361 26.3639 13.2192 28.8867L13.216 28.8937L13.2136 28.901C12.1353 32.2097 12.456 35.385 14.1747 38.4169L14.1788 38.4241L14.1837 38.4307C16.7422 41.9162 20.0393 44.4492 24.0724 46.0279C24.7289 46.3303 25.4155 46.4608 26.1302 46.4187L26.1473 46.4177L26.1635 46.4127C30.1448 45.1791 33.5072 42.996 36.2481 39.8648L36.2482 39.8649L36.2508 39.8617C38.0064 37.735 38.8883 35.2818 38.8949 32.5077C38.9236 30.738 38.5534 29.2038 37.7778 27.9113C37.0022 26.6185 35.8264 25.5765 34.2588 24.7826L34.2511 24.7787L34.243 24.7758C32.5284 24.1586 30.947 24.0426 29.5043 24.4398C28.1084 24.824 26.8555 25.6851 25.7447 27.0112C24.0265 24.8664 21.7671 23.9429 18.9832 24.2459ZM26.5568 29.7053L26.5724 29.6887L26.5819 29.668C27.2892 28.1315 28.2163 27.127 29.3549 26.6303C30.4909 26.1347 31.8605 26.1345 33.4761 26.6523C34.6388 27.2656 35.5007 28.0538 36.0694 29.0143C36.6397 29.9778 36.9201 31.1233 36.9047 32.4566C36.8616 34.471 36.2852 36.3109 35.1748 37.9794C32.6632 41.0581 29.5198 43.2207 25.7421 44.4688C21.9608 43.2195 18.8176 41.057 16.3096 37.9796C14.4118 35.0975 14.1312 32.0819 15.4656 28.9163C16.5861 27.2413 18.1402 26.3184 20.1382 26.1409C21.2978 26.2425 22.2687 26.5868 23.057 27.1684C23.848 27.7521 24.4633 28.5807 24.8996 29.6619L24.9094 29.6862L24.9274 29.7053C25.179 29.9737 25.4509 30.1296 25.7421 30.1296C26.0333 30.1296 26.3052 29.9737 26.5568 29.7053Z" fill="#212A35" stroke="#212A35" stroke-width="0.280562"/>
</svg>
