<svg width="32" height="32" viewBox="0 0 32 32" fill="none" xmlns="http://www.w3.org/2000/svg">
<path d="M16 0L29.8564 8V24L16 32L2.14359 24V8L16 0Z" fill="#171F28"/>
<g clip-path="url(#clip0_402_6384)">
<path d="M16.583 9.5828C16.583 9.42809 16.6445 9.27972 16.7539 9.17032C16.8632 9.06092 17.0116 8.99947 17.1663 8.99947C18.7129 9.00117 20.1957 9.61629 21.2892 10.7099C22.3828 11.8035 22.998 13.2862 22.9997 14.8328C22.9997 14.9875 22.9382 15.1359 22.8288 15.2453C22.7194 15.3547 22.571 15.4161 22.4163 15.4161C22.2616 15.4161 22.1132 15.3547 22.0039 15.2453C21.8945 15.1359 21.833 14.9875 21.833 14.8328C21.8316 13.5955 21.3395 12.4094 20.4646 11.5345C19.5898 10.6596 18.4036 10.1675 17.1663 10.1661C17.0116 10.1661 16.8632 10.1047 16.7539 9.99528C16.6445 9.88588 16.583 9.73751 16.583 9.5828ZM17.1663 12.4995C17.7852 12.4995 18.3787 12.7453 18.8162 13.1829C19.2538 13.6205 19.4997 14.214 19.4997 14.8328C19.4997 14.9875 19.5611 15.1359 19.6705 15.2453C19.7799 15.3547 19.9283 15.4161 20.083 15.4161C20.2377 15.4161 20.3861 15.3547 20.4955 15.2453C20.6049 15.1359 20.6663 14.9875 20.6663 14.8328C20.6654 13.9048 20.2964 13.0151 19.6402 12.3589C18.984 11.7028 18.0943 11.3337 17.1663 11.3328C17.0116 11.3328 16.8632 11.3943 16.7539 11.5037C16.6445 11.6131 16.583 11.7614 16.583 11.9161C16.583 12.0708 16.6445 12.2192 16.7539 12.3286C16.8632 12.438 17.0116 12.4995 17.1663 12.4995ZM22.4706 18.7639C22.8086 19.1029 22.9985 19.5621 22.9985 20.0408C22.9985 20.5195 22.8086 20.9787 22.4706 21.3177L21.9397 21.9296C17.1622 26.5035 5.53642 14.8806 10.0397 10.088L10.7106 9.50463C11.0499 9.17603 11.505 8.99425 11.9774 8.99861C12.4498 9.00298 12.9014 9.19314 13.2347 9.52797C13.2527 9.54605 14.3337 10.9501 14.3337 10.9501C14.6544 11.2871 14.8329 11.7347 14.8322 12.1999C14.8314 12.6651 14.6514 13.1121 14.3296 13.448L13.6541 14.2973C14.0279 15.2056 14.5775 16.0311 15.2714 16.7264C15.9652 17.4216 16.7896 17.9729 17.6972 18.3485L18.5517 17.669C18.8877 17.3474 19.3346 17.1676 19.7997 17.1669C20.2647 17.1663 20.7122 17.3448 21.049 17.6655C21.049 17.6655 22.4525 18.7458 22.4706 18.7639ZM21.6679 19.6121C21.6679 19.6121 20.272 18.5381 20.2539 18.52C20.1337 18.4009 19.9714 18.334 19.8021 18.334C19.6329 18.334 19.4705 18.4009 19.3503 18.52C19.3346 18.5364 18.158 19.4738 18.158 19.4738C18.0787 19.5369 17.9843 19.5783 17.8842 19.5938C17.7841 19.6094 17.6816 19.5986 17.5869 19.5625C16.4112 19.1247 15.3433 18.4394 14.4555 17.5529C13.5677 16.6665 12.8808 15.5996 12.4413 14.4245C12.4024 14.3285 12.3897 14.2239 12.4045 14.1213C12.4194 14.0188 12.4613 13.9221 12.5259 13.8411C12.5259 13.8411 13.4633 12.664 13.4791 12.6488C13.5982 12.5286 13.6651 12.3662 13.6651 12.197C13.6651 12.0278 13.5982 11.8654 13.4791 11.7452C13.461 11.7277 12.3871 10.3306 12.3871 10.3306C12.2651 10.2213 12.1059 10.1627 11.9421 10.1669C11.7784 10.1711 11.6224 10.2379 11.5062 10.3534L10.8354 10.9367C7.54425 14.894 17.619 24.41 21.0869 21.1328L21.6183 20.5203C21.7429 20.405 21.8177 20.2457 21.8269 20.0762C21.8362 19.9067 21.7791 19.7403 21.6679 19.6121Z" fill="white"/>
</g>
<defs>
<clipPath id="clip0_402_6384">
<rect width="14" height="14" fill="white" transform="translate(9 9)"/>
</clipPath>
</defs>
</svg>
