<svg width="18" height="18" viewBox="0 0 18 18" fill="none" xmlns="http://www.w3.org/2000/svg">
<g clip-path="url(#clip0_562_7366)">
<path d="M17.2512 8.24986C17.0523 8.24986 16.8615 8.17084 16.7209 8.03019C16.5802 7.88953 16.5012 7.69877 16.5012 7.49986C16.4996 5.90904 15.867 4.38384 14.7421 3.25897C13.6172 2.13409 12.092 1.50144 10.5012 1.49986C10.3023 1.49986 10.1115 1.42084 9.97087 1.28019C9.83022 1.13953 9.7512 0.948767 9.7512 0.749855C9.7512 0.550943 9.83022 0.360177 9.97087 0.219525C10.1115 0.0788726 10.3023 -0.000145095 10.5012 -0.000145095C12.4897 0.0020386 14.396 0.792916 15.8021 2.19897C17.2081 3.60502 17.999 5.5114 18.0012 7.49986C18.0012 7.69877 17.9222 7.88953 17.7815 8.03019C17.6409 8.17084 17.4501 8.24986 17.2512 8.24986ZM15.0012 7.49986C15.0012 6.30638 14.5271 5.16179 13.6832 4.31787C12.8393 3.47396 11.6947 2.99986 10.5012 2.99986C10.3023 2.99986 10.1115 3.07887 9.97087 3.21953C9.83022 3.36018 9.7512 3.55094 9.7512 3.74986C9.7512 3.94877 9.83022 4.13953 9.97087 4.28019C10.1115 4.42084 10.3023 4.49986 10.5012 4.49986C11.2968 4.49986 12.0599 4.81593 12.6225 5.37853C13.1851 5.94114 13.5012 6.70421 13.5012 7.49986C13.5012 7.69877 13.5802 7.88953 13.7209 8.03019C13.8615 8.17084 14.0523 8.24986 14.2512 8.24986C14.4501 8.24986 14.6409 8.17084 14.7815 8.03019C14.9222 7.88953 15.0012 7.69877 15.0012 7.49986ZM16.6384 16.6229L17.3209 15.8361C17.7554 15.4003 17.9993 14.8101 17.9993 14.1947C17.9993 13.5794 17.7554 12.9892 17.3209 12.5534C17.2977 12.5301 15.4932 11.1419 15.4932 11.1419C15.0601 10.7296 14.4848 10.5001 13.8869 10.5009C13.289 10.5017 12.7144 10.7329 12.2824 11.1464L10.8529 12.3509C9.68608 11.8679 8.62611 11.1592 7.73391 10.2655C6.84171 9.37175 6.13486 8.31056 5.65395 7.14286L6.85395 5.71786C7.26773 5.28598 7.49917 4.71126 7.50015 4.11316C7.50113 3.51505 7.27157 2.93958 6.8592 2.50636C6.8592 2.50636 5.46945 0.704105 5.4462 0.680855C5.01829 0.250166 4.43811 0.00512142 3.83102 -0.00133401C3.22393 -0.00778943 2.63867 0.224863 2.2017 0.646355L1.3392 1.39636C-3.7563 7.30786 7.2162 18.1956 13.3227 17.9999C13.9393 18.0034 14.5504 17.8834 15.1199 17.6469C15.6894 17.4104 16.2058 17.0622 16.6384 16.6229Z" fill="#192734"/>
</g>
<defs>
<clipPath id="clip0_562_7366">
<rect width="18" height="18" fill="white"/>
</clipPath>
</defs>
</svg>
