<svg width="52" height="52" viewBox="0 0 52 52" fill="none" xmlns="http://www.w3.org/2000/svg">
<rect width="52" height="52" rx="12" fill="#00A9FF"/>
<g clip-path="url(#clip0_504_1129)">
<path d="M12.4266 12.1151C12.3008 12.1807 12.175 12.3065 12.1094 12.4377C12.0055 12.6401 12 12.7549 12 14.4611C12 16.1674 12.0055 16.2822 12.1094 16.4846C12.1805 16.6268 12.2953 16.7416 12.4375 16.8127C12.6398 16.9166 12.7547 16.9221 14.4883 16.9221C16.2219 16.9221 16.3367 16.9166 16.5391 16.8127C16.8672 16.6432 16.9766 16.3861 16.9766 15.7736V15.2815H18.6555H20.3344L19.9133 15.5658C17.4687 17.2502 15.8172 20.0502 15.4453 23.1565C15.4125 23.4408 15.3797 23.676 15.3742 23.676C15.3687 23.6815 15.2211 23.7526 15.0406 23.8346C14.1383 24.2666 13.575 25.3604 13.7391 26.3502C13.9141 27.433 14.718 28.2369 15.7953 28.4174C16.5281 28.5377 17.3375 28.2697 17.8844 27.7283C19.0164 26.5908 18.7758 24.7096 17.3922 23.9002L17.0312 23.6869L17.0641 23.408C17.425 20.2854 19.268 17.6166 22.0023 16.2604C22.5328 16.0033 23.6047 15.6041 23.7633 15.6151C23.807 15.6151 23.9492 15.7682 24.0859 15.9541C24.3594 16.326 24.7039 16.583 25.1687 16.7635C25.6117 16.9385 26.3883 16.9385 26.8312 16.7635C27.2961 16.583 27.6406 16.326 27.9141 15.9541C28.0508 15.7682 28.193 15.6151 28.2367 15.6151C28.3953 15.6041 29.4672 16.0033 29.9977 16.2604C32.732 17.6166 34.575 20.2854 34.9359 23.408L34.9687 23.6869L34.6078 23.9002C33.2242 24.7096 32.9836 26.5908 34.1156 27.7283C35.532 29.1447 37.9328 28.3463 38.2609 26.3502C38.425 25.3604 37.8617 24.2666 36.9594 23.8346C36.7789 23.7526 36.6312 23.6815 36.6258 23.676C36.6203 23.676 36.5875 23.4408 36.5547 23.1565C36.4016 21.9096 36.0789 20.794 35.5484 19.6838C34.7281 17.983 33.6562 16.6979 32.1141 15.5932L31.6766 15.2815H33.35H35.0234V15.7736C35.0234 16.3861 35.1328 16.6432 35.4609 16.8127C35.6633 16.9166 35.7781 16.9221 37.5117 16.9221C39.2453 16.9221 39.3602 16.9166 39.5625 16.8127C39.7047 16.7416 39.8195 16.6268 39.8906 16.4846C39.9945 16.2822 40 16.1674 40 14.4611C40 12.7549 39.9945 12.6401 39.8906 12.4377C39.8195 12.2955 39.7047 12.1807 39.5625 12.1096C39.3602 12.0057 39.2453 12.0002 37.5117 12.0002C35.7781 12.0002 35.6633 12.0057 35.4609 12.1096C35.1328 12.2791 35.0234 12.5361 35.0234 13.1486V13.6408H31.6766H28.3242L28.1602 13.3291C27.8102 12.6619 27.1375 12.1752 26.3828 12.044C25.3766 11.869 24.3211 12.4049 23.8398 13.3291L23.6758 13.6408H20.3289H16.9766V13.1486C16.9766 12.5361 16.8672 12.2791 16.5391 12.1096C16.3367 12.0057 16.2219 12.0002 14.4773 12.0002C12.7437 12.0057 12.618 12.0111 12.4266 12.1151Z" fill="white"/>
<path d="M21.9424 24.0472C20.1814 26.6996 18.7103 28.9254 18.6775 28.991C18.5244 29.2972 18.6502 29.6363 19.0931 30.1121C20.2853 31.4027 21.1713 33.0762 21.5705 34.8207C21.6853 35.3183 21.7072 35.3566 21.8111 35.3347C21.8767 35.3183 22.1228 35.2472 22.3635 35.1762C22.801 35.0504 22.8119 35.0504 26.0002 35.0504C29.1885 35.0504 29.1994 35.0504 29.6369 35.1762C29.8775 35.2472 30.1236 35.3183 30.1892 35.3347C30.2931 35.3566 30.315 35.3183 30.4299 34.8207C30.8291 33.0762 31.715 31.4027 32.9072 30.1121C33.3885 29.5926 33.4814 29.2972 33.2791 28.909C33.2189 28.7996 31.7424 26.5629 29.9978 23.9488L26.8205 19.191V23.0738V26.9566L27.1322 27.1207C28.0455 27.5965 28.5814 28.641 28.4174 29.6308C28.1931 30.9816 26.9408 31.9168 25.6392 31.698C24.5619 31.5176 23.758 30.7137 23.583 29.6308C23.4189 28.641 23.9549 27.5965 24.8681 27.1207L25.1799 26.9566V23.0847C25.1799 20.9574 25.1744 19.2183 25.1689 19.2183C25.158 19.2183 23.7088 21.3949 21.9424 24.0472Z" fill="white"/>
<path d="M25.6062 28.5758C25.3711 28.6961 25.1797 29.0188 25.1797 29.2813C25.1797 29.5547 25.3711 29.8664 25.6172 29.9922C25.732 30.0523 25.907 30.1016 26 30.1016C26.4156 30.1016 26.8203 29.6969 26.8203 29.2813C26.8203 29.0078 26.6289 28.6961 26.3828 28.5703C26.1148 28.4336 25.8687 28.4336 25.6062 28.5758Z" fill="white"/>
<path d="M22.8553 36.757C21.9092 36.9594 21.0506 37.6539 20.6022 38.5781C20.2959 39.207 20.3397 39.5406 20.7717 39.8578C20.9194 39.9727 20.9576 39.9727 25.9998 39.9727C31.042 39.9727 31.0803 39.9727 31.228 39.8578C31.66 39.5406 31.7037 39.207 31.3975 38.5781C30.9436 37.6375 30.085 36.9539 29.1061 36.7516C28.5045 36.6258 23.435 36.6313 22.8553 36.757Z" fill="white"/>
</g>
<defs>
<clipPath id="clip0_504_1129">
<rect width="28" height="28" fill="white" transform="translate(12 12)"/>
</clipPath>
</defs>
</svg>
