<svg width="52" height="52" viewBox="0 0 52 52" fill="none" xmlns="http://www.w3.org/2000/svg">
<rect width="52" height="52" rx="12" fill="#777BB3"/>
<path d="M19.2434 21.8696H14.1863L12 32.94H14.5968L15.1437 30.0704H17.604C19.9267 30.2068 22.5248 28.2933 22.5248 25.0133C22.5248 23.0998 21.431 22.006 19.2447 21.8696H19.2434ZM17.33 28.0205H15.6893L16.3726 23.9208H18.1497C19.1058 23.9208 19.7903 24.3312 19.7903 25.1509C19.6539 27.4749 18.5602 27.8841 17.33 28.0205ZM28.4004 21.8696H25.94L26.4869 19H23.8901L21.7038 30.0704H24.3006L25.5308 23.9208H27.5807C28.5381 23.9208 28.5381 24.3312 28.4004 25.0145L27.4443 30.0717H30.1775L31.1336 24.4676C31.4064 23.1011 30.5867 22.006 28.4004 21.8696ZM37.5573 21.8696H32.5002L30.3139 32.94H32.9106L33.4575 30.0704H35.9179C38.2419 30.2068 40.8387 28.2933 40.8387 25.0133C40.8387 23.0998 39.7436 22.006 37.5573 21.8696ZM35.6438 28.0205H34.0031L34.6864 23.9208H36.4635C37.4209 23.9208 38.1042 24.3312 38.1042 25.1509C37.9678 27.4749 36.874 27.8841 35.6438 28.0205Z" fill="white"/>
</svg>
