<svg width="650" height="650" viewBox="0 0 650 650" fill="none" xmlns="http://www.w3.org/2000/svg">
<g clip-path="url(#clip0_757_7621)">
<path d="M102.83 31.2002H101.53V207.389H102.83V31.2002Z" fill="#C7C7C7"/>
<path d="M163.358 266.37L158.431 277.186H45.9033L40.9893 266.37L88.9073 233.207H115.44L163.358 266.37Z" fill="#EBEBEB"/>
<path d="M118.768 201.253L115.44 233.207H88.9071L85.5791 201.253H118.768Z" fill="#DBDBDB"/>
<path d="M163.345 266.37L158.431 277.186H45.8903L40.9893 266.37H163.345Z" fill="#DBDBDB"/>
<path d="M234.196 31.2002H232.896V172.497H234.196V31.2002Z" fill="#C7C7C7"/>
<path d="M294.723 231.465L289.796 242.294H177.268L172.367 231.465L220.272 198.302H246.818L294.723 231.465Z" fill="#EBEBEB"/>
<path d="M250.133 166.361L246.818 198.302H220.272L216.944 166.361H250.133Z" fill="#DBDBDB"/>
<path d="M294.723 231.478L289.796 242.294H177.268L172.354 231.478H294.723Z" fill="#DBDBDB"/>
<path d="M63.3634 321.542L50.5324 342.225L56.9024 346.177C58.7614 347.334 59.7364 349.44 59.5544 351.624C59.4504 352.807 59.4114 353.99 59.4374 355.173C59.4764 357.383 58.3714 359.45 56.4214 360.49L49.8564 364.013L61.3614 385.476L67.9264 381.953C69.8114 380.939 72.1254 381.043 73.8804 382.278C74.9464 383.019 76.0384 383.708 77.1694 384.319C79.0544 385.346 80.1854 387.361 80.1204 389.506L79.8864 396.955L104.209 397.709L104.43 390.234C104.495 388.076 105.782 386.152 107.732 385.242C108.304 384.982 108.863 384.696 109.422 384.397C109.981 384.098 110.527 383.786 111.06 383.461C112.893 382.343 115.194 382.343 117.014 383.461L123.397 387.413L136.228 366.73L129.832 362.765C127.973 361.608 127.011 359.502 127.193 357.331C127.297 356.161 127.336 354.978 127.31 353.782C127.271 351.572 128.389 349.518 130.326 348.465L136.891 344.942L125.386 323.479L118.821 327.002C116.871 328.042 114.544 327.834 112.724 326.573C111.749 325.897 110.748 325.273 109.708 324.714C107.797 323.674 106.575 321.698 106.64 319.514L106.874 312L82.5514 311.246L82.3174 318.721C82.2524 320.905 80.9134 322.803 78.9374 323.739C78.3914 323.999 77.8584 324.272 77.3254 324.558C76.7924 324.844 76.2724 325.143 75.7654 325.442C73.8934 326.573 71.5534 326.638 69.6944 325.481L63.3504 321.542H63.3634ZM81.7454 338.273C92.4704 330.655 107.303 335.14 112.022 347.412C115.233 355.771 112.308 365.482 105.015 370.669C94.3034 378.287 79.4184 373.802 74.7124 361.517C71.5014 353.158 74.4524 343.46 81.7454 338.273Z" fill="#EBEBEB"/>
<path d="M596.961 119.587C595.843 118.937 595.232 117.715 595.297 116.428C595.31 116.077 595.323 115.726 595.323 115.375C595.323 115.024 595.323 114.66 595.297 114.309C595.232 113.022 595.843 111.8 596.961 111.163L600.77 108.966L593.607 96.5506L589.798 98.7476C588.68 99.3976 587.302 99.3326 586.223 98.6176C585.625 98.2276 585.014 97.8766 584.377 97.5516C583.233 96.9666 582.492 95.8096 582.492 94.5226V90.1416H568.153V94.5226C568.153 95.8096 567.412 96.9666 566.268 97.5516C565.631 97.8766 565.02 98.2276 564.422 98.6176C563.343 99.3196 561.965 99.3846 560.847 98.7476L557.038 96.5506L549.875 108.966L553.697 111.176C554.815 111.813 555.426 113.035 555.361 114.322C555.348 114.673 555.335 115.024 555.335 115.375C555.335 115.726 555.335 116.077 555.361 116.428C555.426 117.715 554.815 118.95 553.697 119.587L549.888 121.784L557.051 134.199L560.847 132.002C561.965 131.352 563.343 131.417 564.422 132.119C565.02 132.509 565.644 132.86 566.281 133.185C567.425 133.77 568.166 134.927 568.166 136.214V140.595H582.505V136.214C582.505 134.927 583.246 133.77 584.39 133.185C585.027 132.86 585.651 132.496 586.249 132.119C587.328 131.417 588.706 131.352 589.824 132.002L593.62 134.199L600.783 121.784L596.974 119.587H596.961ZM575.329 127.114C568.842 127.114 563.59 121.849 563.59 115.375C563.59 108.901 568.855 103.649 575.329 103.649C581.803 103.649 587.055 108.901 587.055 115.375C587.055 121.849 581.803 127.114 575.329 127.114Z" fill="#EBEBEB"/>
<path d="M274.496 445.718C273.469 445.146 272.832 443.989 272.806 442.806C272.806 442.221 272.845 441.636 272.806 441.051C272.793 440.466 272.728 439.868 272.91 439.296C273.066 438.724 273.352 438.191 273.768 437.775C274.184 437.346 274.73 437.099 275.224 436.787L278.253 435.019L278.227 435.097L271.012 422.721L271.181 422.76L267.203 425.1C266.488 425.464 265.63 425.568 264.85 425.399C264.031 425.23 263.381 424.723 262.731 424.385L261.73 423.826C261.366 423.631 261.041 423.384 260.755 423.085C260.183 422.487 259.832 421.694 259.767 420.875L259.715 416.247L260.014 416.546L245.688 416.689L246.13 416.247L246.169 420.888C246.117 421.772 245.753 422.63 245.155 423.28C244.856 423.605 244.505 423.878 244.115 424.086L243.14 424.658L242.165 425.243C241.788 425.477 241.372 425.659 240.943 425.75C240.072 425.958 239.136 425.854 238.33 425.451L234.3 423.15L235.093 422.942L227.982 435.383L227.748 434.525L231.778 436.839C232.545 437.346 233.117 438.139 233.377 439.01C233.507 439.439 233.572 439.894 233.559 440.349L233.52 441.48L233.546 442.611C233.546 443.066 233.494 443.508 233.364 443.95C233.104 444.821 232.532 445.601 231.765 446.095L227.735 448.409L227.956 447.59L235.054 460.031L234.326 459.836L238.369 457.561C239.162 457.171 240.085 457.08 240.93 457.288C241.359 457.392 241.762 457.561 242.126 457.795L243.101 458.38L244.076 458.952C244.453 459.16 244.804 459.42 245.09 459.745C245.675 460.382 246.026 461.214 246.078 462.072L246.039 466.7L245.688 466.349L260.014 466.492L259.806 466.7L259.858 462.085C259.923 461.279 260.261 460.512 260.82 459.927C261.379 459.329 262.133 459.043 262.77 458.653C263.433 458.315 264.07 457.808 264.863 457.639C265.63 457.457 266.462 457.561 267.164 457.912L271.155 460.226L271.051 460.252L278.266 447.876V447.902L274.47 445.692L274.496 445.718ZM274.496 445.718L278.305 447.902H278.318V447.928L271.207 460.369L271.168 460.434L271.103 460.395L267.112 458.12C266.436 457.795 265.656 457.704 264.928 457.886C264.187 458.042 263.589 458.536 262.913 458.9C262.263 459.316 261.535 459.615 261.054 460.161C260.56 460.707 260.248 461.422 260.209 462.15L260.248 466.752V466.96H260.04L245.714 467.103H245.363V466.752L245.311 462.176C245.259 461.5 244.96 460.85 244.492 460.369C244.258 460.122 243.985 459.927 243.686 459.758L242.672 459.186L241.658 458.614C241.372 458.445 241.06 458.315 240.735 458.25C240.085 458.107 239.396 458.198 238.811 458.484L234.872 460.811L234.417 461.084L234.144 460.616L226.929 448.24L226.63 447.72L227.15 447.421L231.102 445.12C231.622 444.769 232.012 444.236 232.181 443.638C232.272 443.339 232.311 443.014 232.298 442.702L232.259 441.532L232.285 440.362C232.285 440.05 232.246 439.725 232.155 439.426C231.973 438.828 231.583 438.308 231.063 437.97L227.111 435.669L226.565 435.344L226.877 434.798L234.079 422.409L234.365 421.915L234.859 422.201L238.811 424.489C239.383 424.775 240.059 424.853 240.683 424.71C240.995 424.645 241.307 424.515 241.58 424.346L242.594 423.774L243.608 423.202C243.894 423.046 244.167 422.851 244.388 422.617C244.843 422.149 245.129 421.512 245.181 420.862L245.233 416.286V415.844H245.675L260.001 415.987H260.3V416.286L260.261 420.875C260.3 421.59 260.599 422.279 261.08 422.799C261.548 423.332 262.25 423.618 262.926 424.047C263.615 424.424 264.213 424.905 264.915 425.061C265.617 425.23 266.384 425.152 267.047 424.84L271.051 422.591L271.155 422.526L271.22 422.63L278.318 435.071L278.344 435.123L278.292 435.149L275.25 436.891C274.756 437.19 274.21 437.437 273.807 437.853C273.391 438.256 273.105 438.776 272.949 439.335C272.78 439.894 272.832 440.492 272.845 441.064C272.871 441.649 272.819 442.234 272.819 442.819C272.819 443.989 273.456 445.146 274.483 445.731L274.496 445.718Z" fill="#EBEBEB"/>
<path d="M252.877 453.245C249.796 453.271 246.741 452.023 244.518 449.865C242.269 447.733 240.878 444.665 240.813 441.506C240.722 438.347 241.931 435.136 244.18 432.809C246.403 430.482 249.627 429.117 252.877 429.117C256.127 429.117 259.351 430.469 261.574 432.796C263.823 435.11 265.032 438.334 264.941 441.493C264.876 444.665 263.485 447.72 261.249 449.852C259.026 452.01 255.971 453.245 252.89 453.232L252.877 453.245ZM252.877 453.245C255.958 453.245 259 451.958 261.106 449.735C263.225 447.525 264.369 444.483 264.278 441.493C264.213 438.49 262.9 435.604 260.768 433.589C258.662 431.548 255.776 430.391 252.864 430.404C249.952 430.391 247.066 431.548 244.96 433.589C242.828 435.604 241.515 438.49 241.45 441.493C241.359 444.483 242.503 447.525 244.635 449.722C246.741 451.932 249.796 453.219 252.864 453.219L252.877 453.245Z" fill="#EBEBEB"/>
<path d="M40.2998 600.288L111.553 599.976L182.806 599.859L325.312 599.651L467.818 599.859L539.071 599.976L610.311 600.288L539.071 600.613L467.818 600.73L325.312 600.938L182.806 600.73L111.553 600.613L40.2998 600.288Z" fill="#263238"/>
<path d="M598.663 148.213H383.123V366.067H598.663V148.213Z" fill="#EBEBEB"/>
<path d="M482.235 135.07C489.424 126.633 501.709 124.605 513.643 127.01C525.577 129.415 539.825 135.434 541.138 155.35C542.204 171.522 537.199 187.291 537.277 205.335C537.355 223.379 557.7 267.332 525.018 288.782C495.664 308.048 436.15 290.355 434.317 250.705C432.861 219.271 470.158 190.203 474.084 177.749C478.01 165.295 474.344 144.326 482.235 135.083V135.07Z" fill="#263238"/>
<path d="M476.866 152.815C476.645 161.811 475.345 170.911 471.614 179.413C470.691 181.532 469.391 183.586 467.909 185.38C466.453 187.2 464.919 188.903 463.398 190.606C460.304 193.973 457.249 197.314 454.363 200.798C448.565 207.714 443.521 215.202 439.985 223.405C436.449 231.595 434.551 240.448 434.278 249.457C433.875 244.959 434.07 240.409 434.681 235.911C435.357 231.413 436.553 226.993 438.152 222.703C441.337 214.097 446.498 206.31 452.348 199.238C455.299 195.715 458.445 192.361 461.552 189.02C464.672 185.666 467.831 182.494 469.768 178.568C471.809 174.655 473.187 170.365 474.279 166.036C475.462 161.707 476.229 157.287 476.866 152.815Z" fill="#263238"/>
<path d="M540.292 168.922C540.058 178.1 539.486 187.265 539.733 196.365C539.902 200.915 540.149 205.452 540.877 209.924C541.553 214.344 542.866 218.764 543.971 223.236C545.063 227.721 546.064 232.245 546.792 236.821C547.455 241.41 547.845 246.064 547.676 250.718C547.442 255.372 546.636 260.012 545.102 264.42C543.36 268.774 540.76 272.753 537.445 276.042C540.318 272.376 542.593 268.385 543.893 264.03C545.141 259.675 545.7 255.19 545.687 250.666C545.544 241.618 543.698 232.66 541.449 223.794C540.396 219.335 539.083 214.903 538.446 210.223C537.848 205.608 537.627 200.967 537.744 196.352C537.913 187.122 538.992 177.996 540.279 168.896L540.292 168.922Z" fill="#263238"/>
<path d="M493.052 246.103C463.1 279.019 438.764 294.827 414.714 294.827C391.834 294.827 342.98 239.304 339.392 231.985C336.298 225.68 376.403 191.113 382.578 195.403C392.913 202.605 426.336 244.296 429.872 244.504C433.551 244.699 446.434 236.093 477.803 221.403C496.822 212.498 513.813 223.301 493.065 246.103H493.052Z" fill="#EB9481"/>
<path d="M344.006 237.458C339.573 232.674 321.165 208.936 317.525 201.188C313.885 193.44 305.019 170.378 310.661 166.985C316.316 163.592 319.449 170.131 319.449 170.131C319.449 170.131 317.252 159.796 323.245 156.91C329.238 154.011 333.788 164.359 333.788 164.359C333.788 164.359 332.306 153.582 338.494 151.125C344.682 148.668 347.516 159.822 347.516 159.822C347.516 159.822 345.696 150.033 351.65 150.15C358.813 150.293 360.126 168.714 364.793 176.969C365.846 178.841 388.96 213.421 388.96 213.421L344.006 237.445V237.458Z" fill="#EB9481"/>
<path d="M347.255 158.886C348.256 172.432 351.038 178.178 358.981 188.929C359.137 189.137 358.864 189.423 358.682 189.215C349.933 179.4 345.409 172.679 346.592 158.899C346.644 158.223 347.203 158.236 347.255 158.886Z" fill="#263238"/>
<path d="M333.736 163.293C335.998 177.268 338.962 183.534 346.463 195.403C346.567 195.572 346.294 195.767 346.177 195.611C337.844 184.587 333.476 177.775 333.047 163.514C333.021 162.864 333.632 162.656 333.736 163.293Z" fill="#263238"/>
<path d="M319.852 170.742C323.024 184.119 325.975 191.126 334.737 201.721C334.945 201.968 334.594 202.293 334.373 202.072C324.389 192.14 320.645 183.417 319.462 170.898C319.384 170.04 319.657 169.923 319.852 170.755V170.742Z" fill="#263238"/>
<path d="M399.255 216.684C399.255 216.684 398.956 199.667 397.175 192.218C395.394 184.769 378.546 159.471 372.878 162.799C365.559 167.102 372.397 183.625 376.817 191.282C376.817 191.282 359.865 201.201 362.218 214.136C364.571 227.058 399.268 216.697 399.268 216.697L399.255 216.684Z" fill="#EB9481"/>
<path d="M371.253 164.632C367.405 173.368 373.84 183.04 377.571 190.788C377.857 191.373 377.48 191.815 376.986 191.945C370.161 196.586 361.88 205.101 361.776 213.811C361.776 214.071 361.412 214.097 361.373 213.837C360.216 204.477 367.665 195.442 375.465 190.84C371.526 182.962 365.494 172.965 371.162 164.58C371.188 164.528 371.266 164.567 371.24 164.619L371.253 164.632Z" fill="#263238"/>
<path d="M441.454 234.923L465.478 279.747C465.478 279.747 498.056 248.118 503.256 234.923C508.456 221.728 502.853 212.16 479.674 219.219C456.495 226.278 441.454 234.923 441.454 234.923Z" fill="#FFC727"/>
<path d="M471.029 270.386C469.833 267.955 468.806 265.446 467.571 263.028C466.349 260.623 465.101 258.231 463.814 255.852C461.214 251.068 458.627 246.271 455.91 241.552C454.376 238.9 452.777 236.274 451.1 233.7C451.022 233.583 450.814 233.661 450.866 233.804C455.273 243.671 460.616 253.122 465.946 262.508C467.493 265.225 469.248 267.812 470.86 270.49C470.925 270.607 471.094 270.49 471.029 270.386Z" fill="#263238"/>
<path d="M503.257 234.923C498.057 248.118 465.479 279.747 465.479 279.747L449.294 249.548L502.685 220.025C505.753 223.275 505.714 228.696 503.257 234.923Z" fill="#263238"/>
<path d="M446.927 310.388C446.927 310.388 433.706 342.004 438.386 366.054H583.947C579.215 300.664 546.624 244.478 527.371 226.304C511.836 211.64 495.495 212.94 484.133 220.454C481.442 222.235 451.906 263.068 448.695 269.529C436.072 295.022 446.914 310.388 446.914 310.388H446.927Z" fill="#FFC727"/>
<path d="M485.147 218.53C485.147 218.53 476.021 244.699 481.325 246.064C494.455 249.444 512.07 228.007 513.123 225.823C513.383 225.264 514.553 210.6 515.424 199.212C515.983 191.88 516.425 185.9 516.425 185.9L484.029 197.002L485.069 217.1L485.147 218.543V218.53Z" fill="#EB9481"/>
<path d="M484.029 197.003L485.069 217.101C491.66 216.178 506.155 212.603 515.424 199.226C515.983 191.894 516.425 185.914 516.425 185.914L512.369 187.162L484.029 197.016V197.003Z" fill="#263238"/>
<path d="M459.887 168.883C459.51 179.088 460.524 187.343 463.007 192.816C469.091 206.232 481.792 208.936 487.174 209.131C491.048 209.274 502.306 208.247 510.418 202.059C516.736 197.249 520.545 188.578 522.703 173.329C527.643 138.476 511.705 126.75 495.975 125.346C480.258 123.942 461.187 133.718 459.874 168.896L459.887 168.883Z" fill="#EB9481"/>
<path d="M468.91 161.108C469.729 161.004 470.483 160.77 471.289 160.575C472.199 160.367 472.94 160.289 473.603 159.574C473.954 159.197 473.915 158.43 473.577 158.04C472.784 157.156 471.614 157.143 470.509 157.351C469.313 157.585 468.442 158.066 467.662 159.002C466.908 159.912 467.818 161.238 468.91 161.108Z" fill="#263238"/>
<path d="M491.88 161.979C491.061 161.862 490.32 161.628 489.514 161.433C488.604 161.212 487.863 161.134 487.2 160.419C486.849 160.029 486.888 159.262 487.226 158.885C488.019 158.001 489.202 158.001 490.294 158.222C491.49 158.456 492.348 158.95 493.128 159.886C493.882 160.796 492.959 162.122 491.867 161.979H491.88Z" fill="#263238"/>
<path d="M486.132 170.768C486.158 170.677 486.314 170.885 486.301 170.989C486.106 173.381 486.301 176.15 488.42 177.047C488.485 177.073 488.472 177.19 488.394 177.177C485.768 176.683 485.56 173.004 486.132 170.768Z" fill="#263238"/>
<path d="M488.394 168.363C492.255 168.259 492.19 175.994 488.602 176.098C485.079 176.189 485.144 168.454 488.394 168.363Z" fill="#263238"/>
<path d="M489.903 168.791C490.579 169.233 491.229 170.014 492.048 170.105C492.984 170.209 493.712 169.403 494.336 168.636C494.401 168.558 494.466 168.636 494.466 168.727C494.466 170.209 493.894 171.73 492.295 171.938C490.839 172.133 489.812 170.807 489.461 169.312C489.396 169.039 489.643 168.636 489.903 168.805V168.791Z" fill="#263238"/>
<path d="M473.329 169.753C473.316 169.662 473.147 169.87 473.147 169.961C473.225 172.353 472.9 175.109 470.729 175.902C470.664 175.928 470.664 176.045 470.755 176.032C473.407 175.668 473.784 172.002 473.342 169.74L473.329 169.753Z" fill="#263238"/>
<path d="M471.183 167.244C467.322 166.945 467.01 174.68 470.585 174.953C474.095 175.226 474.407 167.491 471.183 167.244Z" fill="#263238"/>
<path d="M469.558 167.686C468.934 168.076 468.297 168.791 467.569 168.804C466.724 168.83 466.126 167.959 465.619 167.14C465.567 167.049 465.502 167.114 465.502 167.218C465.398 168.7 465.827 170.247 467.231 170.598C468.518 170.91 469.519 169.675 469.935 168.219C470.013 167.946 469.818 167.53 469.571 167.686H469.558Z" fill="#263238"/>
<path d="M485.9 189.384C485.341 189.969 484.808 190.762 483.937 190.866C483.105 190.97 482.117 190.619 481.337 190.359C481.259 190.333 481.181 190.411 481.233 190.489C481.883 191.386 483.222 191.919 484.327 191.685C485.406 191.451 485.913 190.502 486.134 189.501C486.16 189.358 485.978 189.319 485.9 189.397V189.384Z" fill="#263238"/>
<path d="M476.059 180.505C476.059 180.505 475.487 184.08 475.448 185.757C475.448 185.913 475.851 186.004 476.423 186.043C476.449 186.043 476.461 186.069 476.487 186.043C479.464 186.576 482.48 185.601 484.339 183.209C484.456 183.04 484.248 182.871 484.092 182.975C481.83 184.561 479.36 184.938 476.721 184.925C476.617 184.457 477.904 178.841 477.631 178.815C476.708 178.711 474.876 179.309 473.784 179.608C474.759 172.146 476.916 164.892 477.774 157.443C477.8 157.183 477.423 157.092 477.332 157.326C474.524 164.762 473.224 173.342 472.028 181.025C471.872 181.987 475.37 180.791 476.059 180.518V180.505Z" fill="#263238"/>
<path d="M477.567 185.172C477.567 185.172 478.906 187.304 480.882 188.188C481.61 188.513 482.416 188.682 483.287 188.526C485.068 188.201 485.237 186.602 485.016 185.211C484.847 184.067 484.392 183.053 484.392 183.053C484.392 183.053 481.662 185.237 477.554 185.172H477.567Z" fill="#263238"/>
<path d="M480.881 188.187C481.609 188.512 482.415 188.681 483.286 188.525C485.067 188.2 485.236 186.601 485.015 185.21C483.13 185.262 481.18 186.38 480.881 188.187Z" fill="#FF98B9"/>
<path d="M522.066 170.196C518.231 170.313 507.363 160.732 505.374 142.363C505.374 142.363 508.299 158.743 509.755 161.044C511.224 163.345 503.671 155.649 501.864 140.855C501.864 140.855 494.181 147.537 487.356 150.137C480.531 152.737 476.228 153.062 475.682 152.607C475.136 152.139 485.146 147.953 487.642 144.482C487.642 144.482 469.793 154.843 461.265 156.286C460.277 156.455 461.941 141.089 474.434 131.209C486.927 121.329 504.113 123.799 510.262 128.752C510.262 128.752 516.996 129.09 525.108 138.255C533.22 147.42 526.174 170.053 522.053 170.183L522.066 170.196Z" fill="#263238"/>
<path d="M517.023 175.812C517.023 175.812 524.16 164.463 529.269 166.946C534.378 169.442 529.399 185.627 523.666 188.097C517.933 190.567 515.541 185.289 515.541 185.289L517.023 175.812Z" fill="#EB9481"/>
<path d="M527.723 171.561C527.814 171.548 527.84 171.678 527.762 171.717C523.745 173.576 521.769 177.489 520.456 181.506C521.6 179.933 523.225 179.01 525.318 180.362C525.422 180.427 525.331 180.609 525.214 180.583C523.511 180.31 522.315 180.661 521.249 182.052C520.495 183.04 520.001 184.275 519.481 185.406C519.312 185.783 518.636 185.614 518.753 185.185C518.753 185.159 518.779 185.12 518.779 185.094C518.415 179.868 522.12 172.354 527.71 171.561H527.723Z" fill="#263238"/>
<path d="M538.707 233.441C553.111 250.068 593.489 310.258 584.129 326.521C575.146 342.121 554.775 346.502 543.049 325.559C534.651 310.557 520.429 265.85 516.906 244.413C514.046 227.032 525.395 218.062 538.707 233.441Z" fill="#EB9481"/>
<path d="M525.252 286.728L572.988 269.178C572.988 269.178 546.195 232.518 533.858 225.537C521.521 218.556 511.251 222.768 515.021 246.701C518.791 270.634 525.252 286.728 525.252 286.728Z" fill="#FFC727"/>
<path d="M564.486 262.379C561.912 263.224 559.286 263.9 556.725 264.784C554.177 265.668 551.629 266.565 549.094 267.514C543.985 269.412 538.889 271.323 533.832 273.351C530.985 274.495 528.164 275.73 525.382 277.03C525.252 277.082 525.304 277.316 525.447 277.277C535.821 274.287 545.935 270.309 555.971 266.331C558.883 265.174 561.678 263.796 564.551 262.574C564.668 262.522 564.59 262.353 564.473 262.392L564.486 262.379Z" fill="#263238"/>
<path d="M527.943 285.61C527.007 285.779 526.084 286.143 525.174 286.468C523.861 283.647 520.806 271.245 520.078 268.073C518.648 261.716 517.452 255.32 515.97 248.976C515.931 248.794 515.619 248.846 515.645 249.028C516.1 252.538 516.633 256.048 517.257 259.545C516.607 257.881 515.996 256.191 515.437 254.501C515.411 254.41 515.268 254.449 515.294 254.54C515.892 256.672 516.62 258.726 517.478 260.754C517.985 267.241 523.9 287.911 524.069 287.833C525.031 287.391 527.137 286.39 528.021 285.805C528.125 285.74 528.047 285.597 527.943 285.623V285.61Z" fill="#263238"/>
<path d="M504.322 163.241L490.737 221.234C490.152 222.937 491.023 224.302 492.687 224.276L518.622 229.554C520.286 229.528 522.119 228.124 522.704 226.408L536.289 168.415C536.874 166.712 536.003 165.347 534.339 165.373L508.404 160.095C506.74 160.121 504.907 161.525 504.322 163.241Z" fill="#A6A6A6"/>
<path d="M506.557 163.566L492.972 221.559C492.387 223.262 493.258 224.627 494.922 224.601L520.857 229.879C522.521 229.853 524.354 228.449 524.939 226.733L538.524 168.74C539.109 167.037 538.238 165.672 536.574 165.698L510.639 160.42C508.975 160.446 507.142 161.85 506.557 163.566Z" fill="#DBDBDB"/>
<path d="M514.774 166.062C514.774 167.466 513.63 168.584 512.226 168.584C510.822 168.584 509.704 167.44 509.704 166.036C509.704 164.632 510.848 163.514 512.252 163.514C513.656 163.514 514.774 164.658 514.774 166.062Z" fill="#263238"/>
<path d="M549.978 330.811C558.415 346.463 580.749 337.519 584.129 326.521C592.059 300.716 587.145 257.803 582.413 233.857C580.892 226.148 528.528 233.792 528.84 242.177C529.217 252.252 533.442 300.118 549.978 330.798V330.811Z" fill="#EB9481"/>
<path d="M581.828 245.31C581.828 245.31 586.261 228.735 582.283 210.717C579.527 198.25 570.518 171.795 534.3 159.965C525.707 157.157 511.472 159.25 523.848 168.935C532.636 175.812 540.28 177.515 544.661 182.442C544.661 182.442 526.877 187.252 524.394 195.975C523.289 199.875 520.52 210.574 519.545 219.219C519.545 219.219 521.365 219.934 523.809 220.519C523.809 220.519 522.067 231.179 528.814 242.203L581.815 245.323L581.828 245.31Z" fill="#EB9481"/>
<path d="M577.759 199.225C572.377 195.247 560.82 187.018 549.029 183.573C535.938 179.751 509.678 175.903 506.948 185.601C504.946 192.712 514.852 195.065 514.852 195.065C514.852 195.065 503.659 195.767 503.269 202.579C502.905 208.793 510.666 210.145 510.666 210.145C510.666 210.145 503.958 211.731 504.751 217.789C505.713 225.069 519.623 220.545 526.968 227.071C528.619 228.54 577.759 199.225 577.759 199.225Z" fill="#EB9481"/>
<path d="M547.3 198.094C541.619 195.182 527.046 191.893 515.06 194.87C514.787 194.935 514.696 195.182 514.956 195.169C528.853 194.701 541.827 196.937 547.274 198.224C547.352 198.237 547.378 198.133 547.313 198.107L547.3 198.094Z" fill="#263238"/>
<path d="M543.049 211.198C537.888 209.196 522.717 206.466 510.666 209.898C510.393 209.976 510.315 210.223 510.575 210.21C525.07 209.118 537.498 210.379 543.01 211.328C543.088 211.328 543.101 211.224 543.036 211.198H543.049Z" fill="#263238"/>
<path d="M545.193 319.943C544.803 318.682 544.426 317.408 544.01 316.16C543.165 313.599 542.411 310.999 541.657 308.412C540.123 303.186 538.654 297.934 537.367 292.643C534.806 282.074 532.843 271.349 531.53 260.546C531.166 257.556 530.867 254.566 530.529 251.589C530.191 248.573 530.1 245.492 529.541 242.515C529.515 242.359 528.02 240.071 527.422 238.94C526.798 237.77 526.265 236.548 525.797 235.3C524.822 232.726 524.172 230.126 523.834 227.396C523.834 227.292 523.678 227.292 523.678 227.396C523.522 230.178 523.873 233.818 524.822 236.444C525.693 238.875 526.915 241.189 528.852 242.97C528.813 243.373 528.93 248.144 529.086 250.874C529.242 253.565 529.489 256.256 529.788 258.934C530.399 264.316 531.153 269.685 532.102 275.015C534.013 285.779 536.522 296.491 539.837 306.904C539.889 307.073 539.954 307.242 540.006 307.411C540.006 307.801 539.98 308.191 539.98 308.581C539.98 309.543 540.097 310.505 540.214 311.467C540.448 313.378 540.981 315.198 541.605 317.018C541.644 317.148 541.852 317.083 541.813 316.953C541.293 315.094 541.085 313.144 540.877 311.233C540.799 310.57 540.721 309.92 540.643 309.257C541.358 311.363 542.112 313.469 542.853 315.575C543.373 317.018 543.906 318.448 544.504 319.852C545.076 321.217 545.57 322.66 546.272 323.96C546.324 324.064 546.48 323.986 546.454 323.882C546.142 322.556 545.622 321.269 545.219 319.956L545.193 319.943Z" fill="#263238"/>
<path d="M383.123 366.054V331.11L343.421 366.054H383.123Z" fill="#EBEBEB"/>
<path d="M179.024 440.14C190.451 489.917 214.124 549.587 224.225 559.272C237.004 571.518 321.543 593.982 325.755 594.437C336.194 595.49 357.111 520.324 345.996 518.725C329.07 516.281 267.528 512.927 263.836 509.144C260.014 505.179 234.04 472.432 207.325 435.421C188.891 409.85 171.926 409.252 179.024 440.14Z" fill="#AD6359"/>
<path d="M317.369 590.381C318.617 591.005 336.271 599.897 347.204 603.056C355.355 605.422 378.989 611.584 382.486 602.874C384.878 596.933 371.397 591.668 361.959 587.729C356.98 585.662 350.857 580.449 352.313 577.251C354.874 571.661 367.692 577.277 376.103 582.165C392.392 591.629 414.089 608.659 424.034 600.404C427.791 597.284 423.423 591.59 417.04 586.013C427.401 592.513 438.464 597.843 442.78 594.541C445.25 592.656 445.367 590.069 443.989 587.131C447.187 588.171 450.021 587.963 451.997 585.883C455.364 582.36 453.726 577.147 450.034 571.817C451.217 571.687 452.283 571.089 453.089 569.802C460.226 558.921 424.515 527.682 412.152 524.757C375.804 516.112 337.519 517.724 337.519 517.724C323.245 529.125 317.33 590.342 317.369 590.368V590.381Z" fill="#AD6359"/>
<path d="M370.811 556.933C379.365 558.272 387.789 561.47 395.056 566.267C404.273 572.351 410.383 579.462 418.105 586.638C418.313 586.82 418.027 587.145 417.819 586.963C414.14 583.557 398.878 570.752 394.926 567.84C387.698 562.51 379.625 558.753 370.772 557.102C370.681 557.089 370.707 556.946 370.798 556.959L370.811 556.933Z" fill="#263238"/>
<path d="M377.584 541.502C387.139 544.115 396.928 546.754 405.781 551.265C415.479 556.205 423.071 564.265 430.546 572.026C435.031 576.68 439.412 581.438 443.676 586.3C443.858 586.508 443.585 586.82 443.39 586.625C435.811 578.617 427.998 570.817 419.951 563.277C412.372 556.192 403.935 550.758 394.224 547.066C388.764 544.986 383.148 543.322 377.532 541.671C377.428 541.645 377.454 541.476 377.571 541.502H377.584Z" fill="#263238"/>
<path d="M387.79 528.021C397.072 529.932 405.171 531.557 413.387 536.523C424.268 543.101 434.772 554.203 438.451 558.129C442.52 562.471 446.446 566.943 450.294 571.48C450.45 571.662 450.138 571.948 449.969 571.753C441.168 561.834 431.678 552.409 421.655 543.712C416.871 539.552 411.671 535.938 405.821 533.416C400.049 530.933 393.861 529.516 387.764 528.06C387.725 528.06 387.738 527.995 387.777 527.995L387.79 528.021Z" fill="#263238"/>
<path d="M331.67 514.656L305.67 597.011C305.67 597.011 235.288 576.913 222.418 563.042C209.561 549.171 185.81 477.541 178.829 442.818C171.848 408.095 189.398 408.953 205.531 430.845C221.664 452.737 261.834 505.79 264.083 506.934C266.332 508.091 331.67 514.63 331.67 514.63V514.656Z" fill="#FFC727"/>
<path opacity="0.1" d="M331.67 514.656L305.67 597.011C305.67 597.011 235.288 576.913 222.418 563.042C209.561 549.171 185.81 477.541 178.829 442.818C171.848 408.095 189.398 408.953 205.531 430.845C221.664 452.737 261.834 505.79 264.083 506.934C266.332 508.091 331.67 514.63 331.67 514.63V514.656Z" fill="black"/>
<path d="M298.923 560.43C302.069 550.719 305.293 541.034 308.088 531.206C309.674 525.616 311.286 520.039 312.82 514.449C312.872 514.241 312.521 514.111 312.443 514.319C308.894 523.939 305.358 533.598 302.251 543.374C299.157 553.111 295.985 562.809 293.021 572.585C291.331 578.149 289.823 583.726 288.471 589.381C288.445 589.498 288.627 589.563 288.666 589.446C292.54 579.93 295.725 570.193 298.897 560.417L298.923 560.43Z" fill="#263238"/>
<path d="M270.18 585.701L267.06 584.609C261.197 582.516 255.217 580.267 249.588 577.966C248.86 577.68 248.145 577.381 247.443 577.082C246.312 576.614 245.181 576.133 244.089 575.652C243.53 575.418 242.997 575.171 242.451 574.937C242.256 574.846 242.061 574.768 241.866 574.677C241.294 574.417 240.735 574.157 240.176 573.897C237.94 572.87 235.821 571.843 233.845 570.803C233.39 570.569 232.922 570.322 232.48 570.075C228.879 568.125 225.889 566.201 223.796 564.368C223.549 564.147 223.302 563.926 223.081 563.705C222.834 563.484 222.626 563.263 222.431 563.055C209.561 549.184 185.823 477.554 178.842 442.831C178.764 442.428 178.686 442.025 178.608 441.635C178.608 441.544 178.582 441.466 178.569 441.375C178.101 438.736 177.685 435.473 177.347 431.937V431.898C176.372 414.621 184.549 411.8 194.65 419.392C219.935 473.472 258.506 562.769 270.18 585.701Z" fill="#263238"/>
<path d="M233.663 599.534L80.2236 600.353C80.3536 597.051 102.194 500.461 119.562 464.815C141.831 419.107 153.31 415.441 160.161 412.971C168.936 409.825 184.549 411.385 188.267 413.14C192.479 415.103 205.856 438.477 210.653 455.624C220.286 490.048 235.821 597.441 233.663 599.547V599.534Z" fill="#EBEBEB"/>
<path d="M152.334 416.572C152.334 416.572 171.795 488.787 172.809 493.584C174.278 500.565 184.002 599.976 184.002 599.976L77.0771 600.353C77.0771 600.353 100.464 508.313 117.78 467.935C136.734 423.774 152.334 416.572 152.334 416.572Z" fill="#FFC727"/>
<g opacity="0.1">
<path d="M152.334 416.572C152.334 416.572 171.795 488.787 172.809 493.584C174.278 500.565 184.002 599.976 184.002 599.976L77.0771 600.353C77.0771 600.353 100.464 508.313 117.78 467.935C136.734 423.774 152.334 416.572 152.334 416.572Z" fill="black"/>
</g>
<path d="M189.696 414.245C190.268 416.546 208.26 475.215 209.508 489.84C210.886 506.064 223.197 600.301 223.197 600.301H238.758C238.758 600.301 216.177 464.841 209.976 450.541C197.327 421.382 189.709 414.258 189.709 414.258L189.696 414.245Z" fill="#FFC727"/>
<path opacity="0.1" d="M189.696 414.245C190.268 416.546 208.26 475.215 209.508 489.84C210.886 506.064 223.197 600.301 223.197 600.301H238.758C238.758 600.301 216.177 464.841 209.976 450.541C197.327 421.382 189.709 414.258 189.709 414.258L189.696 414.245Z" fill="black"/>
<path d="M132.145 433.458C106.444 460.979 43.9922 565.395 63.8172 584.44C83.7722 603.615 193.622 577.849 224.51 563.133C233.701 558.752 198.783 501.461 187.98 500.122C178.984 499.004 133.016 520.038 131.677 517.399C130.169 514.409 137.475 492.348 148.538 452.399C161.291 406.34 143.494 421.303 132.145 433.458Z" fill="#AD6359"/>
<path d="M233.637 481.623C255.971 478.516 262.185 481.142 279.644 468.506C291.097 460.212 301.315 463.969 294.776 477.151C284.09 498.705 256.114 508.767 245.415 509.469L233.65 481.636L233.637 481.623Z" fill="#AD6359"/>
<path d="M174.304 503.125C174.304 503.125 199.407 489.189 222.872 483.521C239.109 479.595 275.379 475.006 310.076 510.795C318.305 519.284 324.012 537.211 305.539 528.228C292.409 521.845 286.013 513.837 277.706 511.523C277.706 511.523 282.256 535.196 273.429 543.113C269.49 546.649 258.492 556.048 248.898 562.145C248.898 562.145 247.013 560.416 244.92 557.868C244.92 557.868 235.976 564.485 219.141 562.873L174.291 503.125H174.304Z" fill="#AD6359"/>
<path d="M238.966 482.247C246.727 486.29 263.029 495.143 273.858 507.025C285.87 520.22 305.474 548.885 295.633 557.66C288.418 564.095 279.981 553.812 279.981 553.812C279.981 553.812 285.584 567.371 277.797 571.752C270.699 575.743 264.654 567.397 264.654 567.397C264.654 567.397 266.643 576.198 259.064 578.733C249.951 581.775 247.286 562.821 235.391 557.933C232.726 556.841 238.966 482.247 238.966 482.247Z" fill="#AD6359"/>
<path d="M257.79 517.399C264.459 522.404 276.705 537.653 280.098 553.448C280.176 553.812 279.942 554.059 279.812 553.747C272.389 537.146 262.301 523.184 257.673 517.516C257.608 517.438 257.725 517.347 257.803 517.399H257.79Z" fill="#263238"/>
<path d="M244.829 529.918C250.146 534.832 262.067 551.108 264.94 567.241C265.005 567.605 264.758 567.839 264.628 567.514C257.582 549.847 248.976 535.963 244.686 530.022C244.634 529.944 244.751 529.853 244.816 529.918H244.829Z" fill="#263238"/>
<path d="M277.718 511.367C284.998 513.512 289.73 517.087 295.879 521.351C298.921 523.457 302.002 525.524 305.252 527.292C308.216 528.891 312.584 531.322 315.743 528.813C317.498 527.409 317.472 524.874 317.082 522.872C316.64 520.623 314.417 516.463 313.078 514.591C313.013 514.5 313.169 514.37 313.247 514.474C314.482 516.138 316.9 519.895 317.628 521.845C318.278 523.613 318.785 525.654 318.291 527.526C317.225 531.543 312.493 532.063 309.139 530.958C307.137 530.295 305.239 529.229 303.406 528.189C301.638 527.175 299.922 526.083 298.245 524.939C294.787 522.599 291.459 520.064 288.027 517.685C284.257 515.072 281.657 513.798 277.614 511.627C277.484 511.549 277.575 511.341 277.718 511.38V511.367Z" fill="#263238"/>
<path d="M292.955 536.977C291.07 532.83 280.878 515.54 277.563 511.536C277.485 511.432 277.615 511.302 277.719 511.393C283.387 516.775 292.513 531.062 294.632 535.638C296.738 540.162 299.156 545.947 299.156 550.978C299.156 558.583 294.112 560.026 292.253 560.39C290.03 560.832 287.781 560.364 285.779 559.337C283.556 558.18 281.398 555.788 279.916 553.825C279.838 553.721 279.981 553.578 280.072 553.682C282.711 556.672 287.092 559.636 291.213 559.09C293.007 558.856 294.827 558.037 295.919 556.555C297.206 554.813 297.31 552.512 297.128 550.432C296.738 545.726 294.905 541.241 292.968 536.977H292.955Z" fill="#263238"/>
<path d="M174.305 503.125L209.509 577.186C209.509 577.186 71.8127 608.113 59.9307 584.141C48.0487 560.169 101.531 466.361 125.62 439.035C153.544 407.38 157.119 418.144 150.957 446.211C144.509 475.591 132.081 518.088 132.081 518.088L174.305 503.138V503.125Z" fill="#FFC727"/>
<path opacity="0.1" d="M174.305 503.125L209.509 577.186C209.509 577.186 71.8127 608.113 59.9307 584.141C48.0487 560.169 101.531 466.361 125.62 439.035C153.544 407.38 157.119 418.144 150.957 446.211C144.509 475.591 132.081 518.088 132.081 518.088L174.305 503.138V503.125Z" fill="black"/>
<path d="M90.2337 537.796C96.5907 533.337 103.39 529.489 110.319 526.005C117.183 522.547 124.385 519.843 131.678 517.438C135.838 516.06 140.063 514.89 144.275 513.694C144.405 513.655 144.457 513.85 144.327 513.889C136.969 516.19 129.793 519.154 122.747 522.287C115.74 525.407 108.798 528.657 101.921 532.024C98.0207 533.935 94.2247 536.028 90.3897 538.069C90.2077 538.16 90.0777 537.913 90.2337 537.796Z" fill="#263238"/>
<path d="M173.941 502.904C173.252 503.086 135.591 515.514 134.356 516.099C134.512 515.527 141.272 495.507 142.273 492.569C142.377 492.283 142.455 491.984 142.559 491.685C143.248 490.372 143.937 489.072 144.574 487.746C145.393 486.03 146.186 484.314 146.992 482.598C147.018 482.546 146.94 482.507 146.914 482.559C146.03 484.236 145.146 485.9 144.288 487.59C143.885 488.37 143.508 489.15 143.131 489.943C143.794 487.876 144.431 485.796 145.068 483.716C146.082 480.388 146.992 477.047 147.889 473.68C147.915 473.576 147.759 473.537 147.72 473.641C145.718 479.478 143.534 485.25 141.519 491.087C139.504 496.911 131.756 518.413 131.821 518.4C131.886 518.452 173.291 503.762 174.097 503.424C174.409 503.294 174.279 502.826 173.941 502.917V502.904Z" fill="#263238"/>
<path d="M176.476 551.212C172.602 542.944 168.793 534.65 164.607 526.525C162.228 521.91 159.875 517.282 157.457 512.693C157.366 512.524 157.054 512.654 157.132 512.836C160.694 521.286 164.282 529.749 168.234 538.043C172.16 546.285 176.021 554.566 180.051 562.756C182.339 567.41 184.77 571.986 187.344 576.51C187.396 576.601 187.552 576.536 187.513 576.432C184.237 567.852 180.363 559.545 176.463 551.225L176.476 551.212Z" fill="#263238"/>
<path d="M211.29 578.343C209.912 576.068 208.17 572.779 206.701 570.556C206.311 569.971 205.856 570.088 206.168 570.712C207.221 572.779 208.092 575.106 209.119 577.238C207.182 577.628 205.245 577.966 203.308 578.369C201.072 578.837 198.849 579.318 196.613 579.773C192.245 580.67 187.851 581.528 183.47 582.347C174.578 583.985 165.647 585.441 156.69 586.715C138.737 589.25 120.641 591.135 102.519 591.798C97.4489 591.98 92.3789 592.071 87.2959 592.006C82.1479 591.941 76.5839 591.824 72.3199 591.291C72.1899 591.278 72.1509 591.499 72.2939 591.538C76.7139 592.448 80.8219 593.007 85.3199 593.228C89.9089 593.449 94.5109 593.553 99.1129 593.501C108.265 593.397 117.417 592.799 126.53 591.967C144.6 590.303 162.605 587.859 180.48 584.7C185.485 583.816 190.49 582.867 195.469 581.866C197.978 581.359 200.5 580.852 203.009 580.306C205.518 579.747 211.524 578.746 211.29 578.356V578.343Z" fill="#263238"/>
<path d="M189.737 441.194C180.624 443.703 164.348 430.248 157.692 419.094C157.237 418.327 158.134 410.059 158.745 399.971C159.096 393.848 159.33 387.01 159.096 380.757C159.044 379.47 198.642 388.83 198.642 388.83C198.642 388.83 195.275 402.077 195.743 412.971C195.795 413.881 195.912 414.726 196.107 415.532C196.12 415.649 196.159 415.792 196.185 415.961C197.16 420.81 198.538 438.776 189.737 441.207V441.194Z" fill="#AD6359"/>
<path d="M161.513 380.834C163.723 391.338 171.237 416.623 192.167 416.324C193.623 416.311 194.962 416.181 196.171 415.96C196.171 415.778 196.132 415.661 196.106 415.531C195.924 414.725 195.794 413.893 195.729 412.983C195.261 402.076 198.641 388.829 198.641 388.829C198.641 388.829 170.08 382.082 161.513 380.834Z" fill="#263238"/>
<path d="M203.36 361.985C202.931 371.579 209.392 379.665 217.816 380.055C226.24 380.432 233.416 372.97 233.845 363.376C234.274 353.782 227.813 345.696 219.389 345.306C210.965 344.929 203.789 352.391 203.36 361.985Z" fill="#455A64"/>
<path d="M198.394 362.374C197.913 373.047 205.115 382.043 214.475 382.472C223.835 382.901 231.817 374.581 232.311 363.908C232.792 353.235 225.59 344.239 216.23 343.81C206.87 343.381 198.875 351.701 198.394 362.374Z" fill="#C7C7C7"/>
<path d="M164.256 330.967C157.444 343.811 157.015 384.657 165.023 395.33C176.632 410.813 199.447 416.494 213.552 401.661C227.228 387.296 226.851 334.061 217.543 323.96C203.841 309.088 174.305 311.987 164.243 330.967H164.256Z" fill="#AD6359"/>
<path d="M198.197 362.53C198.171 362.426 197.989 362.66 197.989 362.777C198.132 365.52 197.846 368.692 195.376 369.667C195.298 369.693 195.311 369.836 195.402 369.823C198.431 369.329 198.769 365.117 198.197 362.53Z" fill="#263238"/>
<path d="M195.689 359.722C191.256 359.488 191.113 368.367 195.221 368.588C199.264 368.809 199.407 359.93 195.689 359.722Z" fill="#263238"/>
<path d="M213.603 362.868C213.629 362.764 213.811 362.998 213.811 363.115C213.681 365.858 213.993 369.03 216.463 369.992C216.541 370.018 216.528 370.161 216.437 370.148C213.408 369.667 213.031 365.455 213.603 362.868Z" fill="#263238"/>
<path d="M216.099 360.047C220.532 359.787 220.727 368.666 216.619 368.9C212.576 369.134 212.381 360.255 216.099 360.047Z" fill="#263238"/>
<path d="M191.712 352.625C192.96 352.56 194.091 352.287 195.326 352.092C196.704 351.871 197.835 351.845 198.901 350.857C199.473 350.324 199.499 349.18 199.044 348.569C197.965 347.152 196.21 346.996 194.533 347.191C192.713 347.399 191.374 348.023 190.1 349.336C188.865 350.597 190.087 352.703 191.725 352.625H191.712Z" fill="#263238"/>
<path d="M220.286 353.625C219.064 353.404 217.959 353.001 216.776 352.65C215.437 352.26 214.319 352.091 213.383 350.973C212.876 350.375 212.993 349.231 213.526 348.685C214.774 347.424 216.542 347.489 218.18 347.892C219.961 348.334 221.209 349.114 222.314 350.57C223.38 351.987 221.911 353.911 220.286 353.625Z" fill="#263238"/>
<path d="M193.181 388.024C193.831 388.674 194.468 389.571 195.469 389.675C196.431 389.766 197.549 389.363 198.433 389.038C198.524 389.012 198.602 389.103 198.55 389.181C197.822 390.221 196.301 390.858 195.04 390.611C193.792 390.377 193.194 389.285 192.921 388.141C192.882 387.985 193.09 387.92 193.194 388.024H193.181Z" fill="#263238"/>
<path d="M196.211 379.834C197.706 382.252 199.955 383.591 202.399 384.111C203.491 384.345 204.635 384.41 205.766 384.319C205.987 384.319 206.208 384.293 206.416 384.254C206.611 384.228 206.793 384.215 207.014 384.176C207.339 384.137 207.521 383.877 207.573 383.565V383.539C207.573 383.435 207.573 383.357 207.547 383.253V383.227V382.98C207.638 380.861 207.482 377.637 207.482 377.637C208.249 378.04 212.162 379.873 212.123 378.768C211.733 369.603 211.291 359.398 208.964 350.363C208.899 350.064 208.444 350.116 208.457 350.428C208.483 359.255 210.069 368.017 210.238 376.883C208.99 376.389 206.949 375.466 205.844 375.466C205.545 375.544 206.247 381.693 206.13 382.642C206.13 382.642 206.13 382.681 206.104 382.746C202.542 383.136 199.877 382.018 196.458 379.574C196.25 379.418 196.029 379.6 196.198 379.821L196.211 379.834Z" fill="#263238"/>
<path d="M204.529 383.213C204.529 383.213 202.605 385.709 200.018 386.593C199.069 386.918 198.042 387.035 196.976 386.736C194.792 386.125 194.766 384.11 195.195 382.394C195.546 380.977 196.222 379.768 196.222 379.768C196.222 379.768 199.381 382.823 204.516 383.226L204.529 383.213Z" fill="#263238"/>
<path d="M200.031 386.593C199.082 386.918 198.055 387.035 196.989 386.736C194.805 386.125 194.779 384.11 195.208 382.394C197.561 382.68 199.862 384.318 200.018 386.606L200.031 386.593Z" fill="#FF98B9"/>
<path opacity="0.2" d="M159.134 359.8C161.825 359.371 168.221 350.31 170.951 346.709C173.811 342.978 175.241 323.803 175.488 319.435C170.808 322.152 166.856 325.987 164.23 330.953C161.175 336.699 159.433 348.035 159.121 359.8H159.134Z" fill="#263238"/>
<path d="M208.715 335.361C205.478 338.871 200.655 340.561 195.949 339.651C191.36 338.754 186.875 335.426 185.367 330.889C185.328 330.759 185.107 330.824 185.159 330.954C186.784 335.79 190.528 339.859 195.728 340.743C200.603 341.575 205.946 339.482 208.975 335.582C209.105 335.413 208.871 335.192 208.715 335.348V335.361Z" fill="#263238"/>
<path d="M195.494 300.794C187.486 300.716 179.985 304.915 176.891 310.271C175.006 313.534 174.629 316.888 175.058 320.32C175.071 320.463 175.357 320.437 175.357 320.294C175.071 314.86 177.944 308.763 183.872 305.162C189.566 301.704 197.015 300.807 203.346 303.446C206.648 304.824 209.3 307.034 210.613 309.66C210.756 309.959 211.367 309.79 211.25 309.491C209.235 304.421 202.748 300.846 195.494 300.768V300.794Z" fill="#263238"/>
<path d="M241.45 319.63C240.306 315.652 237.667 312.181 234.222 309.893C229.412 306.695 223.835 306.968 218.31 307.358C218.154 307.358 218.18 307.605 218.323 307.592C223.029 307.28 227.826 307.241 232.064 309.581C235.522 311.492 238.369 314.586 239.825 318.278C242.841 325.948 239.461 335.23 232.155 339.065C228.008 341.236 222.951 341.587 218.557 340.014C218.388 339.949 218.245 340.209 218.427 340.274C226.461 343.394 236.146 339.988 240.098 332.227C242.048 328.392 242.646 323.777 241.463 319.617L241.45 319.63Z" fill="#263238"/>
<path d="M161.343 338.831C161.343 338.831 154.258 324.232 160.914 316.172C164.684 311.609 176.618 312.649 176.618 312.649C176.618 312.649 180.713 305.915 190.697 304.017C200.785 302.093 212.459 308.359 212.459 308.359C212.459 308.359 222.157 303.263 230.867 308.671C243.009 316.211 240.773 335.048 228.072 340.677C219.154 344.629 207.519 336.426 207.519 336.426C206.362 336.543 194.389 343.186 185.9 332.396C185.9 332.396 178.464 338.532 172.159 333.813C172.159 333.813 168.649 340.196 161.343 338.818V338.831Z" fill="#263238"/>
<path d="M166.454 364.741C166.454 364.741 159.72 350.389 153.35 352.573C146.993 354.757 150.516 374.478 156.886 378.196C163.269 381.914 166.818 376.077 166.818 376.077L166.441 364.728L166.454 364.741Z" fill="#AD6359"/>
<path d="M154.507 358.202C154.403 358.176 154.351 358.319 154.442 358.384C158.888 361.153 160.643 366.015 161.605 370.916C160.487 368.901 158.719 367.601 156.054 368.875C155.911 368.94 156.002 369.161 156.145 369.148C158.173 369.07 159.525 369.655 160.578 371.449C161.319 372.723 161.722 374.231 162.164 375.635C162.32 376.103 163.126 376.012 163.048 375.492C163.048 375.453 163.035 375.414 163.022 375.375C164.192 369.304 160.929 359.944 154.494 358.202H154.507Z" fill="#263238"/>
<path d="M181.169 393.535L168.364 388.01L158.068 375.192L160.044 373.606L169.937 385.93L182.17 391.208L181.169 393.535Z" fill="#C7C7C7"/>
<path d="M179.804 391.495C181.052 387.764 191.517 389.142 189.619 394.797C187.721 400.465 178.543 395.239 179.804 391.495Z" fill="#37474F"/>
<path d="M153.167 352.183C153.167 352.183 151.763 331.214 157.912 319.644C164.75 306.774 193.09 294.515 212.46 308.36C212.46 308.36 180.896 302.718 166.206 320.567C160.018 328.094 160.174 352.742 160.174 352.742L153.167 352.183Z" fill="#C7C7C7"/>
<path d="M156.031 382.294C165.407 382.201 172.922 373.465 172.816 362.782C172.709 352.099 165.022 343.515 155.646 343.608C146.27 343.701 138.755 352.437 138.861 363.12C138.968 373.803 146.655 382.387 156.031 382.294Z" fill="#C7C7C7"/>
<path d="M167.858 362.232C167.949 371.839 161.202 379.691 152.778 379.769C144.354 379.847 137.438 372.138 137.347 362.531C137.256 352.924 144.003 345.072 152.427 344.994C160.851 344.916 167.767 352.625 167.858 362.232Z" fill="#455A64"/>
<path d="M196.027 415.324L186.849 438.464L158.028 409.37L149.942 418.782C149.942 418.782 178.217 465.075 178.386 462.982L187.811 443.04L201.617 456.833L200.343 422.071L196.027 415.337V415.324Z" fill="#EBEBEB"/>
<path d="M201.955 439.595C201.552 433.862 201.305 428.077 200.642 422.37C200.616 422.162 200.304 422.084 200.252 422.318C199.134 427.856 200.785 449.774 200.785 455.026C200.772 455.013 200.746 454.987 200.72 454.961C200.148 454.363 187.928 442.832 187.811 443.014C185.757 446.186 178.841 460.707 178.373 462.033C173.901 454.675 154.934 425.685 149.643 418.743C149.487 418.548 149.175 418.704 149.305 418.938C153.257 426.712 177.775 464.958 178.113 464.854C178.347 465.036 186.953 447.148 187.967 443.768C190.034 446.29 202.371 459.303 202.41 458.458C202.67 452.699 202.358 445.328 201.955 439.582V439.595Z" fill="#263238"/>
<path d="M511.004 354.484H470.795C462.683 354.484 456.092 347.906 456.092 339.781C456.092 331.669 462.67 325.078 470.795 325.078H511.004C519.116 325.078 525.707 331.656 525.707 339.781C525.707 347.893 519.129 354.484 511.004 354.484Z" fill="#455A64"/>
<path d="M479.583 339.521C479.583 339.027 479.778 338.598 480.025 338.182C480.142 338 480.259 337.831 480.376 337.649L481.143 336.869C481.442 336.648 481.728 336.427 482.04 336.219C483.275 335.4 484.653 334.932 486.096 334.646C489.45 333.983 492.817 333.996 496.171 334.646C497.601 334.932 498.953 335.387 500.175 336.193C500.487 336.401 500.799 336.635 501.098 336.856L501.839 337.597C502.021 337.896 502.242 338.169 502.385 338.494C502.528 338.793 502.593 339.118 502.697 339.456C502.58 339.456 502.528 339.469 502.463 339.469C500.344 339.469 498.225 339.469 496.106 339.469C495.976 339.469 495.911 339.43 495.846 339.313C495.43 338.585 494.819 338.169 493.961 338.117C492.05 338 490.126 337.987 488.215 338.117C487.37 338.169 486.746 338.585 486.343 339.326C486.291 339.417 486.252 339.482 486.122 339.482C483.964 339.482 481.819 339.482 479.661 339.482C479.635 339.482 479.596 339.482 479.557 339.482L479.583 339.521Z" fill="white"/>
<path d="M479.57 343.252C479.57 342.498 479.57 341.757 479.57 341.003C479.57 340.951 479.57 340.886 479.57 340.847C481.741 340.847 483.912 340.847 486.083 340.847C486.083 340.99 486.057 341.159 486.057 341.328C486.057 341.965 486.057 342.602 486.057 343.239C486.057 343.798 485.784 344.071 485.225 344.071C483.6 344.071 481.988 344.071 480.363 344.071C479.817 344.071 479.544 343.798 479.544 343.252H479.57Z" fill="white"/>
<path d="M496.171 343.278C496.171 342.459 496.21 341.64 496.236 340.834C498.329 340.834 500.487 340.834 502.658 340.834C502.658 340.873 502.658 340.925 502.658 340.977C502.658 341.744 502.658 342.498 502.658 343.265C502.658 343.785 502.385 344.058 501.865 344.058C500.227 344.058 498.589 344.058 496.951 344.058C496.457 344.058 496.158 343.772 496.158 343.291L496.171 343.278Z" fill="white"/>
<path d="M346.021 601.9H337.103V607.724H346.021V601.9Z" fill="#455A64"/>
<path d="M357.591 601.51H348.673V607.334H357.591V601.51Z" fill="#455A64"/>
<path d="M369.16 601.12H360.242V606.944H369.16V601.12Z" fill="#455A64"/>
<path d="M380.731 600.743H371.812V606.567H380.731V600.743Z" fill="#455A64"/>
<path d="M392.3 600.353H383.382V606.177H392.3V600.353Z" fill="#455A64"/>
<path d="M403.87 599.976H394.952V605.8H403.87V599.976Z" fill="#455A64"/>
<path d="M415.427 599.585H406.509V605.409H415.427V599.585Z" fill="#455A64"/>
<path d="M426.997 599.196H418.079V605.02H426.997V599.196Z" fill="#455A64"/>
<path d="M438.568 598.819H429.65V604.643H438.568V598.819Z" fill="#455A64"/>
<path d="M440.752 611.065H334.919V603.98L440.752 601.029V611.065Z" fill="#37474F"/>
<path d="M544.05 583.128H369.343L397.124 453.05H571.844L544.05 583.128Z" fill="#455A64"/>
<path d="M550.511 583.128H375.804L403.585 453.05H578.305L550.511 583.128Z" fill="#37474F"/>
<path d="M492.154 510.549C491.205 516.516 485.602 521.352 479.635 521.352C473.668 521.352 469.599 516.516 470.548 510.549C471.497 504.582 477.1 499.746 483.067 499.746C489.034 499.746 493.103 504.582 492.154 510.549Z" fill="#263238"/>
<path d="M501.099 617.097H415.169V610.415L501.099 607.646V617.097Z" fill="#455A64"/>
<path d="M524.473 617.084H478.336L450.542 544.193H496.679L524.473 617.084Z" fill="#455A64"/>
<path d="M532.065 617.084H485.928L458.134 544.193H504.271L532.065 617.084Z" fill="#263238"/>
<path d="M331.657 618.865H243.062C235.496 618.865 246.442 597.337 274.028 589.082C301.627 580.827 340.354 610.792 331.644 618.865H331.657Z" fill="#37474F"/>
<path d="M296.895 618.865C296.947 616.421 297.389 613.99 298.104 611.637C298.806 609.284 299.833 607.009 301.094 604.89C302.342 602.758 303.954 600.834 305.8 599.183C307.594 597.467 309.817 596.284 312.027 595.309C311.078 596.089 309.999 596.635 309.128 597.48L307.763 598.637L306.502 599.911C304.877 601.64 303.395 603.499 302.212 605.566C300.977 607.594 299.95 609.752 299.066 611.975C298.208 614.211 297.454 616.499 296.908 618.865H296.895Z" fill="#263238"/>
<path d="M307.385 598.376C310.024 599.182 312.559 600.287 315.029 601.496C317.512 602.718 319.891 604.122 322.153 605.721C324.402 607.333 326.56 609.14 328.328 611.324C329.199 612.416 329.992 613.586 330.616 614.847C331.188 616.121 331.63 617.486 331.656 618.864C331.331 617.525 330.798 616.277 330.057 615.146C329.355 614.002 328.51 612.962 327.574 611.987C325.702 610.063 323.609 608.347 321.399 606.787C319.202 605.201 316.888 603.784 314.548 602.38C313.378 601.678 312.195 601.015 310.986 600.352C309.803 599.663 308.581 599.039 307.372 598.376H307.385Z" fill="#263238"/>
<path d="M338.001 323.558C335.739 345.177 316.369 360.881 294.75 358.619C286.014 357.709 278.253 353.991 272.234 348.453L252.539 351.339L262.393 334.309C260.001 328.498 259 322.024 259.689 315.355C261.951 293.736 281.321 278.032 302.94 280.294C324.559 282.556 340.263 301.926 338.001 323.545V323.558Z" fill="white"/>
<path d="M338.001 323.558C337.182 330.747 334.556 337.793 330.058 343.513C329.031 345.008 327.692 346.269 326.496 347.621C325.131 348.817 323.857 350.117 322.336 351.144C319.463 353.367 316.226 355.096 312.846 356.435C309.479 357.852 305.865 358.528 302.251 358.957C300.431 359.061 298.611 359.217 296.778 359.061C294.945 359.022 293.125 358.827 291.331 358.489C284.129 357.189 277.304 353.809 271.857 348.869L272.325 349.012L252.656 352.028L251.226 352.249L251.954 350.988L261.743 333.932L261.691 334.608C256.92 323.376 257.999 309.999 264.109 299.521C267.164 294.282 271.415 289.758 276.433 286.391C281.451 283.011 287.275 280.892 293.229 280.086C299.196 279.293 305.332 279.839 311.026 281.737C316.72 283.648 321.933 286.872 326.21 291.045C334.907 299.3 339.275 311.702 337.988 323.558H338.001ZM338.001 323.558C339.197 311.702 334.738 299.378 326.054 291.227C321.738 287.145 316.512 284.064 310.87 282.27C305.228 280.502 299.183 280.086 293.359 280.957C287.548 281.854 281.919 284.012 277.109 287.379C272.312 290.746 268.256 295.166 265.331 300.223C262.354 305.28 260.807 311.065 260.339 316.876C259.975 322.713 260.924 328.615 263.108 334.023L263.251 334.374L263.069 334.699L253.163 351.69L252.461 350.65L272.169 347.894L272.442 347.855L272.637 348.037C277.85 352.925 284.441 356.344 291.487 357.748C293.242 358.099 295.036 358.32 296.83 358.398C298.624 358.593 300.418 358.45 302.212 358.398C305.774 358.034 309.375 357.423 312.729 356.084C316.096 354.823 319.359 353.172 322.219 350.962C323.727 349.961 325.001 348.674 326.379 347.491C327.588 346.152 328.927 344.917 329.954 343.422C334.465 337.754 337.143 330.747 338.014 323.558H338.001Z" fill="#263238"/>
<path d="M320.787 320.658C320.787 323.284 318.655 325.416 316.029 325.416C313.403 325.416 311.271 323.284 311.271 320.658C311.271 318.032 313.403 315.9 316.029 315.9C318.655 315.9 320.787 318.032 320.787 320.658Z" fill="#263238"/>
<path d="M303.718 320.658C303.718 323.284 301.586 325.416 298.96 325.416C296.334 325.416 294.202 323.284 294.202 320.658C294.202 318.032 296.334 315.9 298.96 315.9C301.586 315.9 303.718 318.032 303.718 320.658Z" fill="#263238"/>
<path d="M286.637 320.658C286.637 323.284 284.505 325.416 281.879 325.416C279.253 325.416 277.121 323.284 277.121 320.658C277.121 318.032 279.253 315.9 281.879 315.9C284.505 315.9 286.637 318.032 286.637 320.658Z" fill="#263238"/>
<path d="M354.679 119.431C356.941 141.05 376.311 156.754 397.93 154.492C406.666 153.582 414.427 149.864 420.446 144.326L440.141 147.212L430.287 130.182C432.679 124.371 433.68 117.897 432.991 111.228C430.729 89.6094 411.359 73.9054 389.74 76.1674C368.121 78.4294 352.417 97.7994 354.679 119.418V119.431Z" fill="white"/>
<path d="M366.457 86.9185C370.734 82.7455 375.947 79.5215 381.641 77.6105C387.335 75.7125 393.471 75.1795 399.438 75.9595C405.392 76.7655 411.216 78.8845 416.234 82.2645C421.252 85.6315 425.516 90.1555 428.558 95.3945C434.681 105.859 435.76 119.236 430.976 130.481L430.924 129.805L440.713 146.861L441.441 148.122L440.011 147.901L420.342 144.885L420.81 144.742C415.363 149.682 408.538 153.049 401.336 154.362C399.542 154.687 397.722 154.882 395.889 154.934C394.069 155.09 392.236 154.934 390.416 154.83C386.802 154.401 383.188 153.725 379.821 152.308C376.441 150.982 373.204 149.24 370.331 147.017C368.823 146.003 367.549 144.69 366.171 143.494C364.962 142.142 363.636 140.881 362.609 139.386C358.111 133.666 355.485 126.62 354.666 119.431C353.392 107.575 357.76 95.1865 366.444 86.9185H366.457ZM362.739 139.282C363.779 140.764 365.105 142.012 366.314 143.351C367.679 144.521 368.966 145.821 370.474 146.822C373.347 149.019 376.597 150.683 379.964 151.944C383.318 153.283 386.906 153.894 390.481 154.258C392.275 154.323 394.069 154.453 395.863 154.258C397.657 154.193 399.438 153.959 401.206 153.608C408.252 152.204 414.843 148.785 420.056 143.897L420.251 143.715L420.524 143.754L440.232 146.51L439.53 147.55L429.624 130.559L429.442 130.234L429.585 129.883C431.769 124.462 432.718 118.573 432.354 112.736C431.886 106.925 430.339 101.14 427.362 96.0835C424.437 91.0135 420.381 86.6065 415.584 83.2395C410.774 79.8725 405.145 77.7145 399.334 76.8175C393.51 75.9465 387.478 76.3625 381.823 78.1305C376.181 79.9245 370.955 83.0055 366.639 87.0875C357.942 95.2385 353.496 107.549 354.692 119.418C355.563 126.594 358.241 133.614 362.752 139.282H362.739Z" fill="#263238"/>
<path d="M397.332 120.146V125.06C397.332 127.179 395.746 128.765 393.627 128.765C391.664 128.765 389.922 127.179 389.922 125.06V117.195C389.922 117.117 390 117.117 390 117.039C389.948 116.987 389.922 116.935 389.922 116.883C389.922 114.92 391.664 113.178 393.627 113.178C398.385 113.178 402.246 109.395 402.246 104.715C402.246 100.035 398.385 96.2523 393.627 96.2523C390.533 96.2523 387.803 97.9163 386.373 100.412C385.32 102.232 383.045 102.83 381.238 101.777C379.496 100.724 378.898 98.5273 379.951 96.7073C382.668 92.0143 387.816 88.8423 393.64 88.8423C402.415 88.8423 409.591 95.9533 409.591 104.715C409.591 112.203 404.378 118.469 397.345 120.133L397.332 120.146ZM397.332 136.695V138.06C397.332 140.179 395.746 141.765 393.627 141.765C391.664 141.765 389.922 140.179 389.922 138.06V136.695C389.922 134.654 391.664 132.99 393.627 132.99C395.746 132.99 397.332 134.654 397.332 136.695Z" fill="#FFC727"/>
</g>
<defs>
<clipPath id="clip0_757_7621">
<rect width="570.011" height="587.665" fill="white" transform="translate(40.2998 31.2002)"/>
</clipPath>
</defs>
</svg>
