<svg width="53" height="52" viewBox="0 0 53 52" fill="none" xmlns="http://www.w3.org/2000/svg">
<g clip-path="url(#clip0_731_1561)">
<path opacity="0.949" fill-rule="evenodd" clip-rule="evenodd" d="M25.877 -0.0507812C26.1816 -0.0507812 26.4863 -0.0507812 26.791 -0.0507812C28.6288 1.12504 30.4569 2.32686 32.2754 3.55469C34.2899 3.51332 36.3042 3.42869 38.3184 3.30078C38.7195 3.29131 39.1089 3.34209 39.4863 3.45312C40.6433 5.41118 41.7097 7.4255 42.6855 9.49609C44.658 10.5416 46.6385 11.5742 48.627 12.5938C48.9753 12.9962 49.1107 13.4702 49.0332 14.0156C48.8903 16.029 48.8057 18.0433 48.7793 20.0586C49.9244 21.843 51.0924 23.6035 52.2832 25.3398C52.2832 25.7461 52.2832 26.1523 52.2832 26.5586C51.0924 28.2949 49.9244 30.0554 48.7793 31.8398C48.7832 33.9239 48.8678 36.0059 49.0332 38.0859C49.0612 38.4705 48.9766 38.8259 48.7793 39.1523C46.8388 40.2496 44.8584 41.2822 42.8379 42.25C41.7406 44.1905 40.708 46.1709 39.7402 48.1914C39.6556 48.276 39.5709 48.3607 39.4863 48.4453C39.072 48.5528 38.6487 48.6035 38.2168 48.5977C36.2366 48.466 34.2562 48.3813 32.2754 48.3438C30.4233 49.5227 28.5952 50.7246 26.791 51.9492C26.4863 51.9492 26.1816 51.9492 25.877 51.9492C24.0894 50.7498 22.295 49.548 20.4941 48.3438C18.4792 48.3776 16.465 48.4623 14.4512 48.5977C13.8384 48.7104 13.3306 48.5411 12.9277 48.0898C11.9719 46.1443 10.9901 44.2146 9.98242 42.3008C8.07756 41.3229 6.1648 40.3581 4.24414 39.4062C3.89646 39.1342 3.69334 38.7787 3.63477 38.3398C3.81696 36.1775 3.93545 34.0107 3.99023 31.8398C2.64777 29.9647 1.41209 28.035 0.283203 26.0508C0.283203 25.983 0.283203 25.9154 0.283203 25.8477C1.41209 23.8634 2.64777 21.9337 3.99023 20.0586C3.9395 18.0955 3.85486 16.1319 3.73633 14.168C3.72578 13.7163 3.77656 13.2762 3.88867 12.8477C4.00716 12.7291 4.12565 12.6107 4.24414 12.4922C6.13998 11.5443 8.0358 10.5963 9.93164 9.64844C10.9692 7.72566 11.968 5.77905 12.9277 3.80859C13.3667 3.35435 13.9083 3.18507 14.5527 3.30078C16.5332 3.42528 18.5137 3.50991 20.4941 3.55469C22.295 2.3505 24.0894 1.14868 25.877 -0.0507812ZM26.2832 2.38672C28.0069 3.51978 29.7335 4.6539 31.4629 5.78906C31.6965 5.85592 31.9334 5.9067 32.1738 5.94141C34.1601 5.81138 36.1406 5.67596 38.1152 5.53516C39.0372 7.41298 39.9851 9.27496 40.959 11.1211C42.8064 12.2142 44.7022 13.2298 46.6465 14.168C46.605 16.3023 46.5373 18.4351 46.4434 20.5664C47.5579 22.3746 48.6921 24.1688 49.8457 25.9492C48.6921 27.7296 47.5579 29.5238 46.4434 31.332C46.5373 33.4633 46.605 35.5961 46.6465 37.7305C44.7345 38.7203 42.8387 39.7359 40.959 40.7773C40.0018 42.6582 39.02 44.5202 38.0137 46.3633C36.0678 46.226 34.1212 46.0906 32.1738 45.957C31.9707 46.0078 31.7676 46.0586 31.5645 46.1094C29.7949 47.2055 28.0515 48.3397 26.334 49.5117C24.5799 48.2539 22.7686 47.0859 20.9004 46.0078C18.8118 46.0683 16.7297 46.1869 14.6543 46.3633C13.6804 44.5172 12.7325 42.6551 11.8105 40.7773C11.7259 40.6927 11.6412 40.608 11.5566 40.5234C9.70369 39.6054 7.85864 38.6745 6.02148 37.7305C6.16034 35.5347 6.22804 33.3341 6.22461 31.1289C5.11046 29.3886 3.97634 27.6621 2.82227 25.9492C3.97634 24.2364 5.11046 22.5098 6.22461 20.7695C6.22804 18.5643 6.16034 16.3638 6.02148 14.168C7.90834 13.2161 9.78725 12.2513 11.6582 11.2734C12.6699 9.36867 13.6685 7.45592 14.6543 5.53516C16.7297 5.71159 18.8118 5.83007 20.9004 5.89062C22.7672 4.8226 24.5614 3.65464 26.2832 2.38672Z" fill="#212A35"/>
<path opacity="0.947" fill-rule="evenodd" clip-rule="evenodd" d="M25.5723 9.69922C32.8477 9.72013 38.0782 12.9701 41.2637 19.4492C43.7887 26.1363 42.6715 32.1285 37.9121 37.4258C32.7727 42.1338 26.8991 43.3356 20.291 41.0312C13.8355 38.0952 10.4501 33.0678 10.1348 25.9492C10.4048 19.3619 13.4179 14.5038 19.1738 11.375C21.2156 10.4161 23.3485 9.85753 25.5723 9.69922ZM26.2832 11.9336C24.437 12.0152 22.6428 12.4046 20.9004 13.1016C15.5355 15.6846 12.6917 19.9672 12.3691 25.9492C12.699 32.1823 15.712 36.5326 21.4082 39C27.0628 40.8573 32.0562 39.757 36.3887 35.6992C40.4349 31.1257 41.349 25.9799 39.1309 20.2617C36.4826 15 32.2001 12.224 26.2832 11.9336Z" fill="#212A35"/>
<path opacity="0.939" fill-rule="evenodd" clip-rule="evenodd" d="M32.5803 20.7695C33.4361 20.7219 33.9439 21.1112 34.1038 21.9375C34.0271 22.1584 33.9425 22.3784 33.8498 22.5976C31.1246 25.1875 28.3993 27.7773 25.6741 30.3672C25.3636 30.6437 25.0251 30.8807 24.6584 31.0781C24.1972 31.1913 23.791 31.0897 23.4397 30.7734C21.8993 29.1654 20.359 27.5572 18.8186 25.9492C18.5114 25.0022 18.85 24.4267 19.8342 24.2226C19.9763 24.2965 20.1287 24.3473 20.2913 24.375C21.6974 25.6627 23.0516 26.9999 24.3538 28.3867C27.0701 25.8052 29.8123 23.2661 32.5803 20.7695Z" fill="#212A35"/>
</g>
<defs>
<clipPath id="clip0_731_1561">
<rect width="52" height="52" fill="white" transform="translate(0.333984)"/>
</clipPath>
</defs>
</svg>
