<svg width="52" height="52" viewBox="0 0 52 52" fill="none" xmlns="http://www.w3.org/2000/svg">
<rect width="52" height="52" rx="12" fill="#4D61FF"/>
<g clip-path="url(#clip0_497_1053)">
<path d="M25.6474 10.0892C24.1498 10.454 22.6266 11.9708 21.481 14.2428C21.2826 14.6332 21.2186 14.8124 21.2762 14.8316C21.321 14.8444 21.6922 14.9468 22.1018 15.0492C23.0938 15.3116 24.4058 15.7532 25.3722 16.15C25.8074 16.3292 26.2234 16.4892 26.3002 16.5084C26.3834 16.5276 26.7802 16.3996 27.2922 16.1884C28.2906 15.7724 29.993 15.2028 30.8826 14.9916C31.2986 14.8892 31.5034 14.806 31.5034 14.7484C31.5034 14.6972 31.369 14.4092 31.209 14.1084C29.5706 11.0492 27.5866 9.61556 25.6474 10.0892Z" fill="white"/>
<path d="M16.3034 15.7022C15.3498 15.8046 14.3066 16.1182 13.7178 16.4766C13.033 16.9054 12.4698 17.603 12.233 18.3326C12.0282 18.9598 12.0218 20.1374 12.2266 20.9118C12.617 22.3966 13.449 24.0734 14.3898 25.2894C14.4026 25.3022 15.0234 24.6942 15.7722 23.939C16.521 23.1838 17.3402 22.3838 17.5898 22.1534L18.0442 21.7438L18.121 21.1678C18.3066 19.7662 18.7482 17.8526 19.1898 16.5086C19.3178 16.1246 19.4074 15.8046 19.401 15.7918C19.3562 15.747 17.7242 15.6318 17.2762 15.6382C17.0202 15.6446 16.585 15.6702 16.3034 15.7022Z" fill="white"/>
<path d="M33.9999 15.7023C33.6671 15.7407 33.3791 15.7791 33.3663 15.7919C33.3535 15.8047 33.4623 16.1887 33.6031 16.6367C34.1023 18.2175 34.4415 19.7023 34.6463 21.1935L34.7295 21.7951L35.4399 22.4159C36.1311 23.0303 37.4687 24.3679 38.0447 25.0207L38.3391 25.3599L38.8191 24.6303C40.0415 22.7551 40.6559 21.1103 40.6751 19.6319C40.6879 18.8127 40.6047 18.3967 40.2911 17.8015C39.7599 16.7775 38.6527 16.0863 37.0719 15.7919C36.3871 15.6639 34.7999 15.6191 33.9999 15.7023Z" fill="white"/>
<path d="M20.406 16.912C20.0988 17.8528 19.734 19.28 19.5804 20.1312L19.4844 20.6304L19.6572 20.5216C19.7468 20.464 19.926 20.336 20.0476 20.24C20.822 19.6448 22.8252 18.3904 24.0348 17.7504C24.4444 17.5264 24.7836 17.3408 24.7836 17.3216C24.7836 17.232 22.8764 16.5792 21.7756 16.2976C21.302 16.1696 20.8604 16.0608 20.8028 16.0416C20.7132 16.016 20.6428 16.1632 20.406 16.912Z" fill="white"/>
<path d="M31.0557 16.2715C30.0829 16.5275 28.1374 17.1803 28.035 17.2827C27.9966 17.3211 28.259 17.5003 28.7326 17.7499C29.9678 18.4027 31.6702 19.4715 32.7645 20.2843C33.0205 20.4699 33.2445 20.6235 33.2573 20.6235C33.2957 20.6235 32.9566 19.0299 32.7582 18.2875C32.5533 17.5131 32.0669 16.0155 32.0157 16.0219C31.9966 16.0219 31.5677 16.1371 31.0557 16.2715Z" fill="white"/>
<path d="M25.1672 18.6014C23.132 19.683 21.6152 20.643 20.0088 21.8782L19.2344 22.4734L19.1896 22.9086C18.972 25.2574 18.972 27.5102 19.1896 29.859L19.2344 30.2942L20.0088 30.8894C21.6856 32.1758 23.548 33.3534 25.372 34.2878L26.3704 34.7998L26.876 34.5566C28.8088 33.603 30.9592 32.2654 32.7576 30.8894L33.532 30.2942L33.6216 29.283C33.7368 27.9646 33.7368 24.803 33.6216 23.4846L33.532 22.4734L32.7576 21.8846C31.8296 21.1742 30.428 20.2142 29.5512 19.683C28.3288 18.9534 26.5304 17.9998 26.3704 17.9998C26.3256 17.9998 25.7816 18.2686 25.1672 18.6014ZM27.292 23.5294C28.1624 23.7982 28.8856 24.515 29.212 25.4174C29.3912 25.9166 29.3912 26.851 29.212 27.3502C28.8856 28.2654 28.1624 28.9694 27.26 29.251C26.812 29.3854 25.948 29.3854 25.4744 29.2382C24.092 28.8158 23.196 27.3566 23.4328 25.923C23.6504 24.6046 24.5656 23.6894 25.9352 23.4142C26.1912 23.363 26.9656 23.4334 27.292 23.5294Z" fill="white"/>
<path d="M25.8519 24.7455C25.4807 24.8799 25.1799 25.1103 24.9687 25.4175C24.0407 26.8063 25.4167 28.5727 26.9655 27.9903C28.1495 27.5423 28.4695 26.0255 27.5671 25.1487C27.1319 24.7263 26.4023 24.5535 25.8519 24.7455Z" fill="white"/>
<path d="M16.8088 24.6685C16.284 25.2061 15.7144 25.8141 15.5416 26.0125L15.2344 26.3837L15.5416 26.7485C15.708 26.9533 16.284 27.5613 16.8152 28.0989L17.7752 29.0781V26.3837C17.7752 24.9053 17.7752 23.6957 17.7688 23.6957C17.7688 23.6957 17.3336 24.1373 16.8088 24.6685Z" fill="white"/>
<path d="M34.9912 26.3837V29.0781L35.8872 28.1629C36.38 27.6573 36.956 27.0557 37.1608 26.8125L37.532 26.3837L37.1608 25.9485C36.956 25.7117 36.38 25.1101 35.8872 24.6045L34.9912 23.6893V26.3837Z" fill="white"/>
<path d="M38.1722 27.5933C37.9162 27.9453 36.2074 29.6669 35.465 30.3197L34.729 30.9789L34.6138 31.7725C34.3962 33.2189 34.0698 34.6461 33.6026 36.1309C33.4618 36.5853 33.3594 36.9629 33.3722 36.9757C33.3786 36.9821 33.769 37.0269 34.2234 37.0717C35.9194 37.2317 37.7114 36.9885 38.7738 36.4445C39.465 36.0925 40.137 35.4013 40.4122 34.7677C40.9818 33.4621 40.6938 31.5677 39.625 29.5261C39.3178 28.9373 38.377 27.4077 38.3258 27.4077C38.3194 27.4077 38.249 27.4909 38.1722 27.5933Z" fill="white"/>
<path d="M14.0505 27.971C13.1161 29.3534 12.5657 30.5374 12.2009 31.9518C12.1305 32.2334 12.0921 32.6366 12.0921 33.1998C12.0857 34.0958 12.1881 34.5374 12.5337 35.1198C13.3849 36.5725 15.6377 37.3213 18.4345 37.0717C18.9337 37.0269 19.3561 36.9693 19.3753 36.9437C19.3881 36.9245 19.2985 36.5853 19.1769 36.2013C18.6905 34.659 18.2873 32.899 18.1273 31.6318L18.0441 31.0238L17.6281 30.6398C16.6233 29.7182 16.0665 29.1742 15.2857 28.3486C14.8249 27.8686 14.4345 27.4718 14.4153 27.4718C14.3961 27.4718 14.2361 27.6958 14.0505 27.971Z" fill="white"/>
<path d="M19.5804 32.6367C19.734 33.4879 20.0988 34.9151 20.406 35.8559C20.6428 36.6047 20.7132 36.7519 20.8028 36.7263C20.8604 36.7071 21.302 36.5983 21.7756 36.4703C22.8764 36.1887 24.7836 35.5359 24.7836 35.4463C24.7836 35.4271 24.4444 35.2415 24.0348 35.0175C22.8252 34.3775 20.822 33.1231 20.0476 32.5279C19.926 32.4319 19.7468 32.3039 19.6572 32.2463L19.4844 32.1375L19.5804 32.6367Z" fill="white"/>
<path d="M33.0078 32.3101C32.3358 32.8605 29.987 34.3517 28.7326 35.0173C28.259 35.2669 27.9966 35.4461 28.035 35.4845C28.1886 35.6381 31.9902 36.8221 32.0478 36.7325C32.1054 36.6621 32.5662 35.1837 32.7262 34.5949C32.9758 33.6541 33.2958 32.1437 33.2382 32.1437C33.219 32.1501 33.1166 32.2205 33.0078 32.3101Z" fill="white"/>
<path d="M26.1214 36.3037C25.6606 36.5725 23.299 37.4045 22.0958 37.7181C21.6926 37.8269 21.3214 37.9229 21.2766 37.9357C21.1806 37.9677 21.5966 38.8253 22.1086 39.6381C23.5102 41.8525 25.187 42.9597 26.7806 42.7229C27.0366 42.6845 27.4142 42.5949 27.6126 42.5181C28.6174 42.1341 29.7694 41.0333 30.6526 39.6317C31.0174 39.0493 31.5038 38.1277 31.5038 38.0189C31.5038 37.9549 31.299 37.8781 30.883 37.7821C30.0126 37.5709 28.1566 36.9501 27.2414 36.5661C26.467 36.2333 26.307 36.1949 26.1214 36.3037Z" fill="white"/>
</g>
<defs>
<clipPath id="clip0_497_1053">
<rect width="32" height="32.768" fill="white" transform="translate(10 10)"/>
</clipPath>
</defs>
</svg>
