<svg width="53" height="52" viewBox="0 0 53 52" fill="none" xmlns="http://www.w3.org/2000/svg">
<path opacity="0.933" fill-rule="evenodd" clip-rule="evenodd" d="M14.0216 4.51948C17.0512 4.48619 18.8962 5.94191 19.5568 8.88667C19.7733 10.7601 19.1809 12.3174 17.7794 13.5585C18.399 13.7837 18.9746 14.0884 19.506 14.4726C19.9297 15.2354 19.7266 15.7093 18.8966 15.8945C18.0303 15.5464 17.1501 15.2249 16.256 14.9296C12.786 14.3246 10.0607 15.4588 8.08019 18.332C7.80827 18.774 7.62208 19.2479 7.5216 19.7539C7.57611 20.5592 7.98236 21.0839 8.74035 21.3281C11.0085 21.3619 13.2768 21.3958 15.545 21.4296C16.2015 21.608 16.4215 22.0312 16.2052 22.6992C16.0867 22.8177 15.9682 22.9361 15.8497 23.0546C13.2379 23.1524 10.6312 23.1185 8.02941 22.9531C6.1114 22.0084 5.45125 20.502 6.04894 18.4335C6.81536 16.7526 7.98333 15.4153 9.55285 14.4218C10.1155 14.0897 10.691 13.785 11.2794 13.5078C9.87007 12.2943 9.27763 10.7539 9.50207 8.88667C10.0344 6.4075 11.5409 4.95177 14.0216 4.51948ZM14.2247 6.24604C16.2191 6.32789 17.4209 7.34352 17.8302 9.29292C17.7124 11.8481 16.3751 13.05 13.8185 12.8984C11.833 12.2284 11.0036 10.8573 11.3302 8.7851C11.8116 7.37186 12.7764 6.52551 14.2247 6.24604Z" fill="#212A35"/>
<path opacity="0.934" fill-rule="evenodd" clip-rule="evenodd" d="M37.6868 4.62113C39.7627 4.31416 41.4723 4.95739 42.8158 6.55081C44.1888 8.7913 44.0872 10.958 42.5111 13.0508C42.3544 13.2415 42.1682 13.3939 41.9525 13.5078C44.3188 14.4861 46.0623 16.1281 47.1829 18.4336C47.8079 20.7176 47.0123 22.2579 44.7962 23.0547C42.3249 23.1225 39.8535 23.1225 37.3822 23.0547C36.9467 22.6717 36.8621 22.2147 37.1283 21.6836C37.2956 21.56 37.4818 21.4754 37.6868 21.4297C39.955 21.3959 42.2233 21.362 44.4915 21.3282C45.2495 21.084 45.6557 20.5593 45.7103 19.7539C44.9086 17.3443 43.2836 15.77 40.8353 15.0313C38.6946 14.4567 36.6633 14.7275 34.7415 15.8438C33.64 15.9446 33.3015 15.4876 33.7259 14.4727C34.2573 14.0885 34.8328 13.7838 35.4525 13.5586C33.3529 11.4579 33.0651 9.12201 34.5892 6.55081C35.416 5.55461 36.4485 4.91137 37.6868 4.62113ZM38.3978 6.24613C40.3922 6.32798 41.594 7.3436 42.0033 9.293C41.8854 11.8482 40.5482 13.0501 37.9915 12.8985C36.0061 12.2285 35.1766 10.8574 35.5033 8.78519C35.9847 7.37195 36.9495 6.5256 38.3978 6.24613Z" fill="#212A35"/>
<path opacity="0.935" fill-rule="evenodd" clip-rule="evenodd" d="M25.8026 6.24613C28.3773 6.05139 30.2223 7.10088 31.3378 9.39456C32.0951 11.6636 31.6042 13.6101 29.8651 15.2344C31.5664 15.9549 33.0051 17.0213 34.1815 18.4336C35.1248 19.6036 35.4634 20.9239 35.1972 22.3946C34.7748 23.7313 33.8777 24.5269 32.5058 24.7813C28.5786 24.849 24.6516 24.849 20.7245 24.7813C18.5273 24.1629 17.6302 22.724 18.0331 20.4649C19.0398 17.9382 20.8171 16.1947 23.3651 15.2344C21.3713 13.2874 21.0158 11.0699 22.2987 8.58206C23.1562 7.3349 24.3242 6.55625 25.8026 6.24613ZM26.0058 7.97269C28.5115 7.92286 29.815 9.14161 29.9159 11.6289C29.6655 13.2649 28.7345 14.2637 27.1229 14.625C25.6411 14.7558 24.507 14.1973 23.7206 12.9493C22.8351 10.5229 23.5968 8.86405 26.0058 7.97269ZM25.8026 16.4024C29.2823 16.2709 31.8383 17.7265 33.4706 20.7696C33.7956 21.897 33.4062 22.6587 32.3026 23.0547C28.511 23.1225 24.7193 23.1225 20.9276 23.0547C19.5573 22.4297 19.2695 21.4649 20.0644 20.1602C21.421 18.052 23.3339 16.7993 25.8026 16.4024Z" fill="#212A35"/>
<path opacity="0.932" fill-rule="evenodd" clip-rule="evenodd" d="M18.6929 27.6758C19.9032 27.6367 21.0882 27.789 22.2476 28.1328C25.6599 29.5683 29.0454 31.0579 32.4038 32.6016C33.2082 33.3149 33.7668 34.1782 34.0796 35.1914C37.8145 34.0706 41.5553 32.9703 45.3023 31.8906C47.3792 31.7012 48.7165 32.5983 49.314 34.582C49.5715 36.2164 49.0129 37.4859 47.6382 38.3906C42.5601 41.0313 37.482 43.6719 32.4038 46.3125C30.36 47.238 28.2272 47.5427 26.0054 47.2266C20.2791 46.3747 14.5578 45.4944 8.84135 44.5859C8.55973 44.3439 8.33968 44.0561 8.18119 43.7227C6.81883 41.3024 5.43081 38.8988 4.01713 36.5117C3.69561 35.8335 3.84796 35.3088 4.47416 34.9375C7.995 32.9063 11.5158 30.875 15.0367 28.8438C16.1983 28.2326 17.4171 27.8433 18.6929 27.6758ZM18.7945 29.4024C20.0322 29.3446 21.2171 29.5646 22.3492 30.0625C25.2607 31.3151 28.172 32.5678 31.0835 33.8203C32.2538 34.7024 32.5077 35.8027 31.8453 37.1211C31.3022 37.8581 30.5743 38.1966 29.6617 38.1367C27.3939 37.9099 25.1257 37.7237 22.857 37.5781C22.325 37.9106 22.2066 38.3677 22.5015 38.9492C22.5932 39.0712 22.7116 39.1559 22.857 39.2031C25.4887 39.5543 28.1293 39.7575 30.7788 39.8125C32.2749 39.4338 33.2905 38.5197 33.8257 37.0703C37.8325 35.8814 41.8442 34.7135 45.8609 33.5664C47.1623 33.7506 47.7379 34.4954 47.5874 35.8008C47.4564 36.1806 47.2363 36.5023 46.9273 36.7656C41.7138 39.474 36.5002 42.1823 31.2867 44.8906C29.6478 45.5609 27.9551 45.7641 26.2085 45.5C20.7082 44.6974 15.2238 43.8341 9.75541 42.9102C8.46895 40.6758 7.1825 38.4414 5.89603 36.207C9.48528 34.0736 13.1077 31.9916 16.7632 29.9609C17.4365 29.7084 18.1136 29.5221 18.7945 29.4024Z" fill="#212A35"/>
</svg>
