<svg width="65" height="64" viewBox="0 0 65 64" fill="none" xmlns="http://www.w3.org/2000/svg">
<g clip-path="url(#clip0_402_5998)">
<path opacity="0.96" fill-rule="evenodd" clip-rule="evenodd" d="M31.8125 -0.0625C32.2291 -0.0625 32.6459 -0.0625 33.0625 -0.0625C40.4531 4.90211 44.2865 11.8813 44.5625 20.875C44.3494 23.5735 44.0786 26.261 43.75 28.9375C46.0834 31.6875 48.4166 34.4375 50.75 37.1875C51.5494 39.0585 51.2785 40.746 49.9375 42.25C49.4239 42.6735 48.8406 42.9651 48.1875 43.125C46.0625 43.1666 43.9375 43.2084 41.8125 43.25C41.584 44.6825 41.3548 46.12 41.125 47.5625C40.9791 47.7916 40.7916 47.9791 40.5625 48.125C39.9389 48.1874 39.3139 48.2083 38.6875 48.1875C38.6666 49.6881 38.6875 51.1881 38.75 52.6875C38.9103 54.4113 39.8061 55.5779 41.4375 56.1875C42.3731 53.3356 44.3314 51.7106 47.3125 51.3125C48.7551 48.6728 50.9635 47.0685 53.9375 46.5C59.3621 46.1904 62.8621 48.6279 64.4375 53.8125C64.4375 54.7709 64.4375 55.7291 64.4375 56.6875C63.3722 60.586 60.8722 63.0028 56.9375 63.9375C50.4375 63.9375 43.9375 63.9375 37.4375 63.9375C36.8442 63.4573 36.6567 62.8323 36.875 62.0625C37.0209 61.8334 37.2084 61.6459 37.4375 61.5C43.4375 61.4584 49.4375 61.4166 55.4375 61.375C58.6996 61.1295 60.8039 59.442 61.75 56.3125C61.9433 53.1789 60.6308 50.908 57.8125 49.5C54.8129 48.4866 52.2921 49.1741 50.25 51.5625C50.1564 51.7044 50.1771 51.8294 50.3125 51.9375C51.4186 52.3146 52.1686 53.0438 52.5625 54.125C52.3845 55.1941 51.7595 55.6108 50.6875 55.375C49.0923 53.88 47.3423 53.6717 45.4375 54.75C44.4104 55.7035 43.8895 56.891 43.875 58.3125C43.7291 58.5416 43.5416 58.7291 43.3125 58.875C39.6908 59.0452 37.3366 57.3994 36.25 53.9375C36.0858 52.0247 36.0233 50.108 36.0625 48.1875C33.6041 48.1875 31.1459 48.1875 28.6875 48.1875C28.7084 50.1046 28.6875 52.0213 28.625 53.9375C27.5384 57.3994 25.1842 59.0452 21.5625 58.875C21.3334 58.7291 21.1459 58.5416 21 58.3125C20.8383 55.3162 19.2758 53.9204 16.3125 54.125C15.5094 54.3808 14.8011 54.7974 14.1875 55.375C12.7093 55.5218 12.1468 54.8759 12.5 53.4375C13.1 52.8166 13.7875 52.3166 14.5625 51.9375C14.6979 51.8294 14.7186 51.7044 14.625 51.5625C12.578 49.1722 10.0571 48.4847 7.0625 49.5C4.24426 50.908 2.93176 53.1789 3.125 56.3125C4.06636 59.4405 6.17054 61.128 9.4375 61.375C15.4375 61.4166 21.4375 61.4584 27.4375 61.5C28.0344 61.9569 28.2219 62.561 28 63.3125C27.8293 63.5452 27.6418 63.7535 27.4375 63.9375C20.9375 63.9375 14.4375 63.9375 7.9375 63.9375C3.94696 62.9886 1.44696 60.5303 0.4375 56.5625C0.4375 55.6459 0.4375 54.7291 0.4375 53.8125C2.01131 48.6284 5.51131 46.1909 10.9375 46.5C13.9115 47.0685 16.1199 48.6728 17.5625 51.3125C20.5436 51.7106 22.5019 53.3356 23.4375 56.1875C24.6947 55.7011 25.549 54.8261 26 53.5625C26.0625 51.7714 26.0834 49.9796 26.0625 48.1875C25.4776 48.2083 24.8944 48.1874 24.3125 48.125C24.0834 47.9791 23.8959 47.7916 23.75 47.5625C23.5203 46.12 23.291 44.6825 23.0625 43.25C20.9375 43.2084 18.8125 43.1666 16.6875 43.125C14.3195 42.329 13.3404 40.6833 13.75 38.1875C13.924 37.4733 14.2574 36.8483 14.75 36.3125C16.875 33.8541 19 31.3959 21.125 28.9375C20.7881 26.262 20.5173 23.5745 20.3125 20.875C20.5883 11.882 24.4215 4.90284 31.8125 -0.0625ZM32.3125 2.8125C34.2677 3.99604 35.9345 5.51686 37.3125 7.375C34.0625 7.45834 30.8125 7.45834 27.5625 7.375C28.9299 5.61139 30.5133 4.09055 32.3125 2.8125ZM25.8125 9.9375C30.23 9.89585 34.6466 9.93751 39.0625 10.0625C40.8895 13.433 41.8479 17.0371 41.9375 20.875C41.1919 27.4906 40.3585 34.0947 39.4375 40.6875C34.7709 40.6875 30.1041 40.6875 25.4375 40.6875C24.4966 34.0978 23.6632 27.4936 22.9375 20.875C23.0466 17.0007 24.005 13.355 25.8125 9.9375ZM21.5625 32.4375C22.0238 35.1232 22.4404 37.8316 22.8125 40.5625C21.1058 40.7083 19.3974 40.7291 17.6875 40.625C16.455 40.3474 16.0591 39.6183 16.5 38.4375C18.1669 36.4168 19.8544 34.4168 21.5625 32.4375ZM43.1875 32.4375C44.9803 34.3765 46.7094 36.3765 48.375 38.4375C48.8159 39.6183 48.42 40.3474 47.1875 40.625C45.4776 40.7291 43.7692 40.7083 42.0625 40.5625C42.4724 37.8601 42.8474 35.1519 43.1875 32.4375ZM25.8125 43.1875C30.2291 43.1875 34.6459 43.1875 39.0625 43.1875C38.9791 44.0209 38.8959 44.8541 38.8125 45.6875C34.5625 45.6875 30.3125 45.6875 26.0625 45.6875C25.9675 44.8554 25.8841 44.0221 25.8125 43.1875Z" fill="url(#paint0_linear_402_5998)"/>
<path opacity="0.945" fill-rule="evenodd" clip-rule="evenodd" d="M31.1866 15.6875C34.0511 15.3184 36.2803 16.3184 37.8741 18.6875C39.3636 21.7735 38.8845 24.5026 36.4366 26.875C34.122 28.4284 31.7053 28.595 29.1866 27.375C26.7975 25.7827 25.8183 23.5536 26.2491 20.6875C26.9176 18.0399 28.5635 16.3732 31.1866 15.6875ZM31.5616 18.3125C30.5857 18.6049 29.8148 19.1881 29.2491 20.0625C28.3112 22.2479 28.8321 23.977 30.8116 25.25C33.3393 26.0897 35.0685 25.2772 35.9991 22.8125C36.1837 19.6845 34.7046 18.1845 31.5616 18.3125Z" fill="url(#paint1_linear_402_5998)"/>
<path opacity="0.908" fill-rule="evenodd" clip-rule="evenodd" d="M33.0627 63.9375C32.646 63.9375 32.2293 63.9375 31.8127 63.9375C31.2194 63.4572 31.0319 62.8322 31.2502 62.0625C31.707 61.4656 32.3112 61.2781 33.0627 61.5C33.6595 61.9569 33.847 62.561 33.6252 63.3125C33.4544 63.5452 33.2669 63.7535 33.0627 63.9375Z" fill="url(#paint2_linear_402_5998)"/>
</g>
<defs>
<linearGradient id="paint0_linear_402_5998" x1="32.4375" y1="-0.0625" x2="32.4375" y2="63.9375" gradientUnits="userSpaceOnUse">
<stop stop-color="#E7B900"/>
<stop offset="1" stop-color="#E78B00"/>
</linearGradient>
<linearGradient id="paint1_linear_402_5998" x1="32.4349" y1="15.6129" x2="32.4349" y2="28.18" gradientUnits="userSpaceOnUse">
<stop stop-color="#E7B900"/>
<stop offset="1" stop-color="#E78B00"/>
</linearGradient>
<linearGradient id="paint2_linear_402_5998" x1="32.4387" y1="61.4098" x2="32.4387" y2="63.9375" gradientUnits="userSpaceOnUse">
<stop stop-color="#E7B900"/>
<stop offset="1" stop-color="#E78B00"/>
</linearGradient>
<clipPath id="clip0_402_5998">
<rect width="64" height="64" fill="white" transform="translate(0.5)"/>
</clipPath>
</defs>
</svg>
