<svg width="52" height="52" viewBox="0 0 52 52" fill="none" xmlns="http://www.w3.org/2000/svg">
<rect width="52" height="52" rx="12" fill="#4CAF50"/>
<g clip-path="url(#clip0_505_1613)">
<path opacity="0.992" fill-rule="evenodd" clip-rule="evenodd" d="M25.5952 9.96875C25.8452 9.96875 26.0952 9.96875 26.3452 9.96875C30.5406 11.1637 34.7489 12.3407 38.9702 13.5C39.4548 13.5889 39.7569 13.8702 39.8764 14.3438C40.3332 17.9619 40.3957 21.5869 40.0639 25.2188C39.8606 27.3188 39.4023 29.3604 38.6889 31.3438C38.0062 33.0454 37.0479 34.5662 35.8139 35.9062C33.1867 38.7561 30.0305 40.777 26.3452 41.9688C26.0952 41.9688 25.8452 41.9688 25.5952 41.9688C20.9467 40.4766 17.2279 37.7266 14.4389 33.7188C13.4446 32.0487 12.7571 30.2571 12.3764 28.3438C11.875 25.8273 11.6355 23.2857 11.6577 20.7188C11.6662 18.5854 11.8016 16.4604 12.0639 14.3438C12.1834 13.8702 12.4855 13.5889 12.9702 13.5C17.1914 12.3407 21.3997 11.1637 25.5952 9.96875ZM32.1577 19.0312C32.5004 18.9891 32.8129 19.062 33.0952 19.25C33.5014 19.6562 33.9077 20.0625 34.3139 20.4688C34.578 20.8519 34.5988 21.2478 34.3764 21.6562C31.3226 24.7309 28.2497 27.783 25.1577 30.8125C24.801 30.9494 24.4677 30.9077 24.1577 30.6875C22.2722 28.8021 20.3869 26.9167 18.5014 25.0312C18.2819 24.6017 18.3027 24.185 18.5639 23.7812C18.9494 23.3958 19.3347 23.0104 19.7202 22.625C20.2157 22.2435 20.6948 22.2643 21.1577 22.6875C22.3556 23.8854 23.5535 25.0833 24.7514 26.2812C27.0744 23.9583 29.3972 21.6354 31.7202 19.3125C31.87 19.2172 32.0159 19.1235 32.1577 19.0312Z" fill="white"/>
</g>
<defs>
<clipPath id="clip0_505_1613">
<rect width="32" height="32" fill="white" transform="translate(10 10)"/>
</clipPath>
</defs>
</svg>
