<svg width="52" height="52" viewBox="0 0 52 52" fill="none" xmlns="http://www.w3.org/2000/svg">
<g clip-path="url(#clip0_732_2796)">
<path opacity="0.948" fill-rule="evenodd" clip-rule="evenodd" d="M22.6992 -0.0507812C24.8659 -0.0507812 27.0326 -0.0507812 29.1992 -0.0507812C30.1532 0.275992 30.8811 0.885367 31.3828 1.77734C31.7036 3.46316 31.9914 5.15587 32.2461 6.85547C33.1973 7.17816 34.1284 7.55056 35.0391 7.97266C36.2685 7.11608 37.4703 6.21895 38.6445 5.28125C39.848 4.65512 41.033 4.68897 42.1992 5.38281C43.6381 6.82162 45.0768 8.26041 46.5156 9.69922C47.1588 10.7823 47.2266 11.8995 46.7188 13.0508C45.7863 14.3214 44.8553 15.591 43.9258 16.8594C44.3689 17.7999 44.7413 18.7648 45.043 19.7539C46.754 19.8991 48.4466 20.153 50.1211 20.5156C51.01 21.0147 51.6193 21.7426 51.9492 22.6992C51.9492 24.8659 51.9492 27.0326 51.9492 29.1992C51.6225 30.1532 51.0131 30.8811 50.1211 31.3828C48.6137 31.711 47.0903 31.9479 45.5508 32.0938C45.3246 32.106 45.1384 32.1906 44.9922 32.3477C44.6964 33.2689 44.341 34.1661 43.9258 35.0391C44.9274 36.3476 45.8922 37.6849 46.8203 39.0508C47.2338 40.2048 47.0984 41.2882 46.4141 42.3008C45.043 43.6719 43.6719 45.043 42.3008 46.4141C41.2073 47.136 40.0561 47.2375 38.8477 46.7188C37.577 45.7863 36.3075 44.8553 35.0391 43.9258C34.1284 44.3479 33.1973 44.7203 32.2461 45.043C31.9914 46.7425 31.7036 48.4353 31.3828 50.1211C30.8811 51.0131 30.1532 51.6225 29.1992 51.9492C27.0326 51.9492 24.8659 51.9492 22.6992 51.9492C21.4891 51.5533 20.6936 50.7408 20.3125 49.5117C20.1347 48.1225 19.9484 46.7345 19.7539 45.3477C19.7327 45.1959 19.6649 45.0774 19.5508 44.9922C18.6295 44.6964 17.7323 44.341 16.8594 43.9258C15.591 44.8553 14.3214 45.7863 13.0508 46.7188C11.8403 47.2529 10.6892 47.1513 9.59766 46.4141C8.19271 45.0091 6.78776 43.6041 5.38281 42.1992C4.68285 41.034 4.649 39.8492 5.28125 38.6445C6.21895 37.4703 7.11608 36.2685 7.97266 35.0391C7.55056 34.1284 7.17816 33.1973 6.85547 32.2461C5.15587 31.9914 3.46316 31.7036 1.77734 31.3828C0.888467 30.8837 0.279092 30.1558 -0.0507812 29.1992C-0.0507812 27.0326 -0.0507812 24.8659 -0.0507812 22.6992C0.345136 21.4891 1.15764 20.6936 2.38672 20.3125C3.70594 20.1349 5.02626 19.9657 6.34766 19.8047C6.57385 19.7924 6.76004 19.7078 6.90625 19.5508C7.20204 18.6295 7.55751 17.7323 7.97266 16.8594C7.04314 15.591 6.11214 14.3214 5.17969 13.0508C4.64834 11.8412 4.74991 10.6902 5.48438 9.59766C6.88932 8.19271 8.29427 6.78776 9.69922 5.38281C10.8655 4.68897 12.0504 4.65512 13.2539 5.28125C14.4282 6.21895 15.63 7.11608 16.8594 7.97266C17.7701 7.55056 18.7011 7.17816 19.6523 6.85547C19.9071 5.15587 20.1948 3.46316 20.5156 1.77734C21.0147 0.888467 21.7426 0.279092 22.6992 -0.0507812ZM23.207 2.18359C25.1123 2.13544 27.0082 2.18622 28.8945 2.33594C29.0853 2.49264 29.2376 2.67883 29.3516 2.89453C29.5728 4.73183 29.8435 6.55995 30.1641 8.37891C30.2874 8.53621 30.4397 8.6547 30.6211 8.73438C32.0672 9.16968 33.4552 9.7452 34.7852 10.4609C35.22 10.5589 35.6263 10.4912 36.0039 10.2578C37.2565 9.27604 38.5091 8.29427 39.7617 7.3125C40.1341 7.10938 40.5065 7.10938 40.8789 7.3125C42.1853 8.58497 43.4548 9.88836 44.6875 11.2227C44.7677 11.541 44.7339 11.8456 44.5859 12.1367C43.5118 13.5065 42.4623 14.8945 41.4375 16.3008C41.3698 16.5716 41.3698 16.8424 41.4375 17.1133C42.1856 18.5113 42.795 19.967 43.2656 21.4805C43.5567 21.7697 43.9122 21.9221 44.332 21.9375C45.8915 22.124 47.4488 22.3271 49.0039 22.5469C49.2916 22.6992 49.5117 22.9193 49.6641 23.207C49.763 25.112 49.7291 27.0079 49.5625 28.8945C49.4058 29.0853 49.2196 29.2376 49.0039 29.3516C47.1668 29.5727 45.3387 29.8435 43.5195 30.1641C43.3622 30.2874 43.2438 30.4397 43.1641 30.6211C42.7288 32.0672 42.1532 33.4552 41.4375 34.7852C41.3395 35.22 41.4072 35.6263 41.6406 36.0039C42.6224 37.2565 43.6041 38.5091 44.5859 39.7617C44.7891 40.1341 44.7891 40.5065 44.5859 40.8789C43.3135 42.1853 42.0101 43.4548 40.6758 44.6875C40.3575 44.7677 40.0528 44.7339 39.7617 44.5859C38.3919 43.5118 37.0039 42.4623 35.5977 41.4375C35.3268 41.3698 35.056 41.3698 34.7852 41.4375C33.3871 42.1856 31.9315 42.795 30.418 43.2656C30.1287 43.5567 29.9764 43.9122 29.9609 44.332C29.7745 45.8915 29.5713 47.4488 29.3516 49.0039C29.1992 49.2916 28.9791 49.5117 28.6914 49.6641C26.7864 49.763 24.8905 49.7291 23.0039 49.5625C22.8132 49.4058 22.6608 49.2196 22.5469 49.0039C22.3257 47.1665 22.0549 45.3384 21.7344 43.5195C21.6111 43.3622 21.4587 43.2438 21.2773 43.1641C19.8312 42.7288 18.4432 42.1532 17.1133 41.4375C16.6784 41.3395 16.2721 41.4072 15.8945 41.6406C14.642 42.6224 13.3893 43.6041 12.1367 44.5859C11.7643 44.7891 11.392 44.7891 11.0195 44.5859C9.71314 43.3135 8.44361 42.0101 7.21094 40.6758C7.13069 40.3575 7.16454 40.0528 7.3125 39.7617C8.38666 38.3919 9.43613 37.0039 10.4609 35.5977C10.5287 35.3268 10.5287 35.056 10.4609 34.7852C9.71285 33.3871 9.10347 31.9315 8.63281 30.418C8.34172 30.1287 7.98626 29.9764 7.56641 29.9609C6.00691 29.7745 4.44963 29.5713 2.89453 29.3516C2.60677 29.1992 2.38672 28.9791 2.23438 28.6914C2.13549 26.7864 2.16934 24.8905 2.33594 23.0039C2.49264 22.8132 2.67883 22.6608 2.89453 22.5469C4.73183 22.3257 6.55995 22.0549 8.37891 21.7344C8.53621 21.6111 8.6547 21.4587 8.73438 21.2773C9.16968 19.8312 9.7452 18.4432 10.4609 17.1133C10.5589 16.6784 10.4912 16.2721 10.2578 15.8945C9.27604 14.642 8.29427 13.3893 7.3125 12.1367C7.10938 11.7643 7.10938 11.392 7.3125 11.0195C8.58497 9.71314 9.88836 8.44361 11.2227 7.21094C11.541 7.13069 11.8456 7.16454 12.1367 7.3125C13.5065 8.38666 14.8945 9.43613 16.3008 10.4609C16.5716 10.5287 16.8424 10.5287 17.1133 10.4609C18.5107 9.71145 19.9664 9.10207 21.4805 8.63281C21.7697 8.34172 21.9221 7.98626 21.9375 7.56641C22.124 6.00691 22.3271 4.44963 22.5469 2.89453C22.7189 2.60431 22.939 2.36732 23.207 2.18359Z" fill="#212A35"/>
<path opacity="0.945" fill-rule="evenodd" clip-rule="evenodd" d="M24.7304 15.082C29.4049 14.8038 32.9765 16.6319 35.4453 20.5664C37.2734 24.1549 37.2734 27.7435 35.4453 31.332C32.9787 35.2822 29.4072 37.0933 24.7304 36.7656C20.156 36.078 17.0921 33.5559 15.539 29.1992C14.2432 23.754 15.919 19.5053 20.5664 16.4531C21.8826 15.7378 23.2707 15.2808 24.7304 15.082ZM25.2383 17.3164C21.8271 17.7643 19.4065 19.5585 17.9765 22.6992C16.6646 26.5412 17.494 29.842 20.4648 32.6015C23.9152 35.1162 27.436 35.2178 31.0273 32.9062C34.3199 30.1711 35.2847 26.7688 33.9219 22.6992C32.19 19.0588 29.2955 17.2645 25.2383 17.3164Z" fill="#212A35"/>
</g>
<defs>
<clipPath id="clip0_732_2796">
<rect width="52" height="52" fill="white"/>
</clipPath>
</defs>
</svg>
