<svg width="18" height="18" viewBox="0 0 18 18" fill="none" xmlns="http://www.w3.org/2000/svg">
<g clip-path="url(#clip0_562_7375)">
<path d="M9.03796 14.4173C6.04771 14.4173 4.68196 12.894 4.68196 11.7765C4.68121 11.5103 4.79071 11.2553 4.98421 11.0715C5.17771 10.8885 5.43796 10.7925 5.70421 10.8075C6.98446 10.8075 6.64921 12.7275 9.03796 12.7275C10.259 12.7275 10.976 11.9925 10.976 11.3018C10.976 10.887 10.739 10.413 9.93271 10.2233L7.26571 9.55052C5.12296 9.00527 4.74946 7.81427 4.74946 6.70877C4.74946 4.41527 6.84721 3.58502 8.84521 3.58502C10.6857 3.58502 12.8727 4.60127 12.8727 5.97677C12.8727 6.56927 12.3777 6.88652 11.8032 6.88652C10.7097 6.88652 10.8935 5.35127 8.69446 5.35127C7.60096 5.35127 7.02571 5.86427 7.02571 6.58127C7.02571 7.29827 7.87621 7.54127 8.62321 7.70477L10.5912 8.14952C12.749 8.63552 13.3235 9.90077 13.3235 11.1128C13.3235 12.9765 11.8805 14.4173 9.03571 14.4173M17.294 10.473C17.3795 9.98402 17.4222 9.48827 17.4215 8.99102C17.432 6.49577 16.3355 4.12502 14.4282 2.51702C12.521 0.909016 9.99871 0.228767 7.54096 0.660767C6.78571 0.225767 5.92921 -0.00223351 5.05771 1.64929e-05C3.26896 0.0112665 1.61971 0.969767 0.725709 2.51927C-0.169041 4.06877 -0.174291 5.97602 0.710709 7.53077C0.217209 10.2443 1.08196 13.0275 3.02671 14.9828C4.97146 16.938 7.75021 17.8185 10.466 17.3393C11.2205 17.7735 12.0762 18.0015 12.9462 18C14.7342 17.9888 16.382 17.0303 17.276 15.4815C18.17 13.9328 18.1775 12.027 17.294 10.473Z" fill="#192734"/>
</g>
<defs>
<clipPath id="clip0_562_7375">
<rect width="18" height="18" fill="white"/>
</clipPath>
</defs>
</svg>
