<svg width="52" height="52" viewBox="0 0 52 52" fill="none" xmlns="http://www.w3.org/2000/svg">
<rect width="52" height="52" rx="12" fill="#4E62FF"/>
<g clip-path="url(#clip0_505_1574)">
<path opacity="0.967" fill-rule="evenodd" clip-rule="evenodd" d="M25.4688 9.96875C25.8021 9.96875 26.1354 9.96875 26.4688 9.96875C27.3254 10.263 27.7942 10.8671 27.875 11.7812C27.9062 12.5518 27.9167 13.3226 27.9062 14.0938C30.9479 14.0938 33.9896 14.0938 37.0312 14.0938C37.8861 16.5531 38.7402 19.0114 39.5938 21.4688C38.9062 21.4688 38.2188 21.4688 37.5312 21.4688C37.1442 20.2972 36.7379 19.1306 36.3125 17.9688C35.8871 19.1306 35.4808 20.2972 35.0938 21.4688C34.4062 21.4688 33.7188 21.4688 33.0312 21.4688C33.6388 19.6496 34.2638 17.8371 34.9062 16.0312C32.5729 16.0312 30.2396 16.0312 27.9062 16.0312C27.9062 21.5521 27.9062 27.0729 27.9062 32.5938C26.6146 32.5938 25.3229 32.5938 24.0312 32.5938C24.0312 27.0729 24.0312 21.5521 24.0312 16.0312C21.6979 16.0312 19.3646 16.0312 17.0312 16.0312C17.6743 17.8381 18.2993 19.6506 18.9062 21.4688C18.2188 21.4688 17.5312 21.4688 16.8438 21.4688C16.4567 20.2972 16.0504 19.1306 15.625 17.9688C15.1996 19.1306 14.7933 20.2972 14.4062 21.4688C13.7188 21.4688 13.0312 21.4688 12.3438 21.4688C13.1973 19.0114 14.0514 16.5531 14.9062 14.0938C17.9479 14.0938 20.9896 14.0938 24.0312 14.0938C24.0208 13.3226 24.0312 12.5518 24.0625 11.7812C24.1433 10.8671 24.6121 10.263 25.4688 9.96875Z" fill="white"/>
<path opacity="0.984" fill-rule="evenodd" clip-rule="evenodd" d="M9.96875 23.2812C13.7396 23.2812 17.5104 23.2812 21.2812 23.2812C21.4137 26.2191 20.1221 28.2296 17.4062 29.3125C15.0806 29.9473 13.0702 29.4161 11.375 27.7188C10.6483 26.8607 10.1795 25.8816 9.96875 24.7812C9.96875 24.2812 9.96875 23.7812 9.96875 23.2812Z" fill="white"/>
<path opacity="0.984" fill-rule="evenodd" clip-rule="evenodd" d="M41.9687 23.2812C41.9687 23.7812 41.9687 24.2812 41.9687 24.7812C41.1755 28.0001 39.113 29.5938 35.7812 29.5625C32.9447 29.1426 31.2469 27.5281 30.6875 24.7188C30.6562 24.2401 30.6459 23.7609 30.6562 23.2812C34.427 23.2812 38.1979 23.2812 41.9687 23.2812Z" fill="white"/>
<path opacity="0.973" fill-rule="evenodd" clip-rule="evenodd" d="M16.8438 34.4062C22.9271 34.4062 29.0104 34.4062 35.0938 34.4062C35.0938 35.3646 35.0938 36.3229 35.0938 37.2812C29.0104 37.2812 22.9271 37.2812 16.8438 37.2812C16.8438 36.3229 16.8438 35.3646 16.8438 34.4062Z" fill="white"/>
<path opacity="0.974" fill-rule="evenodd" clip-rule="evenodd" d="M36.9688 41.9688C29.6354 41.9688 22.3021 41.9688 14.9688 41.9688C14.9688 41.0104 14.9688 40.0521 14.9688 39.0938C22.3021 39.0938 29.6354 39.0938 36.9688 39.0938C36.9688 40.0521 36.9688 41.0104 36.9688 41.9688Z" fill="white"/>
</g>
<defs>
<clipPath id="clip0_505_1574">
<rect width="32" height="32" fill="white" transform="translate(10 10)"/>
</clipPath>
</defs>
</svg>
