<svg width="650" height="650" viewBox="0 0 650 650" fill="none" xmlns="http://www.w3.org/2000/svg">
<g clip-path="url(#clip0_757_634)">
<path d="M523.614 483.34H569.322V468.793H523.614V483.34Z" fill="#EBEBEB"/>
<path d="M155.765 317.603H201.473V303.056H155.765V317.603Z" fill="#EBEBEB"/>
<path d="M549.107 501.683C556.699 501.553 576.16 501.228 583.492 501.15L594.815 501.098L594.217 501.696L594.165 487.149L594.815 487.799C587.223 487.773 567.866 487.708 560.534 487.604L549.107 487.461L549.419 487.149L549.107 501.696V501.683ZM549.107 501.683L548.795 487.136V486.837H549.107C554.814 486.759 566.254 486.629 571.961 486.59L594.815 486.499H595.465V487.149L595.413 501.696V502.294H594.815L583.284 502.242C576.004 502.164 556.621 501.839 549.107 501.709V501.683Z" fill="#EBEBEB"/>
<path d="M437.982 199.277C445.574 199.147 465.035 198.822 472.367 198.744L483.69 198.692L483.092 199.29L483.04 184.743L483.69 185.393C476.098 185.367 456.741 185.302 449.409 185.198L437.982 185.055L438.294 184.743L437.982 199.29V199.277ZM437.982 199.277L437.67 184.73V184.431H437.982C443.689 184.353 455.129 184.223 460.836 184.184L483.69 184.093H484.34V184.743L484.288 199.29V199.888H483.69L472.159 199.836C464.879 199.758 445.496 199.433 437.982 199.303V199.277Z" fill="#EBEBEB"/>
<path d="M463.476 217.62C471.068 217.49 490.529 217.165 497.861 217.087L509.184 217.035L508.586 217.633L508.534 203.086L509.184 203.736C501.592 203.71 482.235 203.645 474.903 203.541L463.476 203.398L463.788 203.086L463.476 217.633V217.62ZM463.476 217.62L463.164 203.073V202.774H463.476C469.183 202.696 480.623 202.566 486.33 202.527L509.184 202.436H509.834V203.086L509.782 217.633V218.231H509.184L497.653 218.179C490.373 218.101 470.99 217.776 463.476 217.646V217.62Z" fill="#EBEBEB"/>
<path d="M488.878 199.277H534.586V184.73H488.878V199.277Z" fill="#EBEBEB"/>
<path d="M57.0303 501.683H102.738V487.136H57.0303V501.683Z" fill="#EBEBEB"/>
<path d="M82.5244 67.1968H128.232V52.6498L82.5244 52.6498V67.1968Z" fill="#EBEBEB"/>
<path d="M57.0307 85.54C64.6228 85.41 84.0837 85.085 91.4157 85.007L102.739 84.955L102.141 85.553L102.089 71.006L102.739 71.656C95.1467 71.63 75.7898 71.565 68.4578 71.461L57.0307 71.318L57.3427 71.006L57.0307 85.553V85.54ZM57.0307 85.54L56.7188 70.993V70.694H57.0307C62.7378 70.616 74.1778 70.486 79.8848 70.447L102.739 70.356H103.389V71.006L103.337 85.553V86.151H102.739L91.2077 86.099C83.9277 86.021 64.5448 85.696 57.0307 85.566V85.54Z" fill="#EBEBEB"/>
<path d="M523.613 67.197C531.205 67.067 550.666 66.742 557.998 66.664L569.321 66.612L568.723 67.21L568.671 52.663L569.321 53.313L546.467 53.222C540.773 53.183 529.307 53.04 523.613 52.975L523.925 52.663L523.613 67.21V67.197ZM523.613 67.197L523.301 52.65V52.351H523.613C529.32 52.273 540.76 52.143 546.467 52.104L569.321 52H569.971V52.65L569.919 67.197V67.795H569.321L557.79 67.743C550.51 67.665 531.127 67.34 523.613 67.21V67.197Z" fill="#EBEBEB"/>
<path d="M243.255 369.109H53.2988V380.705H243.255V369.109Z" fill="#EBEBEB"/>
<path d="M226.314 380.705H70.2363V412.698H226.314V380.705Z" fill="#EBEBEB"/>
<path d="M226.314 387.023L70.2363 390.13V380.705H226.314V387.023Z" fill="#C7C7C7"/>
<path d="M202.161 387.413H94.4043V406.003H202.161V387.413Z" stroke="#DBDBDB" stroke-width="1.3" stroke-miterlimit="10"/>
<path d="M166.045 394.017H130.516V399.386H166.045V394.017Z" fill="#DBDBDB"/>
<path d="M68.9767 596.726H63.8027L78.8437 412.711H92.0257L68.9767 596.726Z" fill="#EBEBEB"/>
<path d="M92.0268 412.711L90.4798 425.022H77.8438L78.8448 412.711H92.0268Z" fill="#C7C7C7"/>
<path d="M227.576 596.726H232.75L217.709 412.711H204.527L227.576 596.726Z" fill="#EBEBEB"/>
<path d="M204.527 412.711L206.074 425.022H218.71L217.709 412.711H204.527Z" fill="#C7C7C7"/>
<path d="M82.4354 202.605C83.5794 201.89 85.0224 201.929 86.1794 202.631C86.4914 202.826 86.8164 203.008 87.1414 203.177C87.4664 203.359 87.8044 203.515 88.1294 203.684C89.3514 204.256 90.1704 205.426 90.2094 206.778L90.3524 211.38L105.354 210.912L105.211 206.31C105.172 204.958 105.913 203.723 107.096 203.073C107.746 202.722 108.383 202.319 108.994 201.903C110.099 201.136 111.529 201.032 112.712 201.669L116.755 203.84L123.853 190.606L119.81 188.435C118.627 187.798 117.925 186.55 117.951 185.198C117.964 184.444 117.951 183.703 117.873 182.962C117.756 181.61 118.38 180.31 119.524 179.608L123.437 177.177L115.533 164.424L111.594 166.855C110.45 167.57 109.02 167.518 107.863 166.829C107.551 166.634 107.226 166.452 106.901 166.283C106.576 166.114 106.251 165.945 105.913 165.789C104.691 165.217 103.859 164.034 103.82 162.682L103.677 158.08L88.6754 158.548L88.8184 163.137C88.8574 164.489 88.1294 165.724 86.9334 166.374C86.2834 166.738 85.6464 167.128 85.0224 167.557C83.9174 168.324 82.4874 168.428 81.2914 167.791L77.2484 165.62L70.1504 178.854L74.1934 181.025C75.3764 181.662 76.0784 182.91 76.0524 184.262C76.0394 185.016 76.0524 185.757 76.1174 186.511C76.2344 187.863 75.6104 189.15 74.4664 189.865L70.5664 192.283L78.4704 205.036L82.3834 202.605H82.4354ZM86.1924 178.919C89.4034 172.939 96.8654 170.69 102.845 173.888C108.825 177.099 111.074 184.548 107.863 190.528C104.652 196.508 97.2164 198.757 91.2234 195.546C85.2434 192.335 82.9814 184.886 86.1924 178.906V178.919Z" stroke="#EBEBEB" stroke-width="1.3" stroke-miterlimit="10"/>
<path d="M540.23 252.642C541.374 251.927 542.817 251.966 543.974 252.668C544.286 252.863 544.611 253.045 544.936 253.214C545.261 253.396 545.599 253.552 545.924 253.721C547.146 254.293 547.965 255.463 548.004 256.815L548.147 261.417L563.149 260.949L563.006 256.347C562.967 254.995 563.708 253.76 564.891 253.11C565.541 252.759 566.178 252.356 566.789 251.94C567.894 251.173 569.324 251.069 570.507 251.706L574.55 253.877L581.648 240.643L577.605 238.472C576.422 237.835 575.72 236.587 575.746 235.235C575.759 234.494 575.746 233.74 575.668 232.999C575.551 231.647 576.175 230.347 577.319 229.645L581.232 227.214L573.328 214.461L569.389 216.892C568.245 217.607 566.815 217.555 565.658 216.866C565.346 216.671 565.021 216.489 564.696 216.32C564.371 216.151 564.046 215.982 563.708 215.826C562.486 215.254 561.654 214.071 561.615 212.719L561.472 208.117L546.47 208.585L546.613 213.174C546.652 214.526 545.924 215.761 544.728 216.411C544.078 216.775 543.441 217.165 542.817 217.594C541.712 218.361 540.282 218.465 539.086 217.828L535.043 215.657L527.945 228.891L531.988 231.062C533.171 231.699 533.873 232.947 533.847 234.299C533.834 235.053 533.847 235.794 533.912 236.548C534.029 237.9 533.405 239.187 532.261 239.902L528.361 242.32L536.265 255.073L540.178 252.642H540.23ZM543.987 228.956C547.198 222.976 554.66 220.727 560.64 223.925C566.62 227.136 568.869 234.585 565.658 240.565C562.447 246.545 555.011 248.794 549.018 245.583C543.038 242.372 540.776 234.923 543.987 228.943V228.956Z" fill="#EBEBEB"/>
<path d="M104.588 109.915C104.588 132.522 122.918 150.852 145.525 150.852C168.132 150.852 186.462 132.522 186.462 109.915C186.462 87.308 168.132 68.978 145.525 68.978C122.918 68.978 104.588 87.308 104.588 109.915ZM126.402 109.915C126.402 99.359 134.969 90.792 145.525 90.792C156.081 90.792 164.648 99.359 164.648 109.915C164.648 120.471 156.081 129.025 145.525 129.025C134.969 129.025 126.402 120.471 126.402 109.915Z" fill="#EBEBEB"/>
<path d="M137.658 70.6679H153.401L152.53 59.5269H138.529L137.658 70.6679Z" fill="#EBEBEB"/>
<path d="M167.625 75.9721L178.753 87.1001L186.02 78.6111L176.114 68.7051L167.625 75.9721Z" fill="#EBEBEB"/>
<path d="M185.059 100.919V116.662L196.213 115.791V101.79L185.059 100.919Z" fill="#EBEBEB"/>
<path d="M179.753 130.884L168.625 142.012L177.114 149.279L187.02 139.373L179.753 130.884Z" fill="#EBEBEB"/>
<path d="M154.819 148.317H139.076L139.934 159.471H153.948L154.819 148.317Z" fill="#EBEBEB"/>
<path d="M124.842 143.013L113.714 131.885L106.447 140.374L116.353 150.28L124.842 143.013Z" fill="#EBEBEB"/>
<path d="M107.409 118.079V102.336L96.2676 103.207V117.208L107.409 118.079Z" fill="#EBEBEB"/>
<path d="M112.712 88.1141L123.84 76.9731L115.351 69.7061L105.445 79.6121L112.712 88.1141Z" fill="#EBEBEB"/>
<path d="M533.077 349.726H522.677V596.726H487.772V349.726H477.385L505.231 319.15L533.077 349.726Z" fill="#EBEBEB"/>
<path d="M597.038 300.131H586.638V596.726H551.72V300.131H541.346L569.192 269.555L597.038 300.131Z" fill="#EBEBEB"/>
<path d="M474.096 404.274H463.696V596.726H428.791V404.274H418.404L446.25 373.698L474.096 404.274Z" fill="#EBEBEB"/>
<path d="M54.8066 596.726L122.589 596.401L190.371 596.284L325.922 596.076L461.486 596.284L529.255 596.401L597.037 596.726L529.255 597.038L461.486 597.155L325.922 597.376L190.371 597.155L122.589 597.038L54.8066 596.726Z" fill="#263238"/>
<path d="M435.798 99.021H216.033C203.761 99.021 193.803 109.148 193.803 121.667V574.08C193.803 586.573 203.761 596.726 216.033 596.726H435.798C448.083 596.726 458.054 586.573 458.054 574.08V121.667C458.054 109.148 448.083 99.021 435.798 99.021ZM444.157 560.092C444.157 572 435.239 581.633 424.241 581.633H227.629C216.605 581.633 207.687 572 207.687 560.092V138.814C207.687 114.556 216.605 113.373 227.629 113.373H267.006C269.294 113.373 271.166 115.973 271.166 119.197V120.588C271.166 128.141 275.3 128.167 280.383 128.167H371.461C376.583 128.167 380.678 128.141 380.678 120.588V119.197C380.678 115.973 382.524 113.373 384.851 113.373H424.241C435.239 113.373 444.157 116.597 444.157 138.814V560.092Z" fill="#263238"/>
<path d="M338.338 118.729H313.495C312.65 118.729 311.961 118.04 311.961 117.195C311.961 116.35 312.65 115.661 313.495 115.661H338.338C339.183 115.661 339.872 116.35 339.872 117.195C339.872 118.04 339.183 118.729 338.338 118.729Z" fill="white"/>
<path d="M444.157 138.814V560.092C444.157 572 435.239 581.633 424.241 581.633H227.63C216.606 581.633 207.688 572 207.688 560.092V138.814C207.688 114.556 216.606 113.373 227.63 113.373H267.006C269.294 113.373 271.166 115.973 271.166 119.197V120.588C271.166 128.141 275.3 128.167 280.383 128.167H371.462C376.583 128.167 380.678 128.141 380.678 120.588V119.197C380.678 115.973 382.524 113.373 384.851 113.373H424.241C435.239 113.373 444.157 116.597 444.157 138.814Z" fill="white"/>
<path d="M260.206 122.824C260.076 122.954 259.946 123.071 259.829 123.201C259.751 123.279 259.686 123.344 259.608 123.422C258.581 122.434 257.372 121.901 255.942 121.901C254.512 121.901 253.303 122.434 252.276 123.422C252.211 123.357 252.146 123.279 252.068 123.214C251.938 123.084 251.821 122.967 251.691 122.837C251.691 122.837 251.704 122.811 251.717 122.811C251.873 122.668 252.029 122.525 252.198 122.382C252.536 122.096 252.913 121.862 253.316 121.667C253.784 121.433 254.278 121.264 254.785 121.173C255.032 121.134 255.279 121.108 255.526 121.069C255.604 121.069 256.15 121.069 256.176 121.069C256.345 121.069 256.514 121.095 256.683 121.108C257.151 121.16 257.593 121.264 258.035 121.433C258.347 121.55 258.659 121.693 258.945 121.862C259.257 122.044 259.543 122.239 259.816 122.473C259.959 122.59 260.089 122.72 260.219 122.837L260.206 122.824Z" fill="#C7C7C7"/>
<path d="M253.485 124.618C253.29 124.423 253.082 124.228 252.887 124.02C253.576 123.344 254.382 122.915 255.331 122.798C256.748 122.603 257.97 123.032 259.01 124.02C258.802 124.228 258.607 124.423 258.412 124.618C257.736 123.955 256.917 123.604 255.955 123.604C254.993 123.604 254.174 123.955 253.498 124.618H253.485Z" fill="#C7C7C7"/>
<path d="M257.802 125.216C257.607 125.411 257.399 125.619 257.204 125.814C256.853 125.476 256.437 125.294 255.943 125.294C255.449 125.294 255.033 125.476 254.682 125.814C254.487 125.619 254.279 125.411 254.084 125.216C255.033 124.215 256.749 124.137 257.802 125.216Z" fill="#C7C7C7"/>
<path d="M256.488 126.36C256.488 126.659 256.241 126.906 255.942 126.906C255.643 126.906 255.396 126.659 255.396 126.36C255.396 126.061 255.643 125.814 255.942 125.814C256.241 125.814 256.488 126.061 256.488 126.36Z" fill="#C7C7C7"/>
<path d="M223.104 123.981C223.104 123.11 223.806 122.408 224.677 122.408C225.548 122.408 226.25 123.11 226.25 123.981C226.25 124.852 225.548 125.554 224.677 125.554C223.806 125.554 223.104 124.852 223.104 123.981Z" fill="#C7C7C7"/>
<path d="M228.045 123.981C228.045 123.11 228.747 122.408 229.618 122.408C230.489 122.408 231.191 123.11 231.191 123.981C231.191 124.852 230.489 125.554 229.618 125.554C228.747 125.554 228.045 124.852 228.045 123.981Z" fill="#C7C7C7"/>
<path d="M232.971 123.981C232.971 123.11 233.673 122.408 234.544 122.408C235.415 122.408 236.117 123.11 236.117 123.981C236.117 124.852 235.415 125.554 234.544 125.554C233.673 125.554 232.971 124.852 232.971 123.981Z" fill="#C7C7C7"/>
<path d="M237.912 123.981C237.912 123.11 238.614 122.408 239.485 122.408C240.356 122.408 241.058 123.11 241.058 123.981C241.058 124.852 240.356 125.554 239.485 125.554C238.614 125.554 237.912 124.852 237.912 123.981Z" fill="#C7C7C7"/>
<path d="M242.85 123.981C242.85 123.11 243.552 122.408 244.423 122.408C245.294 122.408 245.996 123.11 245.996 123.981C245.996 124.852 245.294 125.554 244.423 125.554C243.552 125.554 242.85 124.852 242.85 123.981Z" fill="#C7C7C7"/>
<path d="M426.425 127.413H413.646V121.485H426.425V127.413ZM414.322 126.75H425.762V122.161H414.322V126.75Z" fill="#C7C7C7"/>
<path d="M422.942 122.499H414.713V126.399H422.942V122.499Z" fill="#C7C7C7"/>
<path d="M427.557 122.863H426.426V126.022H427.557V122.863Z" fill="#C7C7C7"/>
<path d="M237.809 558.87H236.652V564.174H234.494V561.47H230.672V564.174H228.514V558.87H227.357L232.583 553.462L237.809 558.87Z" fill="#EBEBEB"/>
<path d="M424.984 553.462H412.387V555.256H424.984V553.462Z" fill="#EBEBEB"/>
<path d="M424.984 557.921H412.387V559.728H424.984V557.921Z" fill="#EBEBEB"/>
<path d="M424.984 562.38H412.387V564.187H424.984V562.38Z" fill="#EBEBEB"/>
<path d="M329.874 559.013L326.286 562.835L322.711 559.013L323.335 558.415L326.286 561.561L329.237 558.415L329.874 559.013Z" fill="#EBEBEB"/>
<path d="M326.286 566.787C322.698 566.787 319.773 563.862 319.773 560.274C319.773 556.686 322.698 553.761 326.286 553.761C329.874 553.761 332.799 556.686 332.799 560.274C332.799 563.862 329.874 566.787 326.286 566.787ZM326.286 554.632C323.166 554.632 320.644 557.167 320.644 560.274C320.644 563.381 323.179 565.916 326.286 565.916C329.393 565.916 331.928 563.381 331.928 560.274C331.928 557.167 329.393 554.632 326.286 554.632Z" fill="#EBEBEB"/>
<path d="M342.182 312.272C350.957 312.22 358.016 305.07 357.977 296.295C357.925 287.507 350.775 280.448 342 280.5C333.238 280.552 326.179 287.702 326.231 296.477C326.283 305.239 333.433 312.324 342.195 312.272H342.182ZM328.142 296.477C328.09 288.768 334.304 282.489 342 282.45C349.696 282.411 355.975 288.612 356.027 296.321C356.066 304.017 349.865 310.296 342.156 310.348C334.46 310.387 328.181 304.186 328.142 296.49V296.477ZM342.182 312.272C350.957 312.22 358.016 305.07 357.977 296.295C357.925 287.507 350.775 280.448 342 280.5C333.238 280.552 326.179 287.702 326.231 296.477C326.283 305.239 333.433 312.324 342.195 312.272H342.182ZM328.142 296.477C328.09 288.768 334.304 282.489 342 282.45C349.696 282.411 355.975 288.612 356.027 296.321C356.066 304.017 349.865 310.296 342.156 310.348C334.46 310.387 328.181 304.186 328.142 296.49V296.477ZM342.182 312.272C350.957 312.22 358.016 305.07 357.977 296.295C357.925 287.507 350.775 280.448 342 280.5C333.238 280.552 326.179 287.702 326.231 296.477C326.283 305.239 333.433 312.324 342.195 312.272H342.182ZM328.142 296.477C328.09 288.768 334.304 282.489 342 282.45C349.696 282.411 355.975 288.612 356.027 296.321C356.066 304.017 349.865 310.296 342.156 310.348C334.46 310.387 328.181 304.186 328.142 296.49V296.477ZM342.273 329.874C360.772 329.757 375.657 314.677 375.553 296.204C375.436 277.718 360.369 262.82 341.883 262.924C323.41 263.041 308.499 278.108 308.616 296.594C308.72 315.067 323.8 329.978 342.273 329.874ZM323.735 296.516C323.67 286.389 331.847 278.108 341.974 278.056C352.088 277.991 360.369 286.181 360.434 296.295C360.499 306.422 352.309 314.69 342.195 314.755C332.081 314.807 323.8 306.63 323.748 296.516H323.735ZM326.205 296.49C326.257 305.252 333.407 312.337 342.169 312.285C350.944 312.233 358.003 305.083 357.964 296.308C357.912 287.52 350.762 280.461 341.987 280.513C333.225 280.565 326.166 287.715 326.218 296.49H326.205ZM328.142 296.49C328.09 288.781 334.304 282.502 342 282.463C349.696 282.424 355.975 288.625 356.027 296.334C356.066 304.03 349.865 310.309 342.156 310.361C334.46 310.4 328.181 304.199 328.142 296.503V296.49ZM342.182 312.285C350.957 312.233 358.016 305.083 357.977 296.308C357.925 287.52 350.775 280.461 342 280.513C333.238 280.565 326.179 287.715 326.231 296.49C326.283 305.252 333.433 312.337 342.195 312.285H342.182ZM328.142 296.49C328.09 288.781 334.304 282.502 342 282.463C349.696 282.424 355.975 288.625 356.027 296.334C356.066 304.03 349.865 310.309 342.156 310.361C334.46 310.4 328.181 304.199 328.142 296.503V296.49ZM342.182 312.285C350.957 312.233 358.016 305.083 357.977 296.308C357.925 287.52 350.775 280.461 342 280.513C333.238 280.565 326.179 287.715 326.231 296.49C326.283 305.252 333.433 312.337 342.195 312.285H342.182ZM328.142 296.49C328.09 288.781 334.304 282.502 342 282.463C349.696 282.424 355.975 288.625 356.027 296.334C356.066 304.03 349.865 310.309 342.156 310.361C334.46 310.4 328.181 304.199 328.142 296.503V296.49Z" fill="#FFC727"/>
<path d="M335.461 264.342L348.331 264.264L347.564 255.164L336.124 255.229L335.461 264.342Z" fill="#FFC727"/>
<path d="M359.979 268.527L369.131 277.575L375.033 270.594L366.895 262.547L359.979 268.527Z" fill="#FFC727"/>
<path d="M374.355 288.833L374.433 301.704L383.546 300.937L383.468 289.497L374.355 288.833Z" fill="#FFC727"/>
<path d="M370.171 313.352L361.123 322.517L368.104 328.406L376.151 320.268L370.171 313.352Z" fill="#FFC727"/>
<path d="M349.864 327.729L336.994 327.807L337.761 336.92L349.201 336.842L349.864 327.729Z" fill="#FFC727"/>
<path d="M325.347 323.544L316.182 314.496L310.293 321.477L318.431 329.524L325.347 323.544Z" fill="#FFC727"/>
<path d="M310.968 303.238L310.89 290.368L301.777 291.135L301.855 302.588L310.968 303.238Z" fill="#FFC727"/>
<path d="M315.154 278.72L324.202 269.568L317.221 263.666L309.174 271.804L315.154 278.72Z" fill="#FFC727"/>
<g opacity="0.5">
<path d="M301.806 260.859C299.297 249.913 288.39 243.075 277.444 245.597C266.511 248.106 259.673 259.013 262.195 269.959C264.704 280.892 275.611 287.73 286.544 285.221C297.49 282.699 304.315 271.792 301.806 260.859ZM284.49 276.264C278.51 277.642 272.517 273.885 271.139 267.905C269.761 261.912 273.518 255.919 279.498 254.541C285.491 253.176 291.484 256.92 292.849 262.913C294.227 268.906 290.47 274.886 284.49 276.264Z" fill="#FFC727"/>
<path d="M273.829 247.299L281.447 245.544L279.796 240.253L273.023 241.813L273.829 247.299Z" fill="#FFC727"/>
<path d="M288.924 246.532L295.541 250.679L298.115 245.765L292.226 242.073L288.924 246.532Z" fill="#FFC727"/>
<path d="M300.129 256.66L301.884 264.278L307.175 262.627L305.615 255.854L300.129 256.66Z" fill="#FFC727"/>
<path d="M300.895 271.752L296.748 278.369L301.662 280.943L305.354 275.054L300.895 271.752Z" fill="#FFC727"/>
<path d="M290.768 282.958L283.15 284.713L284.801 290.004L291.587 288.444L290.768 282.958Z" fill="#FFC727"/>
<path d="M275.677 283.726L269.06 279.579L266.486 284.493L272.375 288.185L275.677 283.726Z" fill="#FFC727"/>
<path d="M264.47 273.598L262.728 265.98L257.424 267.631L258.984 274.417L264.47 273.598Z" fill="#FFC727"/>
<path d="M263.703 258.505L267.863 251.888L262.936 249.314L259.244 255.203L263.703 258.505Z" fill="#FFC727"/>
</g>
<g opacity="0.5">
<path d="M390.065 241.254C389.22 231.647 380.757 224.549 371.15 225.407C361.556 226.252 354.458 234.715 355.316 244.322C356.161 253.916 364.624 261.014 374.218 260.169C383.825 259.311 390.91 250.848 390.065 241.254ZM373.529 252.317C368.277 252.785 363.623 248.885 363.155 243.633C362.687 238.381 366.587 233.727 371.839 233.259C377.091 232.804 381.745 236.691 382.2 241.956C382.668 247.208 378.768 251.862 373.516 252.33L373.529 252.317Z" fill="#FFC727"/>
<path d="M367.873 226.421L374.555 225.836L373.775 221.13L367.834 221.663L367.873 226.421Z" fill="#FFC727"/>
<path d="M380.797 227.552L385.945 231.855L388.701 227.981L384.125 224.146L380.797 227.552Z" fill="#FFC727"/>
<path d="M389.129 237.484L389.727 244.166L394.42 243.373L393.9 237.432L389.129 237.484Z" fill="#FFC727"/>
<path d="M388.011 250.406L383.695 255.541L387.582 258.31L391.404 253.734L388.011 250.406Z" fill="#FFC727"/>
<path d="M378.078 258.739L371.396 259.324L372.176 264.03L378.117 263.497L378.078 258.739Z" fill="#FFC727"/>
<path d="M365.158 257.608L360.01 253.305L357.254 257.179L361.817 261.014L365.158 257.608Z" fill="#FFC727"/>
<path d="M356.824 247.676L356.226 240.994L351.533 241.787L352.053 247.728L356.824 247.676Z" fill="#FFC727"/>
<path d="M357.942 234.767L362.258 229.619L358.371 226.85L354.549 231.426L357.942 234.767Z" fill="#FFC727"/>
</g>
<path d="M393.548 381.043H258.309V392.6H393.548V381.043Z" stroke="#FFC727" stroke-width="0.65" stroke-miterlimit="10"/>
<path d="M264.769 383.24H260.492V390.403H264.769V383.24Z" fill="#FFC727"/>
<path d="M270.685 383.24H266.408V390.403H270.685V383.24Z" fill="#FFC727"/>
<path d="M276.599 383.24H272.322V390.403H276.599V383.24Z" fill="#FFC727"/>
<path d="M282.502 383.24H278.225V390.403H282.502V383.24Z" fill="#FFC727"/>
<path d="M288.416 383.24H284.139V390.403H288.416V383.24Z" fill="#FFC727"/>
<path d="M294.332 383.24H290.055V390.403H294.332V383.24Z" fill="#FFC727"/>
<path d="M300.248 383.24H295.971V390.403H300.248V383.24Z" fill="#FFC727"/>
<path d="M306.148 383.24H301.871V390.403H306.148V383.24Z" fill="#FFC727"/>
<path d="M312.064 383.24H307.787V390.403H312.064V383.24Z" fill="#FFC727"/>
<path d="M317.978 383.24H313.701V390.403H317.978V383.24Z" fill="#FFC727"/>
<path d="M323.881 383.24H319.604V390.403H323.881V383.24Z" fill="#FFC727"/>
<path d="M329.795 383.24H325.518V390.403H329.795V383.24Z" fill="#FFC727"/>
<path d="M301.601 368.472C299.508 368.472 297.844 366.782 297.844 364.715V360.087C297.844 359.684 298.156 359.372 298.559 359.372C298.962 359.372 299.287 359.684 299.287 360.087V364.715C299.287 365.989 300.327 367.029 301.601 367.029C302.875 367.029 303.915 365.989 303.915 364.715V360.087C303.915 359.684 304.24 359.372 304.643 359.372C305.046 359.372 305.358 359.684 305.358 360.087V364.715C305.358 366.782 303.681 368.472 301.601 368.472Z" fill="#263238"/>
<path d="M311.456 364.936H309.857V367.757C309.857 368.147 309.532 368.472 309.129 368.472C308.726 368.472 308.414 368.147 308.414 367.757V360.087C308.414 359.684 308.739 359.372 309.129 359.372H311.456C313.003 359.372 314.251 360.62 314.251 362.167C314.251 363.714 313.003 364.936 311.456 364.936ZM309.857 363.493H311.456C312.21 363.493 312.795 362.895 312.808 362.167C312.808 361.413 312.21 360.815 311.456 360.815H309.857V363.493Z" fill="#263238"/>
<path d="M315.992 367.757V360.087C315.992 359.684 316.304 359.372 316.707 359.372H318.241C320.75 359.372 322.778 361.413 322.778 363.909C322.778 366.405 320.75 368.472 318.241 368.472H316.707C316.304 368.472 315.992 368.147 315.992 367.757ZM317.435 367.029H318.241C319.957 367.029 321.335 365.638 321.335 363.909C321.335 362.18 319.957 360.815 318.241 360.815H317.435V367.029Z" fill="#263238"/>
<path d="M329.135 366.327H325.976L325.339 368.017C325.222 368.303 324.949 368.472 324.663 368.472C324.572 368.472 324.494 368.472 324.416 368.433C324.039 368.29 323.857 367.874 323.987 367.497L326.86 359.84C326.977 359.554 327.263 359.372 327.549 359.385C327.848 359.385 328.121 359.554 328.238 359.84L331.111 367.497C331.241 367.874 331.059 368.29 330.682 368.433C330.617 368.459 330.526 368.472 330.435 368.472C330.149 368.472 329.876 368.303 329.772 368.017L329.135 366.327ZM328.602 364.897L327.549 362.102L326.496 364.897H328.602Z" fill="#263238"/>
<path d="M337.157 360.828H335.09V367.77C335.09 368.173 334.778 368.485 334.375 368.485C333.972 368.485 333.66 368.173 333.66 367.77V360.828H331.606C331.203 360.828 330.891 360.49 330.891 360.1C330.891 359.71 331.203 359.385 331.606 359.385H337.157C337.547 359.385 337.872 359.697 337.872 360.1C337.872 360.503 337.547 360.828 337.157 360.828Z" fill="#263238"/>
<path d="M340.016 367.757V360.087C340.016 359.684 340.328 359.372 340.731 359.372H344.982C345.359 359.372 345.697 359.684 345.697 360.087C345.697 360.49 345.359 360.815 344.982 360.815H341.459V363.194H344.488C344.878 363.194 345.203 363.532 345.203 363.909C345.203 364.312 344.878 364.637 344.488 364.637H341.459V367.029H344.982C345.359 367.029 345.697 367.354 345.697 367.757C345.697 368.16 345.359 368.472 344.982 368.472H340.77H340.744C340.341 368.472 340.029 368.16 340.029 367.77L340.016 367.757Z" fill="#263238"/>
<path d="M348.401 366.626C348.934 366.626 349.376 367.068 349.376 367.601C349.376 368.134 348.934 368.563 348.401 368.563C347.868 368.563 347.439 368.134 347.439 367.601C347.439 367.068 347.868 366.626 348.401 366.626Z" fill="#263238"/>
<path d="M351.39 366.626C351.923 366.626 352.365 367.068 352.365 367.601C352.365 368.134 351.923 368.563 351.39 368.563C350.857 368.563 350.428 368.134 350.428 367.601C350.428 367.068 350.857 366.626 351.39 366.626Z" fill="#263238"/>
<path d="M354.38 366.626C354.913 366.626 355.355 367.068 355.355 367.601C355.355 368.134 354.913 368.563 354.38 368.563C353.847 368.563 353.418 368.134 353.418 367.601C353.418 367.068 353.847 366.626 354.38 366.626Z" fill="#263238"/>
<path d="M513.254 420.745C493.208 454.922 461.735 485.459 453.389 488.566C444.302 491.946 410.437 481.572 393.589 475.501C388.077 473.512 399.348 434.681 405.289 432.679C411.23 430.677 437.49 446.615 443.808 445.068C445.797 444.587 480.767 424.19 499.955 411.346C517.843 399.373 519.338 410.371 513.254 420.745Z" fill="#AD6359"/>
<path d="M396.047 482.664L411.244 431.496C411.244 431.496 437.673 444.002 442.054 443.001C446.435 442 486.982 417.079 501.75 408.863C516.505 400.647 527.685 405.873 508.939 431.6C488.698 459.368 465.233 485.888 456.055 489.632C443.978 494.559 396.047 482.664 396.047 482.664Z" fill="#FFC727"/>
<path d="M453.389 464.724C452.765 466.401 452.245 468.13 452.115 469.989C453.272 468.507 454.026 466.895 454.689 465.231C455.3 463.554 455.833 461.851 455.95 459.979C454.819 461.461 454.052 463.073 453.389 464.724ZM451.868 438.009C451.387 438.282 450.906 438.542 450.451 438.802C451.751 439.218 453.077 439.53 454.481 439.634C453.649 438.984 452.765 438.464 451.868 438.009ZM429.846 480.415C428.182 479.778 426.466 479.271 424.594 479.128C426.076 480.285 427.688 481.052 429.352 481.715C431.029 482.326 432.732 482.846 434.604 482.976C433.122 481.832 431.51 481.078 429.846 480.415ZM423.45 450.515C422.683 448.903 421.851 447.317 420.629 445.913C420.863 447.759 421.448 449.436 422.163 451.087C422.917 452.712 423.762 454.298 424.984 455.689C424.763 453.843 424.139 452.153 423.45 450.515ZM477.894 439.127C476.282 439.868 474.696 440.713 473.279 441.935C475.138 441.701 476.828 441.09 478.466 440.388C480.078 439.647 481.664 438.815 483.081 437.58C481.222 437.814 479.545 438.425 477.894 439.127ZM401.116 465.595L400.635 467.22C402.026 466.557 403.378 465.79 404.6 464.724C403.378 464.88 402.234 465.192 401.116 465.595Z" fill="white"/>
<path d="M408.45 481.623C409.243 479.92 409.659 477.983 410.244 476.189C410.764 474.564 411.323 472.952 411.817 471.327C412.922 467.778 414.04 464.229 415.119 460.667C416.198 457.118 417.29 453.582 418.343 450.02C419.383 446.484 420.54 442.961 421.385 439.373C421.424 439.23 421.203 439.178 421.151 439.295C419.617 442.662 418.434 446.185 417.212 449.669C416.003 453.101 414.898 456.572 413.819 460.056C412.727 463.605 411.739 467.18 410.777 470.755C410.322 472.484 409.919 474.226 409.503 475.968C409.074 477.801 408.437 479.699 408.268 481.571C408.268 481.675 408.398 481.727 408.45 481.623Z" fill="#263238"/>
<path opacity="0.1" d="M419.851 487.708C433.748 490.204 449.764 492.206 456.056 489.632C465.234 485.888 488.699 459.394 508.94 431.6C520.848 415.246 520.679 407.186 515.18 405.574L419.838 487.695L419.851 487.708Z" fill="black"/>
<path d="M428.728 349.921C425.816 337.636 416.209 328.692 404.717 326.014L410.801 351.65L398.022 359.918L382.903 358.28L376.819 332.631C367.732 340.21 363.195 352.521 366.107 364.793C370.202 382.083 387.557 392.782 404.847 388.674C422.137 384.579 432.836 367.211 428.728 349.934V349.921Z" fill="#DBDBDB"/>
<path d="M408.784 544.778C411.696 557.063 421.303 566.007 432.795 568.685L426.711 543.049L439.49 534.781L454.609 536.419L460.693 562.068C469.78 554.489 474.317 542.178 471.405 529.906C467.31 512.616 449.955 501.917 432.665 506.025C415.375 510.12 404.676 527.488 408.784 544.765V544.778Z" fill="#DBDBDB"/>
<path d="M413.809 364.268L385.906 370.89L422.053 523.206L449.956 516.584L413.809 364.268Z" fill="#DBDBDB"/>
<path d="M416.233 411.018L404.748 413.744L419.633 476.469L431.118 473.743L416.233 411.018Z" fill="#C7C7C7"/>
<path d="M421.281 473.486C423.946 468.533 416.575 468.221 416.575 468.221C416.575 468.221 427.287 466.102 428.054 459.927C428.782 453.973 419.864 453.921 419.227 453.908C419.786 453.791 429.588 451.594 429.718 445.302C429.861 438.776 420.904 440.258 420.319 440.349C420.813 440.076 427.352 436.28 426.377 431.483C424.687 423.241 405.096 432.497 398.648 430.287L394.605 418.262C394.059 420.654 393.786 423.072 390.575 426.959C387.572 430.586 385.544 432.991 384.907 435.877C383.867 440.609 387.689 442.689 387.689 442.689C387.689 442.689 382.112 444.834 381.852 449.774C381.722 452.309 385.674 454.779 385.674 454.779C385.674 454.779 381.28 456.677 381.319 461.097C381.345 464.62 385.297 466.544 385.297 466.544C385.297 466.544 381.93 470.327 383.113 473.915C385.492 481.156 415.535 484.081 421.255 473.473L421.281 473.486Z" fill="#AD6359"/>
<path d="M397.308 427.687L394.669 418.535C394.5 418.223 394.318 417.898 394.136 417.599C387.753 407.225 372.27 405.249 374.506 413.699C376.196 420.134 386.947 423.605 387.727 430.443H387.74L397.308 427.687Z" fill="#AD6359"/>
<path d="M385.893 466.947C385.789 466.934 385.75 467.064 385.854 467.103C395.5 470.47 407.135 471.224 416.976 468.286C417.301 468.195 417.288 467.623 416.911 467.662C406.173 468.754 396.566 468.871 385.893 466.96V466.947Z" fill="#263238"/>
<path d="M385.53 454.844C385.413 454.818 385.374 455.013 385.491 455.052C395.449 458.471 408.579 458.952 419.525 454.233C419.902 454.077 420.071 453.544 419.629 453.7C412.102 456.3 395.124 456.612 385.517 454.844H385.53Z" fill="#263238"/>
<path d="M420.979 439.764C410.306 443.898 399.373 444.184 388.102 442.871C387.959 442.858 387.946 443.066 388.063 443.105C393.393 445.25 400.673 445.341 406.328 444.925C411.749 444.535 416.559 443.092 421.109 440.128C421.291 440.011 421.187 439.673 420.966 439.751L420.979 439.764Z" fill="#263238"/>
<path d="M157.302 593.267C161.072 594.71 270.48 596.699 274.757 594.255C275.225 593.982 275.095 589.146 276.707 576.666C276.785 576.068 279.281 573.754 283.181 570.491C297.819 558.219 332.191 532.375 332.191 532.375L277.591 484.938L224.681 536.951L210.914 550.471C210.914 550.471 166.207 574.612 161.787 577.797C157.393 580.995 153.532 591.837 157.302 593.28V593.267Z" fill="#AD6359"/>
<path d="M157.301 593.254C161.071 594.71 270.479 596.699 274.756 594.255C275.224 593.982 275.094 589.159 276.706 576.653C276.784 576.055 279.28 573.754 283.18 570.465C288.263 566.201 290.681 564.251 298.26 558.362L228.84 532.843L224.68 536.938L210.926 550.458C210.926 550.458 166.219 574.586 161.799 577.784C157.405 580.982 153.531 591.811 157.301 593.254Z" fill="#EBEBEB"/>
<path d="M149.762 594.775C153.558 596.101 270.129 597.375 274.328 594.788C275.316 594.177 276.213 587.417 276.941 578.135C277.032 576.978 288.836 567.527 290.461 565.785L219.026 541.722L210.004 550.211C210.004 550.211 157.432 574.677 153.142 578.005C148.865 581.333 145.966 593.449 149.762 594.775Z" fill="#FFC727"/>
<path d="M151.376 590.42C169.693 590.186 250.93 590.966 269.052 592.123C269.195 592.123 269.195 592.227 269.052 592.24C250.904 592.864 169.68 591.499 151.376 590.719C150.986 590.706 150.999 590.42 151.376 590.42Z" fill="#263238"/>
<path d="M204.182 550.991C211.397 549.73 220.198 550.939 225.645 556.139C225.853 556.347 225.567 556.633 225.333 556.555C218.248 554.228 211.631 552.72 204.195 551.901C203.675 551.849 203.662 551.082 204.182 550.991Z" fill="#263238"/>
<path d="M198.944 554.059C206.159 552.798 214.96 554.007 220.407 559.207C220.615 559.415 220.329 559.701 220.095 559.623C213.01 557.296 206.393 555.788 198.957 554.969C198.437 554.917 198.424 554.15 198.944 554.059Z" fill="#263238"/>
<path d="M193.704 557.127C200.919 555.866 209.72 557.075 215.167 562.275C215.375 562.483 215.089 562.769 214.855 562.691C207.77 560.364 201.153 558.856 193.717 558.037C193.197 557.985 193.184 557.218 193.704 557.127Z" fill="#263238"/>
<path d="M188.466 560.208C195.681 558.947 204.482 560.156 209.929 565.356C210.137 565.564 209.851 565.85 209.617 565.772C202.532 563.445 195.915 561.937 188.479 561.118C187.959 561.066 187.946 560.299 188.466 560.208Z" fill="#263238"/>
<path d="M194.172 544.465C199.216 548.482 205.833 550.185 211.761 552.46C212.372 552.694 212.879 552.122 212.905 551.576C213.022 551.55 213.126 551.472 213.074 551.316C211.176 545.271 206.99 538.836 202.167 534.676C199.19 532.115 193.938 530.295 191.065 534.169C188.348 537.822 191.221 542.125 194.172 544.465ZM192.404 538.641C191.221 530.724 199.671 534.975 201.79 536.951C203.155 538.225 204.39 539.681 205.56 541.124C208.017 544.14 210.006 547.455 212.138 550.705C209.291 549.405 206.366 548.365 203.48 547.182C200.035 545.765 193.054 543.022 192.404 538.654V538.641Z" fill="#263238"/>
<path d="M237.254 540.617C235.564 536.106 230.013 536.392 226.438 538.03C220.653 540.682 214.842 545.7 211.345 550.978C211.254 551.108 211.332 551.225 211.436 551.277C211.306 551.81 211.631 552.499 212.281 552.447C218.599 551.914 225.424 552.122 231.391 549.652C234.875 548.209 238.84 544.894 237.241 540.617H237.254ZM221.706 549.665C218.599 550.003 215.505 550.185 212.411 550.64C215.362 548.118 218.196 545.492 221.394 543.269C222.928 542.216 224.514 541.15 226.178 540.305C228.765 538.992 238.047 537.25 234.719 544.543C232.886 548.56 225.411 549.249 221.706 549.652V549.665Z" fill="#263238"/>
<path d="M223.926 534.027L291.422 568.997C291.422 568.997 361.726 505.349 368.174 504.881C374.427 504.426 469.21 568.594 516.829 568.789C566.151 568.997 568.647 517.322 568.647 517.322L496.692 500.799C444.822 475.241 390.807 429.325 355.473 433.615C317.097 438.269 223.926 534.027 223.926 534.027Z" fill="#37474F"/>
<path d="M223.926 534.027L291.422 568.997C291.422 568.997 361.726 505.349 368.174 504.881C374.427 504.426 469.21 568.594 516.829 568.789C566.151 568.997 568.647 517.322 568.647 517.322L496.692 500.799C444.822 475.241 390.807 429.325 355.473 433.615C317.097 438.269 223.926 534.027 223.926 534.027Z" fill="#37474F"/>
<path d="M240.41 525.122C251.798 530.751 248.613 528.983 259.936 534.742C265.487 537.563 293.385 551.642 298.13 555.126C298.234 555.204 298.13 555.386 298.013 555.347C292.436 553.475 264.837 538.798 259.351 535.886C248.119 529.932 251.408 531.518 240.254 525.447C240.046 525.33 240.202 525.031 240.41 525.135V525.122Z" fill="#263238"/>
<path d="M303.371 552.877C316.566 541.242 359.804 503.373 361.546 501.956C362.963 500.825 364.38 499.343 366.044 498.576C367.461 497.926 368.852 498.277 370.204 498.914C372.206 499.85 374.156 500.864 376.145 501.839C380.045 503.737 383.945 505.648 387.845 507.546C402.964 514.93 418.005 522.496 433.241 529.633C447.892 536.497 458.357 542.958 473.658 548.236C488.881 553.488 504.611 557.479 520.601 559.429C522.577 559.663 524.553 559.871 526.529 560.066C526.672 560.079 526.672 560.3 526.529 560.287C510.812 559.52 495.342 556.309 480.327 551.694C465.169 547.027 454.873 540.982 440.482 534.352C425.558 527.488 410.855 520.143 396.139 512.824C388.378 508.963 380.63 505.063 372.83 501.254C371.062 500.383 368.553 498.511 366.538 499.447C365.667 499.85 364.939 500.552 364.211 501.163C363.353 501.878 362.482 502.593 361.624 503.321C358.283 506.103 305.295 551.746 303.553 553.059C303.423 553.163 303.241 552.981 303.371 552.877Z" fill="#263238"/>
<path d="M261.172 553.344L350.521 517.503C327.693 536.171 291.41 569.009 291.41 569.009L261.172 553.344Z" fill="#263238"/>
<path d="M568.635 517.335C568.635 517.335 566.139 569.01 516.817 568.802C475.425 568.633 398.374 520.117 374.844 507.741L453.312 476.255C467.638 485.004 482.25 493.688 496.693 500.812L568.635 517.335Z" fill="#263238"/>
<path d="M568.633 517.335C568.633 517.335 575.822 569.933 551.707 587.21C527.592 604.5 356.915 594.75 331.383 585.221C305.838 575.705 306.878 533.858 335.634 525.421C362.986 517.4 477.802 517.985 480.675 516.971C481.39 516.724 470.808 509.717 470.873 509.327L493.961 496.197L568.646 517.322L568.633 517.335Z" fill="#37474F"/>
<path d="M534.493 520.22C534.532 520.025 534.844 520.103 534.831 520.285C534.571 525.55 536.287 531.179 539.563 535.326C543.333 540.084 549.066 542.905 554.253 545.817C554.747 546.103 554.331 546.883 553.811 546.701C550.626 545.583 547.506 544.036 544.633 542.255C542.02 540.63 539.628 538.628 537.847 536.093C534.584 531.413 533.31 525.823 534.493 520.22Z" fill="#263238"/>
<path d="M482.766 512.147C484.014 510.691 485.366 509.313 486.666 507.896C489.734 504.555 492.828 501.188 496.026 497.977C496.325 497.678 496.871 498.146 496.598 498.484C494.414 501.084 492.126 503.593 489.864 506.128C488.707 507.428 487.537 508.715 486.367 510.002C485.275 511.198 483.936 512.381 483.104 513.785C482.233 515.241 483.234 516.567 484.768 516.801C486.146 517.009 487.459 516.359 488.551 515.592C491.047 513.85 493.062 511.289 495.168 509.118C496.455 507.792 497.742 506.466 499.055 505.153C500.446 503.762 501.928 502.449 503.306 501.058C503.397 500.967 503.553 501.11 503.475 501.201C502.253 502.735 501.109 504.347 499.874 505.881C498.652 507.415 497.404 508.936 496.143 510.444C494.947 511.874 493.712 513.265 492.438 514.63C491.359 515.787 490.15 516.905 488.733 517.659C486.458 518.868 482.597 518.972 481.544 516.06C481.024 514.617 481.817 513.213 482.74 512.147H482.766Z" fill="#263238"/>
<path d="M334.917 585.532C343.835 586.091 352.727 587.001 361.632 587.586C370.472 588.171 379.325 588.613 388.178 588.912C405.962 589.523 423.759 589.64 441.556 589.198C459.535 588.756 478.944 587.82 496.858 586.143C505.425 585.337 514.109 584.739 522.611 583.296C530.281 581.996 537.301 579.149 543.242 573.884C555.267 563.211 560.48 546.961 563.015 531.335C563.353 529.242 563.652 527.136 563.912 525.03C563.925 524.887 564.146 524.9 564.133 525.043C562.378 541.111 559.141 557.79 548.429 570.283C543.801 575.691 538.016 580.033 531.36 582.373C523.248 585.22 514.369 585.571 505.893 586.338C487.914 587.976 468.427 588.99 450.383 589.588C432.235 590.186 414.061 590.264 395.9 589.731C377.752 589.198 359.604 588.145 341.521 586.455C339.311 586.247 337.114 586.026 334.917 585.727C334.787 585.714 334.8 585.519 334.93 585.519L334.917 585.532Z" fill="#263238"/>
<path d="M394.198 519.492C399.853 518.92 405.495 518.361 411.163 518.023C416.896 517.685 422.629 517.425 428.362 517.191C439.698 516.736 451.06 516.372 462.422 516.346C468.87 516.333 475.305 516.58 481.74 516.944C481.948 516.944 481.922 517.256 481.714 517.256C470.339 517.776 458.977 517.997 447.602 518.244C436.253 518.491 424.904 518.985 413.555 519.57C407.12 519.895 400.685 520.09 394.25 520.324C393.782 520.337 393.717 519.531 394.198 519.492Z" fill="#263238"/>
<path d="M469.558 508.702C474.03 510.782 478.19 513.434 482.246 516.242C486.25 519.011 490.332 521.884 493.907 525.186C494.011 525.277 493.855 525.407 493.764 525.355C489.448 523.119 485.314 520.376 481.219 517.75C477.111 515.111 473.029 512.42 469.259 509.3C468.999 509.079 469.181 508.533 469.558 508.715V508.702Z" fill="#263238"/>
<path d="M471.614 512.486L571.987 524.082C571.987 522.015 552.032 421.018 526.097 405.327C521.118 402.311 512.187 402.493 504.218 409.773C489.762 422.994 470.301 511.134 471.601 512.486H471.614Z" fill="#FFC727"/>
<path d="M535.341 414.622C533.781 415.35 532.247 416.182 530.895 417.352C532.741 417.118 534.431 416.52 536.069 415.818L536.147 415.779C535.874 415.376 535.614 414.999 535.341 414.622ZM517.479 483.99C515.854 484.744 514.281 485.589 512.877 486.811C514.723 486.59 516.413 485.979 518.051 485.277C519.663 484.523 521.249 483.678 522.666 482.456C520.807 482.677 519.13 483.288 517.479 483.99ZM561.978 481.052C561.614 481.312 561.237 481.598 560.886 481.91C561.315 481.858 561.731 481.78 562.147 481.689C562.095 481.481 562.043 481.26 561.978 481.052ZM476.256 488.306C476.256 488.306 476.243 488.306 476.243 488.28C476.074 489.021 475.905 489.736 475.736 490.451C476.308 491.517 476.971 492.544 477.79 493.48C477.569 491.634 476.958 489.944 476.256 488.306ZM537.018 457.171C536.264 455.546 535.419 453.973 534.21 452.556C534.431 454.415 535.042 456.092 535.744 457.743C536.498 459.355 537.33 460.941 538.552 462.345C538.331 460.499 537.72 458.809 537.018 457.171ZM512.669 404.612C512.578 404.638 512.5 404.664 512.422 404.703C512.526 404.833 512.63 404.963 512.747 405.093C512.747 404.937 512.708 404.768 512.669 404.612ZM496.926 464.347C495.262 463.71 493.546 463.203 491.674 463.06C493.156 464.217 494.768 464.984 496.432 465.647C498.109 466.258 499.812 466.778 501.684 466.908C500.202 465.764 498.59 465.01 496.926 464.347ZM570.025 513.955C569.635 513.786 569.245 513.617 568.855 513.461C567.178 512.85 565.475 512.317 563.616 512.187C565.072 513.344 566.697 514.098 568.361 514.761C569.011 515.008 569.674 515.229 570.337 515.424C570.246 514.956 570.142 514.462 570.025 513.955ZM539.956 500.279C539.332 501.956 538.812 503.672 538.682 505.531C539.826 504.062 540.593 502.437 541.256 500.786C541.88 499.109 542.387 497.406 542.53 495.534C541.373 497.016 540.619 498.628 539.956 500.279ZM499.019 507.754C498.395 509.431 497.875 511.134 497.745 513.006C498.902 511.524 499.656 509.912 500.319 508.248C500.93 506.571 501.463 504.855 501.58 502.996C500.449 504.465 499.682 506.077 499.019 507.754ZM509.926 435.539C509.302 437.216 508.782 438.932 508.665 440.804C509.796 439.322 510.563 437.697 511.239 436.046C511.85 434.369 512.37 432.653 512.5 430.794C511.343 432.276 510.602 433.888 509.926 435.539Z" fill="white"/>
<path d="M537.096 412.581C555.751 426.933 604.904 484.926 594.621 498.693C584.273 512.551 513.917 507.871 493.377 501.956C487.267 500.201 502.945 461.305 509.471 459.381C514.905 457.782 545.39 466.05 545.936 464.282C546.56 462.28 539.8 449.423 528.906 425.932C516.348 398.84 528.841 406.25 537.083 412.581H537.096Z" fill="#AD6359"/>
<path d="M479.44 452.634C465.348 452.998 461.786 455.247 449.735 449.241C441.831 445.302 435.916 448.656 441.285 456.105C450.073 468.299 468.351 471.653 475.02 470.99L479.44 452.634Z" fill="#AD6359"/>
<path d="M518.206 459.835C518.206 459.835 501.306 453.803 486.265 452.698C475.852 451.931 453.024 452.802 435.279 478.412C431.067 484.483 429.377 496.118 439.855 488.695C447.291 483.417 450.424 477.827 455.312 475.552C455.312 475.552 454.922 490.606 461.162 494.584C463.957 496.365 471.692 501.032 478.231 503.814C478.231 503.814 479.219 502.553 480.246 500.772C480.246 500.772 486.434 503.931 496.652 501.227L518.206 459.809V459.835Z" fill="#AD6359"/>
<path d="M476.218 453.57C471.85 456.859 462.698 463.983 457.238 472.407C451.18 481.767 442.015 501.436 448.983 505.843C454.079 509.067 458.239 501.865 458.239 501.865C458.239 501.865 456.172 510.796 461.411 512.707C466.195 514.449 469.068 508.677 469.068 508.677C469.068 508.677 468.743 514.306 473.67 515.099C479.598 516.048 479.312 504.088 486.137 499.863C487.671 498.914 476.205 453.57 476.205 453.57H476.218Z" fill="#AD6359"/>
<path d="M468.196 477.165C464.595 480.935 458.602 491.582 458.121 501.67C458.121 501.904 458.277 502.034 458.329 501.826C461.215 490.828 465.999 481.195 468.287 477.23C468.313 477.178 468.235 477.126 468.196 477.178V477.165Z" fill="#263238"/>
<path d="M477.464 483.561C474.682 487.136 469.001 498.381 468.871 508.625C468.871 508.859 469.04 508.976 469.092 508.768C471.627 497.159 475.527 487.721 477.555 483.626C477.581 483.574 477.503 483.522 477.464 483.574V483.561Z" fill="#263238"/>
<path d="M455.299 475.475C451.035 477.542 448.474 480.22 445.12 483.483C443.456 485.095 441.779 486.681 439.946 488.098C438.282 489.385 435.838 491.335 433.628 490.1C432.406 489.424 432.159 487.851 432.198 486.577C432.237 485.147 433.186 482.352 433.823 481.065C433.849 481 433.745 480.935 433.706 481.013C433.121 482.17 432.003 484.731 431.756 486.005C431.535 487.162 431.431 488.475 431.925 489.58C432.991 491.946 435.968 491.79 437.918 490.763C439.088 490.152 440.154 489.307 441.168 488.475C442.156 487.669 443.092 486.824 444.015 485.94C445.913 484.146 447.694 482.248 449.579 480.428C451.633 478.439 453.115 477.373 455.377 475.631C455.455 475.566 455.377 475.449 455.286 475.488L455.299 475.475Z" fill="#263238"/>
<path d="M448.514 492.817C449.255 490.061 453.779 478.374 455.404 475.566C455.443 475.488 455.352 475.423 455.3 475.488C452.349 479.388 448.189 489.125 447.344 492.154C446.512 495.157 445.615 498.966 446.122 502.073C446.902 506.766 450.152 507.13 451.348 507.169C452.765 507.221 454.104 506.701 455.235 505.856C456.483 504.92 457.575 503.23 458.29 501.852C458.329 501.774 458.225 501.709 458.186 501.774C456.873 503.893 454.468 506.155 451.868 506.246C450.737 506.285 449.541 505.96 448.709 505.167C447.734 504.218 447.435 502.814 447.331 501.514C447.097 498.563 447.76 495.625 448.527 492.791L448.514 492.817Z" fill="#263238"/>
<path d="M518.207 459.836L504.062 509.08C504.062 509.08 592.112 514.098 597 498.108C601.875 482.118 559.339 429.741 541.698 415.35C521.249 398.684 520.144 405.678 526.813 422.357C533.781 439.816 545.779 464.737 545.779 464.737L518.22 459.823L518.207 459.836Z" fill="#FFC727"/>
<path d="M539.954 500.279C539.33 501.956 538.81 503.672 538.68 505.531C539.824 504.062 540.591 502.437 541.254 500.786C541.878 499.109 542.385 497.406 542.528 495.534C541.371 497.016 540.617 498.628 539.954 500.279ZM561.053 445.822C559.376 445.211 557.647 444.691 555.801 444.561C557.27 445.718 558.882 446.472 560.546 447.135C562.223 447.746 563.926 448.279 565.798 448.409C564.329 447.252 562.704 446.498 561.053 445.822ZM594.294 494.819C593.553 493.194 592.708 491.608 591.473 490.217C591.707 492.05 592.318 493.74 593.007 495.378C593.761 497.003 594.606 498.589 595.828 499.993C595.607 498.134 594.996 496.47 594.294 494.819ZM565.486 479.102C564.277 479.661 563.094 480.272 561.976 481.052C561.612 481.312 561.235 481.598 560.884 481.91C561.313 481.858 561.729 481.78 562.145 481.689C563.51 481.403 564.797 480.909 566.058 480.376C567.683 479.622 569.256 478.79 570.673 477.568C568.814 477.776 567.137 478.4 565.486 479.102ZM517.477 483.99C515.852 484.744 514.279 485.589 512.875 486.811C514.721 486.59 516.411 485.979 518.049 485.277C519.661 484.523 521.247 483.678 522.664 482.456C520.805 482.677 519.128 483.288 517.477 483.99ZM539.096 413.296C537.848 413.595 536.665 414.05 535.495 414.544L535.339 414.622C533.779 415.35 532.245 416.182 530.893 417.352C532.739 417.118 534.429 416.52 536.067 415.818L536.145 415.779C537.38 415.207 538.576 414.583 539.707 413.777C539.499 413.608 539.291 413.452 539.096 413.296Z" fill="white"/>
<path d="M573.586 472.641C569.218 470.535 564.629 468.858 560.001 467.415C555.412 465.985 550.693 465.049 545.961 464.308C543.257 463.879 540.54 463.593 537.81 463.281C537.732 463.281 537.719 463.398 537.81 463.411C542.581 464.087 547.313 465.166 551.967 466.388C556.608 467.597 561.21 468.884 565.799 470.262C568.399 471.042 570.96 471.952 573.521 472.81C573.638 472.849 573.703 472.68 573.586 472.628V472.641Z" fill="#263238"/>
<path d="M518.414 459.667C518.856 459.706 543.348 463.528 544.167 463.762C544.011 463.424 537.81 451.776 536.887 450.073C536.796 449.904 536.718 449.735 536.627 449.566C536.068 448.825 535.509 448.097 534.976 447.343C534.3 446.368 533.637 445.393 532.961 444.418C532.935 444.392 532.987 444.353 533 444.379C533.715 445.315 534.43 446.264 535.132 447.213C535.457 447.655 535.769 448.097 536.081 448.552C535.457 447.343 534.859 446.121 534.248 444.912C533.286 442.962 532.389 440.999 531.492 439.01C531.466 438.945 531.557 438.906 531.596 438.971C533.429 442.364 535.353 445.705 537.199 449.098C539.032 452.478 546 464.945 545.961 464.945C545.922 464.984 518.895 460.148 518.375 460.031C518.167 459.979 518.193 459.68 518.414 459.693V459.667Z" fill="#263238"/>
<path d="M521.783 489.71C523.33 484.224 524.838 478.712 526.58 473.278C527.568 470.197 528.556 467.09 529.57 464.022C529.609 463.905 529.817 463.957 529.778 464.074C528.439 469.651 527.1 475.228 525.501 480.74C523.915 486.226 522.381 491.725 520.73 497.185C519.794 500.292 518.767 503.36 517.636 506.402C517.61 506.467 517.506 506.441 517.519 506.376C518.663 500.76 520.197 495.235 521.757 489.71H521.783Z" fill="#263238"/>
<path d="M503.087 509.99C503.711 508.443 504.439 506.246 505.128 504.725C505.31 504.322 505.596 504.348 505.466 504.764C505.037 506.142 504.738 507.676 504.309 509.08C505.544 509.119 506.766 509.132 508.001 509.184C509.431 509.249 510.848 509.314 512.278 509.366C515.073 509.47 517.855 509.561 520.65 509.613C526.305 509.717 531.96 509.704 537.602 509.574C548.925 509.301 560.274 508.625 571.519 507.182C574.665 506.779 577.798 506.311 580.918 505.752C584.09 505.18 587.509 504.543 590.083 503.776C590.161 503.75 590.2 503.893 590.122 503.919C587.496 504.933 585.013 505.7 582.257 506.285C579.449 506.896 576.628 507.429 573.781 507.858C568.126 508.729 562.432 509.301 556.725 509.704C545.415 510.523 534.066 510.848 522.717 510.731C519.545 510.692 516.36 510.627 513.188 510.51C511.589 510.458 509.977 510.406 508.378 510.315C506.779 510.224 502.97 510.224 503.074 509.964L503.087 509.99Z" fill="#263238"/>
<path d="M508.886 425.373C514.632 426.712 524.46 417.898 528.334 410.774C528.594 410.28 527.827 405.145 527.19 398.853C526.826 395.031 526.501 390.78 526.488 386.867C526.488 386.061 501.996 392.912 501.996 392.912C501.996 392.912 504.44 401.102 504.414 407.914C504.414 408.486 504.349 409.019 504.245 409.513C504.245 409.591 504.219 409.682 504.206 409.773C503.725 412.815 503.309 424.073 508.873 425.373H508.886Z" fill="#AD6359"/>
<path d="M524.993 386.971C523.875 393.588 519.819 409.565 506.741 409.903C505.831 409.929 504.999 409.89 504.232 409.773C504.232 409.669 504.258 409.578 504.258 409.5C504.349 408.993 504.414 408.473 504.427 407.901C504.44 401.076 501.996 392.899 501.996 392.899C501.996 392.899 519.663 387.959 524.98 386.971H524.993Z" fill="#263238"/>
<path d="M534.173 361.335C535.382 370.292 526.828 394.186 519.86 398.684C509.746 405.197 495.198 403.598 490.167 391.911C485.279 380.588 496.98 349.635 504.572 345.761C515.765 340.054 532.392 348.101 534.173 361.335Z" fill="#AD6359"/>
<path d="M507.692 371.812C507.692 371.812 507.783 371.943 507.757 372.008C507.094 373.581 506.6 375.504 507.835 376.583C507.874 376.622 507.835 376.701 507.783 376.662C506.119 375.739 506.795 373.191 507.679 371.812H507.692Z" fill="#263238"/>
<path d="M509.759 370.695C512.398 371.488 510.617 376.714 508.173 375.986C505.768 375.258 507.549 370.032 509.759 370.695Z" fill="#263238"/>
<path d="M498.228 368.888C498.228 368.823 498.072 368.927 498.059 368.992C497.565 370.63 496.707 372.424 495.069 372.463C495.017 372.463 494.991 372.541 495.056 372.554C496.928 372.918 498.033 370.526 498.241 368.888H498.228Z" fill="#263238"/>
<path d="M497.357 366.704C494.822 365.625 492.833 370.773 495.186 371.774C497.5 372.762 499.489 367.614 497.357 366.704Z" fill="#263238"/>
<path d="M512.477 368.914C511.788 368.563 511.203 368.134 510.553 367.718C509.825 367.25 509.188 366.951 508.824 366.119C508.629 365.677 508.902 365.014 509.318 364.78C510.28 364.247 511.32 364.598 512.23 365.118C513.218 365.69 513.829 366.379 514.219 367.445C514.609 368.472 513.387 369.369 512.477 368.914Z" fill="#263238"/>
<path d="M496.24 363.155C497.007 363.285 497.735 363.272 498.502 363.324C499.373 363.376 500.062 363.519 500.842 363.051C501.258 362.804 501.44 362.115 501.232 361.686C500.764 360.685 499.724 360.347 498.684 360.243C497.553 360.126 496.656 360.321 495.694 360.945C494.771 361.543 495.226 362.986 496.24 363.155Z" fill="#263238"/>
<path d="M504.08 387.361C503.56 387.608 503.001 387.998 502.39 387.842C501.805 387.699 501.233 387.218 500.791 386.841C500.752 386.802 500.674 386.841 500.687 386.906C500.895 387.673 501.649 388.362 502.442 388.492C503.222 388.609 503.794 388.102 504.197 387.491C504.249 387.4 504.145 387.335 504.067 387.361H504.08Z" fill="#263238"/>
<path d="M504.027 381.927C502.636 383.019 501.05 383.344 499.516 383.123C498.827 383.032 498.138 382.824 497.501 382.538C497.371 382.486 497.241 382.434 497.137 382.369C497.02 382.317 496.916 382.265 496.799 382.187C496.617 382.096 496.565 381.901 496.604 381.719C496.63 381.654 496.643 381.602 496.682 381.55L496.734 381.394C497.124 380.133 497.891 378.287 497.891 378.287C497.358 378.365 494.68 378.612 494.94 377.975C497.098 372.697 499.503 366.821 502.766 362.011C502.87 361.842 503.13 361.985 503.052 362.154C501.18 367.315 498.411 372.112 496.448 377.26C497.28 377.234 498.671 377.117 499.321 377.351C499.477 377.468 497.774 380.913 497.644 381.485C497.644 381.485 497.644 381.511 497.644 381.55C499.646 382.525 501.44 382.434 503.949 381.719C504.105 381.667 504.196 381.823 504.053 381.914L504.027 381.927Z" fill="#263238"/>
<path d="M498.449 382.161C498.449 382.161 499.047 384.033 500.373 385.086C500.867 385.476 501.439 385.762 502.128 385.801C503.532 385.905 503.974 384.722 504.078 383.63C504.169 382.733 504.026 381.875 504.026 381.875C504.026 381.875 501.53 383.006 498.449 382.161Z" fill="#263238"/>
<path d="M500.373 385.086C500.867 385.476 501.439 385.762 502.128 385.801C503.532 385.905 503.974 384.722 504.078 383.63C502.648 383.305 500.945 383.773 500.373 385.086Z" fill="#FF9ABB"/>
<path d="M527.894 379.301C523.994 378.586 525.112 369.564 525.112 369.564C525.112 369.564 514.894 370.37 517.299 357.357C517.299 357.357 505.17 358.865 498.878 353.652C493.496 349.193 492.326 338.325 497.955 333.125C501.127 330.2 508.732 328.445 517.208 340.626C517.208 340.626 532.665 333.957 534.485 351.377C534.485 351.377 541.349 353.626 540.829 360.646C540.01 371.709 531.235 379.925 527.868 379.301H527.894Z" fill="#263238"/>
<path d="M517.481 356.46C517.546 356.343 517.728 356.421 517.676 356.551C516.441 359.593 515.141 362.908 517.13 365.963C519.067 368.927 522.473 370.383 525.905 369.356C526.1 369.291 526.217 369.603 526.009 369.655C522.759 370.604 519.236 369.525 517.078 366.86C514.504 363.675 515.505 359.671 517.468 356.46H517.481Z" fill="#263238"/>
<path d="M527.997 377.234C533.899 375.544 538.865 371.826 540.555 365.664C541.361 362.726 541.452 359.528 540.061 356.798C538.787 354.289 536.382 352.989 534.354 351.208C534.302 351.156 534.354 351.065 534.432 351.091C547.9 357.513 541.218 375.96 528.153 377.949C527.737 378.014 527.594 377.351 527.997 377.234Z" fill="#263238"/>
<path d="M496.162 332.904C503.767 325.676 514.349 333.684 517.508 341.38C517.508 341.406 517.469 341.432 517.456 341.406C514.388 335.478 506.874 328.77 499.815 331.565C491.287 334.945 491.69 349.258 500.14 352.313C500.4 352.404 500.257 352.846 499.984 352.768C492.067 350.545 490.494 338.286 496.149 332.917L496.162 332.904Z" fill="#263238"/>
<path d="M525.372 380.497C525.372 380.497 532.392 373.581 535.642 376.233C538.879 378.885 532.574 389.61 528.05 390.403C523.526 391.196 522.707 387.023 522.707 387.023L525.372 380.497Z" fill="#AD6359"/>
<path d="M533.758 379.262C533.823 379.262 533.823 379.366 533.758 379.379C530.56 380.029 528.493 382.486 526.868 385.138C527.96 384.202 529.273 383.825 530.547 385.138C530.612 385.203 530.521 385.32 530.443 385.281C529.273 384.8 528.363 384.839 527.362 385.671C526.647 386.256 526.101 387.049 525.529 387.764C525.347 387.998 524.892 387.764 525.048 387.491C525.048 387.465 525.074 387.452 525.087 387.426C525.711 383.63 529.637 378.885 533.771 379.249L533.758 379.262Z" fill="#263238"/>
<path d="M491.984 522.314H388.01V526.968H491.984V522.314Z" fill="#C7C7C7"/>
<path d="M388.01 522.314V526.968H458.691L455.129 522.314H388.01Z" fill="#A6A6A6"/>
<path d="M450.643 526.968H349.308L340.871 458.146H442.206L450.643 526.968Z" fill="#A6A6A6"/>
<path d="M445.977 526.968H344.642L336.205 458.146H437.54L445.977 526.968Z" fill="#C7C7C7"/>
<path d="M397.266 491.842C397.747 495.209 395.615 498.264 392.495 498.667C389.375 499.057 386.463 496.652 385.982 493.272C385.501 489.905 387.633 486.85 390.753 486.447C393.873 486.057 396.785 488.462 397.266 491.842Z" fill="white"/>
<path d="M129.898 515.138C129.898 515.138 152.128 510.094 164.309 498.875C176.49 487.643 183.302 467.532 183.302 467.532C183.302 467.532 170.211 469.924 158.368 474.084C156.379 476.216 152.596 480.597 150.828 484.744C150.828 484.744 150.451 480.363 150.763 477.126C147.591 478.582 144.835 480.207 142.846 481.936C132.745 490.776 129.885 515.151 129.885 515.151L129.898 515.138Z" fill="#FFC727"/>
<path d="M169.417 477.308C172.446 475.215 175.527 473.187 178.556 471.068C178.738 470.938 178.556 470.652 178.374 470.769C172.641 474.188 166.999 477.841 161.539 481.676C159.628 483.015 157.769 484.406 155.91 485.823C156.04 485.602 156.17 485.381 156.3 485.16C156.963 484.042 157.665 482.95 158.367 481.858C159.784 479.661 161.331 477.49 163.086 475.553C163.151 475.475 163.034 475.371 162.982 475.449C161.253 477.451 159.524 479.414 157.938 481.533C157.184 482.534 156.495 483.587 155.832 484.653C155.481 485.212 155.156 485.758 154.831 486.33C154.727 486.525 154.61 486.707 154.493 486.902C151.62 489.164 148.825 491.517 146.147 494C144.496 495.534 142.91 497.133 141.376 498.771C142.234 496.08 142.988 493.363 143.989 490.711C144.028 490.62 143.872 490.581 143.846 490.672C142.884 493.454 141.818 496.236 141.077 499.096C139.374 500.929 137.749 502.84 136.215 504.829C136.241 504.712 136.267 504.582 136.293 504.465C136.54 503.412 136.813 502.372 137.086 501.332C137.632 499.317 138.217 497.328 138.893 495.352C140.284 491.309 142.091 487.357 144.86 484.068C144.925 483.99 144.808 483.886 144.756 483.964C140.414 489.099 137.866 495.274 136.241 501.735C136.007 502.684 135.773 503.633 135.565 504.582C135.448 505.089 135.318 505.596 135.227 506.116C134.551 507.026 133.901 507.936 133.264 508.885C129.403 514.631 126.4 520.91 123.865 527.332C121.005 534.573 118.782 542.048 116.741 549.536C116.702 549.679 116.923 549.731 116.975 549.588C121.317 536.575 125.763 523.393 133.199 511.758C134.772 509.301 136.475 506.935 138.269 504.66C141.922 504.452 145.614 503.659 149.085 502.502C152.92 501.228 156.534 499.46 159.914 497.276C161.877 496.015 163.658 494.533 165.465 493.077C165.543 493.012 165.465 492.895 165.374 492.96C162.371 495.508 158.757 497.497 155.182 499.122C151.594 500.76 147.824 502.047 143.963 502.879C142.325 503.243 140.661 503.503 138.997 503.724C141.051 501.189 143.248 498.771 145.549 496.457C146.303 495.703 147.07 494.988 147.85 494.273C150.398 492.414 153.232 490.932 156.066 489.567C159.706 487.812 163.294 485.94 166.895 484.107C168.923 483.067 170.951 482.014 173.005 481.013C173.096 480.974 173.005 480.844 172.927 480.883C169.274 482.651 165.569 484.302 161.877 485.992C158.406 487.578 154.896 489.177 151.568 491.049C151.425 491.127 151.295 491.218 151.152 491.296C154.168 488.67 157.275 486.174 160.473 483.769C163.424 481.546 166.414 479.362 169.443 477.269L169.417 477.308Z" fill="#263238"/>
<path d="M168.156 488.774C166.349 489.567 164.503 490.269 162.722 491.101C160.876 491.959 159.134 492.973 157.392 494C157.314 494.039 157.392 494.156 157.47 494.117C159.238 493.272 161.032 492.479 162.787 491.595C164.581 490.685 166.362 489.723 168.208 488.917C168.299 488.878 168.26 488.735 168.169 488.774H168.156Z" fill="#263238"/>
<path d="M57.6836 403.118C57.6836 403.118 63.9236 410.268 64.3266 421.578C64.4046 423.567 64.0796 426.349 63.8586 429.612C72.1526 434.032 78.3666 442.014 78.3666 442.014C73.6606 439.18 67.1996 438.049 63.7026 438.504C63.8196 440.649 64.0796 442.885 64.5476 445.147C66.0816 445.056 69.0586 445.264 73.9726 447.006C73.9726 447.006 69.1496 446.889 65.4706 448.695C69.4356 461.306 81.2136 474.254 113.74 479.753C113.74 479.753 120.019 457.665 107.981 433.979C98.2306 414.804 57.6836 403.104 57.6836 403.104V403.118Z" fill="#FFC727"/>
<path d="M124.997 533.703C124.438 528.321 123.723 522.952 122.891 517.596C121.227 506.884 119.069 496.237 116.326 485.759C115.039 480.819 113.492 475.97 111.633 471.251C111.75 470.393 111.737 469.509 111.75 468.651C111.776 467.611 111.776 466.571 111.763 465.531C111.737 463.451 111.646 461.371 111.464 459.291C111.113 455.196 110.489 451.088 109.462 447.097C108.864 444.783 108.175 442.495 107.499 440.207C107.473 440.116 107.33 440.155 107.356 440.246C108.5 444.211 109.163 448.332 109.761 452.414C110.346 456.457 110.71 460.539 110.853 464.621C110.892 465.739 110.918 466.857 110.918 467.975C110.918 468.443 110.892 468.924 110.879 469.418C109.28 465.544 107.473 461.761 105.393 458.069C102.117 452.245 98.3471 446.707 94.2651 441.416C94.3041 440.818 94.1221 440.181 93.9921 439.596C93.8361 438.868 93.6801 438.14 93.5241 437.425C93.1861 435.943 92.8221 434.461 92.4191 432.992C91.6131 430.041 90.5471 427.194 89.6241 424.282C89.5981 424.191 89.4551 424.23 89.4811 424.321C90.3391 427.207 90.9111 430.184 91.5741 433.122C91.8991 434.578 92.2241 436.021 92.5361 437.477C92.6921 438.205 92.8481 438.933 93.0041 439.661C93.0041 439.713 93.0171 439.765 93.0301 439.817C91.7171 438.153 90.3781 436.528 89.0001 434.916C82.7861 427.636 75.9741 420.915 69.1231 414.246C68.2781 413.427 67.4201 412.621 66.5621 411.815C66.4971 411.75 66.3931 411.854 66.4581 411.919C73.0101 418.757 79.4581 425.66 85.5681 432.901C87.0241 434.617 88.4541 436.359 89.8581 438.127C89.1171 437.62 88.3761 437.139 87.6351 436.658C85.7371 435.423 83.8261 434.214 81.8501 433.109C79.8741 432.004 77.8851 430.925 75.8571 429.924C73.7771 428.884 71.5411 428.052 69.5261 426.882C69.4351 426.83 69.3701 426.973 69.4481 427.012C71.5281 427.857 73.4651 429.157 75.3891 430.301C77.3651 431.471 79.3411 432.654 81.2911 433.889C83.2021 435.098 85.1261 436.294 87.0241 437.529C88.6101 438.556 90.1701 439.674 91.8081 440.623C95.5651 445.485 99.0881 450.516 102.234 455.794C104.21 459.122 106.004 462.528 107.616 466.012C107.226 465.843 106.836 465.674 106.446 465.505C105.458 465.063 104.457 464.621 103.469 464.179C101.558 463.334 99.6341 462.502 97.7101 461.67C94.0571 460.084 90.3521 458.628 86.7771 456.886C84.7751 455.911 82.7991 454.884 80.9401 453.649C80.8621 453.597 80.7841 453.727 80.8621 453.779C87.5311 458.381 95.0061 461.618 102.39 464.881L105.588 466.298C106.472 466.688 107.343 467.117 108.253 467.468C110.437 472.343 112.27 477.374 113.752 482.535C116.716 492.87 118.965 503.426 120.824 513.995C122.696 524.616 123.944 535.315 124.932 546.053C125.049 547.392 125.179 548.731 125.322 550.07C125.387 550.603 126.18 550.603 126.167 550.044C126.102 544.596 125.543 539.137 124.984 533.716L124.997 533.703Z" fill="#263238"/>
<path d="M105.209 443.872C104.611 440.57 103.727 437.333 102.843 434.096C102.817 434.005 102.674 434.044 102.7 434.135C103.519 437.307 104.117 440.557 104.702 443.781C105.313 447.07 105.846 450.372 106.314 453.687C106.314 453.739 106.405 453.739 106.405 453.687C106.184 450.398 105.794 447.122 105.209 443.885V443.872Z" fill="#263238"/>
<path d="M91.1978 452.843C88.9878 451.283 86.5178 450.1 84.1258 448.865C82.9428 448.254 81.7338 447.669 80.5378 447.084C79.3028 446.486 78.0158 445.979 76.7808 445.368C76.6898 445.329 76.6248 445.459 76.7028 445.498C77.8858 446.096 79.0168 446.811 80.1868 447.448C81.3958 448.111 82.5918 448.774 83.8008 449.424C86.1798 450.698 88.5198 452.115 91.0158 453.155C91.2368 453.246 91.3798 452.973 91.1848 452.843H91.1978Z" fill="#263238"/>
<path opacity="0.1" d="M130.299 476.633C130.299 476.633 150.865 471.719 160.316 457.926C169.338 444.744 172.25 422.28 172.484 420.304C172.107 422.111 167.869 441.754 153.868 450.893C143.143 457.9 132.782 463.659 130.312 476.633H130.299Z" fill="#263238"/>
<path d="M149.278 441.091C145.664 444.575 142.947 448.683 141.699 453.584C141.699 453.623 141.751 453.649 141.764 453.61C143.311 449.047 145.859 444.536 149.382 441.208C149.447 441.143 149.356 441.026 149.278 441.091Z" fill="#263238"/>
<path d="M130.298 476.633C130.298 476.633 150.864 471.719 160.315 457.926C169.337 444.744 172.249 422.28 172.483 420.304C172.496 420.213 172.509 420.161 172.509 420.161C172.509 420.161 162.642 434.188 152.281 437.763C141.907 441.338 127.334 453.714 130.311 476.633H130.298Z" fill="#FFC727"/>
<path d="M168.857 427.895C166.946 431.639 164.944 435.344 162.5 438.763C160.108 442.091 157.235 444.925 154.037 447.473C151.242 449.696 148.291 451.698 145.457 453.882C145.483 453.843 145.496 453.817 145.522 453.778C146.055 452.985 146.627 452.218 147.212 451.477C148.395 449.969 149.682 448.552 150.969 447.148C153.53 444.379 156.13 441.649 158.431 438.646C159.705 436.982 160.81 435.214 161.733 433.329C161.772 433.238 161.629 433.199 161.59 433.277C158.249 440.232 151.593 444.678 146.835 450.554C146.159 451.386 145.522 452.257 144.937 453.154C144.521 453.791 144.027 454.493 143.754 455.247C141.167 457.366 138.775 459.68 136.734 462.345C136.903 460.993 137.202 459.654 137.566 458.354C138.073 456.508 138.749 454.779 139.75 453.141C139.802 453.063 139.672 452.972 139.62 453.063C138.658 454.688 137.774 456.43 137.215 458.237C136.76 459.706 136.552 461.175 136.461 462.683C136.461 462.683 136.461 462.683 136.461 462.696C135.434 464.074 134.524 465.53 133.679 467.012C133.77 466.57 133.848 466.128 133.939 465.699C134.342 463.645 134.797 461.604 135.33 459.589C136.409 455.494 137.865 451.516 140.283 448.006C140.335 447.928 140.218 447.837 140.153 447.928C137.774 451.399 135.967 455.273 134.667 459.264C134.017 461.279 133.484 463.333 133.029 465.4C132.808 466.414 132.6 467.428 132.405 468.442C132.301 468.975 132.184 469.508 132.106 470.054C130 474.5 128.531 479.258 127.361 484.003C125.268 492.531 123.955 501.293 122.98 510.016C121.953 519.168 121.407 528.424 121.563 537.628C121.576 538.785 121.654 539.942 121.719 541.099C121.732 541.398 122.187 541.437 122.2 541.125C122.408 536.562 122.525 531.999 122.785 527.436C123.058 522.873 123.448 518.323 123.942 513.773C124.904 504.855 126.282 495.937 128.232 487.175C129.896 479.648 132.067 472.082 136.175 465.491C138.229 462.189 140.699 459.264 143.598 456.664C146.484 454.077 149.63 451.802 152.672 449.41C155.701 447.031 158.6 444.431 161.005 441.402C163.592 438.139 165.633 434.473 167.544 430.781C168.025 429.845 168.532 428.922 169.013 427.999C169.052 427.908 168.935 427.83 168.883 427.921L168.857 427.895Z" fill="#263238"/>
<path d="M165.308 430.911C163.995 433.693 162.395 436.345 160.718 438.919C160.679 438.984 160.77 439.036 160.809 438.984C162.603 436.462 164.099 433.745 165.438 430.963C165.477 430.872 165.334 430.833 165.295 430.911H165.308Z" fill="#263238"/>
<path d="M54.8099 467.532C54.8099 467.532 54.4849 496.769 71.9569 505.206C89.4289 513.656 98.8019 506.61 110.684 509.444C110.684 509.444 110.684 509.444 110.658 509.431C110.203 508.729 101.727 496.548 88.2329 493.194C74.3619 489.736 58.9959 479.713 54.7969 467.532H54.8099Z" fill="#FFC727"/>
<path opacity="0.1" d="M54.8099 467.532C54.8099 467.532 54.4849 496.769 71.9569 505.206C89.4289 513.656 98.8019 506.61 110.684 509.444C110.684 509.444 110.684 509.444 110.658 509.431C110.164 509.197 101.493 504.855 90.7809 503.568C79.7569 502.242 58.7099 495.053 54.7969 467.532H54.8099Z" fill="black"/>
<path d="M111.84 509.965C109.76 508.08 107.42 506.468 104.885 505.259C104.508 505.077 104.131 504.934 103.741 504.778C103.559 504.544 103.364 504.323 103.156 504.102C102.636 503.556 102.09 503.036 101.505 502.542C100.413 501.606 99.2428 500.735 97.9948 500.007C95.0958 498.304 91.9238 497.108 88.9598 495.535C88.8688 495.483 88.8038 495.626 88.8818 495.665C90.3508 496.419 91.7678 497.264 93.1848 498.096C94.5758 498.902 95.9798 499.669 97.3318 500.54C98.5408 501.32 99.7108 502.178 100.79 503.127C101.102 503.4 101.388 503.686 101.687 503.985C99.7628 503.322 97.7738 502.815 95.7848 502.412C92.5868 501.762 89.3498 501.307 86.1518 500.631C84.5788 500.293 83.0318 499.877 81.5108 499.383C80.0548 498.213 78.6118 497.056 77.2338 495.795C75.5698 494.261 74.0488 492.61 72.7098 490.79C72.6578 490.712 72.5278 490.79 72.5798 490.868C74.7378 493.65 77.0518 496.458 79.7428 498.772C78.9888 498.486 78.2478 498.174 77.5068 497.849C71.5658 495.145 66.2878 490.868 62.6088 485.46C62.5568 485.382 62.4268 485.46 62.4788 485.538C65.6768 490.166 69.7328 494.131 74.5298 497.108C76.9348 498.603 79.4568 499.812 82.1478 500.709C85.2288 501.736 88.4268 502.347 91.6118 502.945C94.7318 503.53 97.8648 504.128 100.881 505.155C103.663 506.104 106.289 507.482 108.655 509.237C113.153 512.604 116.637 517.219 119.133 522.224C122.435 528.867 124.021 536.277 124.905 543.596C124.944 543.908 125.425 543.908 125.399 543.596C124.58 531.311 121.291 518.519 111.827 509.991L111.84 509.965Z" fill="#263238"/>
<path d="M91.5617 500.423C90.6907 499.032 89.3777 497.979 87.9737 497.16C86.3227 496.211 84.8407 495.184 83.6967 493.624C83.6447 493.546 83.5147 493.624 83.5667 493.702C84.6197 495.054 85.8937 496.172 87.3367 497.082C88.8577 498.044 90.4047 498.98 91.4447 500.488C91.4967 500.553 91.6007 500.488 91.5487 500.423H91.5617Z" fill="#263238"/>
<path d="M100.828 531.531L101.621 547.612L104.065 596.726H140.725L143.169 547.612L143.962 531.531H100.828Z" fill="#455A64"/>
<path d="M100.828 531.531L101.621 547.612H143.169L143.962 531.531H100.828Z" fill="#263238"/>
<path d="M98.2544 540.163H146.523V524.823H98.2544V540.163Z" fill="#455A64"/>
</g>
<defs>
<clipPath id="clip0_757_634">
<rect width="544.076" height="545.376" fill="white" transform="translate(53.3008 52)"/>
</clipPath>
</defs>
</svg>
