<svg width="48" height="48" viewBox="0 0 48 48" fill="none" xmlns="http://www.w3.org/2000/svg">
<path opacity="0.948" fill-rule="evenodd" clip-rule="evenodd" d="M22.7351 0.890616C27.2965 0.722409 31.5622 1.75366 35.532 3.98437C36.484 3.09493 37.4371 2.20431 38.3914 1.31249C40.1446 0.531382 41.5664 0.922008 42.657 2.48437C42.9506 3.26814 43.06 4.08064 42.9851 4.92187C44.0901 4.7474 45.0901 4.98177 45.9851 5.62499C47.1698 6.91171 47.3104 8.30233 46.407 9.79687C45.5436 10.6289 44.7155 11.4883 43.9226 12.375C47.954 19.91 48.0321 27.4881 44.157 35.1094C40.3486 41.6805 34.6767 45.5711 27.1414 46.7812C18.68 47.6911 11.6644 44.9567 6.09451 38.5781C1.49594 32.6816 -0.0353115 26.0567 1.50076 18.7031C3.3365 11.4828 7.60212 6.24841 14.2976 2.99999C16.9967 1.79396 19.8092 1.09084 22.7351 0.890616ZM23.8601 2.95312C27.4639 2.99462 30.8389 3.88524 33.9851 5.62499C33.5025 6.0437 33.1744 6.55932 33.0008 7.17187C32.9695 8.73437 32.9382 10.2968 32.907 11.8594C28.2434 8.63094 23.259 8.05282 17.9539 10.125C12.1859 12.9127 9.18596 17.5221 8.95389 23.9531C9.18596 30.3842 12.1859 34.9935 17.9539 37.7812C23.6065 39.9425 28.8252 39.1925 33.6101 35.5312C38.2922 31.2649 39.9016 26.0305 38.4383 19.8281C37.9262 18.0696 37.1293 16.4603 36.0476 15C37.6102 14.9688 39.1726 14.9375 40.7351 14.9062C41.3477 14.7326 41.8633 14.4045 42.282 13.9219C44.6843 18.3044 45.4343 22.9607 44.532 27.8906C42.6573 36.0155 37.7666 41.4061 29.8601 44.0625C22.5006 45.9801 15.9069 44.5114 10.0789 39.6562C4.38999 34.3087 2.15562 27.7618 3.37576 20.0156C4.9572 12.8661 9.06657 7.75667 15.7039 4.68749C18.3269 3.59741 21.0457 3.01928 23.8601 2.95312ZM39.8914 2.95312C40.4007 3.02743 40.7289 3.30868 40.8758 3.79687C40.8805 4.71246 40.9431 5.6187 41.0633 6.51562C41.2079 6.69171 41.3798 6.83233 41.5789 6.93749C42.4539 6.96874 43.3289 6.99999 44.2039 7.03124C44.7811 7.26664 44.9843 7.68851 44.8133 8.29687C43.3601 9.87496 41.8445 11.3906 40.2664 12.8437C38.7352 12.9063 37.2039 12.9063 35.6726 12.8437C35.3445 12.7656 35.1414 12.5625 35.0633 12.2344C35.0007 10.7031 35.0007 9.17186 35.0633 7.64062C36.4824 6.12767 37.9356 4.6433 39.4226 3.18749C39.5928 3.11654 39.749 3.03841 39.8914 2.95312ZM22.6414 11.0156C26.2762 10.7639 29.495 11.7795 32.2976 14.0625C30.9057 15.4701 29.4995 16.8606 28.0789 18.2344C25.553 16.6128 22.9592 16.5034 20.2976 17.9062C17.1734 20.1026 16.2203 23.0244 17.4383 26.6719C19.0958 29.9774 21.7676 31.3681 25.4539 30.8437C28.5508 30.0281 30.3789 28.0437 30.9383 24.8906C31.1624 23.0371 30.7405 21.3496 29.6726 19.8281C31.0464 18.4075 32.4369 17.0013 33.8445 15.6094C37.2789 20.0544 37.8101 24.8357 35.4383 29.9531C32.6048 34.7847 28.3704 37.0816 22.7351 36.8437C17.1057 36.0539 13.3714 32.9758 11.532 27.6094C10.2066 22.2119 11.5972 17.665 15.7039 13.9687C17.743 12.3397 20.0556 11.3554 22.6414 11.0156ZM23.3914 18.9844C24.5453 18.901 25.6077 19.1667 26.5789 19.7812C25.373 20.9558 24.2011 22.1589 23.0633 23.3906C22.7619 24.4956 23.1837 25.0113 24.3289 24.9375C25.6512 23.8028 26.9169 22.5997 28.1258 21.3281C29.2678 23.3459 29.1428 25.2833 27.7508 27.1406C25.5894 29.2647 23.2614 29.4679 20.7664 27.75C18.6423 25.5887 18.4391 23.2606 20.157 20.7656C21.032 19.7893 22.1101 19.1956 23.3914 18.9844Z" fill="#E8BC0A"/>
</svg>
