<svg width="53" height="52" viewBox="0 0 53 52" fill="none" xmlns="http://www.w3.org/2000/svg">
<g clip-path="url(#clip0_731_1614)">
<path opacity="0.937" fill-rule="evenodd" clip-rule="evenodd" d="M52.6152 11.2226C52.6152 11.4935 52.6152 11.7643 52.6152 12.0351C50.9119 13.7893 49.1854 15.5327 47.4355 17.2656C47.0414 17.5582 46.6351 17.5582 46.2168 17.2656C46.0289 17.0606 45.8258 16.8745 45.6074 16.707C45.3044 16.9593 45.0165 17.2301 44.7441 17.5195C45.0865 20.5514 44.3756 23.2935 42.6113 25.7461C40.8678 27.4896 39.1244 29.233 37.3809 30.9765C37.0099 31.2188 36.6036 31.3711 36.1621 31.4336C36.2053 33.8069 36.1545 36.1766 36.0098 38.5429C35.7589 39.8718 35.2511 41.0905 34.4863 42.1992C34.4361 42.3996 34.4191 42.6027 34.4355 42.8086C34.8095 42.7918 35.1818 42.8087 35.5527 42.8594C35.8004 42.938 35.9867 43.0903 36.1113 43.3164C36.211 45.9658 36.1771 48.6065 36.0098 51.2383C35.9181 51.3602 35.7996 51.4449 35.6543 51.4922C30.4746 51.5599 25.2949 51.5599 20.1152 51.4922C19.9068 51.3977 19.7545 51.2454 19.6582 51.0351C19.5905 48.4961 19.5905 45.957 19.6582 43.4179C19.7767 43.164 19.9629 42.9779 20.2168 42.8594C20.5877 42.8087 20.96 42.7918 21.334 42.8086C21.3508 42.3672 21.3339 41.9271 21.2832 41.4883C19.8399 40.2895 18.6889 38.8676 17.8301 37.2226C17.3356 36.1246 17.0647 34.9736 17.0176 33.7695C16.9838 32.2123 16.9498 30.6549 16.916 29.0976C14.5433 26.7589 12.2074 24.3891 9.9082 21.9883C8.93655 20.7216 8.29333 19.2997 7.97852 17.7226C7.8431 17.5872 7.70768 17.4518 7.57227 17.3164C7.31464 17.6081 7.02689 17.862 6.70898 18.0781C6.34131 18.1635 6.00276 18.0958 5.69336 17.875C3.9774 16.176 2.28469 14.4663 0.615234 12.7461C0.615234 12.4752 0.615234 12.2044 0.615234 11.9336C4.18057 8.31743 7.7691 4.71196 11.3809 1.11716C11.8041 0.905322 12.2103 0.939175 12.5996 1.21873C14.2076 2.8268 15.8158 4.43488 17.4238 6.04295C17.7236 6.42531 17.7914 6.83156 17.627 7.2617C17.373 7.5156 17.1191 7.76951 16.8652 8.02341C17.1699 8.3281 17.4746 8.63279 17.7793 8.93748C20.5213 8.59827 23.0603 9.13993 25.3965 10.5625C26.3561 11.3356 27.2702 12.165 28.1387 13.0508C29.4469 11.7254 30.801 10.4558 32.2012 9.24216C33.356 8.49602 34.6087 7.9882 35.959 7.71873C36.0795 7.61518 36.1811 7.4967 36.2637 7.36326C36.0962 7.14491 35.91 6.94178 35.7051 6.75388C35.4125 6.33554 35.4125 5.92929 35.7051 5.53513C37.3809 3.85935 39.0566 2.18357 40.7324 0.50779C41.1965 0.282423 41.6365 0.316278 42.0527 0.609352C45.5968 4.13645 49.1176 7.6742 52.6152 11.2226ZM41.2402 2.58982C44.3476 5.52789 47.3945 8.54092 50.3809 11.6289C49.2299 12.8476 48.0449 14.0326 46.8262 15.1836C43.7793 12.2044 40.7662 9.19138 37.7871 6.14451C38.9404 4.95751 40.0914 3.77262 41.2402 2.58982ZM11.8887 3.1992C13.1053 4.3481 14.2902 5.533 15.4434 6.75388C12.4317 9.81629 9.40179 12.8632 6.35352 15.8945C5.16717 14.7251 3.99921 13.5402 2.84961 12.3398C5.86478 9.29082 8.87779 6.24395 11.8887 3.1992ZM37.584 8.68357C39.8318 10.8806 42.0661 13.098 44.2871 15.3359C43.7928 15.7962 43.3358 16.2871 42.916 16.8086C42.8822 18.0611 42.8483 19.3138 42.8145 20.5664C42.6363 22.0393 42.0947 23.3597 41.1895 24.5273C39.5137 26.2031 37.8379 27.8789 36.1621 29.5547C35.1904 29.632 34.8687 29.2087 35.1973 28.2851C36.653 26.8294 38.1088 25.3736 39.5645 23.9179C39.9075 23.3211 39.789 22.8302 39.209 22.4453C38.8413 22.3599 38.5027 22.4276 38.1934 22.6484C35.3158 25.526 32.4381 28.4037 29.5605 31.2812C28.5512 31.592 28.1618 31.2365 28.3926 30.2148C30.2884 28.319 32.1842 26.4232 34.0801 24.5273C34.4272 23.3511 34.004 22.8941 32.8105 23.1562C30.9147 25.0521 29.0189 26.9479 27.123 28.8437C26.1085 29.1491 25.7191 28.7937 25.9551 27.7773C27.817 25.9154 29.6791 24.0533 31.541 22.1914C31.8341 21.7752 31.8679 21.3351 31.6426 20.8711C31.2571 20.5356 30.8339 20.4848 30.373 20.7187C28.4405 22.6852 26.4769 24.6149 24.4824 26.5078C23.5127 26.5837 23.1911 26.1604 23.5176 25.2383C25.4134 23.3424 27.3092 21.4466 29.2051 19.5508C29.4691 18.3592 29.0121 17.936 27.834 18.2812C26.3076 19.8414 24.7503 21.3649 23.1621 22.8515C22.3793 22.915 22.0577 22.5595 22.1973 21.7851C25.6306 18.2501 29.1007 14.7462 32.6074 11.2734C33.9022 10.2771 35.358 9.6339 36.9746 9.34373C37.1987 9.13688 37.4018 8.91682 37.584 8.68357ZM15.5449 9.29295C16.0322 9.72933 16.5062 10.1864 16.9668 10.664C18.3831 10.7922 19.805 10.86 21.2324 10.8672C22.636 11.1311 23.8887 11.7067 24.9902 12.5937C25.5996 13.2031 26.209 13.8125 26.8184 14.4219C26.4614 14.7958 26.0889 15.1513 25.7012 15.4883C25.1409 14.9448 24.5653 14.42 23.9746 13.914C22.8904 13.7794 22.5011 14.2364 22.8066 15.2851C23.3314 15.8099 23.8561 16.3346 24.3809 16.8594C23.0033 18.169 21.6999 19.5401 20.4707 20.9726C20.0044 22.4851 20.4275 23.6869 21.7402 24.5781C21.5858 25.0554 21.5012 25.5464 21.4863 26.0508C20.6569 25.2213 19.8275 24.3919 18.998 23.5625C18.1631 23.0832 17.6215 23.3033 17.373 24.2226C17.4136 24.395 17.4644 24.5642 17.5254 24.7304C18.781 25.9521 19.9998 27.2047 21.1816 28.4883C21.3724 29.1207 21.1354 29.5269 20.4707 29.707C20.2863 29.6228 20.1001 29.5381 19.9121 29.4531C17.2207 26.7617 14.5293 24.0703 11.8379 21.3789C10.6934 20.1052 9.98246 18.6156 9.70508 16.9101C9.47031 16.5906 9.2164 16.2859 8.94336 15.9961C11.146 13.7596 13.3465 11.5252 15.5449 9.29295ZM23.0605 28.1836C23.3613 28.2672 23.666 28.3349 23.9746 28.3867C24.1455 29.8441 24.958 30.6566 26.4121 30.8242C26.6236 32.3558 27.5038 33.2022 29.0527 33.3633C29.6315 33.2888 30.1733 33.1025 30.6777 32.8047C31.5764 31.8892 32.4904 30.992 33.4199 30.1133C33.6863 30.4306 33.974 30.7353 34.2832 31.0273C34.3509 33.2279 34.3509 35.4283 34.2832 37.6289C34.079 39.1203 33.5372 40.4746 32.6582 41.6914C32.6075 42.0623 32.5907 42.4346 32.6074 42.8086C29.459 42.8086 26.3105 42.8086 23.1621 42.8086C23.2057 42.0522 23.1549 41.3074 23.0098 40.5742C22.2311 39.7955 21.4525 39.0169 20.6738 38.2383C19.0355 36.0768 18.4261 33.6393 18.8457 30.9258C19.9852 31.7348 21.1194 31.7178 22.248 30.875C22.9806 30.1162 23.2514 29.2191 23.0605 28.1836ZM21.4355 44.6367C25.735 44.6367 30.0345 44.6367 34.334 44.6367C34.334 46.3294 34.334 48.0221 34.334 49.7148C30.0345 49.7148 25.735 49.7148 21.4355 49.7148C21.4355 48.0221 21.4355 46.3294 21.4355 44.6367Z" fill="#212A35"/>
<path opacity="0.922" fill-rule="evenodd" clip-rule="evenodd" d="M24.4827 34.1758C26.8441 34.0952 28.3845 35.1785 29.1038 37.4258C29.2634 37.9724 29.2634 38.5142 29.1038 39.0508C28.5325 39.6028 27.9908 39.569 27.4788 38.9493C27.3947 36.9693 26.3621 35.9368 24.3811 35.8516C23.9975 35.5515 23.8791 35.1622 24.0256 34.6836C24.1297 34.4615 24.2821 34.2922 24.4827 34.1758Z" fill="#212A35"/>
</g>
<defs>
<clipPath id="clip0_731_1614">
<rect width="52" height="52" fill="white" transform="translate(0.666016)"/>
</clipPath>
</defs>
</svg>
