<svg width="53" height="52" viewBox="0 0 53 52" fill="none" xmlns="http://www.w3.org/2000/svg">
<g clip-path="url(#clip0_731_1604)">
<path opacity="0.936" fill-rule="evenodd" clip-rule="evenodd" d="M23.9473 -0.0507812C24.6582 -0.0507812 25.3691 -0.0507812 26.0801 -0.0507812C26.6352 0.217713 26.9907 0.657817 27.1465 1.26953C27.2142 3.87631 27.2142 6.48307 27.1465 9.08984C26.9264 9.71615 26.5033 10.1393 25.877 10.3594C20.3104 10.6948 16.0278 13.1831 13.0293 17.8242C9.98242 23.2409 9.98242 28.6576 13.0293 34.0742C16.0279 38.7153 20.3105 41.2036 25.877 41.5391C26.5033 41.7591 26.9264 42.1823 27.1465 42.8086C27.2142 45.4154 27.2142 48.0221 27.1465 50.6289C26.9823 51.2832 26.593 51.7232 25.9785 51.9492C25.3014 51.9492 24.6244 51.9492 23.9473 51.9492C22.9124 51.7792 22.1845 51.2036 21.7637 50.2227C21.5823 49.1848 21.3961 48.1522 21.2051 47.125C18.9952 46.558 16.9131 45.6947 14.959 44.5352C14.0045 45.1735 13.0397 45.7998 12.0645 46.4141C11.2401 46.6685 10.4614 46.5669 9.72852 46.1094C8.42513 45.0091 7.2233 43.8073 6.12305 42.5039C5.62441 41.6891 5.5567 40.8428 5.91992 39.9648C6.53583 39.096 7.12828 38.2158 7.69727 37.3242C6.6012 35.4083 5.77177 33.3771 5.20898 31.2305C5.1582 31.1119 5.07357 31.0273 4.95508 30.9766C4.14273 30.8412 3.33023 30.7058 2.51758 30.5703C1.17453 30.2606 0.429734 29.4312 0.283203 28.082C0.283203 26.6602 0.283203 25.2383 0.283203 23.8164C0.366266 22.6314 0.975641 21.8358 2.11133 21.4297C3.09115 21.2494 4.07292 21.0802 5.05664 20.9219C5.70035 18.704 6.58056 16.5881 7.69727 14.5742C7.05462 13.6425 6.42831 12.6946 5.81836 11.7305C5.57798 10.9078 5.67954 10.1292 6.12305 9.39453C6.66471 8.78516 7.20638 8.17578 7.74805 7.56641C8.4082 6.97396 9.06836 6.38151 9.72852 5.78906C10.4614 5.33148 11.2401 5.22992 12.0645 5.48438C13.0397 6.09866 14.0045 6.72496 14.959 7.36328C16.9406 6.20613 19.0396 5.32593 21.2559 4.72266C21.4031 3.70334 21.5724 2.68772 21.7637 1.67578C22.1845 0.694778 22.9124 0.119258 23.9473 -0.0507812ZM24.1504 1.77734C24.5566 1.77734 24.9629 1.77734 25.3691 1.77734C25.3691 4.04557 25.3691 6.31381 25.3691 8.58203C18.0999 9.23594 13.0048 12.8922 10.084 19.5508C7.58313 26.9554 9.08964 33.4046 14.6035 38.8984C17.6776 41.5885 21.2661 43.0612 25.3691 43.3164C25.3691 45.5846 25.3691 47.8529 25.3691 50.1211C24.9615 50.138 24.5552 50.121 24.1504 50.0703C23.9553 50.0337 23.786 49.949 23.6426 49.8164C23.3562 48.5384 23.1023 47.252 22.8809 45.957C22.7963 45.7369 22.6439 45.5846 22.4238 45.5C21.1762 45.2219 19.9575 44.8496 18.7676 44.3828C17.4382 43.762 16.1348 43.1018 14.8574 42.4023C13.7726 43.0121 12.7401 43.7062 11.7598 44.4844C11.5796 44.5829 11.3934 44.6676 11.2012 44.7383C9.74883 43.743 8.51315 42.5242 7.49414 41.082C8.12558 40.0268 8.81958 39.0112 9.57617 38.0352C9.8634 37.649 9.89725 37.2428 9.67773 36.8164C8.24212 34.6444 7.26034 32.2745 6.73242 29.707C6.60913 29.5497 6.45678 29.4313 6.27539 29.3516C5.01636 29.1331 3.76376 28.8962 2.51758 28.6406C2.27525 28.449 2.15676 28.1951 2.16211 27.8789C2.06959 26.4184 2.10344 24.9626 2.26367 23.5117C2.3483 23.4271 2.43295 23.3424 2.51758 23.2578C3.65986 23.011 4.8109 22.8079 5.9707 22.6484C6.28025 22.5869 6.53415 22.4345 6.73242 22.1914C7.25945 19.6274 8.24122 17.2576 9.67773 15.082C9.89725 14.6557 9.8634 14.2494 9.57617 13.8633C8.89909 12.9154 8.22201 11.9674 7.54492 11.0195C7.47721 10.918 7.47721 10.8164 7.54492 10.7148C8.40136 9.65498 9.33235 8.65628 10.3379 7.71875C10.5993 7.49099 10.8871 7.30478 11.2012 7.16016C12.3099 7.82466 13.3763 8.55253 14.4004 9.34375C14.5666 9.40481 14.7359 9.45559 14.9082 9.49609C16.1105 8.84411 17.3293 8.21782 18.5645 7.61719C19.8981 7.11449 21.2523 6.67438 22.627 6.29688C22.8406 6.08944 22.9592 5.83554 22.9824 5.53516C23.1528 4.41094 23.356 3.29375 23.5918 2.18359C23.7397 1.98399 23.9259 1.84857 24.1504 1.77734Z" fill="#212A35"/>
<path opacity="0.944" fill-rule="evenodd" clip-rule="evenodd" d="M52.2833 25.2383C52.2833 25.7123 52.2833 26.1862 52.2833 26.6602C51.629 28.2738 50.4441 28.8662 48.7286 28.4375C48.015 28.1302 47.5072 27.6224 47.2052 26.9141C40.536 26.8633 33.8668 26.8464 27.1974 26.8633C27.1974 27.7096 27.1974 28.5561 27.1974 29.4024C32.1461 29.353 37.0888 29.4038 42.0255 29.5547C42.8825 29.9038 43.4073 30.5301 43.5997 31.4336C43.6505 33.126 43.6675 34.8187 43.6505 36.5118C44.7677 36.9211 45.3431 37.7336 45.3771 38.9493C45.1717 40.8985 44.0883 41.7618 42.1271 41.5391C40.8573 41.153 40.1803 40.2897 40.0958 38.9493C40.1302 37.7966 40.6719 36.9841 41.7208 36.5118C41.8392 34.9217 41.8562 33.3305 41.7716 31.7383C41.7244 31.593 41.6397 31.4746 41.5177 31.3828C36.7529 31.2315 31.9794 31.1807 27.1974 31.2305C27.1974 32.043 27.1974 32.8555 27.1974 33.668C30.4136 33.651 33.6298 33.668 36.8458 33.7188C37.5171 33.943 37.7371 34.4001 37.506 35.0899C37.3874 35.2084 37.269 35.3268 37.1505 35.4453C33.833 35.4961 30.5152 35.5131 27.1974 35.4961C27.1974 36.0378 27.1974 36.5795 27.1974 37.1211C29.1646 37.0797 31.1281 37.1305 33.088 37.2735C33.9753 37.5176 34.5679 38.0762 34.8653 38.9493C34.9959 41.0091 35.0637 43.0743 35.0685 45.1446C36.3242 45.7258 36.8658 46.7076 36.6935 48.0899C36.379 49.459 35.5157 50.2038 34.1036 50.3243C31.8561 49.8931 31.0605 48.5728 31.7169 46.3633C32.063 45.8309 32.5201 45.4247 33.088 45.1446C33.2064 43.3174 33.2234 41.4892 33.1388 39.6602C33.0141 39.2332 32.7263 39.0132 32.2755 39C30.5151 38.9323 28.7546 38.9323 26.9942 39C26.6293 39.5636 26.1046 39.8514 25.42 39.8633C18.9979 39.1594 14.8 35.7402 12.8263 29.6055C11.478 23.2541 13.3908 18.159 18.5646 14.3203C20.6545 12.9917 22.9397 12.23 25.42 12.0352C26.1046 12.0471 26.6293 12.3349 26.9942 12.8985C28.7885 12.9662 30.5828 12.9662 32.3771 12.8985C32.786 12.8551 33.04 12.635 33.1388 12.2383C33.2234 10.4093 33.2064 8.58112 33.088 6.75394C31.4156 5.7813 31.0263 4.42714 31.92 2.69144C32.7821 1.68446 33.8485 1.39669 35.1192 1.82816C36.3462 2.40265 36.8709 3.36749 36.6935 4.72269C36.5256 5.70266 35.9839 6.37975 35.0685 6.75394C35.0346 8.68363 35.0007 10.6133 34.9669 12.543C34.7687 13.6215 34.1424 14.3155 33.088 14.625C31.1285 14.7695 29.165 14.8202 27.1974 14.7774C27.1974 15.319 27.1974 15.8607 27.1974 16.4024C30.4814 16.3854 33.7652 16.4024 37.0489 16.4532C37.4286 16.5952 37.5978 16.8661 37.5567 17.2657C37.5585 17.7045 37.3553 18.0092 36.9474 18.1797C33.6976 18.2305 30.4476 18.2475 27.1974 18.2305C27.1974 19.043 27.1974 19.8555 27.1974 20.668C31.9794 20.7178 36.7529 20.667 41.5177 20.5157C41.6397 20.424 41.7244 20.3055 41.7716 20.1602C41.8562 18.568 41.8392 16.9768 41.7208 15.3868C40.3436 14.6633 39.8528 13.5461 40.2481 12.0352C40.8305 10.6689 41.863 10.1102 43.3458 10.3594C45.0785 10.9635 45.7048 12.1654 45.2247 13.9649C44.9356 14.7116 44.4108 15.1856 43.6505 15.3868C43.6675 17.0798 43.6505 18.7725 43.5997 20.4649C43.4073 21.3684 42.8825 21.9947 42.0255 22.3438C37.0888 22.4947 32.1461 22.5455 27.1974 22.4961C27.1974 23.3425 27.1974 24.1889 27.1974 25.0352C33.867 25.069 40.5363 25.0352 47.2052 24.9336C47.9573 23.5255 49.1083 23.0345 50.6583 23.461C51.4716 23.8167 52.0133 24.4092 52.2833 25.2383ZM33.7989 3.50394C34.4454 3.40357 34.8177 3.6744 34.9161 4.31644C34.538 5.21598 34.0133 5.31754 33.3419 4.62113C33.2176 4.12611 33.3699 3.75372 33.7989 3.50394ZM42.5333 12.1368C43.3102 12.1179 43.6317 12.4903 43.4981 13.2539C43.1847 13.7873 42.7615 13.8889 42.2286 13.5586C41.7828 12.9719 41.8843 12.4979 42.5333 12.1368ZM25.2677 13.8633C25.3861 21.9036 25.403 29.9609 25.3185 38.0352C19.5959 37.1878 15.9735 33.9717 14.4513 28.3868C13.6154 22.6963 15.6297 18.3461 20.4942 15.336C22.0126 14.5643 23.6038 14.0735 25.2677 13.8633ZM49.4396 25.1368C50.2164 25.1179 50.538 25.4903 50.4044 26.2539C50.1337 26.7551 49.7444 26.8736 49.2364 26.6094C48.7063 26.0466 48.774 25.5557 49.4396 25.1368ZM42.5333 38.1368C43.3102 38.1179 43.6317 38.4903 43.4981 39.2539C43.1847 39.7873 42.7615 39.8889 42.2286 39.5586C41.7828 38.9719 41.8843 38.4979 42.5333 38.1368ZM33.9005 46.7696C34.8173 46.8987 35.0712 47.3725 34.6622 48.1914C33.7314 48.5896 33.2913 48.2849 33.3419 47.2774C33.5176 47.0842 33.7038 46.9149 33.9005 46.7696Z" fill="#212A35"/>
</g>
<defs>
<clipPath id="clip0_731_1604">
<rect width="52" height="52" fill="white" transform="translate(0.333984)"/>
</clipPath>
</defs>
</svg>
