<svg width="48" height="48" viewBox="0 0 48 48" fill="none" xmlns="http://www.w3.org/2000/svg">
<g clip-path="url(#clip0_445_2196)">
<path opacity="0.962" fill-rule="evenodd" clip-rule="evenodd" d="M21.7969 -0.046875C23.2343 -0.046875 24.6719 -0.046875 26.1094 -0.046875C34.6688 1.02028 41.0594 5.30153 45.2812 12.7969C46.7268 15.6435 47.6174 18.6435 47.9531 21.7969C47.9531 23.2343 47.9531 24.6719 47.9531 26.1094C46.7509 35.3757 41.9383 42.0163 33.5156 46.0312C31.102 47.0565 28.602 47.6971 26.0156 47.9531C24.6406 47.9531 23.2657 47.9531 21.8906 47.9531C13.1983 46.9132 6.74519 42.5695 2.53125 34.9219C1.14546 32.1269 0.286082 29.1894 -0.046875 26.1094C-0.046875 24.6719 -0.046875 23.2343 -0.046875 21.7969C1.02024 13.2375 5.3015 6.84691 12.7969 2.625C15.6467 1.19031 18.6467 0.299679 21.7969 -0.046875ZM23.8594 2.76562C31.0768 2.97557 36.8424 5.94432 41.1562 11.6719C45.4247 18.0386 46.2059 24.8199 43.5 32.0156C40.5293 38.7046 35.4823 42.9078 28.3594 44.625C20.4871 46.0216 13.784 43.8498 8.25 38.1094C2.89505 31.7402 1.52004 24.5839 4.125 16.6406C6.81817 9.85378 11.6775 5.46314 18.7031 3.46875C20.4142 3.07144 22.1329 2.83706 23.8594 2.76562Z" fill="#E7B900"/>
<path opacity="0.968" fill-rule="evenodd" clip-rule="evenodd" d="M23.3906 5.67188C24.2646 5.46104 24.9052 5.74229 25.3125 6.51563C25.3751 7.82812 25.3751 9.14062 25.3125 10.4531C24.9049 11.242 24.2643 11.5076 23.3906 11.25C23 11.1094 22.7344 10.8438 22.5938 10.4531C22.5312 9.14062 22.5312 7.82812 22.5938 6.51563C22.752 6.12326 23.0176 5.84201 23.3906 5.67188Z" fill="#E7B900"/>
<path opacity="0.917" fill-rule="evenodd" clip-rule="evenodd" d="M11.7645 10.5469C13.0303 10.5488 13.5772 11.1738 13.4051 12.4219C13.2645 12.9375 12.9364 13.2656 12.4207 13.4063C11.1123 13.5666 10.5029 12.9884 10.5926 11.6719C10.7914 11.0823 11.1819 10.7073 11.7645 10.5469Z" fill="#E7B900"/>
<path opacity="0.921" fill-rule="evenodd" clip-rule="evenodd" d="M35.5781 10.5469C36.9505 10.5902 37.4973 11.2777 37.2187 12.6094C36.688 13.4795 35.9537 13.6826 35.0156 13.2187C34.3476 12.5194 34.2851 11.7694 34.8281 10.9687C35.0717 10.8005 35.3218 10.6598 35.5781 10.5469Z" fill="#E7B900"/>
<path opacity="0.962" fill-rule="evenodd" clip-rule="evenodd" d="M23.3906 14.1094C24.2646 13.8985 24.9052 14.1798 25.3125 14.9531C25.3437 17.7344 25.3751 20.5156 25.4063 23.2969C28.0938 25.9844 30.7812 28.6718 33.4688 31.3594C33.9063 32.0468 33.9063 32.7344 33.4688 33.4219C32.7774 33.9026 32.0742 33.9182 31.3594 33.4688C28.5312 30.6406 25.7032 27.8125 22.875 24.9844C22.7813 24.8281 22.6875 24.6719 22.5938 24.5156C22.5312 21.3281 22.5312 18.1406 22.5938 14.9531C22.752 14.5608 23.0176 14.2795 23.3906 14.1094Z" fill="#E7B900"/>
<path opacity="0.968" fill-rule="evenodd" clip-rule="evenodd" d="M6.51531 22.5469C7.82819 22.5312 9.14069 22.5469 10.4528 22.5937C11.2417 23.0014 11.5073 23.642 11.2497 24.5156C11.1091 24.9063 10.8435 25.1719 10.4528 25.3125C9.14031 25.375 7.82781 25.375 6.51531 25.3125C5.67393 24.8295 5.43956 24.1264 5.81219 23.2031C6.00107 22.9301 6.23544 22.7114 6.51531 22.5469Z" fill="#E7B900"/>
<path opacity="0.968" fill-rule="evenodd" clip-rule="evenodd" d="M37.4528 22.5469C38.7657 22.5312 40.0782 22.5469 41.3903 22.5938C42.1792 23.0014 42.4448 23.642 42.1872 24.5156C42.0466 24.9063 41.781 25.1719 41.3903 25.3125C40.0778 25.375 38.7653 25.375 37.4528 25.3125C36.6114 24.8295 36.377 24.1264 36.7497 23.2031C36.9386 22.9301 37.173 22.7114 37.4528 22.5469Z" fill="#E7B900"/>
<path opacity="0.923" fill-rule="evenodd" clip-rule="evenodd" d="M11.5772 34.4531C13.1085 34.4063 13.6867 35.125 13.3116 36.6094C12.8216 37.2831 12.1809 37.4862 11.3897 37.2188C10.6476 36.7666 10.4132 36.1259 10.6866 35.2969C10.9016 34.9182 11.1985 34.637 11.5772 34.4531Z" fill="#E7B900"/>
<path opacity="0.921" fill-rule="evenodd" clip-rule="evenodd" d="M35.4843 34.4531C36.9199 34.4176 37.4981 35.1051 37.2187 36.5156C36.5645 37.4398 35.7677 37.5804 34.8281 36.9375C34.2851 36.1369 34.3476 35.3869 35.0156 34.6875C35.1857 34.6165 35.3419 34.5384 35.4843 34.4531Z" fill="#E7B900"/>
<path opacity="0.968" fill-rule="evenodd" clip-rule="evenodd" d="M23.3906 36.6094C24.2646 36.3985 24.9052 36.6798 25.3125 37.4531C25.3751 38.7656 25.3751 40.0781 25.3125 41.3906C24.9049 42.1795 24.2643 42.4451 23.3906 42.1875C23 42.0469 22.7344 41.7813 22.5938 41.3906C22.5312 40.0781 22.5312 38.7656 22.5938 37.4531C22.752 37.0608 23.0176 36.7795 23.3906 36.6094Z" fill="#E7B900"/>
</g>
<defs>
<clipPath id="clip0_445_2196">
<rect width="48" height="48" fill="white"/>
</clipPath>
</defs>
</svg>
