<svg width="48" height="48" viewBox="0 0 48 48" fill="none" xmlns="http://www.w3.org/2000/svg">
<path opacity="0.921" fill-rule="evenodd" clip-rule="evenodd" d="M10.0783 1.92187C10.4807 1.87827 10.8557 1.95639 11.2033 2.15625C12.0627 3.01563 12.922 3.875 13.7815 4.73437C14.2596 5.71497 13.9783 6.33997 12.9377 6.60937C12.6908 6.56872 12.4564 6.49059 12.2346 6.375C11.344 5.48437 10.4533 4.59375 9.5627 3.70312C9.17801 2.93627 9.34988 2.34252 10.0783 1.92187Z" fill="#E7BA04"/>
<path opacity="0.921" fill-rule="evenodd" clip-rule="evenodd" d="M37.0782 1.92188C37.936 1.80253 38.436 2.16191 38.5782 3C38.5375 3.24696 38.4594 3.48133 38.3438 3.70313C37.4532 4.59375 36.5626 5.48438 35.672 6.375C34.9169 6.76896 34.3387 6.59709 33.9376 5.85938C33.8471 5.4579 33.9096 5.0829 34.1251 4.73438C35.0713 3.74093 36.0557 2.80343 37.0782 1.92188Z" fill="#E7BA04"/>
<path opacity="0.95" fill-rule="evenodd" clip-rule="evenodd" d="M22.7344 3.79688C27.8903 3.53599 31.4997 5.75473 33.5625 10.4531C33.7718 11.0873 33.9437 11.7279 34.0781 12.375C36.3885 12.1978 38.7009 12.1978 41.0156 12.375C42.1941 12.3051 43.1784 12.6956 43.9688 13.5469C44.0999 13.8153 44.1937 14.0965 44.25 14.3906C44.3125 24.0469 44.3125 33.7031 44.25 43.3594C44.0639 43.9991 43.642 44.3428 42.9844 44.3906C38.3123 43.5818 33.6561 43.6599 29.0156 44.625C27.2978 45.0271 25.5946 45.4803 23.9063 45.9844C22.3657 45.5438 20.8188 45.122 19.2656 44.7187C14.553 43.6747 9.81863 43.5654 5.0625 44.3906C4.32717 44.4048 3.85842 44.061 3.65625 43.3594C3.59375 33.6719 3.59375 23.9843 3.65625 14.2969C4.02525 13.0864 4.85337 12.477 6.14063 12.4688C7.41544 12.2903 8.69669 12.2121 9.98438 12.2344C11.2698 12.2433 12.5511 12.2902 13.8281 12.375C14.9348 7.57338 17.9035 4.714 22.7344 3.79688ZM23.3906 5.95313C27.5178 5.97398 30.2834 7.91148 31.6875 11.7656C32.3614 14.2989 31.9552 16.6427 30.4688 18.7969C29.7775 19.5191 29.1213 20.2691 28.5 21.0469C28.3383 21.3444 28.2133 21.6569 28.125 21.9844C28.0366 22.7817 27.8804 23.5629 27.6563 24.3281C27.0462 25.2458 26.1868 25.652 25.0781 25.5469C25.0938 23.6404 25.0781 21.7342 25.0313 19.8281C24.7172 18.9888 24.139 18.7544 23.2969 19.125C23.0724 19.308 22.9318 19.5424 22.875 19.8281C22.8281 21.7342 22.8125 23.6404 22.8281 25.5469C21.7194 25.652 20.86 25.2458 20.25 24.3281C20.0141 23.5649 19.8578 22.7837 19.7813 21.9844C19.6929 21.6569 19.568 21.3444 19.4063 21.0469C18.785 20.2691 18.1287 19.5191 17.4375 18.7969C15.2955 15.4484 15.3893 12.1672 17.7188 8.95313C19.23 7.22109 21.1207 6.2211 23.3906 5.95313ZM8.57813 14.3906C10.3058 14.3532 12.0245 14.447 13.7344 14.6719C13.8827 16.6641 14.5233 18.4765 15.6563 20.1094C16.2463 20.8558 16.8713 21.5746 17.5313 22.2656C17.7043 23.0729 17.8605 23.8854 18 24.7031C18.2598 25.3998 18.666 25.9936 19.2188 26.4844C19.0603 28.0133 19.3416 29.4509 20.0625 30.7969C20.7321 31.7314 21.6227 32.3564 22.7344 32.6719C22.8281 36.2338 22.8593 39.7963 22.8281 43.3594C17.2691 41.6794 11.6129 41.2418 5.85938 42.0469C5.84375 32.953 5.85938 23.8593 5.90625 14.7656C6.80208 14.6091 7.69271 14.4841 8.57813 14.3906ZM36.7969 14.3906C38.5562 14.3954 40.3062 14.5204 42.0469 14.7656C42.0469 23.8594 42.0469 32.9531 42.0469 42.0469C36.2953 41.261 30.6391 41.6984 25.0781 43.3594C25.0469 39.7963 25.0781 36.2338 25.1719 32.6719C26.9354 32.1427 28.0448 30.9865 28.5 29.2031C28.6011 28.2998 28.6636 27.3937 28.6875 26.4844C29.1777 26.0353 29.5527 25.5041 29.8125 24.8906C30.0334 24.0217 30.2209 23.1466 30.375 22.2656C30.9063 21.6719 31.4375 21.0781 31.9688 20.4844C33.2837 18.7749 34.018 16.8374 34.1719 14.6719C35.0582 14.5624 35.9332 14.4686 36.7969 14.3906ZM21.5156 27.7031C23.1406 27.7031 24.7657 27.7031 26.3906 27.7031C26.4568 29.4176 25.6444 30.3863 23.9531 30.6094C22.2609 30.3854 21.4484 29.4167 21.5156 27.7031Z" fill="#E7BA04"/>
<path opacity="0.932" fill-rule="evenodd" clip-rule="evenodd" d="M23.485 8.48438C25.3654 8.49454 26.8185 9.27579 27.8444 10.8281C28.1077 12.0338 27.6233 12.5494 26.3913 12.375C25.9557 11.9084 25.487 11.4709 24.985 11.0625C24.3075 10.8346 23.6199 10.6471 22.9225 10.5C22.4282 9.91284 22.4282 9.31907 22.9225 8.71875C23.1204 8.63956 23.3079 8.56144 23.485 8.48438Z" fill="#E7BA04"/>
<path opacity="0.955" fill-rule="evenodd" clip-rule="evenodd" d="M9.70324 21.6094C11.0473 21.5937 12.3911 21.6094 13.7345 21.6562C14.4046 21.9186 14.639 22.4029 14.4376 23.1094C14.297 23.375 14.0938 23.5781 13.8282 23.7188C12.422 23.7813 11.0157 23.7813 9.60949 23.7188C8.95431 23.3317 8.78244 22.7849 9.09387 22.0781C9.26308 21.8601 9.46624 21.7039 9.70324 21.6094Z" fill="#E7BA04"/>
<path opacity="0.925" fill-rule="evenodd" clip-rule="evenodd" d="M34.4525 21.9844C35.7698 21.946 37.0823 21.9929 38.39 22.125C38.91 22.4749 39.0818 22.9593 38.9057 23.5781C38.7591 23.8807 38.5248 24.0839 38.2025 24.1875C36.8588 24.25 35.515 24.25 34.1713 24.1875C33.4995 23.9218 33.2651 23.4374 33.4682 22.7344C33.6747 22.3122 34.0028 22.0622 34.4525 21.9844Z" fill="#E7BA04"/>
<path opacity="0.928" fill-rule="evenodd" clip-rule="evenodd" d="M9.98381 28.1719C12.1755 28.1299 14.363 28.1768 16.5463 28.3125C16.7807 28.4219 16.9525 28.5938 17.0619 28.8281C17.2939 29.5669 17.0595 30.0825 16.3588 30.375C14.14 30.4375 11.9213 30.4375 9.70256 30.375C9.0307 30.1093 8.79632 29.6249 8.99943 28.9219C9.20596 28.4997 9.53409 28.2497 9.98381 28.1719Z" fill="#E7BA04"/>
<path opacity="0.928" fill-rule="evenodd" clip-rule="evenodd" d="M31.8287 28.1719C34.0204 28.1299 36.2079 28.1768 38.3912 28.3125C38.9111 28.6624 39.083 29.1468 38.9068 29.7656C38.7603 30.0683 38.5259 30.2714 38.2037 30.375C35.9849 30.4375 33.7662 30.4375 31.5475 30.375C30.8468 30.0825 30.6124 29.5669 30.8443 28.8281C31.0631 28.4306 31.3913 28.2119 31.8287 28.1719Z" fill="#E7BA04"/>
<path opacity="0.929" fill-rule="evenodd" clip-rule="evenodd" d="M9.98381 34.3594C12.609 34.3437 15.234 34.3594 17.8588 34.4062C18.7312 34.6351 19.0281 35.182 18.7494 36.0469C18.5656 36.2939 18.3312 36.4658 18.0463 36.5625C15.265 36.625 12.4838 36.625 9.70256 36.5625C9.0307 36.2968 8.79632 35.8124 8.99943 35.1094C9.20596 34.6872 9.53409 34.4372 9.98381 34.3594Z" fill="#E7BA04"/>
<path opacity="0.929" fill-rule="evenodd" clip-rule="evenodd" d="M30.0474 34.3594C32.4539 34.3437 34.8601 34.3594 37.2662 34.4062C38.0245 34.5932 38.3214 35.0776 38.1568 35.8594C38.0378 36.2597 37.7721 36.494 37.3599 36.5625C34.8599 36.625 32.36 36.625 29.8599 36.5625C29.0422 36.203 28.8391 35.6249 29.2506 34.8281C29.4754 34.5836 29.741 34.4273 30.0474 34.3594Z" fill="#E7BA04"/>
</svg>
