<svg width="52" height="52" viewBox="0 0 52 52" fill="none" xmlns="http://www.w3.org/2000/svg">
<rect width="52" height="52" rx="12" fill="#FF9A00"/>
<g clip-path="url(#clip0_505_1590)">
<path opacity="0.977" fill-rule="evenodd" clip-rule="evenodd" d="M25.5951 9.96875C25.8451 9.96875 26.0951 9.96875 26.3451 9.96875C26.4931 10.0489 26.6286 10.1531 26.7514 10.2812C27.1031 10.9326 27.4468 11.5888 27.7826 12.25C28.5999 12.3727 29.4124 12.5185 30.2201 12.6875C30.6579 13.0439 30.7724 13.4918 30.5639 14.0312C29.9901 14.5842 29.438 15.1571 28.9076 15.75C29.1074 16.5627 29.2012 17.3856 29.1889 18.2188C28.8571 18.7724 28.3884 18.9287 27.7826 18.6875C27.1956 18.3523 26.5914 18.0503 25.9701 17.7812C25.2942 18.088 24.6276 18.4109 23.9701 18.75C23.1924 18.8776 22.7758 18.5546 22.7201 17.7812C22.7959 17.1003 22.9001 16.4232 23.0326 15.75C22.5871 15.2211 22.0975 14.7315 21.5639 14.2812C21.2718 13.9038 21.2093 13.4872 21.3764 13.0312C21.4701 12.8958 21.5847 12.7812 21.7201 12.6875C22.5278 12.5185 23.3403 12.3727 24.1576 12.25C24.4934 11.5888 24.8372 10.9326 25.1889 10.2812C25.3117 10.1531 25.4471 10.0489 25.5951 9.96875Z" fill="white"/>
<path opacity="0.978" fill-rule="evenodd" clip-rule="evenodd" d="M9.96875 19.5938C9.96875 19.3646 9.96875 19.1354 9.96875 18.9063C10.1087 18.6104 10.3379 18.4124 10.6562 18.3125C11.3879 18.2065 12.117 18.0919 12.8438 17.9688C13.1979 17.3021 13.5521 16.6354 13.9062 15.9688C14.4062 15.5521 14.9062 15.5521 15.4062 15.9688C15.7604 16.6354 16.1146 17.3021 16.4688 17.9688C17.2626 18.0896 18.0542 18.225 18.8438 18.375C19.3701 18.7598 19.4847 19.2494 19.1875 19.8438C18.6856 20.3665 18.1648 20.8665 17.625 21.3438C17.6751 21.9287 17.7585 22.512 17.875 23.0938C18.0526 24.145 17.6256 24.5929 16.5938 24.4375C15.9479 24.1146 15.3021 23.7917 14.6562 23.4688C13.9556 23.8295 13.2472 24.1733 12.5312 24.5C11.8008 24.5611 11.4258 24.2277 11.4062 23.5C11.504 22.7788 11.5977 22.0601 11.6875 21.3438C11.1477 20.8665 10.6269 20.3665 10.125 19.8438C10.087 19.7459 10.0349 19.6625 9.96875 19.5938Z" fill="white"/>
<path opacity="0.978" fill-rule="evenodd" clip-rule="evenodd" d="M41.9675 18.9063C41.9675 19.1354 41.9675 19.3646 41.9675 19.5938C41.9014 19.6625 41.8493 19.7459 41.8113 19.8438C41.3094 20.3665 40.7886 20.8665 40.2488 21.3438C40.3385 22.0601 40.4323 22.7788 40.53 23.5C40.5104 24.2277 40.1355 24.5611 39.405 24.5C38.689 24.1733 37.9807 23.8295 37.28 23.4688C36.5303 23.8749 35.7595 24.2291 34.9675 24.5313C34.1628 24.3817 33.8607 23.9025 34.0613 23.0938C34.1778 22.512 34.2611 21.9287 34.3113 21.3438C33.7715 20.8665 33.2506 20.3665 32.7488 19.8438C32.4516 19.2494 32.5661 18.7598 33.0925 18.375C33.882 18.225 34.6736 18.0896 35.4675 17.9688C35.8217 17.3021 36.1758 16.6354 36.53 15.9688C37.03 15.5521 37.53 15.5521 38.03 15.9688C38.3842 16.6354 38.7383 17.3021 39.0925 17.9688C39.8192 18.0919 40.5484 18.2065 41.28 18.3125C41.5984 18.4124 41.8276 18.6104 41.9675 18.9063Z" fill="white"/>
<path opacity="0.993" fill-rule="evenodd" clip-rule="evenodd" d="M33.7813 41.9688C28.573 41.9688 23.3646 41.9688 18.1563 41.9688C17.8868 41.8346 17.6889 41.6262 17.5625 41.3438C17.5208 39.9688 17.5208 38.5938 17.5625 37.2188C18.0316 34.1152 19.667 31.8652 22.4688 30.4688C20.5225 28.7642 19.9079 26.6601 20.625 24.1562C21.5931 21.763 23.3744 20.4922 25.9688 20.3438C28.5631 20.4922 30.3444 21.763 31.3125 24.1562C32.0296 26.6601 31.4151 28.7642 29.4688 30.4688C33.0112 32.3229 34.657 35.2604 34.4063 39.2812C34.3958 39.9688 34.3855 40.6562 34.375 41.3438C34.2486 41.6262 34.0507 41.8346 33.7813 41.9688Z" fill="white"/>
</g>
<defs>
<clipPath id="clip0_505_1590">
<rect width="32" height="32" fill="white" transform="translate(10 10)"/>
</clipPath>
</defs>
</svg>
