<svg width="651" height="707" viewBox="0 0 651 707" fill="none" xmlns="http://www.w3.org/2000/svg">
<g clip-path="url(#clip0_732_2241)">
<path d="M70.7255 370.858L50.7564 371.285L40.6196 371.452C37.2255 371.528 33.8313 371.513 30.4372 371.543H29.7675V370.858L29.6914 353.827V353.066H30.4524L50.6042 353.157C57.3163 353.157 64.0437 353.325 70.7559 353.401H71.1821V353.812C71.1516 356.704 71.0451 359.58 70.9842 362.411L70.7711 370.843L70.7255 370.858ZM70.7255 370.858L70.5124 362.259C70.4363 359.428 70.3449 356.627 70.3145 353.827L70.7255 354.238C64.0133 354.314 57.2859 354.481 50.5737 354.481L30.422 354.573L31.183 353.812L31.1069 370.843L30.422 370.158C33.74 370.189 37.0581 370.158 40.3913 370.25L50.4063 370.417L70.7407 370.843L70.7255 370.858Z" fill="#EBEBEB"/>
<path d="M48.246 392.334L28.2769 392.76L18.1401 392.928C14.746 393.004 11.3518 392.989 7.95771 393.019H7.28802V392.334L7.21191 375.303V374.542H7.97293L28.1247 374.633C34.8368 374.633 41.5642 374.8 48.2764 374.877H48.7026V375.288C48.6721 378.179 48.5656 381.056 48.5047 383.887L48.2916 392.319L48.246 392.334ZM48.246 392.334L48.0329 383.735C47.9568 380.904 47.8655 378.103 47.835 375.303L48.246 375.714C41.5338 375.79 34.8064 375.957 28.0942 375.957L7.94249 376.049L8.70351 375.288L8.62741 392.319L7.94249 391.634C11.2605 391.665 14.5786 391.634 17.9118 391.725L27.9268 391.893L48.2612 392.319L48.246 392.334Z" fill="#EBEBEB"/>
<path d="M643.118 392.334L623.149 392.76L613.012 392.928C609.618 393.004 606.224 392.989 602.83 393.019H602.16V392.334L602.084 375.303V374.542H602.845L622.997 374.633C629.709 374.633 636.436 374.8 643.148 374.877H643.575V375.288C643.544 378.179 643.438 381.056 643.377 383.887L643.164 392.319L643.118 392.334ZM643.118 392.334L642.905 383.735C642.829 380.904 642.738 378.103 642.707 375.303L643.118 375.714C636.406 375.79 629.678 375.957 622.966 375.957L602.815 376.049L603.576 375.288L603.499 392.319L602.815 391.634C606.133 391.665 609.451 391.634 612.784 391.725L622.799 391.893L643.133 392.319L643.118 392.334Z" fill="#EBEBEB"/>
<path d="M620.638 90.2565L600.668 90.6827L590.532 90.8501C587.138 90.9262 583.743 90.911 580.349 90.9262H579.68V90.2413L579.604 73.2097V72.4487H580.365L600.516 72.5401C607.228 72.5401 613.956 72.7075 620.668 72.7836H621.094V73.1945C621.064 76.0864 620.957 78.963 620.896 81.794L620.683 90.2261L620.638 90.2565ZM620.638 90.2565L620.424 81.657C620.348 78.8261 620.257 76.0255 620.227 73.225L620.638 73.6359C613.925 73.712 607.198 73.8794 600.486 73.8794L580.334 73.9708L581.095 73.2097L581.019 90.2413L580.334 89.5564C583.652 89.5868 586.97 89.5564 590.303 89.6325L600.318 89.7999L620.653 90.2261L620.638 90.2565Z" fill="#EBEBEB"/>
<path d="M643.118 111.733L623.149 112.159L613.012 112.326C609.618 112.402 606.224 112.387 602.83 112.417H602.16V111.733L602.084 94.701V93.9399H602.845L622.997 94.0313C629.709 94.0313 636.436 94.1987 643.148 94.2748H643.575V94.6857C643.544 97.5776 643.438 100.454 643.377 103.285L643.164 111.717L643.118 111.733ZM643.118 111.733L642.905 103.133C642.829 100.302 642.738 97.5015 642.707 94.701L643.118 95.1119C636.406 95.188 629.678 95.3554 622.966 95.3554L602.815 95.4468L603.576 94.6857L603.499 111.717L602.815 111.032C606.133 111.063 609.451 111.032 612.784 111.124L622.799 111.291L643.133 111.717L643.118 111.733Z" fill="#EBEBEB"/>
<path d="M70.7255 90.2565L50.7564 90.6827L40.6196 90.8501C37.2255 90.9262 33.8313 90.911 30.4372 90.9262H29.7675V90.2413L29.6914 73.2097V72.4487H30.4524L50.6042 72.5401C57.3163 72.5401 64.0437 72.7075 70.7559 72.7836H71.1821V73.1945C71.1516 76.0864 71.0451 78.963 70.9842 81.794L70.7711 90.2261L70.7255 90.2565ZM70.7255 90.2565L70.5124 81.657C70.4363 78.8261 70.3449 76.0255 70.3145 73.225L70.7255 73.6359C64.0133 73.712 57.2859 73.8794 50.5737 73.8794L30.422 73.9708L31.183 73.2097L31.1069 90.2413L30.422 89.5564C33.74 89.5868 37.0581 89.5564 40.3913 89.6325L50.4063 89.7999L70.7407 90.2261L70.7255 90.2565Z" fill="#EBEBEB"/>
<path d="M604.684 441.237H490.775V598.859H604.684V441.237Z" fill="#EBEBEB"/>
<path d="M610.211 435.393H485.268V441.237H610.211V435.393Z" fill="#DBDBDB"/>
<path d="M649.494 435.393H610.195V441.237H649.494V435.393Z" fill="#EBEBEB"/>
<path d="M643.271 441.237H604.688V598.859H643.271V441.237Z" fill="#DBDBDB"/>
<path d="M592.266 463.824H503.182V514.051H592.266V463.824Z" stroke="#C7C7C7" stroke-width="0.380508" stroke-miterlimit="10"/>
<path d="M552.649 478.451H535.252V488.451H552.649V478.451Z" fill="#C7C7C7"/>
<path d="M557.795 479.197H540.398V487.69H557.795V479.197Z" stroke="#C7C7C7" stroke-width="0.380508" stroke-miterlimit="10"/>
<path d="M592.266 527.278H503.182V577.505H592.266V527.278Z" stroke="#C7C7C7" stroke-width="0.380508" stroke-miterlimit="10"/>
<path d="M552.649 541.905H535.252V551.905H552.649V541.905Z" fill="#C7C7C7"/>
<path d="M557.795 542.666H540.398V551.159H557.795V542.666Z" stroke="#C7C7C7" stroke-width="0.380508" stroke-miterlimit="10"/>
<path d="M643.529 118.049H231.118V298.06H643.529V118.049Z" fill="white"/>
<path d="M643.528 227.711V301.058H472.999V177.377H502.192V212.856H509.71V192.78H546.833V224.576H551.764V149.966H584.031V170.437H600.591V195.916H605.599V179.889H634.928V227.711H643.528Z" fill="#EBEBEB"/>
<path d="M481.522 181.837H476.575V188.61H481.522V181.837Z" fill="white"/>
<path d="M490.074 181.837H485.127V188.61H490.074V181.837Z" fill="white"/>
<path d="M498.644 181.837H493.697V188.61H498.644V181.837Z" fill="white"/>
<path d="M481.522 192.05H476.575V198.823H481.522V192.05Z" fill="white"/>
<path d="M490.074 192.05H485.127V198.823H490.074V192.05Z" fill="white"/>
<path d="M498.644 192.05H493.697V198.823H498.644V192.05Z" fill="white"/>
<path d="M481.522 202.248H476.575V209.036H481.522V202.248Z" fill="white"/>
<path d="M490.074 202.248H485.127V209.036H490.074V202.248Z" fill="white"/>
<path d="M498.644 202.248H493.697V209.036H498.644V202.248Z" fill="white"/>
<path d="M481.522 212.446H476.575V219.219H481.522V212.446Z" fill="white"/>
<path d="M490.074 212.446H485.127V219.219H490.074V212.446Z" fill="white"/>
<path d="M498.644 212.446H493.697V219.219H498.644V212.446Z" fill="white"/>
<path d="M542.371 197.118H513.924V201.365H542.371V197.118Z" fill="white"/>
<path d="M542.371 205.353H513.924V209.6H542.371V205.353Z" fill="white"/>
<path d="M542.371 213.572H513.924V217.818H542.371V213.572Z" fill="white"/>
<path d="M542.371 221.806H513.924V226.053H542.371V221.806Z" fill="white"/>
<path d="M542.371 230.025H513.924V234.271H542.371V230.025Z" fill="white"/>
<path d="M542.371 238.26H513.924V242.506H542.371V238.26Z" fill="white"/>
<path d="M542.371 246.493H513.924V250.74H542.371V246.493Z" fill="white"/>
<path d="M542.371 254.712H513.924V258.958H542.371V254.712Z" fill="white"/>
<path d="M622.95 183.725H614.168V187.819H622.95V183.725Z" fill="white"/>
<path d="M622.95 191.67H614.168V195.764H622.95V191.67Z" fill="white"/>
<path d="M622.95 199.615H614.168V203.709H622.95V199.615Z" fill="white"/>
<path d="M622.95 207.56H614.168V211.654H622.95V207.56Z" fill="white"/>
<path d="M622.95 215.505H614.168V219.599H622.95V215.505Z" fill="white"/>
<path d="M622.95 223.465H614.168V227.559H622.95V223.465Z" fill="white"/>
<path d="M622.95 231.41H614.168V235.504H622.95V231.41Z" fill="white"/>
<path d="M622.95 239.355H614.168V243.449H622.95V239.355Z" fill="white"/>
<path d="M634.913 183.725H626.131V187.819H634.913V183.725Z" fill="white"/>
<path d="M634.913 191.67H626.131V195.764H634.913V191.67Z" fill="white"/>
<path d="M634.913 199.615H626.131V203.709H634.913V199.615Z" fill="white"/>
<path d="M634.913 207.56H626.131V211.654H634.913V207.56Z" fill="white"/>
<path d="M634.913 215.505H626.131V219.599H634.913V215.505Z" fill="white"/>
<path d="M634.913 223.465H626.131V227.559H634.913V223.465Z" fill="white"/>
<path d="M634.913 231.41H626.131V235.504H634.913V231.41Z" fill="white"/>
<path d="M634.913 239.355H626.131V243.449H634.913V239.355Z" fill="white"/>
<path d="M565.796 154.243H556.648V160.696H565.796V154.243Z" fill="white"/>
<path d="M579.45 154.243H570.303V160.696H579.45V154.243Z" fill="white"/>
<path d="M565.796 163.74H556.648V170.194H565.796V163.74Z" fill="white"/>
<path d="M579.45 163.74H570.303V170.194H579.45V163.74Z" fill="white"/>
<path d="M565.796 173.222H556.648V179.676H565.796V173.222Z" fill="white"/>
<path d="M579.45 173.223H570.303V179.676H579.45V173.223Z" fill="white"/>
<path d="M565.796 182.705H556.648V189.158H565.796V182.705Z" fill="white"/>
<path d="M579.45 182.705H570.303V189.158H579.45V182.705Z" fill="white"/>
<path d="M565.796 192.202H556.648V198.656H565.796V192.202Z" fill="white"/>
<path d="M579.45 192.202H570.303V198.656H579.45V192.202Z" fill="white"/>
<path d="M565.796 201.684H556.648V208.138H565.796V201.684Z" fill="white"/>
<path d="M579.45 201.684H570.303V208.138H579.45V201.684Z" fill="white"/>
<path d="M565.796 211.167H556.648V217.62H565.796V211.167Z" fill="white"/>
<path d="M579.45 211.167H570.303V217.62H579.45V211.167Z" fill="white"/>
<path d="M565.796 220.664H556.648V227.117H565.796V220.664Z" fill="white"/>
<path d="M579.45 220.664H570.303V227.118H579.45V220.664Z" fill="white"/>
<path d="M596.358 173.223H587.211V179.676H596.358V173.223Z" fill="white"/>
<path d="M596.358 182.705H587.211V189.158H596.358V182.705Z" fill="white"/>
<path d="M596.358 192.203H587.211V198.656H596.358V192.203Z" fill="white"/>
<path d="M596.358 201.685H587.211V208.138H596.358V201.685Z" fill="white"/>
<path d="M596.358 211.167H587.211V217.621H596.358V211.167Z" fill="white"/>
<path d="M596.358 220.665H587.211V227.118H596.358V220.665Z" fill="white"/>
<path d="M565.796 230.025H556.648V236.479H565.796V230.025Z" fill="white"/>
<path d="M579.45 230.025H570.303V236.478H579.45V230.025Z" fill="white"/>
<path d="M596.358 230.025H587.211V236.479H596.358V230.025Z" fill="white"/>
<path d="M565.796 239.401H556.648V245.854H565.796V239.401Z" fill="white"/>
<path d="M579.45 239.401H570.303V245.854H579.45V239.401Z" fill="white"/>
<path d="M596.358 239.401H587.211V245.854H596.358V239.401Z" fill="white"/>
<path d="M565.796 248.777H556.648V255.23H565.796V248.777Z" fill="white"/>
<path d="M579.45 248.777H570.303V255.23H579.45V248.777Z" fill="white"/>
<path d="M596.358 248.777H587.211V255.23H596.358V248.777Z" fill="white"/>
<path d="M565.796 258.152H556.648V264.606H565.796V258.152Z" fill="white"/>
<path d="M579.45 258.152H570.303V264.606H579.45V258.152Z" fill="white"/>
<path d="M596.358 258.152H587.211V264.606H596.358V258.152Z" fill="white"/>
<path d="M565.796 267.528H556.648V273.981H565.796V267.528Z" fill="white"/>
<path d="M579.45 267.528H570.303V273.981H579.45V267.528Z" fill="white"/>
<path d="M596.358 267.528H587.211V273.981H596.358V267.528Z" fill="white"/>
<path d="M472.985 301.058H229.17V177.378H258.378V212.841H265.897V192.781H303.019V224.561H307.935V149.951H340.218V170.422H356.762V195.916H361.77V179.889H391.114V227.711H399.699V188.839H426.532V159.296H444.766L465.877 159.403V217.072H472.985V301.058Z" fill="#EBEBEB"/>
<path d="M237.693 181.837H232.746V188.61H237.693V181.837Z" fill="white"/>
<path d="M246.263 181.837H241.316V188.61H246.263V181.837Z" fill="white"/>
<path d="M254.83 181.837H249.884V188.61H254.83V181.837Z" fill="white"/>
<path d="M237.693 192.05H232.746V198.823H237.693V192.05Z" fill="white"/>
<path d="M246.263 192.05H241.316V198.823H246.263V192.05Z" fill="white"/>
<path d="M254.83 192.05H249.884V198.823H254.83V192.05Z" fill="white"/>
<path d="M237.693 202.247H232.746V209.036H237.693V202.247Z" fill="white"/>
<path d="M246.263 202.247H241.316V209.036H246.263V202.247Z" fill="white"/>
<path d="M254.83 202.247H249.884V209.036H254.83V202.247Z" fill="white"/>
<path d="M237.693 212.445H232.746V219.218H237.693V212.445Z" fill="white"/>
<path d="M246.263 212.445H241.316V219.218H246.263V212.445Z" fill="white"/>
<path d="M254.83 212.445H249.884V219.218H254.83V212.445Z" fill="white"/>
<path d="M408.77 193.678H403.823V199.34H408.77V193.678Z" fill="white"/>
<path d="M417.323 193.678H412.376V199.34H417.323V193.678Z" fill="white"/>
<path d="M425.893 193.678H420.946V199.34H425.893V193.678Z" fill="white"/>
<path d="M408.77 202.187H403.823V207.848H408.77V202.187Z" fill="white"/>
<path d="M417.323 202.187H412.376V207.848H417.323V202.187Z" fill="white"/>
<path d="M425.893 202.187H420.946V207.848H425.893V202.187Z" fill="white"/>
<path d="M408.77 210.694H403.823V216.356H408.77V210.694Z" fill="white"/>
<path d="M417.323 210.694H412.376V216.356H417.323V210.694Z" fill="white"/>
<path d="M425.893 210.694H420.946V216.356H425.893V210.694Z" fill="white"/>
<path d="M408.77 219.218H403.823V224.88H408.77V219.218Z" fill="white"/>
<path d="M417.323 219.218H412.376V224.88H417.323V219.218Z" fill="white"/>
<path d="M425.893 219.218H420.946V224.88H425.893V219.218Z" fill="white"/>
<path d="M408.77 227.939H403.823V233.601H408.77V227.939Z" fill="white"/>
<path d="M417.323 227.939H412.376V233.601H417.323V227.939Z" fill="white"/>
<path d="M425.893 227.939H420.946V233.601H425.893V227.939Z" fill="white"/>
<path d="M408.77 236.66H403.823V242.322H408.77V236.66Z" fill="white"/>
<path d="M417.323 236.66H412.376V242.322H417.323V236.66Z" fill="white"/>
<path d="M425.893 236.66H420.946V242.322H425.893V236.66Z" fill="white"/>
<path d="M408.77 245.382H403.823V251.044H408.77V245.382Z" fill="white"/>
<path d="M417.323 245.382H412.376V251.044H417.323V245.382Z" fill="white"/>
<path d="M425.893 245.382H420.946V251.044H425.893V245.382Z" fill="white"/>
<path d="M408.77 254.103H403.823V259.765H408.77V254.103Z" fill="white"/>
<path d="M417.323 254.103H412.376V259.765H417.323V254.103Z" fill="white"/>
<path d="M425.893 254.103H420.946V259.765H425.893V254.103Z" fill="white"/>
<path d="M298.56 197.118H270.113V201.364H298.56V197.118Z" fill="white"/>
<path d="M298.56 205.352H270.113V209.599H298.56V205.352Z" fill="white"/>
<path d="M298.56 213.571H270.113V217.818H298.56V213.571Z" fill="white"/>
<path d="M298.56 221.806H270.113V226.052H298.56V221.806Z" fill="white"/>
<path d="M298.56 230.024H270.113V234.271H298.56V230.024Z" fill="white"/>
<path d="M298.56 238.259H270.113V242.505H298.56V238.259Z" fill="white"/>
<path d="M298.56 246.493H270.113V250.739H298.56V246.493Z" fill="white"/>
<path d="M298.56 254.711H270.113V258.958H298.56V254.711Z" fill="white"/>
<path d="M379.135 183.724H370.353V187.819H379.135V183.724Z" fill="white"/>
<path d="M379.135 191.67H370.353V195.764H379.135V191.67Z" fill="white"/>
<path d="M379.135 199.614H370.353V203.709H379.135V199.614Z" fill="white"/>
<path d="M379.135 207.56H370.353V211.654H379.135V207.56Z" fill="white"/>
<path d="M379.135 215.504H370.353V219.599H379.135V215.504Z" fill="white"/>
<path d="M379.135 223.465H370.353V227.559H379.135V223.465Z" fill="white"/>
<path d="M379.135 231.41H370.353V235.504H379.135V231.41Z" fill="white"/>
<path d="M379.135 239.355H370.353V243.449H379.135V239.355Z" fill="white"/>
<path d="M391.083 183.724H382.301V187.819H391.083V183.724Z" fill="white"/>
<path d="M391.083 191.67H382.301V195.764H391.083V191.67Z" fill="white"/>
<path d="M391.083 199.614H382.301V203.709H391.083V199.614Z" fill="white"/>
<path d="M391.083 207.56H382.301V211.654H391.083V207.56Z" fill="white"/>
<path d="M391.083 215.504H382.301V219.599H391.083V215.504Z" fill="white"/>
<path d="M391.083 223.465H382.301V227.559H391.083V223.465Z" fill="white"/>
<path d="M391.083 231.41H382.301V235.504H391.083V231.41Z" fill="white"/>
<path d="M391.083 239.355H382.301V243.449H391.083V239.355Z" fill="white"/>
<path d="M321.981 154.242H312.834V160.696H321.981V154.242Z" fill="white"/>
<path d="M335.62 154.242H326.473V160.696H335.62V154.242Z" fill="white"/>
<path d="M321.981 163.74H312.834V170.193H321.981V163.74Z" fill="white"/>
<path d="M335.62 163.74H326.473V170.193H335.62V163.74Z" fill="white"/>
<path d="M321.981 173.222H312.834V179.675H321.981V173.222Z" fill="white"/>
<path d="M335.62 173.222H326.473V179.676H335.62V173.222Z" fill="white"/>
<path d="M321.981 182.704H312.834V189.158H321.981V182.704Z" fill="white"/>
<path d="M335.62 182.705H326.473V189.158H335.62V182.705Z" fill="white"/>
<path d="M321.981 192.202H312.834V198.655H321.981V192.202Z" fill="white"/>
<path d="M335.62 192.202H326.473V198.655H335.62V192.202Z" fill="white"/>
<path d="M321.981 201.684H312.834V208.137H321.981V201.684Z" fill="white"/>
<path d="M335.62 201.684H326.473V208.137H335.62V201.684Z" fill="white"/>
<path d="M321.981 211.166H312.834V217.62H321.981V211.166Z" fill="white"/>
<path d="M335.62 211.166H326.473V217.619H335.62V211.166Z" fill="white"/>
<path d="M321.981 220.664H312.834V227.117H321.981V220.664Z" fill="white"/>
<path d="M335.62 220.664H326.473V227.117H335.62V220.664Z" fill="white"/>
<path d="M352.529 173.222H343.382V179.676H352.529V173.222Z" fill="white"/>
<path d="M352.529 182.705H343.382V189.158H352.529V182.705Z" fill="white"/>
<path d="M352.529 192.202H343.382V198.656H352.529V192.202Z" fill="white"/>
<path d="M352.529 201.685H343.382V208.138H352.529V201.685Z" fill="white"/>
<path d="M352.529 211.167H343.382V217.62H352.529V211.167Z" fill="white"/>
<path d="M352.529 220.664H343.382V227.117H352.529V220.664Z" fill="white"/>
<path d="M321.981 230.025H312.834V236.478H321.981V230.025Z" fill="white"/>
<path d="M335.62 230.024H326.473V236.478H335.62V230.024Z" fill="white"/>
<path d="M352.529 230.024H343.382V236.478H352.529V230.024Z" fill="white"/>
<path d="M321.981 239.4H312.834V245.854H321.981V239.4Z" fill="white"/>
<path d="M335.62 239.4H326.473V245.854H335.62V239.4Z" fill="white"/>
<path d="M352.529 239.4H343.382V245.854H352.529V239.4Z" fill="white"/>
<path d="M321.981 248.776H312.834V255.23H321.981V248.776Z" fill="white"/>
<path d="M335.62 248.776H326.473V255.23H335.62V248.776Z" fill="white"/>
<path d="M352.529 248.776H343.382V255.23H352.529V248.776Z" fill="white"/>
<path d="M321.981 258.152H312.834V264.605H321.981V258.152Z" fill="white"/>
<path d="M335.62 258.152H326.473V264.605H335.62V258.152Z" fill="white"/>
<path d="M352.529 258.152H343.382V264.605H352.529V258.152Z" fill="white"/>
<path d="M321.981 267.528H312.834V273.981H321.981V267.528Z" fill="white"/>
<path d="M335.62 267.528H326.473V273.981H335.62V267.528Z" fill="white"/>
<path d="M352.529 267.528H343.382V273.981H352.529V267.528Z" fill="white"/>
<path d="M435.206 163.466H430.26V169.128H435.206V163.466Z" fill="white"/>
<path d="M443.762 163.466H438.815V169.128H443.762V163.466Z" fill="white"/>
<path d="M435.206 171.974H430.26V177.636H435.206V171.974Z" fill="white"/>
<path d="M443.762 171.974H438.815V177.636H443.762V171.974Z" fill="white"/>
<path d="M435.206 180.483H430.26V186.145H435.206V180.483Z" fill="white"/>
<path d="M443.762 180.483H438.815V186.145H443.762V180.483Z" fill="white"/>
<path d="M435.206 189.005H430.26V194.667H435.206V189.005Z" fill="white"/>
<path d="M443.762 189.005H438.815V194.667H443.762V189.005Z" fill="white"/>
<path d="M435.206 197.727H430.26V203.389H435.206V197.727Z" fill="white"/>
<path d="M443.762 197.727H438.815V203.389H443.762V197.727Z" fill="white"/>
<path d="M435.206 206.448H430.26V212.11H435.206V206.448Z" fill="white"/>
<path d="M443.762 206.448H438.815V212.11H443.762V206.448Z" fill="white"/>
<path d="M435.206 215.169H430.26V220.831H435.206V215.169Z" fill="white"/>
<path d="M443.762 215.169H438.815V220.831H443.762V215.169Z" fill="white"/>
<path d="M435.206 223.89H430.26V229.552H435.206V223.89Z" fill="white"/>
<path d="M443.762 223.89H438.815V229.552H443.762V223.89Z" fill="white"/>
<path d="M435.206 232.703H430.26V238.365H435.206V232.703Z" fill="white"/>
<path d="M443.762 232.703H438.815V238.365H443.762V232.703Z" fill="white"/>
<path d="M435.206 241.516H430.26V247.178H435.206V241.516Z" fill="white"/>
<path d="M443.762 241.516H438.815V247.178H443.762V241.516Z" fill="white"/>
<path d="M435.206 250.328H430.26V255.99H435.206V250.328Z" fill="white"/>
<path d="M443.762 250.328H438.815V255.99H443.762V250.328Z" fill="white"/>
<path d="M435.206 259.141H430.26V264.803H435.206V259.141Z" fill="white"/>
<path d="M443.762 259.141H438.815V264.803H443.762V259.141Z" fill="white"/>
<path d="M453.518 163.466H448.571V169.128H453.518V163.466Z" fill="white"/>
<path d="M462.085 163.466H457.139V169.128H462.085V163.466Z" fill="white"/>
<path d="M453.518 171.974H448.571V177.636H453.518V171.974Z" fill="white"/>
<path d="M462.085 171.974H457.139V177.636H462.085V171.974Z" fill="white"/>
<path d="M453.518 180.483H448.571V186.145H453.518V180.483Z" fill="white"/>
<path d="M462.085 180.483H457.139V186.145H462.085V180.483Z" fill="white"/>
<path d="M453.518 189.005H448.571V194.667H453.518V189.005Z" fill="white"/>
<path d="M462.085 189.005H457.139V194.667H462.085V189.005Z" fill="white"/>
<path d="M453.518 197.727H448.571V203.389H453.518V197.727Z" fill="white"/>
<path d="M462.085 197.727H457.139V203.389H462.085V197.727Z" fill="white"/>
<path d="M453.518 206.448H448.571V212.11H453.518V206.448Z" fill="white"/>
<path d="M462.085 206.448H457.139V212.11H462.085V206.448Z" fill="white"/>
<path d="M453.518 215.169H448.571V220.831H453.518V215.169Z" fill="white"/>
<path d="M462.085 215.169H457.139V220.831H462.085V215.169Z" fill="white"/>
<path d="M453.518 223.89H448.571V229.552H453.518V223.89Z" fill="white"/>
<path d="M462.085 223.89H457.139V229.552H462.085V223.89Z" fill="white"/>
<path d="M453.518 232.703H448.571V238.365H453.518V232.703Z" fill="white"/>
<path d="M462.085 232.703H457.139V238.365H462.085V232.703Z" fill="white"/>
<path d="M453.518 241.516H448.571V247.178H453.518V241.516Z" fill="white"/>
<path d="M462.085 241.516H457.139V247.178H462.085V241.516Z" fill="white"/>
<path d="M453.518 250.328H448.571V255.99H453.518V250.328Z" fill="white"/>
<path d="M462.085 250.328H457.139V255.99H462.085V250.328Z" fill="white"/>
<path d="M453.518 259.141H448.571V264.803H453.518V259.141Z" fill="white"/>
<path d="M462.085 259.141H457.139V264.803H462.085V259.141Z" fill="white"/>
<path d="M225.137 112.067V304.056H649.48V112.067H225.137ZM643.514 298.075H231.118V118.064H643.529V298.075H643.514Z" fill="#DBDBDB"/>
<path d="M440.306 118.064H434.324V298.075H440.306V118.064Z" fill="#DBDBDB"/>
<path d="M45.8844 -0.000244141H44.8037V148.778H45.8844V-0.000244141Z" fill="#C7C7C7"/>
<path d="M90.159 191.973L86.5518 199.903H4.11837L0.526367 191.973L35.6245 167.697H55.0609L90.159 191.973Z" fill="#EBEBEB"/>
<path d="M57.4973 144.288L55.0621 167.697H35.6257L33.1904 144.288H57.4973Z" fill="#DBDBDB"/>
<path d="M90.159 191.989L86.5518 199.903H4.11837L0.526367 191.989H90.159Z" fill="#DBDBDB"/>
<path d="M142.109 -0.000244141H141.028V108.003H142.109V-0.000244141Z" fill="#C7C7C7"/>
<path d="M186.386 151.199L182.794 159.128H100.361L96.7686 151.199L131.851 126.907H151.303L186.386 151.199Z" fill="#EBEBEB"/>
<path d="M153.739 103.498L151.304 126.907H131.852L129.417 103.498H153.739Z" fill="#DBDBDB"/>
<path d="M186.386 151.198L182.778 159.128H100.345L96.7529 151.198H186.386Z" fill="#DBDBDB"/>
<path d="M325.531 706.269C446.249 706.269 544.11 696.061 544.11 683.469C544.11 670.877 446.249 660.669 325.531 660.669C204.812 660.669 106.951 670.877 106.951 683.469C106.951 696.061 204.812 706.269 325.531 706.269Z" fill="#EBEBEB"/>
<path d="M167.77 383.917H50.7715V598.874H167.77V383.917Z" fill="#455A64"/>
<path d="M167.77 383.917H50.7715V397.935H167.77V383.917Z" fill="#263238"/>
<path d="M0.528961 383.917L428.769 383.917V372.609L0.528961 372.609V383.917Z" fill="#455A64"/>
<path d="M403.81 383.917L404.19 397.92L409.122 598.874H418.056V383.917H403.81Z" fill="#455A64"/>
<path d="M418.056 383.917H403.81L404.19 397.92H418.056V383.917Z" fill="#263238"/>
<path d="M50.774 383.917H11.125V598.874H50.774V383.917Z" fill="#37474F"/>
<path d="M50.774 383.917H11.125V397.935H50.774V383.917Z" fill="#263238"/>
<path d="M0.529297 598.874L81.7755 598.494L163.037 598.357L325.529 598.113L488.037 598.357L569.283 598.494L650.529 598.874L569.283 599.239L488.037 599.376L325.529 599.62L163.037 599.376L81.7755 599.239L0.529297 598.874Z" fill="#263238"/>
<path d="M338.695 675.051C335.316 676.147 239.215 674.899 235.592 672.525C234.192 671.642 233.568 657.639 233.279 640.684C233.279 640.501 233.279 640.334 233.279 640.151C233.218 636.651 233.172 633.059 233.157 629.406C233.157 628.903 233.157 628.401 233.142 627.899L237.799 578.037L302.09 578.676L295.743 628.066L295.667 630.015L295.286 640.243L295.256 641.293C295.256 641.293 331.83 658.218 335.544 661.247C339.227 664.26 342.074 673.956 338.695 675.036V675.051Z" fill="#D3766A"/>
<path d="M338.695 675.051C335.316 676.147 239.215 674.899 235.592 672.525C234.192 671.642 233.568 657.639 233.279 640.684C233.279 640.501 233.279 640.334 233.279 640.151C233.218 636.651 233.172 633.059 233.157 629.406C233.157 628.903 233.157 628.401 233.142 627.899L295.758 628.082L295.682 630.03L295.301 640.258L295.271 641.308C295.271 641.308 331.846 658.233 335.559 661.262C339.243 664.275 342.089 673.971 338.71 675.051H338.695Z" fill="#EBEBEB"/>
<path d="M339.334 675.295C335.91 676.391 238.499 675.097 234.816 672.692C233.416 671.794 232.776 657.594 232.487 640.41L295.302 641.064C295.302 641.064 332.378 658.248 336.138 661.307C339.882 664.367 342.759 674.199 339.334 675.295Z" fill="#455A64"/>
<path d="M280.218 675.173C257.464 674.656 236.475 673.788 234.816 672.692C233.416 671.779 232.761 657.594 232.487 640.41L246.673 640.562L280.218 675.173Z" fill="#37474F"/>
<path d="M337.977 671.383C321.646 670.759 255.757 669.816 239.563 670.44C239.426 670.44 239.426 670.531 239.563 670.546C255.727 671.505 321.646 671.931 337.977 671.657C338.328 671.657 338.328 671.398 337.977 671.383Z" fill="#263238"/>
<path d="M329.911 657.716C326.045 657.503 322.225 659.299 320.094 661.566C318.039 663.758 316.258 666.848 316.334 670.242C316.334 670.333 316.517 670.349 316.532 670.242C317.552 663.865 323.442 658.324 329.926 657.914C330.063 657.914 330.063 657.716 329.926 657.716H329.911Z" fill="#263238"/>
<path d="M301.603 642.784C295.073 642.602 287.463 644.809 283.323 650.105C283.155 650.303 283.46 650.532 283.658 650.44C289.609 647.472 295.256 645.28 301.709 643.591C302.166 643.469 302.074 642.8 301.603 642.784Z" fill="#263238"/>
<path d="M306.624 644.809C300.094 644.626 292.484 646.833 288.344 652.13C288.192 652.328 288.481 652.556 288.679 652.465C294.63 649.497 300.277 647.305 306.731 645.615C307.187 645.494 307.096 644.824 306.624 644.809Z" fill="#263238"/>
<path d="M311.647 646.848C305.118 646.665 297.508 648.872 293.368 654.169C293.2 654.367 293.505 654.595 293.703 654.504C299.654 651.536 305.301 649.344 311.754 647.655C312.211 647.533 312.119 646.863 311.647 646.848Z" fill="#263238"/>
<path d="M316.669 648.872C310.139 648.69 302.529 650.897 298.389 656.193C298.222 656.391 298.526 656.62 298.724 656.528C304.675 653.56 310.322 651.369 316.775 649.679C317.232 649.557 317.141 648.888 316.669 648.872Z" fill="#263238"/>
<path d="M243.947 654.976C236.611 654.9 236.489 666.3 243.825 666.376C251.162 666.452 251.283 655.052 243.947 654.976Z" fill="#263238"/>
<path d="M299.503 640.456H230.281C230.281 640.456 244.223 478.785 243.675 475.97C242.99 472.347 238.896 455.985 233.462 434.616C231.757 427.919 229.916 420.75 228.013 413.308C222.853 393.201 217.161 371.208 212.214 352.091C204.772 323.432 198.973 301.179 198.973 301.179H257.632C257.632 301.179 264.466 322.853 273.081 351.056C287.114 396.885 305.88 459.958 307.737 475.285C310.736 500.048 299.518 640.456 299.518 640.456H299.503Z" fill="#263238"/>
<path d="M296.445 628.645C285.882 628.432 288.911 628.34 278.333 628.234C273.158 628.188 239.156 627.884 234.331 628.69C234.224 628.706 234.224 628.888 234.331 628.904C239.171 629.71 273.158 629.406 278.333 629.36C288.911 629.254 285.867 629.178 296.445 628.949C296.643 628.949 296.643 628.645 296.445 628.645Z" fill="#37474F"/>
<path d="M256.705 466.092C254.437 456.092 251.043 446.275 248.09 436.458C242.093 416.504 236.036 396.565 229.978 376.627C226.949 366.657 223.92 356.688 220.846 346.734C219.293 341.711 217.756 336.673 216.173 331.651C214.636 326.734 212.886 321.864 211.485 316.917C210.922 314.908 210.618 316.004 211.333 318.576C212.794 323.736 214.24 328.911 215.732 334.055C218.715 344.253 221.713 354.451 224.727 364.633C230.724 384.907 236.812 405.165 242.885 425.423C245.929 435.575 249.004 445.727 252.048 455.879C253.509 460.734 254.939 465.62 255.792 470.612C256.69 475.833 256.735 481.099 256.401 486.38C255.731 496.974 254.513 507.552 253.539 518.115C252.565 528.708 251.576 539.286 250.602 549.88C248.653 570.945 246.705 592.025 244.803 613.09C244.559 615.753 244.331 618.432 244.118 621.111C244.042 622.009 245.396 621.933 245.503 621.08C247.786 600.244 249.536 579.346 251.484 558.479C253.433 537.719 255.381 516.958 257.314 496.182C257.801 490.977 258.349 485.741 258.364 480.505C258.364 475.65 257.755 470.84 256.675 466.107L256.705 466.092Z" fill="#37474F"/>
<path d="M250.966 301.18C246.887 332.686 239.125 391.756 233.478 434.616C220.252 382.685 198.974 301.18 198.974 301.18H250.982H250.966Z" fill="#37474F"/>
<path d="M265.366 675.98C262.002 677.076 165.886 676.178 162.248 673.819C160.848 672.951 160.163 658.933 159.828 641.978C159.828 641.795 159.828 641.628 159.828 641.445C159.752 637.945 159.691 634.353 159.676 630.7C159.676 630.197 159.676 629.695 159.645 629.193C159.417 604.719 161.183 579.331 161.183 579.331L224.012 579.742L222.262 629.147L222.201 631.111L221.851 641.339L221.82 642.389C221.82 642.389 258.456 659.192 262.185 662.206C265.883 665.204 268.76 674.899 265.381 675.98H265.366Z" fill="#D3766A"/>
<path d="M265.366 675.98C262.002 677.076 165.886 676.178 162.248 673.819C160.848 672.951 160.163 658.933 159.828 641.978C159.828 641.795 159.828 641.628 159.828 641.445C159.752 637.945 159.691 634.353 159.676 630.7C159.676 630.197 159.676 629.695 159.646 629.193L222.262 629.147L222.201 631.111L221.851 641.339L221.821 642.389C221.821 642.389 258.456 659.192 262.185 662.206C265.884 665.204 268.76 674.9 265.381 675.98H265.366Z" fill="#EBEBEB"/>
<path d="M266.492 676.315C263.068 677.411 165.658 676.117 161.974 673.713C160.574 672.815 159.935 658.614 159.646 641.43L222.46 642.085C222.46 642.085 259.537 659.268 263.296 662.328C267.04 665.387 269.917 675.219 266.492 676.315Z" fill="#455A64"/>
<path d="M265.152 672.388C248.821 671.764 182.932 670.821 166.738 671.445C166.601 671.445 166.601 671.536 166.738 671.551C182.902 672.51 248.821 672.936 265.152 672.662C265.502 672.662 265.502 672.404 265.152 672.388Z" fill="#263238"/>
<path d="M257.07 658.736C253.204 658.523 249.384 660.319 247.253 662.587C245.198 664.778 243.417 667.868 243.494 671.262C243.494 671.354 243.676 671.369 243.691 671.262C244.711 664.885 250.601 659.345 257.085 658.934C257.222 658.934 257.222 658.736 257.085 658.736H257.07Z" fill="#263238"/>
<path d="M228.774 643.789C222.245 643.607 214.635 645.814 210.495 651.11C210.327 651.308 210.632 651.537 210.83 651.445C216.781 648.477 222.428 646.286 228.881 644.596C229.338 644.474 229.246 643.805 228.774 643.789Z" fill="#263238"/>
<path d="M233.784 645.829C227.255 645.647 219.644 647.854 215.505 653.15C215.352 653.348 215.642 653.576 215.839 653.485C221.791 650.517 227.437 648.325 233.891 646.636C234.347 646.514 234.256 645.844 233.784 645.829Z" fill="#263238"/>
<path d="M238.805 647.853C232.275 647.671 224.665 649.878 220.525 655.174C220.358 655.372 220.662 655.6 220.86 655.509C226.811 652.541 232.458 650.349 238.911 648.66C239.368 648.538 239.277 647.868 238.805 647.853Z" fill="#263238"/>
<path d="M243.828 649.893C237.299 649.71 229.688 651.917 225.548 657.214C225.381 657.412 225.685 657.64 225.883 657.549C231.834 654.581 237.481 652.389 243.935 650.699C244.391 650.578 244.3 649.908 243.828 649.893Z" fill="#263238"/>
<path d="M255.732 301.179C255.732 301.179 254.378 329.246 247.955 351.483C247.437 353.324 246.889 355.135 246.281 356.871C246.281 356.871 239.599 359.291 229.371 365.561C229.371 365.561 228.701 388.148 228.016 413.323C227.27 441.48 226.494 472.88 226.646 479.546C227.24 504.462 223.526 641.491 223.526 641.491L154.319 641.765C154.319 641.765 166.83 488.739 166.739 479.607C166.602 464.935 170.088 400.081 172.782 352.792C174.425 323.645 175.78 301.195 175.78 301.195H255.717L255.732 301.179Z" fill="#263238"/>
<path d="M221.167 629.162C210.589 628.98 213.633 628.889 203.055 628.828C197.88 628.797 163.877 628.645 159.053 629.467C158.946 629.482 158.946 629.665 159.053 629.68C163.893 630.456 197.88 630.015 203.055 629.954C213.633 629.802 210.589 629.741 221.167 629.467C221.365 629.467 221.365 629.162 221.167 629.162Z" fill="#37474F"/>
<path d="M181.608 311.21C180.329 349.824 178.99 388.438 177.255 427.021C175.52 465.742 173.191 504.462 169.949 543.092C168.138 564.674 166.433 595.039 164.104 616.56C164.089 616.712 164.302 616.758 164.333 616.606C169.371 578.311 172.186 530.946 174.652 492.408C177.133 453.87 178.807 415.271 180.116 376.673C180.862 354.847 181.425 333.005 182.08 311.18C182.08 310.875 181.608 310.89 181.592 311.21H181.608Z" fill="#37474F"/>
<path d="M249.156 355.182C242.261 357.921 235.671 361.65 229.37 365.547C229.126 365.699 229.309 366.079 229.583 365.958C236.265 362.716 243.068 359.595 249.567 355.988C250.069 355.699 249.689 354.984 249.156 355.197V355.182Z" fill="#37474F"/>
<path d="M249.537 331.377C249.08 333.843 248.487 336.278 247.954 338.713C247.452 341.011 247.086 343.34 246.477 345.608C245.884 347.8 244.955 349.824 243.266 351.392C242.368 352.229 241.379 352.975 240.42 353.736C239.902 354.147 239.339 354.542 238.806 354.968C238.882 354.649 238.928 354.314 238.989 353.979C239.156 353.051 239.309 352.107 239.461 351.179C239.811 349.109 240.146 347.039 240.45 344.953C241.074 340.874 241.653 336.75 242.505 332.701C242.535 332.534 242.292 332.473 242.246 332.64C241.226 336.643 240.1 340.6 239.217 344.649C238.776 346.628 237.239 356.414 237.163 357.099C237.086 357.815 237.026 358.53 237.01 359.245C236.98 359.961 236.843 360.752 237.01 361.437C237.056 361.62 237.269 361.589 237.345 361.468C237.695 360.844 237.787 360.037 237.969 359.337C238.152 358.637 238.304 357.936 238.426 357.221C238.472 356.962 238.502 356.704 238.548 356.445C239.507 355.866 240.405 355.09 241.303 354.436C242.277 353.736 243.266 353.051 244.179 352.274C245.929 350.798 247.041 348.987 247.695 346.78C248.38 344.497 248.578 342.107 248.852 339.748C249.156 336.963 249.384 334.177 249.78 331.407C249.795 331.24 249.552 331.179 249.521 331.347L249.537 331.377Z" fill="#37474F"/>
<path d="M232.76 227.575C244.997 265.032 259.608 300.358 272.546 303.205C274.783 303.692 287.522 303.905 292.652 296.051C301.282 282.809 311.966 255.306 315.086 241.882C316.471 235.931 277.112 223.07 274.813 229.188C271.602 237.757 270.46 244.682 269.532 244.408C267.979 243.967 260.704 232.202 246.899 216.555C227.935 195.049 228.711 215.14 232.775 227.56L232.76 227.575Z" fill="#AD6359"/>
<path d="M323.671 226.692C321.22 234.972 309.592 249.964 305.391 252.49C301.191 255.032 275.072 236.098 274.905 231.06C274.753 226.038 285.148 198.778 292.393 193.74C299.623 188.702 326.213 218.108 323.671 226.677V226.692Z" fill="#AD6359"/>
<path d="M275.864 226.114C275.864 226.114 274.966 214.912 270.917 205.886C267.523 198.291 261.602 187.393 265.621 185.415C273.87 181.351 288.588 208.519 288.588 208.519C288.588 208.519 293.154 221.548 285.346 226.312C280.445 229.295 275.864 226.129 275.864 226.129V226.114Z" fill="#AD6359"/>
<path d="M300.395 222.917L311.719 219.127L300.745 186.328L286.423 191.122L300.395 222.917Z" fill="#FFC727"/>
<path d="M286.423 191.122L291.75 203.253L300.395 222.917L311.719 219.127L300.76 186.328L286.423 191.122Z" fill="#FFC727"/>
<path opacity="0.1" d="M286.423 191.122L291.75 203.253L304.946 198.839L300.76 186.328L286.423 191.122Z" fill="black"/>
<path d="M286.693 196.397L304.534 190.431L300.002 176.877L282.16 182.843L286.693 196.397Z" fill="#FFC727"/>
<path d="M268.572 181.899L282.895 178.657L275.558 156.724L262.18 162.751L268.572 181.899Z" fill="#FFC727"/>
<path d="M281.234 150.011L292.056 182.354L316.226 177.362L376.925 179.173L350.944 101.474L303.547 139.448L281.234 150.011Z" fill="#FFC727"/>
<path d="M378.253 178.953C385.181 176.637 384.951 157.277 377.74 135.713C370.529 114.148 359.067 98.5451 352.139 100.862C345.212 103.178 345.441 122.538 352.653 144.102C359.864 165.666 371.326 181.27 378.253 178.953Z" fill="#FFC727"/>
<path opacity="0.2" d="M355.343 142.462C361.75 161.609 371.537 175.581 377.214 173.679C382.891 171.776 382.298 154.73 375.905 135.582C369.497 116.435 359.711 102.463 354.034 104.366C348.356 106.268 348.95 123.315 355.343 142.462Z" fill="black"/>
<path d="M357.018 141.899C357.87 144.441 358.783 146.907 359.742 149.236C361.447 149.875 363.365 149.951 365.206 149.342C369.483 147.912 371.797 143.285 370.366 138.992L369.133 135.324C367.702 131.032 363.06 128.734 358.783 130.165C356.957 130.773 355.496 131.976 354.521 133.467C355.206 136.207 356.044 139.023 357.002 141.899H357.018Z" fill="#FFC727"/>
<path d="M280.124 188.337L307.81 182.066L293.624 139.662L267.734 151.306L280.124 188.337Z" fill="#FFC727"/>
<path opacity="0.2" d="M280.124 188.337L307.81 182.066L293.624 139.662L267.734 151.306L280.124 188.337Z" fill="black"/>
<path opacity="0.2" d="M349.088 108.018C347.901 110.88 347.657 114.03 347.551 117.105C347.52 120.195 347.733 123.284 348.19 126.344C348.373 127.881 348.707 129.388 348.966 130.91C349.316 132.417 349.636 133.923 350.016 135.415C350.427 136.907 350.793 138.398 351.249 139.875C351.721 141.351 352.147 142.827 352.634 144.288C354.643 150.118 356.987 155.871 360.016 161.259C361.553 163.938 363.243 166.541 365.222 168.915C367.246 171.228 369.483 173.496 372.299 174.79C369.575 173.314 367.444 171.031 365.556 168.641C363.654 166.236 362.056 163.618 360.61 160.924C357.718 155.521 355.389 149.829 353.456 143.999C351.478 138.2 349.819 132.264 348.829 126.222C348.281 123.208 348.007 120.149 347.946 117.09C347.901 114.046 348.053 110.925 349.042 108.003L349.088 108.018Z" fill="black"/>
<path d="M377.169 96.741C375.708 98.2934 374.323 99.922 372.953 101.566C371.583 103.194 370.259 104.869 368.95 106.543C367.656 108.232 366.347 109.922 365.114 111.657L363.257 114.26C362.664 115.142 362.055 116.025 361.477 116.923C362.222 116.147 362.907 115.34 363.623 114.549L365.693 112.113C367.062 110.485 368.387 108.811 369.696 107.136C370.989 105.447 372.283 103.758 373.531 102.022C374.779 100.287 376.012 98.5522 377.154 96.7562L377.169 96.741Z" fill="#263238"/>
<path d="M374.613 160.164C377.003 160.423 379.408 160.575 381.812 160.697C384.217 160.849 386.607 160.91 389.012 160.986C391.417 161.032 393.821 161.078 396.211 161.047L399.818 161.002C401.021 160.956 402.223 160.925 403.425 160.849C402.223 160.712 401.021 160.636 399.833 160.53L396.241 160.317C393.837 160.18 391.447 160.104 389.042 160.043C386.637 159.997 384.233 159.951 381.843 159.982C379.438 159.997 377.033 160.043 374.628 160.18L374.613 160.164Z" fill="#263238"/>
<path d="M417.154 145.339C413.623 145.583 410.107 145.933 406.591 146.298C403.075 146.648 399.574 147.09 396.074 147.516C392.573 147.972 389.072 148.429 385.572 148.962L380.336 149.768C378.601 150.073 376.85 150.332 375.115 150.666C376.881 150.56 378.631 150.377 380.397 150.24L385.663 149.708C389.179 149.358 392.68 148.916 396.18 148.49C399.681 148.033 403.182 147.577 406.682 147.044C410.183 146.527 413.668 145.994 417.139 145.339H417.154Z" fill="#263238"/>
<path d="M396.772 94.5341C394.078 96.8933 391.445 99.3285 388.842 101.779C386.224 104.214 383.652 106.71 381.08 109.206C378.523 111.718 375.981 114.229 373.485 116.801L369.74 120.652C368.523 121.961 367.275 123.255 366.072 124.579C367.427 123.407 368.736 122.189 370.075 120.987L374.002 117.319C376.62 114.884 379.192 112.388 381.764 109.876C384.321 107.365 386.863 104.853 389.359 102.281C391.871 99.7242 394.352 97.152 396.772 94.5037V94.5341Z" fill="#263238"/>
<path d="M371.69 137.41C375.663 136.253 379.605 134.975 383.532 133.696C387.459 132.417 391.37 131.063 395.297 129.739C399.194 128.354 403.105 126.999 406.986 125.584L412.801 123.422C414.734 122.676 416.667 121.946 418.584 121.17C416.59 121.748 414.627 122.372 412.648 122.981L406.743 124.883C402.816 126.162 398.904 127.517 394.978 128.841C391.081 130.226 387.17 131.58 383.288 133.011C379.407 134.442 375.526 135.873 371.69 137.41Z" fill="#263238"/>
<path d="M282.818 203.724C283.974 208.154 288.525 204.242 288.525 204.242C288.525 204.242 283.32 211.441 286.288 215.535C289.149 219.477 294.492 214.576 294.872 214.226C294.598 214.607 290.002 221.35 293.396 225.155C296.927 229.112 301.447 223.267 301.736 222.887C301.599 223.328 299.803 229.203 303.045 231.517C308.616 235.489 313.624 220.573 318.677 218.321C318.677 218.321 323.486 226.464 323.669 226.661C323.669 226.661 328.707 212.567 325.282 205.916C323.471 202.415 319.849 203.405 319.849 203.405C319.849 203.405 321.98 199.037 319.392 195.962C318.068 194.379 314.354 195.094 314.354 195.094C314.354 195.094 315.907 191.533 313.441 188.93C311.477 186.845 308.053 187.895 308.053 187.895C308.053 187.895 307.962 183.786 305.268 182.294C299.834 179.296 280.337 194.212 282.802 203.694L282.818 203.724Z" fill="#AD6359"/>
<path d="M307.49 188.002C307.49 188.002 307.506 187.85 307.43 187.88C299.819 191.213 292.483 197.225 288.252 204.424C288.115 204.668 288.435 204.988 288.632 204.759C294.416 198.154 300.078 192.766 307.475 187.987L307.49 188.002Z" fill="#263238"/>
<path d="M314.417 195.019C314.493 194.973 314.417 194.836 314.326 194.882C306.503 198.367 298.421 205.353 294.524 214.242C294.387 214.546 294.57 214.957 294.753 214.622C297.797 208.915 307.72 199.295 314.417 195.034V195.019Z" fill="#263238"/>
<path d="M301.677 223.633C305.741 215.261 312.088 209.021 319.515 203.557C319.607 203.481 319.515 203.359 319.409 203.39C315.04 205.064 310.672 209.052 307.522 212.43C304.508 215.672 302.438 219.203 301.373 223.48C301.327 223.648 301.586 223.8 301.662 223.617L301.677 223.633Z" fill="#263238"/>
<path d="M288.376 204.272C288.208 204.562 288.802 204.486 288.65 204.775C287.995 205.992 284.631 213.663 286.899 215.612C288.711 217.179 292.059 215.825 293.155 214.79L295.879 212.217L294.22 215.581C293.49 217.058 292.927 218.701 292.729 220.33C292.516 221.943 292.729 223.602 293.718 224.713C294.723 225.885 296.184 226.296 297.554 225.642C298.939 225.048 300.187 223.8 301.13 222.506L303.763 218.93L302.454 223.161C302.104 224.302 301.861 225.581 301.815 226.783C301.77 227.986 301.937 229.219 302.515 230.147C303.094 231.045 304.159 231.639 305.164 231.502C306.229 231.365 307.279 230.604 308.208 229.782C310.08 228.077 311.602 225.961 313.23 223.937C314.037 222.917 314.844 221.882 315.696 220.893C316.564 219.934 317.462 218.899 318.679 218.366C317.538 219.021 316.777 220.102 315.985 221.121C315.209 222.156 314.494 223.237 313.763 224.318C312.317 226.479 310.826 228.64 308.954 230.558C307.995 231.471 306.914 232.43 305.362 232.734C303.779 233.039 302.196 232.156 301.374 230.893C300.537 229.599 300.369 228.123 300.385 226.753C300.43 225.368 300.643 224.044 301.039 222.704L302.363 223.344C301.267 224.866 299.989 226.22 298.162 227.088C297.264 227.499 296.138 227.666 295.103 227.377C294.053 227.088 293.216 226.464 292.561 225.703C291.207 224.105 291.039 221.958 291.298 220.162C291.572 218.321 292.181 216.616 293.018 214.972L294.083 215.764C292.668 217.012 289.076 218.945 285.956 216.875C282.303 213.572 287.341 205.673 288.36 204.288L288.376 204.272Z" fill="#263238"/>
<path d="M288.526 204.257C287.643 204.729 286.745 205.094 285.893 205.247C285.041 205.399 284.295 205.155 283.838 204.623C283.366 204.09 283.184 203.192 283.077 202.279C283.001 201.365 282.986 200.391 282.986 199.387C282.499 200.269 282.164 201.244 282.073 202.279C281.981 203.298 282.073 204.47 282.864 205.46C283.29 205.916 283.838 206.251 284.432 206.373C285.041 206.479 285.634 206.403 286.152 206.205C287.187 205.825 287.963 205.094 288.526 204.257Z" fill="#263238"/>
<path d="M319.791 253.906L274.952 227.681C274.952 227.681 269.898 243.191 269.32 243.206C268.742 243.206 257.326 224.987 242.745 211.502C227.723 197.621 227.555 213.283 231.102 226.86C234.983 241.699 255.987 297.375 268.635 303.418C279.35 308.532 291.131 300.952 294.418 296.675C298.939 290.8 319.791 253.906 319.791 253.906Z" fill="#FFC727"/>
<path d="M312.636 258.67C311.191 257.574 297.142 249.645 294.052 247.986C290.963 246.327 287.873 244.683 284.768 243.024C281.572 241.319 278.391 239.432 275.073 237.986C274.92 237.925 274.814 238.108 274.951 238.199C277.949 240.238 281.237 241.897 284.387 243.693C287.492 245.459 290.597 247.225 293.718 248.975C296.838 250.725 310.901 258.259 312.56 258.883C312.697 258.929 312.743 258.731 312.652 258.67H312.636Z" fill="#263238"/>
<path d="M269.411 243.298C268.65 245.824 268.056 248.397 267.493 250.969C266.93 253.541 266.458 256.144 266.032 258.731C265.636 261.334 265.271 263.952 265.058 266.585C264.829 269.218 264.677 271.851 264.753 274.5C264.951 273.191 265.088 271.882 265.301 270.588C265.469 269.279 265.666 267.985 265.864 266.691L267.082 258.914L268.284 251.121L268.878 247.225C269.045 245.916 269.258 244.622 269.411 243.313V243.298Z" fill="#263238"/>
<path opacity="0.1" d="M282.591 304.133C278.284 305.457 273.368 305.671 268.65 303.418C255.986 297.375 234.982 241.7 231.101 226.86C228.346 216.312 227.844 204.516 234.784 206.267C244.16 225.307 268.345 274.91 282.591 304.133Z" fill="black"/>
<path d="M171.136 337.054C171.379 337.328 269.003 335.167 269.962 334.087C271.301 332.564 251.865 230.999 239.43 209.523C235.64 202.963 219.643 196.312 210.602 209.234C194.499 232.217 170.268 336.065 171.136 337.054Z" fill="#FFC727"/>
<path d="M230.633 228.914L234.103 222.004L239.75 227.438L238.152 232.445L232.885 232.856L230.633 228.914Z" fill="#263238"/>
<path d="M232.886 232.856L228.837 291.226L239.035 310.099L247.588 290.907L238.152 232.445L232.886 232.856Z" fill="#263238"/>
<path d="M202.792 214.942C183.295 236.965 149.978 295.807 157.709 305.092C175.243 326.141 207.937 346.095 221.148 351.574C226.856 353.934 252.258 313.356 247.083 309.277C240.858 304.376 199.961 283.296 199.961 281.211C199.961 278.928 210.92 250.496 215.897 227.696C222.076 199.386 210.935 205.764 202.792 214.957V214.942Z" fill="#AD6359"/>
<path d="M225.926 305.274C225.926 305.274 244.023 301.911 255.971 300.282C262.638 299.369 274.19 298.821 279.395 300.389C287.173 302.732 318.222 317.496 314.798 325.106C311.708 331.986 286.64 315.913 286.64 315.913C286.64 315.913 313.352 329.901 308.116 337.496C302.865 345.091 276.975 323.173 276.975 323.173C276.975 323.173 304.113 338.15 297.447 345.136C292.424 350.418 267.843 331.879 267.843 331.879C267.843 331.879 291.069 344.923 286.138 350.57C280.689 356.81 256.93 341.133 256.93 341.133C241.968 353.386 229.99 353.995 221.208 351.864C219.168 351.361 225.926 305.289 225.926 305.289V305.274Z" fill="#AD6359"/>
<path d="M278.954 311.18C299.426 319.977 306.762 330.555 306.518 330.327C300.567 324.619 289.746 317.983 286.686 316.172C283.642 314.361 281.922 313.113 278.878 311.301C278.802 311.256 278.878 311.149 278.954 311.195V311.18Z" fill="#263238"/>
<path d="M270.977 321.377C280.931 324.909 290.961 332.123 294.02 335.152C294.264 335.395 294.112 335.441 293.807 335.258C289.987 332.854 274.827 323.691 270.916 321.484C270.855 321.454 270.916 321.377 270.977 321.393V321.377Z" fill="#263238"/>
<path d="M263.52 329.688C272.196 333.523 275.681 336.111 281.054 340.875C281.313 341.103 281.054 341.164 280.765 340.966C275.012 337.13 270.522 334.086 263.429 329.901C263.323 329.84 263.399 329.627 263.536 329.688H263.52Z" fill="#263238"/>
<path d="M235.243 300.358L205.395 346.826C205.395 346.826 155.564 312.078 155.275 300.16C154.864 283.372 192.336 224.805 203.173 213.496C213.751 202.461 220.707 204.09 217.83 220.33C215.213 235.109 202.153 279.446 202.214 280.1C202.29 280.739 235.243 300.358 235.243 300.358Z" fill="#FFC727"/>
<path d="M197.725 337.679C202.336 330.997 220.205 302.946 223.66 296.614C223.904 296.173 223.675 295.914 223.371 296.34C209.064 316.051 201.651 330.692 197.466 337.481C197.359 337.648 197.603 337.846 197.725 337.679Z" fill="#263238"/>
<path d="M215.014 232.81C215.075 232.613 215.425 232.673 215.379 232.887C214.983 234.896 214.283 237.879 213.416 241.364C213.507 241.166 213.598 240.984 213.69 240.786C214.344 239.355 214.923 237.894 215.425 236.402C215.47 236.25 215.714 236.326 215.668 236.479C215.181 238.001 214.664 239.507 214.085 240.999C213.705 241.988 213.294 242.993 212.776 243.937C209.093 258.472 203.294 279.278 203.37 279.796C203.492 280.663 230.112 296.447 235.531 300.023C235.729 300.16 234.679 301.53 234.557 301.743C234.465 301.911 234.252 301.835 234.268 301.652C234.268 301.652 234.45 301.058 234.755 300.465C229.595 297.649 202.366 281.287 201.909 280.404C201.346 279.339 213.142 238.99 215.06 232.795L215.014 232.81Z" fill="#263238"/>
<path d="M173.812 322.626C175.395 323.585 190.007 335.532 191.574 336.628C191.696 336.72 191.574 336.887 191.437 336.826C185.273 333.676 175.136 324.939 173.721 322.732C173.675 322.671 173.736 322.58 173.812 322.626Z" fill="#263238"/>
<path d="M233.476 221.396C228.088 221.928 219.108 211.928 216.429 204.988C216.247 204.516 217.556 199.92 218.88 194.273C219.671 190.833 220.463 186.998 220.934 183.436L242.532 191.838C242.532 191.838 239.351 199.006 238.56 205.216C238.499 205.734 238.484 206.221 238.514 206.693C238.514 206.754 238.514 206.845 238.514 206.936C238.59 209.767 238.697 220.878 233.491 221.411L233.476 221.396Z" fill="#AD6359"/>
<path d="M236.184 206.738C237.006 206.875 237.782 206.921 238.482 206.921C238.482 206.814 238.482 206.738 238.482 206.677C238.452 206.221 238.452 205.718 238.513 205.201C239.304 198.991 242.485 191.822 242.485 191.822L221.588 183.695C221.831 188.885 223.643 204.79 236.169 206.738H236.184Z" fill="#263238"/>
<path d="M216.371 160.667C214.012 168.673 218.41 191.686 224.133 196.785C232.428 204.167 245.914 204.76 252.154 194.822C258.212 185.172 251.926 155.279 245.548 150.667C236.142 143.864 219.872 148.856 216.371 160.682V160.667Z" fill="#AD6359"/>
<path d="M235.837 175.188C235.837 175.188 235.73 175.279 235.745 175.34C236.08 176.877 236.217 178.703 234.908 179.48C234.863 179.51 234.893 179.586 234.939 179.571C236.613 179.008 236.415 176.588 235.837 175.188Z" fill="#263238"/>
<path d="M234.148 173.833C231.621 174.107 232.352 179.145 234.696 178.901C237.009 178.642 236.264 173.604 234.148 173.833Z" fill="#263238"/>
<path d="M245.274 173.833C245.274 173.833 245.411 173.894 245.411 173.955C245.593 175.522 246.065 177.288 247.541 177.608C247.587 177.608 247.602 177.699 247.541 177.699C245.776 177.699 245.182 175.355 245.258 173.848L245.274 173.833Z" fill="#263238"/>
<path d="M246.431 171.991C248.911 171.428 249.855 176.436 247.542 176.953C245.274 177.471 244.345 172.448 246.431 171.991Z" fill="#263238"/>
<path d="M231.82 171.824C232.474 171.55 233.052 171.185 233.676 170.85C234.377 170.469 234.985 170.241 235.381 169.495C235.594 169.1 235.381 168.476 235.016 168.232C234.164 167.669 233.174 167.928 232.307 168.354C231.363 168.81 230.754 169.404 230.313 170.363C229.887 171.291 230.952 172.189 231.82 171.824Z" fill="#263238"/>
<path d="M248.015 169.175C247.3 169.175 246.645 169.038 245.93 168.947C245.139 168.856 244.484 168.856 243.86 168.308C243.525 168.019 243.48 167.349 243.738 166.999C244.332 166.162 245.337 166.04 246.295 166.116C247.346 166.192 248.122 166.527 248.883 167.258C249.613 167.958 248.959 169.191 248.015 169.175Z" fill="#263238"/>
<path d="M236.446 189.631C236.872 189.936 237.314 190.392 237.892 190.362C238.44 190.331 239.049 189.997 239.521 189.723C239.566 189.692 239.627 189.738 239.597 189.799C239.277 190.453 238.486 190.956 237.74 190.94C237.009 190.925 236.583 190.362 236.309 189.738C236.279 189.647 236.385 189.601 236.446 189.647V189.631Z" fill="#263238"/>
<path d="M237.406 184.716C238.487 185.948 239.872 186.496 241.303 186.557C241.942 186.588 242.596 186.512 243.236 186.359C243.357 186.344 243.479 186.299 243.601 186.268C243.707 186.238 243.814 186.207 243.936 186.162C244.118 186.116 244.195 185.948 244.195 185.766C244.195 185.766 244.179 185.644 244.149 185.598L244.134 185.446C243.997 184.244 243.601 182.433 243.601 182.433C244.073 182.585 246.462 183.27 246.341 182.646C245.275 177.486 244.073 171.748 241.911 166.847C241.851 166.68 241.592 166.756 241.638 166.923C242.475 171.915 244.179 176.74 245.093 181.748C244.332 181.58 243.099 181.245 242.475 181.352C242.307 181.428 243.281 184.837 243.297 185.385C243.297 185.385 243.297 185.401 243.297 185.446C241.318 185.994 239.705 185.614 237.543 184.548C237.406 184.472 237.3 184.594 237.421 184.716H237.406Z" fill="#263238"/>
<path d="M242.427 185.857C242.427 185.857 241.575 187.455 240.19 188.186C239.688 188.46 239.109 188.612 238.485 188.551C237.192 188.399 236.994 187.272 237.07 186.253C237.131 185.415 237.405 184.67 237.405 184.67C237.405 184.67 239.475 186.116 242.427 185.857Z" fill="#263238"/>
<path d="M240.19 188.186C239.688 188.46 239.109 188.612 238.485 188.551C237.192 188.399 236.994 187.272 237.07 186.253C238.424 186.192 239.886 186.907 240.19 188.186Z" fill="#FF98B9"/>
<path d="M218.592 180.53C218.592 180.53 211.073 167.41 211.986 159.952C212.397 156.588 217.054 154.411 217.054 154.411C217.054 154.411 215.776 150.272 219.657 146.786C223.736 143.118 233.401 144.199 233.401 144.199C233.401 144.199 239.885 135.279 248.682 139.1C257.464 142.905 251.437 152.829 251.437 152.829C251.437 152.829 254.588 157.532 246.536 160.941C238.713 164.274 222.96 160.423 222.96 160.423C222.96 160.423 224.041 168.566 222.321 176.816C221.681 179.875 218.592 180.514 218.592 180.514V180.53Z" fill="#263238"/>
<path d="M234.922 144.366C232.989 143.468 230.843 143.118 228.712 143.072C226.825 143.026 224.877 143.224 223.065 143.818C219.854 144.883 216.947 147.166 216.323 150.667C216.003 152.417 216.414 154.152 217.449 155.614C217.495 155.674 217.586 155.598 217.54 155.537C215.547 152.95 216.719 149.023 218.895 146.953C221.346 144.609 225.044 143.787 228.347 143.726C230.554 143.681 232.73 144.092 234.876 144.579C234.998 144.609 235.059 144.442 234.937 144.396L234.922 144.366Z" fill="#263238"/>
<path d="M254.922 143.544C254.237 141.048 252.152 139.389 249.778 138.567C247.069 137.623 244.07 137.73 241.376 138.658C238.636 139.617 236.262 141.383 234.375 143.59C234.329 143.635 234.42 143.711 234.466 143.666C237.906 139.8 243.172 137.684 248.301 138.902C250.6 139.45 252.883 140.698 253.887 142.92C254.816 144.975 254.542 147.547 253.522 149.51C252.259 151.946 250.006 153.742 247.677 155.096C247.616 155.127 247.677 155.218 247.723 155.188C249.976 154.046 252.091 152.585 253.522 150.469C254.877 148.475 255.546 145.934 254.907 143.559L254.922 143.544Z" fill="#263238"/>
<path d="M248.453 161.428C244.907 162.858 241.041 163.254 237.251 163.087C233.278 162.904 229.382 162.219 225.547 161.199C223.324 160.606 221.117 159.921 218.91 159.205C218.834 159.175 218.804 159.281 218.88 159.312C222.731 160.986 226.673 162.478 230.813 163.315C234.664 164.091 238.545 164.228 242.411 163.482C244.511 163.087 246.551 162.402 248.499 161.504C248.544 161.473 248.499 161.412 248.453 161.428Z" fill="#263238"/>
<path d="M221.47 179.403C221.47 179.403 216.051 172.097 212.718 174.06C209.385 176.009 213.616 186.709 217.634 188.078C221.652 189.448 222.976 185.75 222.976 185.75L221.47 179.418V179.403Z" fill="#AD6359"/>
<path d="M213.997 177.089C213.997 177.089 213.921 177.18 213.982 177.195C216.797 178.246 218.335 180.787 219.446 183.436C218.593 182.431 217.452 181.898 216.097 182.918C216.021 182.979 216.097 183.086 216.173 183.07C217.3 182.796 218.137 182.964 218.928 183.862C219.491 184.486 219.887 185.293 220.298 186.038C220.435 186.282 220.876 186.145 220.785 185.856C220.785 185.841 220.77 185.81 220.755 185.795C220.724 182.249 217.817 177.348 213.997 177.104V177.089Z" fill="#263238"/>
<path d="M238.559 205.566L233.43 218.93L216.657 202.37L212.061 207.834C212.061 207.834 228.62 234.302 228.712 233.085L234.008 221.548L242.029 229.401L241.086 209.402L238.559 205.551V205.566Z" fill="#FFC727"/>
<path d="M242.121 219.493C241.847 216.19 241.68 212.872 241.254 209.585C241.254 209.463 241.056 209.417 241.025 209.554C240.416 212.75 241.497 225.353 241.543 228.382L241.512 228.351C241.177 228.016 234.07 221.456 234.009 221.563C232.852 223.405 228.956 231.806 228.697 232.567C226.079 228.366 214.983 211.807 211.893 207.834C211.802 207.728 211.635 207.819 211.696 207.956C214.024 212.4 228.362 234.257 228.56 234.196C228.697 234.302 233.537 223.953 234.1 222.004C235.302 223.435 242.486 230.847 242.502 230.36C242.608 227.042 242.395 222.796 242.121 219.508V219.493Z" fill="#263238"/>
<path d="M132.976 132.188C132.976 149.021 146.628 162.659 163.447 162.659C170.25 162.659 176.521 160.421 181.605 156.647L196.536 160.452L190.326 146.556C192.639 142.264 193.933 137.363 193.933 132.173C193.933 115.339 180.28 101.701 163.462 101.701C146.643 101.701 132.991 115.354 132.991 132.173L132.976 132.188Z" fill="white"/>
<path d="M132.976 132.188C133.067 137.789 134.574 143.405 137.603 148.124C138.288 149.357 139.217 150.407 140.038 151.533C140.997 152.553 141.88 153.649 142.961 154.531C144.985 156.449 147.375 157.986 149.856 159.219C152.336 160.513 155.046 161.259 157.755 161.822C159.125 162.02 160.495 162.263 161.895 162.248C163.28 162.34 164.665 162.309 166.05 162.172C171.575 161.655 176.902 159.539 181.286 156.206L181.483 156.054L181.742 156.114L196.704 159.798L195.928 160.711L189.657 146.83L189.505 146.51L189.672 146.191C191.772 142.218 192.975 137.774 193.173 133.269C193.279 128.779 192.564 124.213 190.692 120.103C188.85 115.978 186.11 112.28 182.701 109.297C179.292 106.329 175.137 104.198 170.753 103.041C166.354 101.884 161.682 101.717 157.192 102.615C152.717 103.528 148.44 105.476 144.787 108.262C137.436 113.832 133.007 122.949 132.961 132.173L132.976 132.188ZM132.976 132.188C132.946 122.965 137.299 113.756 144.65 108.094C148.273 105.218 152.55 103.148 157.085 102.113C161.636 101.108 166.415 101.169 170.951 102.25C175.487 103.346 179.824 105.446 183.432 108.444C187.054 111.443 189.976 115.278 191.909 119.57C195.791 128.155 195.577 138.596 190.95 146.891L190.981 146.252L197.145 160.178L197.708 161.457L196.369 161.107L181.468 157.18L181.925 157.088C177.313 160.452 171.758 162.492 166.096 162.903C164.68 163.009 163.265 163.009 161.849 162.903C160.434 162.872 159.033 162.598 157.633 162.37C154.878 161.731 152.154 160.924 149.673 159.554C147.177 158.245 144.833 156.647 142.793 154.699C141.713 153.786 140.83 152.675 139.886 151.655C139.064 150.513 138.151 149.433 137.466 148.2C134.468 143.421 133.022 137.789 132.961 132.188H132.976Z" fill="#263238"/>
<path d="M170.33 123.985C170.33 127.775 167.255 130.849 163.466 130.849C159.676 130.849 156.586 127.775 156.586 123.985C156.586 120.195 159.66 117.12 163.466 117.12C167.271 117.12 170.33 120.195 170.33 123.985Z" fill="#455A64"/>
<path d="M175.321 142.919V145.43H151.547V142.919C151.547 136.389 156.874 131.062 163.449 131.062C170.024 131.062 175.306 136.389 175.306 142.919H175.321Z" fill="#455A64"/>
<path d="M486.27 492.514H393.396L396.303 433.794H451.035L486.27 492.514ZM401.401 484.904H472.83L446.728 441.404H403.547L401.401 484.904Z" fill="#FFC727"/>
<path opacity="0.5" d="M486.27 492.514H393.396L396.303 433.794H451.035L486.27 492.514ZM401.401 484.904H472.83L446.728 441.404H403.547L401.401 484.904Z" fill="black"/>
<path d="M481.202 492.514H388.327L391.234 433.794H445.967L481.202 492.514ZM396.333 484.904H467.762L441.659 441.404H398.479L396.333 484.904Z" fill="#FFC727"/>
<path opacity="0.3" d="M481.202 492.514H388.327L391.234 433.794H445.967L481.202 492.514ZM396.333 484.904H467.762L441.659 441.404H398.479L396.333 484.904Z" fill="black"/>
<path d="M368.053 503.001H380.762V493.975H368.053V503.001Z" fill="#A6A6A6"/>
<path d="M362.91 583.973H385.893V503.016H362.91V583.973Z" fill="#C7C7C7"/>
<path d="M385.894 552.574H396V548.312H385.894V552.574Z" fill="#A6A6A6"/>
<path d="M395.999 554.826H416.547V546.059H395.999V554.826Z" fill="#C7C7C7"/>
<path d="M359.956 610.7H389.575V583.988H359.956V610.7Z" fill="#C7C7C7"/>
<path d="M371.401 672.236H377.581L381.036 595.678H367.946L371.401 672.236Z" fill="#A6A6A6"/>
<path d="M455.464 658.979L460.959 654.778L389.575 591.705V610.7L455.464 658.979Z" fill="#A6A6A6"/>
<path d="M294.069 658.979L288.574 654.778L359.958 591.705V610.7L294.069 658.979Z" fill="#A6A6A6"/>
<path d="M362.91 583.973H385.893V576.972H362.91V583.973Z" fill="#A6A6A6"/>
<path d="M455.707 686.376C463.996 686.376 470.715 679.657 470.715 671.368C470.715 663.08 463.996 656.361 455.707 656.361C447.419 656.361 440.7 663.08 440.7 671.368C440.7 679.657 447.419 686.376 455.707 686.376Z" fill="#263238"/>
<path d="M448.661 671.368C448.661 675.265 451.812 678.415 455.708 678.415C459.605 678.415 462.755 675.265 462.755 671.368C462.755 667.472 459.605 664.321 455.708 664.321C451.812 664.321 448.661 667.472 448.661 671.368Z" fill="white"/>
<path d="M293.747 686.375C302.036 686.375 308.755 679.656 308.755 671.368C308.755 663.08 302.036 656.361 293.747 656.361C285.459 656.361 278.74 663.08 278.74 671.368C278.74 679.656 285.459 686.375 293.747 686.375Z" fill="#263238"/>
<path d="M286.701 671.368C286.701 675.264 289.852 678.415 293.748 678.415C297.645 678.415 300.795 675.264 300.795 671.368C300.795 667.472 297.645 664.321 293.748 664.321C289.852 664.321 286.701 667.472 286.701 671.368Z" fill="white"/>
<path d="M369.955 692.19H379.376V667.502H369.955V692.19Z" fill="#263238"/>
<path d="M280.033 493.99H487.38V478.222H409.756L383.684 320.357H287.948L280.033 493.99Z" fill="#FFC727"/>
<path opacity="0.1" d="M409.755 478.222H294.172L301.067 320.357H383.668L409.755 478.222Z" fill="black"/>
<path opacity="0.3" d="M487.378 478.222H366.59V493.99H487.378V478.222Z" fill="white"/>
<path d="M375.283 492.514H282.408L285.315 433.794H340.048L375.283 492.514ZM290.414 484.904H361.843L335.74 441.404H292.56L290.414 484.904Z" fill="#FFC727"/>
<path opacity="0.5" d="M375.283 492.514H282.408L285.315 433.794H340.048L375.283 492.514ZM290.414 484.904H361.843L335.74 441.404H292.56L290.414 484.904Z" fill="black"/>
<path d="M370.214 492.514H277.34L280.247 433.794H334.979L370.214 492.514ZM285.346 484.904H356.775L330.672 441.404H287.492L285.346 484.904Z" fill="#FFC727"/>
<path opacity="0.3" d="M370.214 492.514H277.34L280.247 433.794H334.979L370.214 492.514ZM285.346 484.904H356.775L330.672 441.404H287.492L285.346 484.904Z" fill="black"/>
<path d="M400.528 360.963L274.51 385.094L282.865 428.729L408.883 404.599L400.528 360.963Z" fill="#455A64"/>
<path d="M301.742 410.613C301.742 410.613 301.636 410.552 301.544 410.522C301.544 410.492 301.514 410.507 301.499 410.446C301.438 410.4 301.377 410.37 301.346 410.324C301.346 410.324 301.316 410.324 301.316 410.309C301.286 410.263 301.21 410.172 301.149 410.141L292.366 396.93C291.94 396.321 292.108 395.454 292.762 395.043C293.371 394.617 294.223 394.784 294.65 395.423L301.636 405.895L304.254 393.582C304.421 392.836 305.167 392.364 305.882 392.532C306.628 392.669 307.1 393.414 306.948 394.145L303.614 409.685C303.614 409.685 303.599 409.837 303.553 409.898C303.553 409.898 303.548 409.908 303.538 409.928C303.538 409.928 303.462 410.05 303.447 410.096C303.447 410.096 303.437 410.126 303.416 410.187C303.416 410.187 303.325 410.278 303.295 410.339L303.249 410.37C303.249 410.37 303.142 410.492 303.082 410.537C303.082 410.537 303.066 410.547 303.036 410.568C303.036 410.568 302.914 410.613 302.853 410.659C302.853 410.659 302.823 410.659 302.808 410.659C302.716 410.705 302.64 410.72 302.564 410.735C302.488 410.735 302.397 410.766 302.321 410.75C302.321 410.75 302.29 410.75 302.275 410.75C302.214 410.75 302.123 410.735 302.062 410.75C302.062 410.72 302.031 410.735 302.031 410.735H302.001C302.001 410.735 301.834 410.674 301.757 410.629H301.727L301.742 410.613Z" fill="white"/>
<path d="M319.322 403.292L313.34 404.434L312.747 407.858C312.625 408.437 312.168 408.863 311.636 408.97C311.468 409 311.316 409 311.149 408.985C310.387 408.848 309.885 408.132 309.992 407.371L312.655 391.831C312.777 391.253 313.249 390.796 313.797 390.72C314.36 390.583 314.938 390.827 315.273 391.329L323.492 404.784C323.873 405.454 323.675 406.306 323.02 406.717C322.914 406.793 322.746 406.854 322.564 406.884C322.016 406.991 321.437 406.763 321.148 406.26L319.322 403.292ZM317.8 400.781L314.786 395.865L313.812 401.542L317.8 400.781Z" fill="white"/>
<path d="M323.767 397.463C322.854 392.592 326.187 387.844 331.103 386.87C333.265 386.459 335.38 386.793 337.161 387.707C337.846 388.087 338.105 388.924 337.785 389.624C337.404 390.34 336.522 390.614 335.867 390.279C334.619 389.594 333.173 389.396 331.651 389.685C329.946 390.005 328.516 390.994 327.557 392.303C326.659 393.643 326.263 395.256 326.583 396.93C326.902 398.604 327.892 400.005 329.201 400.872C330.571 401.74 332.275 402.12 333.965 401.801C335.487 401.512 336.735 400.781 337.663 399.685C338.15 399.152 339.079 399.076 339.687 399.579C340.251 400.111 340.327 401.009 339.824 401.588C338.5 403.094 336.674 404.175 334.513 404.601C329.596 405.545 324.741 402.364 323.782 397.478L323.767 397.463Z" fill="white"/>
<path d="M352.836 396.885L346.854 398.026L346.26 401.451C346.139 402.029 345.682 402.455 345.149 402.562C344.982 402.592 344.83 402.592 344.662 402.577C343.901 402.44 343.399 401.725 343.505 400.964L346.169 385.424C346.291 384.845 346.763 384.389 347.311 384.313C347.874 384.176 348.452 384.419 348.787 384.921L357.006 398.376C357.386 399.046 357.189 399.898 356.534 400.309C356.428 400.385 356.26 400.446 356.077 400.477C355.53 400.583 354.951 400.355 354.662 399.853L352.836 396.885ZM351.313 394.373L348.3 389.457L347.326 395.134L351.313 394.373Z" fill="white"/>
<path d="M363.171 397.706C363.308 398.452 362.821 399.183 362.106 399.32C361.345 399.472 360.629 398.97 360.493 398.224L357.753 383.932V383.902C357.646 383.491 357.753 383.004 358.072 382.669C358.605 382.136 359.473 382.09 360.005 382.608L370.066 392.09L368.118 381.953C367.981 381.238 368.453 380.507 369.199 380.371C369.929 380.234 370.675 380.721 370.812 381.436L373.552 395.728C373.689 396.474 373.201 397.204 372.456 397.341C372.06 397.417 371.649 397.295 371.345 397.037C371.284 396.991 371.223 396.961 371.192 396.915L361.223 387.494L363.171 397.706Z" fill="white"/>
<path d="M387.219 379.472L383.308 380.218L385.819 393.353C385.971 394.114 385.484 394.815 384.723 394.967C383.977 395.104 383.262 394.632 383.11 393.871L380.599 380.736L376.717 381.482C375.956 381.634 375.241 381.101 375.104 380.355C374.952 379.594 375.439 378.894 376.2 378.742L386.702 376.733C387.448 376.596 388.163 377.068 388.315 377.829C388.452 378.574 387.965 379.32 387.219 379.472Z" fill="white"/>
<path d="M400.525 360.965C393.417 358.027 386.37 354.938 379.399 351.696C372.413 348.499 365.503 345.151 358.593 341.802C351.713 338.393 344.834 334.968 338.03 331.407C331.211 327.876 324.454 324.192 317.787 320.357C324.895 323.294 331.942 326.384 338.913 329.626C345.899 332.822 352.809 336.171 359.719 339.535C366.599 342.944 373.478 346.368 380.282 349.945C387.101 353.476 393.858 357.16 400.525 360.98V360.965Z" fill="#263238"/>
<path d="M286.159 359.595C284.652 364.085 282.811 368.392 280.893 372.639C278.93 376.885 276.89 381.086 274.516 385.089C276.022 380.599 277.864 376.292 279.782 372.045C281.745 367.799 283.785 363.613 286.159 359.595Z" fill="#263238"/>
<path d="M577.095 376.855C577.095 376.855 545.924 372.487 553.214 334.878C553.214 334.878 588.039 342.701 577.095 376.855Z" fill="#FFC727"/>
<path opacity="0.1" d="M577.095 376.855C577.095 376.855 545.924 372.487 553.214 334.878C553.214 334.878 588.039 342.701 577.095 376.855Z" fill="black"/>
<path d="M575.527 369.001C574.918 367.099 574.203 365.227 573.411 363.4C573.381 363.157 573.35 362.913 573.335 362.685C573.289 362.168 573.244 361.65 573.213 361.133C573.122 360.006 573.061 358.88 572.985 357.769C572.848 355.516 572.711 353.279 572.681 351.026C572.681 350.905 572.498 350.905 572.498 351.026C572.483 353.279 572.437 355.532 572.528 357.784C572.574 358.91 572.635 360.037 572.711 361.148C572.726 361.391 572.742 361.65 572.772 361.894C571.037 358.149 568.921 354.557 566.516 351.209C565.451 349.717 564.325 348.271 563.107 346.886C561.859 345.471 560.55 344.116 559.302 342.701C559.226 342.609 559.089 342.746 559.165 342.838C561.463 345.227 563.351 348.058 565.177 350.828C566.121 352.259 567.019 353.736 567.871 355.227C567.78 355.197 567.673 355.151 567.582 355.121C567.217 354.968 566.851 354.816 566.471 354.679C565.618 354.36 564.781 354.025 563.929 353.72C562.255 353.096 560.58 352.487 558.921 351.848C558.815 351.818 558.754 351.985 558.845 352.031C560.504 352.685 562.148 353.385 563.777 354.101C564.583 354.451 565.39 354.786 566.197 355.136C566.592 355.303 567.003 355.471 567.414 355.638C567.688 355.745 567.962 355.882 568.236 355.927C568.86 357.054 569.484 358.195 570.063 359.337C571.509 362.244 572.787 365.257 573.868 368.317C573.944 368.53 574.02 368.743 574.096 368.956C573.32 368.438 572.346 368.103 571.539 367.723C570.474 367.221 569.393 366.749 568.312 366.247C566.121 365.242 563.959 364.222 561.859 363.035C561.752 362.974 561.661 363.142 561.768 363.203C563.914 364.375 566.014 365.623 568.145 366.779C569.21 367.358 570.291 367.921 571.387 368.454C572.285 368.895 573.305 369.504 574.309 369.626C575.283 372.502 576.105 375.409 576.349 378.469C576.699 382.73 576.653 387.007 576.76 391.269C576.76 391.345 576.866 391.345 576.866 391.269C577.171 387.403 577.353 383.491 577.368 379.61C577.384 375.927 576.653 372.487 575.527 368.986V369.001Z" fill="#263238"/>
<path d="M570.717 346.871C570.473 349.063 570.26 351.301 570.412 353.507C570.412 353.568 570.504 353.568 570.504 353.507C570.626 351.301 570.656 349.109 570.899 346.917C570.899 346.795 570.732 346.75 570.717 346.871Z" fill="#263238"/>
<path d="M561.814 348.759C560.429 348.18 559.059 347.617 557.811 346.795C557.704 346.734 557.613 346.902 557.719 346.963C558.983 347.754 560.322 348.515 561.768 348.895C561.844 348.911 561.89 348.789 561.814 348.759Z" fill="#263238"/>
<path d="M578.085 436.58C578.055 433.14 577.994 429.685 577.948 426.246C577.888 414.815 577.796 403.369 577.583 391.939C577.416 382.852 577.203 373.781 576.944 364.71C576.944 364.664 576.913 364.618 576.868 364.588C576.868 362.107 576.837 359.626 576.822 357.145C576.822 357.084 576.746 357.054 576.67 357.054C576.594 357.054 576.518 357.084 576.518 357.145C576.502 359.626 576.487 362.107 576.472 364.603C576.442 364.634 576.396 364.664 576.396 364.71C575.939 380.874 575.528 397.023 575.437 413.187C575.422 416.474 575.422 419.762 575.407 423.049C575.3 433.582 575.254 444.129 575.285 454.662C575.285 456.336 575.254 458.01 575.254 459.7C575.224 469.334 575.361 478.984 575.361 488.618C575.361 489.136 575.939 489.395 576.548 489.425C577.248 489.456 577.994 489.182 577.994 488.588C577.994 477.964 578.07 467.325 578.07 456.701C578.101 450.004 578.131 443.292 578.07 436.595L578.085 436.58Z" fill="#263238"/>
<path d="M565.071 426.109C565.071 426.109 550.079 414.998 535.863 422.502C521.632 430.005 519.41 458.939 519.41 458.939C519.41 458.939 540.308 461.922 553.458 449.411C566.137 437.341 565.086 426.109 565.086 426.109H565.071Z" fill="#FFC727"/>
<path d="M569.167 426.793C566.458 425.652 563.429 425.378 560.476 425.667C559.883 425.53 559.243 425.53 558.635 425.484C557.934 425.439 557.219 425.378 556.519 425.332C555.058 425.226 553.612 425.134 552.151 425.028C549.198 424.799 546.23 424.632 543.277 424.328C543.171 424.328 543.156 424.495 543.262 424.51C546.184 424.891 549.091 425.302 552.014 425.591C553.521 425.743 555.027 425.895 556.534 426.002C556.884 426.032 557.25 426.063 557.63 426.108C557.189 426.215 556.732 426.321 556.306 426.443C553.962 427.113 551.694 428.057 549.518 429.198C548.33 429.411 547.158 429.746 546.002 430.02C544.145 430.461 542.303 430.933 540.462 431.42C536.824 432.379 533.217 433.445 529.609 434.495C529.488 434.525 529.549 434.708 529.67 434.677C533.278 433.795 536.915 432.988 540.522 432.12C542.273 431.709 544.038 431.283 545.789 430.857C546.245 430.751 546.702 430.644 547.174 430.538C543.14 433.018 539.503 436.215 536.519 439.807C533.536 443.383 531.162 447.31 529.122 451.481C529.077 451.587 529.214 451.694 529.29 451.587C531.71 447.341 534.754 443.338 538.255 439.822C538.194 440.02 538.118 440.218 538.057 440.415C537.783 441.298 537.509 442.181 537.22 443.064C536.672 444.829 536.109 446.595 535.576 448.36C535.545 448.482 535.713 448.513 535.758 448.406C536.382 446.701 536.991 444.982 537.6 443.246C537.889 442.409 538.194 441.557 538.483 440.72C538.635 440.279 538.787 439.837 538.939 439.411C538.985 439.274 539.031 439.137 539.092 439.015C540.781 437.387 542.547 435.865 544.404 434.48C546.869 432.668 549.548 431.131 552.364 429.913C552.318 430.172 552.273 430.431 552.212 430.674C552.059 431.359 551.907 432.044 551.77 432.729C551.481 434.145 551.207 435.575 550.918 436.991C550.355 439.898 550.005 442.836 549.457 445.727C549.442 445.849 549.609 445.895 549.639 445.773C550.309 442.851 551.177 439.989 551.831 437.067C552.151 435.606 552.486 434.145 552.79 432.684C552.927 431.999 553.064 431.314 553.201 430.629C553.277 430.248 553.368 429.868 553.414 429.487C553.688 429.381 553.947 429.259 554.221 429.152C558.148 427.691 562.501 426.641 566.686 427.448C570.689 428.224 574.129 430.903 575.712 434.677C575.849 434.997 576.366 434.799 576.29 434.464C575.468 430.857 572.47 428.194 569.167 426.809V426.793Z" fill="#263238"/>
<path d="M546.214 439.152C545.788 441.055 545.362 442.957 544.951 444.844C544.555 446.656 544.053 448.528 543.9 450.385C543.9 450.461 544.007 450.461 544.022 450.385C544.631 448.604 544.935 446.656 545.301 444.799C545.666 442.927 546.031 441.055 546.397 439.167C546.427 439.046 546.244 439 546.214 439.122V439.152Z" fill="#263238"/>
<path d="M531.723 443.977C529.821 444.951 527.964 446.047 525.97 446.839C525.848 446.884 525.924 447.067 526.046 447.006C527.964 446.047 529.958 445.195 531.769 444.038C531.814 444.008 531.769 443.947 531.723 443.962V443.977Z" fill="#263238"/>
<path d="M568.452 405.713C568.452 405.713 550.126 406.885 541.603 394.8C533.079 382.715 534.997 365.471 534.997 365.471C534.997 365.471 554.236 367.815 561.876 376.49C569.517 385.166 568.436 405.728 568.436 405.728L568.452 405.713Z" fill="#FFC727"/>
<path d="M577.051 423.795C576.411 421.832 575.635 419.899 574.889 417.966C574.174 416.109 573.413 414.282 572.606 412.471C570.962 408.773 569.151 405.181 567.112 401.68C565.818 399.458 564.433 397.296 563.002 395.166C562.972 394.846 562.911 394.511 562.865 394.191C562.774 393.628 562.698 393.05 562.607 392.487C562.424 391.33 562.226 390.173 562.028 389.017C561.602 386.49 561.084 383.979 560.689 381.437C560.674 381.315 560.476 381.315 560.506 381.437C560.871 383.933 561.13 386.444 561.48 388.956C561.648 390.188 561.815 391.421 561.998 392.639C562.059 393.08 562.135 393.522 562.211 393.963C559.41 389.884 556.397 385.957 553.155 382.213C552.713 381.711 552.272 381.208 551.815 380.721C551.77 380.584 551.694 380.447 551.648 380.295C551.511 379.945 551.374 379.595 551.252 379.245C550.978 378.514 550.719 377.784 550.461 377.053C549.943 375.623 549.487 374.177 549.091 372.7C549.06 372.579 548.878 372.639 548.908 372.761C549.273 374.268 549.669 375.76 550.111 377.251C550.324 377.967 550.552 378.682 550.811 379.382C550.856 379.504 550.902 379.61 550.948 379.732C548.604 377.175 546.169 374.725 543.703 372.289C543.611 372.198 543.49 372.335 543.566 372.426C548.36 377.327 552.592 382.746 556.549 388.332C556.107 388.195 555.636 388.073 555.194 387.982C553.779 387.708 552.363 387.51 550.932 387.327C547.949 386.947 544.966 386.566 541.998 386.094C541.876 386.079 541.831 386.262 541.952 386.277C544.799 386.84 547.599 387.479 550.43 388.119C551.754 388.423 553.094 388.682 554.433 388.956C555.544 389.169 556.579 389.519 557.645 389.869C557.934 390.295 558.253 390.706 558.543 391.132C559.882 393.096 561.176 395.089 562.439 397.099C561.815 396.977 561.191 396.855 560.567 396.733C559.151 396.459 557.736 396.201 556.305 395.972C553.505 395.516 550.719 395.029 547.949 394.405C547.828 394.374 547.782 394.557 547.904 394.587C550.704 395.242 553.474 396.018 556.26 396.748C557.599 397.099 558.954 397.433 560.308 397.738C560.993 397.89 561.663 398.042 562.348 398.179C562.637 398.24 562.911 398.316 563.17 398.316C565.848 402.654 568.36 407.098 570.689 411.634C571.708 413.628 572.698 415.637 573.641 417.661C574.615 419.746 575.452 421.862 576.366 423.978C576.548 424.404 577.218 424.221 577.066 423.765L577.051 423.795Z" fill="#263238"/>
<path d="M558.301 381.696C557.951 379.945 557.586 378.21 557.19 376.46C557.16 376.338 556.977 376.399 557.007 376.521C557.357 378.241 557.692 379.961 557.997 381.681C558.301 383.385 558.56 385.136 559.032 386.81C559.032 386.84 559.093 386.84 559.093 386.81C559.001 385.09 558.636 383.385 558.301 381.696Z" fill="#263238"/>
<path d="M547.616 381.178C546.764 380.752 545.866 380.417 544.983 380.067C544.526 379.885 544.055 379.702 543.598 379.519C543.354 379.428 543.126 379.337 542.883 379.23C542.639 379.124 542.319 379.047 542.106 378.895C541.969 378.789 541.878 379.032 542.015 379.063C542.289 379.108 542.548 379.276 542.791 379.382C543.02 379.489 543.248 379.595 543.491 379.687C543.933 379.885 544.389 380.082 544.831 380.28C545.714 380.676 546.612 381.056 547.54 381.346C547.647 381.376 547.707 381.209 547.616 381.163V381.178Z" fill="#263238"/>
<path d="M587.201 391.315C587.201 391.315 598.297 370.6 615.161 367.404C632.025 364.192 642.344 381.558 642.344 381.558C642.344 381.558 630.046 397.266 614.567 400.005C599.088 402.745 587.201 391.315 587.201 391.315Z" fill="#FFC727"/>
<path d="M626.454 376.673C622.086 376.079 617.611 376.14 613.228 376.825C613.486 376.688 613.73 376.551 613.973 376.414C615.222 375.775 616.47 375.135 617.718 374.481C620.305 373.126 622.923 371.696 625.632 370.615C625.754 370.569 625.678 370.387 625.556 370.448C622.923 371.68 620.183 372.7 617.535 373.918C616.211 374.527 614.902 375.166 613.623 375.851C612.786 376.292 611.873 376.703 611.051 377.236C607.353 377.997 603.73 379.169 600.336 380.797C601.036 380.036 601.752 379.275 602.452 378.499C604.019 376.779 605.572 374.968 607.292 373.4C607.383 373.324 607.246 373.187 607.155 373.263C605.389 374.862 603.532 376.353 601.812 378.012C600.975 378.819 600.184 379.656 599.408 380.523C599.027 380.95 598.631 381.391 598.266 381.863C590.93 385.851 584.69 391.863 580.58 399.138C578.236 403.278 576.607 407.737 575.664 412.395C575.633 412.517 575.801 412.577 575.846 412.456C578.16 404.632 582.528 397.296 588.251 391.467C594.446 385.15 602.269 380.6 610.853 378.393C615.937 377.084 621.203 376.627 626.454 376.977C626.667 376.977 626.682 376.673 626.469 376.642L626.454 376.673Z" fill="#263238"/>
<path opacity="0.1" d="M642.343 381.543C642.343 381.543 630.029 397.25 614.55 399.99C602.739 402.09 593.029 395.926 589.087 392.897L588.234 391.497C588.234 391.497 596.225 384.77 611.324 380.889C626.422 377.007 642.343 381.543 642.343 381.543Z" fill="black"/>
<path d="M616.666 369.291C615.388 370.067 614.109 370.843 612.922 371.757C611.75 372.655 610.654 373.629 609.665 374.74C609.573 374.831 609.71 374.968 609.817 374.877C610.943 373.903 612.054 372.929 613.226 372.015C614.368 371.117 615.525 370.219 616.773 369.458C616.879 369.397 616.773 369.23 616.666 369.291Z" fill="#263238"/>
<path d="M625.923 372.807C625.299 373.066 624.659 373.294 624.035 373.553C623.411 373.811 622.787 374.07 622.163 374.329C622.026 374.39 622.087 374.603 622.224 374.542C622.848 374.283 623.472 374.04 624.111 373.781C624.735 373.522 625.359 373.233 625.983 372.989C626.09 372.944 626.044 372.761 625.923 372.807Z" fill="#263238"/>
<path d="M584.98 417.372C584.98 417.372 587.948 437.919 603.397 445.103C618.846 452.287 637.673 445.103 637.673 445.103C637.673 445.103 630.261 400.66 584.98 417.372Z" fill="#FFC727"/>
<path d="M627.034 431.74C625.603 431.572 624.188 431.329 622.788 431.07C622.087 430.948 621.402 430.811 620.718 430.674C620.367 430.598 620.002 430.522 619.637 430.461C619.226 430.081 618.815 429.685 618.389 429.305C615.467 426.732 612.286 424.449 608.937 422.455C607.111 421.375 605.223 420.401 603.275 419.548C603.366 419.548 603.473 419.548 603.564 419.548C605.254 419.624 606.958 419.685 608.648 419.777C612.042 419.929 615.436 420.005 618.815 420.233C618.937 420.233 618.937 420.051 618.815 420.051C615.421 419.822 612.027 419.442 608.633 419.153C606.989 419.016 605.345 418.863 603.686 418.711C602.834 418.635 601.997 418.559 601.144 418.483C600.931 418.468 600.703 418.437 600.49 418.407C599.607 418.072 598.724 417.768 597.826 417.494C593.595 416.185 589.074 415.667 584.737 416.778C580.855 417.768 576.974 420.325 575.97 424.419C575.939 424.556 576.152 424.662 576.213 424.51C577.659 421.086 581.464 419.366 584.889 418.65C587.202 418.179 589.562 418.194 591.89 418.513C591.982 419.564 592.377 420.644 592.666 421.618C593.093 423.064 593.519 424.51 593.96 425.956C594.843 428.848 595.802 431.694 596.654 434.586C596.685 434.708 596.867 434.647 596.837 434.525C596.121 431.648 595.513 428.726 594.813 425.85C594.478 424.434 594.112 423.019 593.762 421.603C593.534 420.69 593.351 419.624 592.986 418.681C594.341 418.924 595.68 419.244 596.989 419.624C599.363 420.325 601.707 421.192 603.99 422.197C604.219 423.658 604.538 425.119 604.873 426.55C605.299 428.361 605.771 430.157 606.334 431.938C606.365 432.044 606.532 431.999 606.502 431.892C606.487 431.786 606.456 431.664 606.426 431.557C606.076 429.883 605.71 428.209 605.36 426.519C605.071 425.165 604.812 423.81 604.523 422.455C606.441 423.323 608.328 424.267 610.155 425.302C610.185 425.713 610.292 426.154 610.353 426.534C610.459 427.235 610.596 427.935 610.718 428.635C611.007 430.218 611.327 431.801 611.707 433.368C612.438 436.382 613.26 439.396 614.355 442.303C614.34 442.333 614.325 442.379 614.355 442.424C614.386 442.455 614.416 442.485 614.447 442.531C614.508 442.607 614.629 442.531 614.599 442.44C613.884 439.396 613.062 436.382 612.392 433.323C612.057 431.801 611.722 430.279 611.418 428.741C611.266 427.98 611.129 427.204 610.977 426.443C610.931 426.23 610.9 425.987 610.87 425.758C612.955 426.991 614.98 428.33 616.882 429.776C620.185 432.257 623.335 435.104 626.09 438.178C626.197 438.3 626.425 438.132 626.319 437.995C625.147 436.443 623.975 434.936 622.635 433.505C621.859 432.668 621.052 431.862 620.23 431.085C620.322 431.085 620.398 431.116 620.489 431.131C621.22 431.253 621.935 431.359 622.666 431.451C624.096 431.649 625.527 431.786 626.958 431.938C627.08 431.938 627.125 431.77 627.004 431.755L627.034 431.74Z" fill="#263238"/>
<path d="M616.183 438.711C616.152 438.528 616.122 438.361 616.091 438.178C616.046 437.95 615.939 437.737 615.909 437.509C615.589 436.139 615.315 434.754 615.072 433.369C615.057 433.277 614.904 433.308 614.904 433.399C614.965 435.241 615.422 437.052 616.076 438.757C616.092 438.817 616.198 438.802 616.183 438.741V438.711Z" fill="#263238"/>
<path d="M603.245 438.376C603.245 438.376 603.199 438.284 603.153 438.284C602.727 436.458 602.301 434.647 601.92 432.805C601.723 431.846 601.525 430.887 601.342 429.913C601.236 429.396 601.144 428.878 601.053 428.346C600.977 427.889 600.931 427.417 600.718 427.006C600.688 426.93 600.551 426.961 600.551 427.037C600.429 427.904 600.779 428.939 600.931 429.792C601.114 430.796 601.312 431.801 601.54 432.79C601.981 434.814 602.499 436.839 603.062 438.832C603.092 438.939 603.275 438.924 603.26 438.802C603.26 438.65 603.245 438.498 603.229 438.361L603.245 438.376Z" fill="#263238"/>
<path d="M625.633 425.834C622.817 425.454 619.986 425.043 617.17 424.693C617.048 424.693 617.003 424.86 617.124 424.876C619.94 425.286 622.771 425.637 625.587 426.017C625.709 426.032 625.754 425.85 625.633 425.834Z" fill="#263238"/>
<path d="M577.061 369.2C577.061 369.2 567.609 327.724 612.174 310.952C612.174 310.952 624.518 365.547 577.061 369.2Z" fill="#FFC727"/>
<path d="M586.679 345.669C586.846 345.563 587.014 345.456 587.151 345.38C587.988 344.923 588.825 344.436 589.662 343.98L594.837 341.088C598.231 339.185 601.595 337.207 605.02 335.35C605.126 335.289 605.02 335.137 604.913 335.182C601.488 337.054 597.988 338.79 594.548 340.616L589.434 343.31C588.734 343.675 588.049 344.041 587.349 344.406C588.84 341.59 590.423 338.82 592.174 336.156C594.502 332.61 597.059 329.216 599.708 325.913C599.829 325.761 599.632 325.563 599.495 325.7C595.568 329.46 592.158 333.767 589.19 338.333C589.19 338.181 589.19 338.044 589.19 337.907C589.236 336.872 589.267 335.837 589.282 334.817C589.312 332.793 589.221 330.768 589.282 328.744C589.282 328.622 589.099 328.622 589.099 328.744C589.023 330.738 588.779 332.717 588.658 334.711C588.597 335.7 588.551 336.704 588.536 337.694C588.521 338.226 588.475 338.85 588.49 339.429C587.577 340.89 586.694 342.366 585.857 343.873C584.366 346.552 583.041 349.352 581.869 352.229C581.824 351.194 581.763 350.159 581.702 349.139C581.565 346.872 581.291 344.604 581.2 342.336C581.2 342.214 581.002 342.214 581.017 342.336C581.063 344.604 580.956 346.887 581.017 349.155C581.048 350.296 581.093 351.422 581.169 352.564C581.2 352.975 581.215 353.401 581.245 353.827C579.83 357.556 578.688 361.377 577.882 365.227C577.014 369.382 576.664 373.538 576.223 377.754C576.223 377.784 576.268 377.784 576.268 377.754C576.664 374.009 577.608 370.22 578.627 366.582C579.175 364.618 579.754 362.67 580.393 360.752C582.25 359.885 584.016 358.789 585.812 357.8C587.668 356.765 589.54 355.76 591.397 354.74C595.111 352.701 598.825 350.631 602.66 348.82C602.767 348.774 602.66 348.607 602.554 348.652C598.673 350.418 594.746 352.092 590.941 353.995C589.038 354.954 587.166 355.973 585.324 357.008C583.772 357.876 582.189 358.759 580.713 359.748C581.139 358.454 581.595 357.176 582.082 355.897C583.437 352.412 584.959 348.987 586.664 345.654L586.679 345.669Z" fill="#263238"/>
<path d="M582.937 336.187C582.937 336.065 582.74 336.065 582.755 336.187C582.922 338.546 582.998 340.921 583.242 343.28C583.242 343.417 583.455 343.417 583.455 343.28C583.379 340.905 583.12 338.561 582.937 336.187Z" fill="#263238"/>
<path d="M604.289 344.117C601.504 345.243 598.688 346.308 595.918 347.465C595.842 347.496 595.872 347.617 595.964 347.587C598.78 346.537 601.565 345.38 604.365 344.284C604.472 344.238 604.426 344.056 604.305 344.102L604.289 344.117Z" fill="#263238"/>
<path d="M608.52 324.985C605.796 326.248 603.147 327.649 600.59 329.232C600.453 329.308 600.59 329.506 600.712 329.429C603.3 327.923 605.933 326.461 608.611 325.137C608.718 325.076 608.611 324.924 608.505 324.97L608.52 324.985Z" fill="#263238"/>
<path d="M607.856 458.877H543.596V526.608H607.856V458.877Z" fill="#455A64"/>
<path d="M542.467 482.849H539.18V598.874H542.467V482.849Z" fill="#263238"/>
<path d="M611.934 482.849H608.646V598.874H611.934V482.849Z" fill="#263238"/>
<path d="M578.952 482.849H575.664V598.874H578.952V482.849Z" fill="#263238"/>
<path d="M610.29 522.27H540.824V531.646H610.29V522.27Z" fill="#263238"/>
</g>
<defs>
<clipPath id="clip0_732_2241">
<rect width="650" height="706.254" fill="white" transform="translate(0.53125)"/>
</clipPath>
</defs>
</svg>
