<svg width="32" height="32" viewBox="0 0 32 32" fill="none" xmlns="http://www.w3.org/2000/svg">
<path d="M16 0L29.8564 8V24L16 32L2.14359 24V8L16 0Z" fill="#171F28"/>
<g clip-path="url(#clip0_402_6396)">
<path d="M16 9C14.6155 9 13.2622 9.41054 12.111 10.1797C10.9599 10.9489 10.0627 12.0421 9.53285 13.3212C9.00303 14.6003 8.86441 16.0078 9.13451 17.3656C9.4046 18.7235 10.0713 19.9708 11.0503 20.9497C12.0292 21.9287 13.2765 22.5954 14.6344 22.8655C15.9922 23.1356 17.3997 22.997 18.6788 22.4672C19.9579 21.9373 21.0511 21.0401 21.8203 19.889C22.5895 18.7378 23 17.3845 23 16C22.998 14.1441 22.2599 12.3648 20.9475 11.0525C19.6352 9.74015 17.8559 9.00201 16 9ZM21.0441 13.0833H19.1652C18.7446 12.1086 18.1908 11.1969 17.5196 10.3743C19.005 10.7785 20.2714 11.7519 21.0441 13.0833ZM18.625 16C18.6202 16.5939 18.5266 17.1838 18.3473 17.75H13.6527C13.4734 17.1838 13.3798 16.5939 13.375 16C13.3798 15.4061 13.4734 14.8162 13.6527 14.25H18.3473C18.5266 14.8162 18.6202 15.4061 18.625 16ZM14.1205 18.9167H17.8795C17.3844 19.8942 16.7514 20.7955 16 21.593C15.2483 20.7957 14.6153 19.8944 14.1205 18.9167ZM14.1205 13.0833C14.6156 12.1058 15.2486 11.2045 16 10.407C16.7517 11.2043 17.3847 12.1056 17.8795 13.0833H14.1205ZM14.4833 10.3743C13.8111 11.1967 13.2563 12.1084 12.8348 13.0833H10.9559C11.7293 11.7513 12.9968 10.7779 14.4833 10.3743ZM10.4356 14.25H12.4417C12.2904 14.8212 12.212 15.4092 12.2083 16C12.212 16.5908 12.2904 17.1788 12.4417 17.75H10.4356C10.077 16.6109 10.077 15.3891 10.4356 14.25ZM10.9559 18.9167H12.8348C13.2563 19.8916 13.8111 20.8033 14.4833 21.6257C12.9968 21.2221 11.7293 20.2487 10.9559 18.9167ZM17.5196 21.6257C18.1908 20.8031 18.7446 19.8914 19.1652 18.9167H21.0441C20.2714 20.2481 19.005 21.2215 17.5196 21.6257ZM21.5644 17.75H19.5583C19.7096 17.1788 19.788 16.5908 19.7917 16C19.788 15.4092 19.7096 14.8212 19.5583 14.25H21.5633C21.9218 15.3891 21.9218 16.6109 21.5633 17.75H21.5644Z" fill="white"/>
</g>
<defs>
<clipPath id="clip0_402_6396">
<rect width="14" height="14" fill="white" transform="translate(9 9)"/>
</clipPath>
</defs>
</svg>
