<svg width="650" height="650" viewBox="0 0 650 650" fill="none" xmlns="http://www.w3.org/2000/svg">
<g clip-path="url(#clip0_757_5237)">
<path d="M91.0798 262.08C91.0798 260.988 91.2227 258.089 91.2227 256.867C91.2227 251.576 89.3377 249.184 84.4108 249.041C82.0968 248.898 80.7188 247.52 80.7188 245.57C80.7188 243.62 82.0968 242.242 84.4108 242.086C89.3377 241.865 91.2227 239.551 91.2227 234.182C91.2227 232.947 91.0798 230.048 91.0798 228.969C91.0798 221.936 94.0567 217.451 105.276 214.981C107.525 214.474 109.267 215.852 109.267 217.958C109.267 219.7 108.11 220.636 107.239 220.935C100.206 223.106 99.1917 225.355 99.1917 230.282C99.1917 231.738 99.3347 234.117 99.3347 235.638C99.3347 241.293 96.5787 244.049 91.7948 245.57C96.6567 247.169 99.3347 249.847 99.3347 255.502C99.3347 257.023 99.1917 259.415 99.1917 260.858C99.1917 265.785 100.206 268.034 107.239 270.205C108.11 270.491 109.267 271.44 109.267 273.182C109.267 275.288 107.525 276.666 105.276 276.159C94.0437 273.689 91.0798 269.204 91.0798 262.106V262.08Z" fill="#EBEBEB"/>
<path d="M133.538 228.956C133.538 230.048 133.395 232.947 133.395 234.169C133.395 239.525 135.345 241.852 140.285 242.073C142.534 242.216 143.912 243.594 143.912 245.557C143.912 247.52 142.534 248.885 140.285 249.028C135.358 249.171 133.395 251.563 133.395 256.854C133.395 258.089 133.538 260.988 133.538 262.067C133.538 269.165 130.561 273.663 119.342 276.12C117.093 276.627 115.351 275.249 115.351 273.143C115.351 271.401 116.508 270.465 117.457 270.166C124.412 267.995 125.426 265.746 125.426 260.819C125.426 259.363 125.283 256.984 125.283 255.463C125.283 249.808 128.039 247.052 132.823 245.531C127.961 243.932 125.283 241.254 125.283 235.599C125.283 234.078 125.426 231.686 125.426 230.243C125.426 225.316 124.412 223.067 117.457 220.896C116.521 220.61 115.351 219.661 115.351 217.919C115.351 215.813 117.093 214.435 119.342 214.942C130.574 217.399 133.538 221.897 133.538 228.93V228.956Z" fill="#EBEBEB"/>
<path d="M273.105 167.713C274.795 169.468 274.795 172.094 273.105 173.784C272.221 174.59 271.22 174.993 270.141 174.993C268.997 174.993 267.918 174.59 267.034 173.784L248.08 154.557C247.872 154.492 247.807 154.349 247.742 154.154C247.677 154.089 247.534 154.024 247.534 154.024C247.404 153.816 247.404 153.686 247.326 153.491C247.196 153.426 247.118 153.283 247.118 153.218C247.053 153.088 247.053 152.88 246.988 152.815C246.988 152.607 246.858 152.542 246.858 152.477V152.009C246.858 151.879 246.793 151.801 246.793 151.606C246.793 151.541 246.858 151.333 246.858 151.268V150.8C246.858 150.67 246.988 150.592 246.988 150.527C247.053 150.319 247.053 150.189 247.118 149.994C247.118 149.929 247.183 149.929 247.183 149.864C247.313 149.656 247.391 149.396 247.521 149.253C247.521 149.253 247.521 149.123 247.651 149.123C247.716 148.993 247.859 148.785 248.054 148.655L267.008 129.428C268.698 127.816 271.454 127.816 273.079 129.428C274.769 131.118 274.769 133.809 273.079 135.499L257.089 151.619L273.079 167.739L273.105 167.713Z" fill="#EBEBEB"/>
<path d="M290.292 169.871L306.815 130.546C307.621 128.661 309.779 127.777 311.742 128.596C313.562 129.337 314.433 131.56 313.627 133.38L297.104 172.771C296.493 174.188 295.076 174.994 293.659 174.994C293.256 174.994 292.71 174.929 292.307 174.721C290.357 173.98 289.473 171.757 290.279 169.859L290.292 169.871Z" fill="#EBEBEB"/>
<path d="M346.282 154.024C346.282 154.024 346.282 154.089 346.217 154.089C346.087 154.219 345.944 154.427 345.749 154.557L326.795 173.784C325.989 174.59 324.845 174.993 323.766 174.993C322.622 174.993 321.608 174.59 320.724 173.784C319.034 172.094 319.034 169.468 320.724 167.713L336.714 151.593L320.724 135.473C319.034 133.783 319.034 131.092 320.724 129.402C322.336 127.79 325.105 127.79 326.795 129.402L345.749 148.629C345.957 148.759 346.087 148.967 346.217 149.097C346.282 149.097 346.282 149.227 346.282 149.227C346.412 149.5 346.555 149.63 346.62 149.838C346.62 149.903 346.685 149.903 346.685 149.968C346.75 150.176 346.75 150.306 346.893 150.579C346.893 150.644 346.958 150.644 346.958 150.787V151.255C346.958 151.32 347.023 151.528 347.023 151.593C347.023 151.658 346.958 151.866 346.958 151.931V152.464C346.958 152.529 346.893 152.529 346.893 152.594C346.763 152.867 346.763 153.062 346.685 153.205C346.685 153.27 346.62 153.27 346.62 153.413C346.555 153.543 346.412 153.751 346.282 154.024Z" fill="#EBEBEB"/>
<path d="M535.665 420.628L553.033 420.264L561.587 420.121C564.434 420.056 567.255 420.069 570.102 420.043L569.517 420.628L569.452 406.081L570.102 406.731L552.89 406.653C547.157 406.653 541.411 406.51 535.678 406.445L536.029 406.094C536.003 408.473 535.912 410.865 535.86 413.296L535.678 420.641L535.665 420.628ZM535.665 420.628L535.483 413.426C535.418 410.995 535.34 408.551 535.314 406.081V405.73H535.665C541.398 405.665 547.144 405.522 552.877 405.522L570.089 405.444H570.739V406.094L570.674 420.641V421.226H570.089C567.19 421.2 564.278 421.226 561.392 421.148L552.734 421.005L535.678 420.641L535.665 420.628Z" fill="#EBEBEB"/>
<path d="M554.867 438.971L572.235 438.607L580.789 438.464C583.636 438.399 586.457 438.412 589.304 438.386L588.719 438.971L588.654 424.424L589.304 425.074L572.092 424.996C566.359 424.996 560.613 424.853 554.88 424.788L555.231 424.437C555.205 426.816 555.114 429.208 555.062 431.639L554.88 438.984L554.867 438.971ZM554.867 438.971L554.685 431.769C554.62 429.338 554.542 426.894 554.516 424.424V424.073H554.867C560.6 424.008 566.346 423.865 572.079 423.865L589.291 423.787H589.941V424.437L589.876 438.984V439.569H589.291C586.392 439.543 583.48 439.569 580.594 439.491L571.936 439.348L554.88 438.984L554.867 438.971Z" fill="#EBEBEB"/>
<path d="M516.465 438.971L533.833 438.607L542.387 438.464C545.234 438.399 548.055 438.412 550.902 438.386L550.317 438.971L550.252 424.424L550.902 425.074L533.69 424.996C527.957 424.996 522.211 424.853 516.478 424.788L516.829 424.437C516.803 426.816 516.712 429.208 516.66 431.639L516.478 438.984L516.465 438.971ZM516.465 438.971L516.283 431.769C516.218 429.338 516.14 426.894 516.114 424.424V424.073H516.465C522.198 424.008 527.944 423.865 533.677 423.865L550.889 423.787H551.539V424.437L551.474 438.984V439.569H550.889C547.99 439.543 545.078 439.569 542.192 439.491L533.534 439.348L516.478 438.984L516.465 438.971Z" fill="#EBEBEB"/>
<path d="M72.7875 438.971L90.1555 438.607L98.7095 438.464C101.557 438.399 104.378 438.412 107.225 438.386L106.64 438.971L106.575 424.424L107.225 425.074L90.0125 424.996C84.2795 424.996 78.5335 424.853 72.8005 424.788L73.1515 424.437C73.1255 426.816 73.0345 429.208 72.9825 431.639L72.8005 438.984L72.7875 438.971ZM72.7875 438.971L72.6055 431.769C72.5405 429.338 72.4625 426.894 72.4365 424.424V424.073H72.7875C78.5205 424.008 84.2665 423.865 89.9995 423.865L107.212 423.787H107.862V424.437L107.797 438.984V439.569H107.212C104.313 439.543 101.401 439.569 98.5145 439.491L89.8565 439.348L72.8005 438.984L72.7875 438.971Z" fill="#EBEBEB"/>
<path d="M72.7875 112.372L90.1555 112.008L98.7095 111.865C101.557 111.8 104.378 111.813 107.225 111.787L106.64 112.372L106.575 97.825L107.225 98.475L90.0125 98.397C84.2795 98.397 78.5335 98.254 72.8005 98.189L73.1515 97.838C73.1255 100.217 73.0345 102.609 72.9825 105.04L72.8005 112.385L72.7875 112.372ZM72.7875 112.372L72.6055 105.17C72.5405 102.739 72.4625 100.282 72.4365 97.825V97.474H72.7875C78.5205 97.409 84.2665 97.266 89.9995 97.266L107.212 97.188H107.862V97.838L107.797 112.385V112.97H107.212C104.313 112.944 101.401 112.97 98.5145 112.892L89.8565 112.749L72.8005 112.385L72.7875 112.372Z" fill="#EBEBEB"/>
<path d="M53.5737 130.715L70.9417 130.351L79.4957 130.208C82.3427 130.143 85.1637 130.156 88.0107 130.13L87.4257 130.715L87.3607 116.168L88.0107 116.818L70.7987 116.74C65.0657 116.74 59.3197 116.597 53.5867 116.532L53.9377 116.181C53.9117 118.56 53.8207 120.952 53.7687 123.383L53.5867 130.728L53.5737 130.715ZM53.5737 130.715L53.3917 123.513C53.3267 121.082 53.2487 118.625 53.2227 116.168V115.817H53.5737C59.3067 115.752 65.0527 115.609 70.7857 115.609L87.9977 115.531H88.6477V116.181L88.5827 130.728V131.313H87.9977C85.0987 131.287 82.1867 131.313 79.3007 131.235L70.6427 131.092L53.5867 130.728L53.5737 130.715Z" fill="#EBEBEB"/>
<path d="M554.867 112.385L572.235 112.021L580.789 111.878C583.636 111.813 586.457 111.826 589.304 111.813L588.719 112.398L588.654 97.8512L589.304 98.5012L572.092 98.4232C566.359 98.4232 560.613 98.2802 554.88 98.2152L555.231 97.8642C555.205 100.243 555.114 102.635 555.062 105.066L554.88 112.411L554.867 112.385ZM554.867 112.385L554.685 105.183C554.62 102.752 554.542 100.308 554.516 97.8382V97.4872H554.867C560.6 97.4222 566.346 97.2792 572.079 97.2792L589.291 97.2012H589.941V97.8512L589.876 112.398V112.983H589.291C586.392 112.957 583.48 112.983 580.594 112.918L571.936 112.775L554.88 112.411L554.867 112.385Z" fill="#EBEBEB"/>
<path d="M368.511 209.963L351.143 210.327L342.589 210.47C339.742 210.535 336.921 210.522 334.074 210.548L334.659 209.963L334.724 224.51L334.074 223.86L351.286 223.938C357.019 223.938 362.766 224.081 368.499 224.146L368.147 224.497C368.173 222.118 368.264 219.726 368.317 217.295L368.499 209.95L368.511 209.963ZM368.511 209.963L368.693 217.165C368.758 219.596 368.836 222.053 368.862 224.51V224.861H368.511C362.778 224.926 357.032 225.069 351.299 225.069L334.087 225.147H333.438V224.497L333.502 209.95V209.365H334.087C336.986 209.391 339.898 209.365 342.784 209.443L351.442 209.586L368.499 209.95L368.511 209.963Z" fill="#EBEBEB"/>
<path d="M349.311 191.62L331.943 191.984L323.389 192.127C320.542 192.192 317.721 192.179 314.874 192.205L315.459 191.62L315.524 206.167L314.874 205.517L332.086 205.595C337.819 205.595 343.565 205.738 349.298 205.803L348.947 206.154C348.973 203.775 349.064 201.383 349.116 198.952L349.298 191.607L349.311 191.62ZM349.311 191.62L349.493 198.822C349.558 201.253 349.636 203.71 349.662 206.167V206.518H349.311C343.578 206.583 337.832 206.726 332.099 206.726L314.887 206.804H314.237V206.154L314.302 191.607V191.022H314.887C317.786 191.048 320.698 191.022 323.584 191.1L332.242 191.243L349.298 191.607L349.311 191.62Z" fill="#EBEBEB"/>
<path d="M547.016 231.699V37.7002" stroke="#C7C7C7" stroke-width="1.3" stroke-miterlimit="10"/>
<path d="M493.195 283.569L497.524 293.085H596.519L600.835 283.569L558.689 254.397H535.341L493.195 283.569Z" fill="#EBEBEB"/>
<path d="M532.416 226.291L535.341 254.397H558.689L561.614 226.291H532.416Z" fill="#DBDBDB"/>
<path d="M493.208 283.582L497.537 293.098H596.532L600.848 283.582H493.208Z" fill="#DBDBDB"/>
<path d="M422.722 161.993V37.7002" stroke="#C7C7C7" stroke-width="1.3" stroke-miterlimit="10"/>
<path d="M368.901 213.876L373.23 223.392H472.225L476.541 213.876L434.395 184.704H411.047L368.901 213.876Z" fill="#EBEBEB"/>
<path d="M408.122 156.598L411.047 184.704H434.395L437.32 156.598H408.122Z" fill="#DBDBDB"/>
<path d="M368.901 213.876L373.23 223.392H472.225L476.541 213.876H368.901Z" fill="#DBDBDB"/>
<path d="M105.884 566.891V403.52L71.1348 356.096V267.267" stroke="#EBEBEB" stroke-width="1.3" stroke-miterlimit="10"/>
<path d="M74.2163 264.225C74.2163 265.928 72.8383 267.319 71.1223 267.319C69.4063 267.319 68.0283 265.941 68.0283 264.225C68.0283 262.509 69.4063 261.131 71.1223 261.131C72.8383 261.131 74.2163 262.509 74.2163 264.225Z" stroke="#EBEBEB" stroke-width="1.3" stroke-miterlimit="10"/>
<path d="M96.9267 566.891V409.253L62.1777 361.829V299.754" stroke="#EBEBEB" stroke-width="1.3" stroke-miterlimit="10"/>
<path d="M65.272 296.725C65.272 298.428 63.894 299.819 62.178 299.819C60.462 299.819 59.084 298.441 59.084 296.725C59.084 295.009 60.462 293.631 62.178 293.631C63.894 293.631 65.272 295.009 65.272 296.725Z" stroke="#EBEBEB" stroke-width="1.3" stroke-miterlimit="10"/>
<path d="M114.504 566.891V350.558" stroke="#EBEBEB" stroke-width="1.3" stroke-miterlimit="10"/>
<path d="M117.598 347.464C117.598 349.167 116.22 350.558 114.504 350.558C112.788 350.558 111.41 349.18 111.41 347.464C111.41 345.748 112.788 344.37 114.504 344.37C116.22 344.37 117.598 345.748 117.598 347.464Z" stroke="#EBEBEB" stroke-width="1.3" stroke-miterlimit="10"/>
<path d="M122.81 566.891V456.937L146.392 412.438V332.67" stroke="#EBEBEB" stroke-width="1.3" stroke-miterlimit="10"/>
<path d="M149.486 329.576C149.486 331.279 148.108 332.67 146.392 332.67C144.676 332.67 143.298 331.292 143.298 329.576C143.298 327.86 144.676 326.482 146.392 326.482C148.108 326.482 149.486 327.86 149.486 329.576Z" stroke="#EBEBEB" stroke-width="1.3" stroke-miterlimit="10"/>
<path d="M131.065 566.891V461.695L158.872 412.503V359.957" stroke="#EBEBEB" stroke-width="1.3" stroke-miterlimit="10"/>
<path d="M161.953 356.876C161.953 358.579 160.575 359.97 158.872 359.97C157.169 359.97 155.791 358.592 155.791 356.876C155.791 355.16 157.169 353.782 158.872 353.782C160.575 353.782 161.953 355.16 161.953 356.876Z" stroke="#EBEBEB" stroke-width="1.3" stroke-miterlimit="10"/>
<path d="M536.989 566.892V481.521L571.738 434.097V384.268" stroke="#EBEBEB" stroke-width="1.3" stroke-miterlimit="10"/>
<path d="M568.657 381.225C568.657 382.928 570.035 384.319 571.738 384.319C573.441 384.319 574.819 382.941 574.819 381.225C574.819 379.509 573.441 378.131 571.738 378.131C570.035 378.131 568.657 379.509 568.657 381.225Z" stroke="#EBEBEB" stroke-width="1.3" stroke-miterlimit="10"/>
<path d="M545.934 566.891V487.253L580.696 439.829V416.754" stroke="#EBEBEB" stroke-width="1.3" stroke-miterlimit="10"/>
<path d="M577.602 413.725C577.602 415.428 578.98 416.819 580.696 416.819C582.412 416.819 583.777 415.441 583.777 413.725C583.777 412.009 582.399 410.631 580.696 410.631C578.993 410.631 577.602 412.009 577.602 413.725Z" stroke="#EBEBEB" stroke-width="1.3" stroke-miterlimit="10"/>
<path d="M528.371 566.892V428.559" stroke="#EBEBEB" stroke-width="1.3" stroke-miterlimit="10"/>
<path d="M525.277 425.465C525.277 427.168 526.655 428.559 528.371 428.559C530.087 428.559 531.465 427.181 531.465 425.465C531.465 423.749 530.087 422.371 528.371 422.371C526.655 422.371 525.277 423.749 525.277 425.465Z" stroke="#EBEBEB" stroke-width="1.3" stroke-miterlimit="10"/>
<path d="M520.064 566.891V495.937L496.469 451.438V371.67" stroke="#EBEBEB" stroke-width="1.3" stroke-miterlimit="10"/>
<path d="M493.388 368.576C493.388 370.279 494.766 371.67 496.482 371.67C498.198 371.67 499.576 370.292 499.576 368.576C499.576 366.86 498.198 365.482 496.482 365.482C494.766 365.482 493.388 366.86 493.388 368.576Z" stroke="#EBEBEB" stroke-width="1.3" stroke-miterlimit="10"/>
<path d="M511.809 566.891V500.695L484.002 451.503V398.957" stroke="#EBEBEB" stroke-width="1.3" stroke-miterlimit="10"/>
<path d="M480.908 395.876C480.908 397.579 482.286 398.97 483.989 398.97C485.692 398.97 487.07 397.592 487.07 395.876C487.07 394.16 485.692 392.782 483.989 392.782C482.286 392.782 480.908 394.16 480.908 395.876Z" stroke="#EBEBEB" stroke-width="1.3" stroke-miterlimit="10"/>
<path d="M321.438 613.249C466.137 613.249 583.44 603.902 583.44 592.371C583.44 580.841 466.137 571.493 321.438 571.493C176.738 571.493 59.4355 580.841 59.4355 592.371C59.4355 603.902 176.738 613.249 321.438 613.249Z" fill="#EBEBEB"/>
<path d="M67.2236 567.099H224.68L193.285 384.475H75.5436L67.2236 567.099Z" fill="#DBDBDB"/>
<path d="M67.2236 567.099H81.0296L88.7776 384.475H75.5436L67.2236 567.099Z" fill="#A6A6A6"/>
<path d="M49.3994 567.099L117.402 566.787L185.418 566.67L321.437 566.449L457.456 566.67L525.459 566.787L593.475 567.099L525.459 567.424L457.456 567.528L321.437 567.749L185.418 567.528L117.402 567.411L49.3994 567.099Z" fill="#263238"/>
<path d="M343.563 565.475H334.229V571.572H343.563V565.475Z" fill="#455A64"/>
<path d="M355.68 565.071H346.346V571.168H355.68V565.071Z" fill="#455A64"/>
<path d="M367.782 564.668H358.448V570.765H367.782V564.668Z" fill="#455A64"/>
<path d="M379.898 564.266H370.564V570.363H379.898V564.266Z" fill="#455A64"/>
<path d="M392.001 563.862H382.667V569.959H392.001V563.862Z" fill="#455A64"/>
<path d="M404.117 563.459H394.783V569.556H404.117V563.459Z" fill="#455A64"/>
<path d="M416.22 563.057H406.886V569.154H416.22V563.057Z" fill="#455A64"/>
<path d="M428.337 562.653H419.003V568.75H428.337V562.653Z" fill="#455A64"/>
<path d="M440.438 562.25H431.104V568.347H440.438V562.25Z" fill="#455A64"/>
<path d="M442.728 575.068H331.942V567.658L442.728 564.564V575.068Z" fill="#37474F"/>
<path d="M550.863 545.818H367.966L397.06 409.656H579.944L550.863 545.818Z" fill="#455A64"/>
<path d="M557.623 545.818H374.739L403.82 409.656H586.717L557.623 545.818Z" fill="#37474F"/>
<path d="M495.313 480.584C494.325 486.824 488.462 491.894 482.209 491.894C475.956 491.894 471.705 486.837 472.693 480.584C473.681 474.344 479.544 469.274 485.797 469.274C492.05 469.274 496.301 474.331 495.313 480.584Z" fill="#263238"/>
<path d="M472.356 435.604L467.949 456.275H463.958L468.365 435.604H472.356Z" fill="#263238"/>
<path d="M480.871 435.604L476.464 456.275H472.46L476.867 435.604H480.871Z" fill="#263238"/>
<path d="M489.373 435.604L484.966 456.275H480.975L485.382 435.604H489.373Z" fill="#263238"/>
<path d="M497.888 435.604L493.481 456.275H489.477L493.884 435.604H497.888Z" fill="#263238"/>
<path d="M506.389 435.604L501.982 456.275H497.991L502.398 435.604H506.389Z" fill="#263238"/>
<path d="M514.905 435.604L510.498 456.275H506.494L510.901 435.604H514.905Z" fill="#263238"/>
<path d="M503.297 581.373H413.35V574.392L503.297 571.48V581.373Z" fill="#455A64"/>
<path d="M527.763 581.373H479.468L450.374 505.076H498.669L527.763 581.373Z" fill="#455A64"/>
<path d="M535.705 581.373H487.41L458.329 505.076H506.624L535.705 581.373Z" fill="#263238"/>
<path d="M352.353 583.232H259.611C251.694 583.232 263.147 560.703 292.033 552.045C320.919 543.4 361.466 574.769 352.353 583.232Z" fill="#37474F"/>
<path d="M315.966 583.232C316.031 580.684 316.499 578.136 317.253 575.679C317.994 573.222 319.06 570.843 320.386 568.62C321.699 566.384 323.376 564.369 325.3 562.64C327.172 560.833 329.486 559.598 331.8 558.571C330.799 559.377 329.668 559.949 328.758 560.833L327.315 562.042L326.002 563.368C324.299 565.175 322.739 567.125 321.504 569.283C320.217 571.415 319.138 573.664 318.215 576.004C317.331 578.344 316.538 580.749 315.979 583.232H315.966Z" fill="#263238"/>
<path d="M326.95 561.795C329.706 562.653 332.358 563.81 334.945 565.084C337.532 566.358 340.028 567.84 342.394 569.517C344.747 571.207 346.997 573.092 348.855 575.367C349.765 576.511 350.61 577.72 351.247 579.046C351.858 580.372 352.313 581.802 352.339 583.245C352.014 581.841 351.455 580.528 350.675 579.345C349.947 578.149 349.063 577.044 348.088 576.03C346.138 574.002 343.941 572.208 341.627 570.583C339.326 568.919 336.895 567.437 334.451 565.968C333.229 565.24 331.981 564.538 330.72 563.862C329.472 563.147 328.199 562.497 326.938 561.808L326.95 561.795Z" fill="#263238"/>
<path d="M191.31 299.403C186.903 290.836 171.056 273.052 152.206 282.568C125.296 296.153 136.281 352.196 126.804 373.204C109.644 411.268 117.235 442.182 139.647 441.298C164.75 440.31 180.754 408.668 164.816 354.12C154.845 320.008 160.344 302.159 167.455 301.301C174.566 300.443 180.676 308.061 180.676 308.061L191.31 299.403Z" fill="#263238"/>
<path d="M189.411 296.244C186.863 292.409 183.821 288.886 180.389 285.753C176.944 282.646 172.927 280.007 168.377 278.525C163.866 276.991 158.77 276.874 154.155 278.33C149.592 279.747 145.341 282.23 141.935 285.636C138.542 289.068 136.111 293.306 134.486 297.726C132.887 302.172 131.925 306.774 131.379 311.389C130.391 320.645 130.82 329.914 131.899 339.04C131.834 329.849 132.094 320.658 133.394 311.662C134.174 307.19 135.149 302.77 136.8 298.61C138.412 294.45 140.674 290.563 143.794 287.469C146.849 284.336 150.749 282.061 154.922 280.67C159.043 279.24 163.554 279.266 167.805 280.462C172.056 281.671 176.047 283.92 179.596 286.728C181.416 288.093 183.106 289.627 184.757 291.213C186.369 292.838 187.929 294.515 189.437 296.257L189.411 296.244Z" fill="#263238"/>
<path d="M159.785 335.192C160.981 340.704 162.788 346.073 164.387 351.468C166.064 356.85 167.715 362.219 169.197 367.627C170.653 373.035 172.005 378.482 172.941 383.981C173.89 389.467 174.501 395.018 174.371 400.53C174.28 406.029 173.422 411.541 171.316 416.559C169.171 421.525 165.986 426.218 162.229 430.183C158.433 434.135 153.766 437.294 148.54 439.127C145.94 440.05 143.21 440.674 140.428 440.895C139.037 441.012 137.646 441.038 136.242 440.947C134.851 440.856 133.434 440.726 132.108 440.245C134.721 441.376 137.633 441.584 140.454 441.571C143.301 441.532 146.148 441.103 148.917 440.323C151.673 439.517 154.325 438.347 156.821 436.891C159.304 435.409 161.579 433.615 163.659 431.613C165.739 429.611 167.598 427.388 169.249 425.035L170.458 423.241L171.576 421.395C172.317 420.16 173.006 418.847 173.578 417.521C175.905 412.152 176.815 406.315 176.958 400.582C177.114 389.051 174.475 377.845 171.134 367.055C169.457 361.647 167.546 356.343 165.583 351.052C163.581 345.787 161.54 340.535 159.772 335.192H159.785Z" fill="#263238"/>
<path d="M192.973 299.104C192.583 296.491 190.126 293.462 188.358 293.293C186.59 293.124 175.033 300.69 174.526 304.083C174.019 307.476 180.077 309.335 180.077 309.335L192.986 299.104H192.973Z" fill="#FFC727"/>
<path d="M194.104 420.095C232.441 443.248 286.261 467.09 305.176 463.58C320.438 460.746 377.573 419.185 380.433 416.806C387.466 410.865 353.913 357.799 345.424 362.791C334.725 369.083 293.931 408.707 289.29 408.72C284.467 408.72 249.939 404.105 210.341 398.372C182.989 394.394 170.314 405.73 194.104 420.095Z" fill="#AD6359"/>
<path d="M355.031 344.825C364.183 340.145 374.31 334.048 385.009 332.826C395.708 331.604 406.446 344.513 406.992 348.556C407.525 352.586 406.849 378.3 396.176 379.717C385.503 381.134 389.364 360.945 388.675 358.787C387.973 356.629 387.193 353.847 385.204 354.315C383.215 354.796 350.195 376.207 350.195 376.207L355.018 344.825H355.031Z" fill="#AD6359"/>
<path d="M355.915 346.203C356.513 346.125 383.618 331.032 394.317 329.81C405.016 328.588 415.754 341.497 416.3 345.54C416.833 349.57 416.157 375.284 405.484 376.701C394.811 378.118 398.672 357.929 397.983 355.771C397.281 353.613 396.501 350.831 394.512 351.312C392.523 351.793 359.503 373.204 359.503 373.204L355.902 346.216L355.915 346.203Z" fill="#AD6359"/>
<path d="M401.688 375.83C400.141 374.322 399.582 371.813 399.075 369.759C398.516 367.523 398.399 365.183 398.555 362.895C398.698 360.906 399.27 358.852 399.075 356.85C398.893 354.991 397.931 352.885 396.839 351.403C395.812 350.012 394.317 350.74 393.03 351.403C391.132 352.365 389.338 353.613 387.57 354.796C385.659 356.083 383.787 357.409 381.902 358.722C379.965 360.074 377.911 361.361 376.156 362.96C376.026 363.077 376.156 363.324 376.325 363.233C378.106 362.336 379.744 361.153 381.421 360.074C383.319 358.852 385.23 357.643 387.154 356.46C388.948 355.355 390.69 354.159 392.51 353.08C393.147 352.703 394.408 351.793 395.214 351.858C396.059 351.936 396.722 353.886 396.995 354.51C397.84 356.486 397.697 358.267 397.398 360.334C397.112 362.323 396.969 364.325 397.073 366.327C397.177 368.173 397.502 370.123 398.256 371.826C398.984 373.464 400.336 374.686 401.415 376.077C401.571 376.272 401.883 375.999 401.714 375.83H401.688Z" fill="#263238"/>
<path d="M325.781 378.729C325.781 378.729 351.768 347.828 357.215 341.653C368.135 329.264 417.34 301.08 424.49 299.351C431.64 297.622 436.242 312.13 402.975 332.28C385.451 342.901 383.553 354.003 384.697 359.866C385.841 365.729 392.939 375.986 402.845 374.4C412.751 372.814 417.262 357.448 426.18 354.614C435.098 351.78 431.302 369.33 426.141 379.847C420.98 390.377 410.346 399.906 402.182 404.274C394.018 408.642 368.941 423.644 368.941 423.644L325.768 378.742L325.781 378.729Z" fill="#AD6359"/>
<path d="M414.246 365.755C410.892 369.148 407.148 373.464 402.247 374.309C397.177 375.18 393.433 372.32 390.521 368.485C387.583 364.624 385.555 360.035 386.088 355.095C386.556 350.649 388.623 346.489 391.405 343.044C394.863 338.78 399.166 335.374 403.677 332.293C403.872 332.15 403.651 331.864 403.43 331.994C399.127 334.646 385.685 342.368 384.515 355.303C384.034 360.594 386.192 364.962 389.143 368.94C391.873 372.606 395.591 375.986 400.453 375.739C406.394 375.427 410.801 369.98 414.545 365.859C414.714 365.677 414.415 365.586 414.233 365.755H414.246Z" fill="#263238"/>
<path d="M284.39 404.651L240.008 446.784C240.008 446.784 210.511 433.693 188.346 417.924C166.181 402.155 189.048 392.405 225.643 396.24C262.238 400.075 284.377 404.651 284.377 404.651H284.39Z" fill="#FFC727"/>
<path d="M229.425 441.766C229.23 441.675 229.035 441.571 228.84 441.48C228.84 441.389 228.827 441.311 228.827 441.22C228.541 437.671 228.099 434.07 226.734 430.807C226.045 429.195 225.031 427.687 223.588 426.738C222.873 426.257 222.041 425.984 221.196 425.815C220.351 425.685 219.454 425.737 218.57 425.724C215.008 425.828 211.511 426.673 208.144 427.817C207.221 428.142 206.298 428.493 205.388 428.87C205.219 428.766 205.05 428.675 204.881 428.571C205.908 428.142 206.935 427.739 207.975 427.362C211.381 426.192 214.93 425.334 218.557 425.204C219.454 425.217 220.351 425.165 221.287 425.308C222.197 425.477 223.094 425.776 223.874 426.296C225.447 427.323 226.513 428.935 227.228 430.599C228.645 433.966 229.1 437.606 229.386 441.168C229.399 441.363 229.412 441.571 229.425 441.766ZM259.806 400.517C259.741 400.699 259.676 400.868 259.611 401.05C257.986 405.379 255.945 409.734 252.409 412.776C250.615 414.219 248.457 415.233 246.169 415.48C243.881 415.753 241.554 415.194 239.474 414.206C235.275 412.204 231.83 408.928 228.554 405.639C225.369 402.402 222.353 398.996 219.207 395.72C219.129 395.707 219.051 395.694 218.973 395.694C222.132 399.035 225.174 402.493 228.398 405.808C231.661 409.123 235.093 412.425 239.357 414.505C241.463 415.506 243.855 416.091 246.221 415.818C248.574 415.558 250.797 414.518 252.656 413.049C256.27 409.929 258.324 405.522 259.988 401.193C260.066 400.985 260.144 400.79 260.209 400.582C260.079 400.556 259.949 400.53 259.819 400.517H259.806ZM236.367 445.107C238.681 446.199 240.007 446.784 240.007 446.784L240.072 446.732C238.85 446.173 237.602 445.64 236.367 445.107Z" fill="white"/>
<path d="M229.023 439.062C237.98 429.325 247.626 420.199 257.415 411.294C260.184 408.772 263.018 406.315 265.904 403.923C265.982 403.858 266.099 403.949 266.034 404.04C261.458 408.811 256.7 413.387 251.955 418.002C247.197 422.617 242.4 427.206 237.525 431.691C234.769 434.226 232.013 436.761 229.205 439.231C229.088 439.335 228.906 439.179 229.023 439.062Z" fill="#263238"/>
<path opacity="0.1" d="M258.455 429.273L240.008 446.784C240.008 446.784 210.524 433.706 188.359 417.937C179.337 411.515 177.777 406.094 181.56 402.194L258.455 429.273Z" fill="black"/>
<path d="M255.476 567.333H107.107C107.107 567.333 139.334 442.871 169.169 407.836C169.832 407.03 170.521 406.263 171.21 405.548C171.353 405.379 171.47 405.262 171.613 405.119C174.187 402.428 176.865 400.413 179.582 398.957C180.102 398.671 180.635 398.411 181.181 398.177C192.673 392.899 204.802 397.267 213.551 404.768C216.333 407.147 247.78 448.058 250.562 463.671C252.967 477.438 243.659 492.245 243.659 492.245L255.476 567.346V567.333Z" fill="#FFC727"/>
<path d="M221.39 486.889C215.098 487.591 208.78 488.514 202.644 490.139C199.589 490.945 196.599 491.894 193.609 492.908C192.114 493.415 190.619 493.87 189.111 494.312C187.564 494.767 185.9 495.196 184.288 495.261C184.145 495.261 184.145 495.482 184.288 495.482C185.861 495.508 187.369 495.534 188.942 495.352C190.437 495.183 191.919 494.845 193.375 494.481C196.482 493.688 199.537 492.752 202.631 491.933C208.871 490.269 215.111 488.605 221.455 487.396C221.741 487.344 221.663 486.837 221.377 486.876L221.39 486.889Z" fill="#263238"/>
<path d="M237.068 492.362C231.881 491.881 226.59 491.634 221.377 491.751C218.751 491.803 216.164 492.011 213.551 492.284C212.303 492.414 211.068 492.57 209.82 492.739C208.455 492.921 207.116 493.298 205.751 493.454C205.608 493.467 205.608 493.688 205.751 493.675C207.038 493.558 208.364 493.649 209.664 493.61C210.964 493.571 212.277 493.519 213.577 493.467C216.19 493.376 218.803 493.324 221.403 493.207C226.629 492.986 231.829 492.817 237.068 492.778C237.354 492.778 237.328 492.375 237.068 492.349V492.362Z" fill="#263238"/>
<g opacity="0.1">
<path d="M207.168 471.861C208.169 472.55 208.533 473.694 208.026 474.5C207.753 474.89 207.363 475.098 206.882 475.15C206.375 475.189 205.842 475.059 205.335 474.747L194.22 467.155C194.116 467.129 194.077 467.077 194.012 466.999C193.973 466.973 193.908 466.947 193.908 466.947C193.817 466.869 193.804 466.804 193.739 466.726C193.674 466.7 193.622 466.648 193.609 466.622C193.557 466.57 193.531 466.479 193.492 466.453C193.466 466.362 193.388 466.336 193.388 466.31C193.362 466.219 193.336 466.167 193.323 466.102C193.31 466.037 193.271 466.011 193.232 465.933C193.232 465.907 193.232 465.816 193.219 465.79C193.206 465.738 193.167 465.647 193.154 465.582C193.141 465.517 193.18 465.491 193.18 465.465C193.18 465.374 193.167 465.322 193.167 465.231C193.167 465.205 193.193 465.205 193.167 465.166C193.193 465.075 193.193 464.958 193.232 464.893C193.232 464.893 193.219 464.841 193.271 464.828C193.271 464.763 193.31 464.672 193.388 464.607L199.056 455.52C199.576 454.753 200.798 454.636 201.747 455.286C202.735 455.949 203.112 457.119 202.605 457.925L197.808 465.543L207.168 471.913V471.861Z" fill="black"/>
<path d="M215.097 472.121L216.839 454.415C216.93 453.57 217.762 453.102 218.737 453.375C219.647 453.622 220.349 454.558 220.245 455.377L218.503 473.122C218.438 473.759 217.918 474.162 217.294 474.227C217.112 474.24 216.865 474.227 216.657 474.162C215.682 473.915 214.98 472.992 215.071 472.134L215.097 472.121Z" fill="black"/>
<path d="M237.64 463.034C237.64 463.034 237.64 463.06 237.614 463.06C237.575 463.125 237.549 463.216 237.471 463.281L231.803 472.368C231.556 472.745 231.114 472.966 230.633 473.018C230.126 473.057 229.619 472.927 229.112 472.615C228.124 471.952 227.76 470.808 228.254 469.976L233.051 462.345L223.691 455.988C222.703 455.325 222.326 454.155 222.833 453.349C223.314 452.582 224.549 452.478 225.524 453.115L236.639 460.707C236.743 460.759 236.834 460.837 236.912 460.889C236.938 460.889 236.964 460.941 236.964 460.941C237.068 461.058 237.146 461.11 237.198 461.188C237.198 461.214 237.237 461.214 237.25 461.24C237.302 461.331 237.328 461.383 237.432 461.5C237.432 461.526 237.471 461.526 237.484 461.591C237.497 461.656 237.536 461.734 237.549 461.799C237.549 461.825 237.614 461.916 237.627 461.942C237.627 461.968 237.627 462.059 237.64 462.085C237.666 462.176 237.692 462.228 237.718 462.319C237.718 462.345 237.692 462.345 237.718 462.384C237.692 462.501 237.718 462.592 237.718 462.657C237.718 462.683 237.692 462.683 237.718 462.748C237.718 462.813 237.679 462.904 237.653 463.021L237.64 463.034Z" fill="black"/>
</g>
<path d="M246.831 512.356C246.623 512.486 246.415 512.59 246.194 512.694L244.959 513.266C244.543 513.448 244.101 513.565 243.672 513.721C242.827 514.059 241.904 514.163 241.02 514.358C239.2 514.527 237.354 514.579 235.573 514.007C234.676 513.721 233.883 513.227 233.142 512.668C232.44 512.057 231.803 511.381 231.309 510.601C230.269 509.08 229.619 507.364 229.112 505.622C228.137 502.138 227.773 498.524 227.565 494.936C227.539 494.312 227.513 493.688 227.5 493.064C227.487 492.83 227.474 492.596 227.474 492.362C227.292 486.031 227.604 479.713 227.942 473.408C228.332 466.245 228.852 459.095 229.008 451.932C229.073 448.786 229.086 445.627 228.904 442.494C228.904 442.351 228.904 442.208 228.878 442.065C228.865 441.779 228.852 441.506 228.826 441.22C228.54 437.671 228.098 434.07 226.733 430.807C226.044 429.195 225.03 427.687 223.587 426.738C222.872 426.257 222.04 425.984 221.195 425.815C220.35 425.685 219.453 425.737 218.569 425.724C215.007 425.828 211.51 426.673 208.143 427.817C205.868 428.623 203.645 429.572 201.461 430.612L200.954 430.846C196.859 432.822 192.907 435.11 188.994 437.437C182.832 441.103 176.774 444.951 170.404 448.279C168.233 449.397 166.036 450.463 163.787 451.399C163.696 451.438 163.618 451.477 163.527 451.516C162.552 451.919 161.564 452.296 160.563 452.647C157.17 453.843 153.621 454.675 150.007 454.792C148.018 454.831 146.029 454.571 144.131 454.012C144.17 453.921 144.196 453.843 144.235 453.765C146.107 454.285 148.057 454.532 150.007 454.48C153.569 454.337 157.092 453.518 160.446 452.309C161.421 451.958 162.396 451.581 163.358 451.191L163.631 451.074C165.88 450.125 168.077 449.072 170.235 447.941C176.566 444.613 182.611 440.752 188.773 437.06C192.582 434.798 196.443 432.549 200.447 430.586C200.616 430.508 200.772 430.417 200.941 430.339C203.229 429.234 205.569 428.233 207.974 427.362C211.38 426.192 214.929 425.334 218.556 425.204C219.453 425.217 220.35 425.165 221.286 425.308C222.196 425.477 223.093 425.776 223.873 426.296C225.446 427.323 226.512 428.935 227.227 430.599C228.644 433.966 229.099 437.606 229.385 441.168C229.411 441.545 229.437 441.922 229.45 442.299C229.476 442.442 229.476 442.572 229.476 442.715C229.658 445.796 229.658 448.877 229.606 451.945C229.463 459.134 228.969 466.284 228.579 473.447C228.254 479.479 227.942 485.511 228.059 491.53C228.059 491.764 228.059 491.998 228.072 492.232C228.098 493.129 228.124 494.013 228.163 494.91C228.358 498.472 228.709 502.047 229.658 505.466C230.152 507.169 230.776 508.846 231.764 510.289C232.245 511.03 232.843 511.667 233.493 512.239C234.182 512.759 234.91 513.227 235.742 513.487C237.38 514.033 239.213 513.994 240.942 513.838C241.8 513.643 242.684 513.552 243.516 513.227C243.932 513.071 244.348 512.954 244.764 512.785L245.96 512.239C246.22 512.109 246.48 511.979 246.74 511.836L246.831 512.356ZM250.445 463.112C247.546 465.972 244.855 469.053 242.294 472.186C237.25 478.413 232.661 484.978 228.059 491.53C227.864 491.803 227.669 492.076 227.474 492.362C226.902 493.181 226.317 493.987 225.745 494.806C222.547 499.317 219.31 503.841 215.878 508.183C215.787 508.3 215.696 508.43 215.592 508.547C213.33 511.394 210.99 514.163 208.494 516.802C205.309 520.195 201.864 523.367 198.029 525.993C197.08 526.669 196.118 527.306 195.104 527.865C194.116 528.489 193.063 528.983 192.036 529.516C189.995 530.582 187.655 531.011 185.419 530.53C183.196 530.023 181.194 528.788 179.478 527.241C177.762 525.72 176.254 523.926 174.889 522.054C172.172 518.297 169.91 514.202 167.817 510.042C163.644 501.696 160.095 493.051 156.429 484.471C152.724 475.904 149.032 467.285 144.391 459.147C143.936 458.354 143.468 457.574 142.987 456.794C142.896 457.015 142.805 457.249 142.714 457.47C143.117 458.12 143.507 458.783 143.884 459.446C148.486 467.545 152.152 476.151 155.831 484.731C159.523 493.298 163.085 501.943 167.284 510.302C169.403 514.475 171.678 518.583 174.434 522.392C175.825 524.277 177.346 526.097 179.114 527.657C180.869 529.23 182.949 530.53 185.315 531.05C187.668 531.557 190.177 531.089 192.257 529.984C193.31 529.451 194.376 528.944 195.364 528.32C196.391 527.735 197.366 527.098 198.328 526.422C202.189 523.744 205.647 520.546 208.858 517.14C211.328 514.501 213.668 511.732 215.904 508.898C216.008 508.781 216.099 508.651 216.19 508.534C219.648 504.153 222.885 499.603 226.096 495.053L227.5 493.064C227.682 492.791 227.877 492.518 228.072 492.232C232.778 485.524 237.432 478.79 242.593 472.42C245.089 469.352 247.702 466.336 250.536 463.528C250.51 463.398 250.484 463.255 250.445 463.112ZM179.205 557.011C173.407 549.705 167.713 542.269 161.434 535.353C155.155 528.476 148.2 521.911 139.685 517.855C137.54 516.932 135.317 516.126 133.016 515.697C131.872 515.411 130.702 515.333 129.532 515.177C128.362 515.138 127.192 515.021 126.022 515.112C124.735 515.138 123.461 515.255 122.187 515.45L122.109 515.684C123.409 515.476 124.722 515.372 126.035 515.346C127.192 515.268 128.349 515.385 129.519 515.424C130.663 515.593 131.833 515.671 132.951 515.97C135.239 516.399 137.436 517.218 139.555 518.141C147.979 522.184 154.908 528.736 161.148 535.6C167.414 542.516 173.082 549.952 178.867 557.271C181.545 560.651 184.249 564.031 187.044 567.333H187.642C184.756 563.953 181.974 560.482 179.205 557.011ZM250.497 535.691C249.6 538.083 248.729 540.462 247.845 542.854C244.868 551.057 241.995 559.299 238.602 567.333H239.252C242.619 559.364 245.479 551.2 248.456 543.075C249.197 541.047 249.951 539.006 250.705 536.978L250.497 535.691ZM236.938 548.743C236.821 548.067 236.717 547.378 236.574 546.689L236.106 544.661C235.833 543.309 235.404 541.983 235.027 540.644C233.454 535.314 231.127 530.231 228.384 525.421C224.926 519.363 220.727 513.799 216.19 508.534C216.073 508.417 215.969 508.3 215.878 508.183C213.265 505.18 210.548 502.294 207.792 499.447C200.044 491.53 191.88 484.055 184.08 476.216C180.193 472.29 176.384 468.286 172.77 464.1C171.86 463.06 170.963 462.007 170.092 460.941C169.208 459.875 168.35 458.796 167.544 457.678C166.114 455.702 164.84 453.596 163.787 451.399C163.722 451.295 163.67 451.191 163.631 451.074C163.527 450.905 163.449 450.723 163.371 450.554C161.083 445.549 159.874 440.05 159.809 434.525C159.718 429.013 160.667 423.501 162.305 418.223C162.5 417.586 162.721 416.936 162.942 416.312C162.838 416.468 162.747 416.624 162.643 416.78C162.474 417.248 162.318 417.716 162.175 418.184C160.511 423.462 159.523 428.987 159.588 434.525C159.64 440.076 160.823 445.614 163.111 450.671C163.189 450.853 163.267 451.022 163.358 451.191C163.397 451.308 163.449 451.412 163.527 451.516C164.58 453.739 165.854 455.858 167.284 457.873C168.09 459.004 168.961 460.083 169.845 461.149C170.716 462.215 171.6 463.281 172.51 464.321C176.124 468.52 179.933 472.537 183.82 476.476C191.62 484.328 199.771 491.829 207.48 499.733C210.262 502.593 212.992 505.531 215.592 508.547C215.709 508.664 215.8 508.781 215.904 508.898C220.415 514.137 224.562 519.662 227.968 525.655C230.685 530.452 232.986 535.496 234.546 540.787C234.91 542.126 235.326 543.439 235.599 544.778L236.067 546.793C236.197 547.469 236.301 548.158 236.431 548.834C236.964 551.538 237.146 554.281 236.886 557.011C236.587 560.625 235.469 564.096 233.844 567.333H234.468C236.041 564.122 237.133 560.664 237.419 557.063C237.679 554.281 237.484 551.46 236.938 548.743ZM244.27 448.695C244.036 448.578 243.789 448.461 243.555 448.344C238.927 446.134 234.208 444.171 229.45 442.299C229.255 442.221 229.073 442.143 228.878 442.065C224.757 440.44 220.61 438.867 216.502 437.242C211.978 435.435 207.48 433.576 203.112 431.444C202.566 431.171 202.007 430.898 201.461 430.612C201.292 430.534 201.123 430.443 200.941 430.339C197.34 428.48 193.856 426.4 190.684 423.891C186.862 420.927 183.508 417.274 181.272 412.984C180.154 410.852 179.296 408.564 178.828 406.211C178.386 404.04 178.295 401.804 178.464 399.594C178.282 399.698 178.1 399.802 177.918 399.932C177.801 402.051 177.892 404.209 178.321 406.302C178.815 408.72 179.699 411.034 180.843 413.218C183.118 417.573 186.537 421.265 190.398 424.255C193.531 426.699 196.937 428.753 200.447 430.586C200.616 430.677 200.785 430.768 200.954 430.846C201.604 431.184 202.254 431.509 202.917 431.834C207.311 433.979 211.822 435.825 216.346 437.619C220.519 439.27 224.731 440.843 228.904 442.494C229.099 442.559 229.281 442.637 229.476 442.715C234.182 444.561 238.836 446.485 243.399 448.669C243.789 448.851 244.179 449.046 244.569 449.228C244.465 449.059 244.361 448.877 244.27 448.695Z" fill="white"/>
<path d="M163.749 411.021C138.035 437.515 76.1545 537.602 95.2255 556.647C114.427 575.822 220.728 563.771 250.082 558.142C259.884 556.257 236.341 491.673 225.772 490.165C216.984 488.904 165.023 498.979 163.229 496.691C161.773 494.845 172.212 470.639 183.821 431.691C197.198 386.789 175.124 399.321 163.762 411.021H163.749Z" fill="#AD6359"/>
<path d="M276.12 481.52C298.233 481.806 303.862 485.277 322.647 475.605C334.971 469.261 344.318 474.409 336.037 486.213C322.491 505.518 293.891 511.147 283.413 510.237L276.12 481.52Z" fill="#AD6359"/>
<path d="M215.436 493.597C215.436 493.597 241.826 483.795 265.408 481.767C281.723 480.363 317.551 481.273 345.904 521.092C352.625 530.53 355.511 548.756 338.923 537.329C327.145 529.204 322.127 520.494 314.418 517.023C314.418 517.023 315.328 540.644 305.617 547.001C301.275 549.848 289.224 557.336 279.019 561.821C279.019 561.821 277.446 559.858 275.795 557.089C275.795 557.089 266.149 562.172 250.068 558.142L215.423 493.597H215.436Z" fill="#AD6359"/>
<path d="M281.19 482.911C288.119 487.981 302.614 498.966 311.337 512.083C321.035 526.656 335.79 557.323 324.961 564.382C317.018 569.556 310.362 558.337 310.362 558.337C310.362 558.337 313.794 572.299 305.591 575.406C298.129 578.227 293.488 569.244 293.488 569.244C293.488 569.244 294.112 578.071 286.39 579.41C277.108 581.022 277.329 562.25 266.526 555.75C264.095 554.294 281.177 482.911 281.177 482.911H281.19Z" fill="#AD6359"/>
<path d="M294.243 519.766C299.976 525.603 309.583 542.191 310.532 558.012C310.558 558.376 310.298 558.584 310.207 558.259C305.462 541.073 297.753 526.045 294.1 519.87C294.048 519.792 294.178 519.714 294.243 519.779V519.766Z" fill="#263238"/>
<path d="M279.826 529.984C284.259 535.522 293.398 553.072 293.814 569.127C293.814 569.491 293.554 569.673 293.476 569.348C289.264 551.187 282.972 536.445 279.696 530.062C279.657 529.971 279.787 529.906 279.839 529.984H279.826Z" fill="#263238"/>
<path d="M314.445 516.867C321.179 520.026 325.248 524.186 330.565 529.23C333.204 531.726 335.882 534.183 338.781 536.367C341.42 538.356 345.294 541.359 348.726 539.383C350.637 538.291 350.988 535.821 350.91 533.819C350.819 531.57 350.299 529.347 349.285 527.332C349.233 527.228 349.415 527.137 349.467 527.241C350.416 529.035 351.183 530.907 351.586 532.896C351.95 534.703 352.145 536.77 351.378 538.499C349.753 542.23 345.086 542.048 341.992 540.475C340.146 539.539 338.469 538.226 336.844 536.939C335.284 535.691 333.789 534.378 332.32 533.026C329.317 530.244 326.47 527.306 323.493 524.485C320.217 521.391 317.89 519.766 314.302 517.062C314.185 516.971 314.302 516.776 314.445 516.841V516.867Z" fill="#263238"/>
<path d="M325.443 543.946C324.234 539.643 316.902 521.378 314.289 517.01C314.224 516.893 314.38 516.789 314.458 516.893C319.164 522.951 325.885 538.135 327.276 542.893C328.641 547.586 330.136 553.553 329.382 558.441C328.264 565.812 323.155 566.462 321.296 566.553C319.073 566.657 316.967 565.864 315.173 564.564C313.184 563.121 311.455 560.482 310.298 558.35C310.233 558.233 310.389 558.116 310.467 558.233C312.573 561.522 316.382 565.045 320.477 565.123C322.245 565.162 324.13 564.642 325.417 563.355C326.925 561.847 327.367 559.637 327.497 557.596C327.809 552.968 326.691 548.353 325.456 543.933L325.443 543.946Z" fill="#263238"/>
<path d="M293.813 569.14C294.71 570.18 296.348 573.56 299.611 574.717C301.99 575.575 304.603 575.731 306.761 574.223C308.88 572.754 309.946 570.388 310.44 567.918C310.713 566.527 310.518 560.3 310.31 558.402C310.297 558.259 310.479 558.22 310.505 558.363C311.077 561.782 311.688 565.5 311.194 568.685C310.791 571.337 309.517 574.054 307.255 575.601C304.902 577.2 301.795 577.421 299.299 576.03C298.064 575.341 294.32 572.052 293.514 569.244C293.501 569.179 293.774 569.088 293.813 569.14Z" fill="#263238"/>
<path d="M267.437 554.528C268.49 555.386 269.335 556.569 270.154 557.635C271.038 558.792 271.883 559.975 272.689 561.184C274.314 563.589 275.627 566.254 276.719 568.945C277.824 571.675 278.773 574.665 280.931 576.784C283.05 578.851 286.274 579.618 288.965 578.214C290.369 577.486 291.422 576.303 292.059 574.86C292.709 573.378 293.281 571.532 293.294 569.907C293.294 569.764 293.502 569.764 293.489 569.907C293.372 571.48 293.58 572.988 293.151 574.535C292.787 575.9 292.124 577.2 291.11 578.201C289.043 580.255 285.858 580.801 283.154 579.865C280.164 578.825 278.253 576.173 276.966 573.417C275.523 570.349 274.444 567.138 272.871 564.122C272.039 562.536 271.233 560.937 270.297 559.416C269.322 557.83 268.074 556.361 267.203 554.723C267.138 554.593 267.281 554.437 267.398 554.541L267.437 554.528Z" fill="#263238"/>
<path d="M257.855 559.507C260.195 559.663 265.681 559.585 270.101 558.857C270.231 558.831 270.348 559.208 270.231 559.26C268.528 559.884 265.109 560.248 264.082 560.3C262.041 560.404 259.844 560.248 257.855 559.741C257.738 559.715 257.725 559.507 257.855 559.52V559.507Z" fill="#263238"/>
<path d="M110.045 518.882C116.415 514.709 123.188 511.147 130.091 507.936C136.929 504.764 144.066 502.333 151.281 500.188C155.402 498.966 159.575 497.952 163.735 496.899C163.865 496.873 163.904 497.068 163.774 497.094C156.494 499.122 149.357 501.8 142.376 504.66C135.408 507.507 128.518 510.471 121.667 513.565C117.793 515.32 113.997 517.257 110.188 519.129C110.006 519.22 109.889 518.96 110.045 518.856V518.882Z" fill="#263238"/>
<path d="M110.93 473.655L172.121 472.81C172.121 472.81 184.081 442.845 188.943 416.078C193.792 389.311 171.64 397.085 148.123 425.386C124.606 453.687 110.93 473.655 110.93 473.655Z" fill="#FFC727"/>
<path d="M183.028 440.544C182.976 440.739 182.924 440.934 182.859 441.129C178.764 443.612 174.656 446.056 170.405 448.279C168.234 449.397 166.037 450.463 163.788 451.399C163.697 451.438 163.619 451.477 163.528 451.516C162.553 451.919 161.565 452.296 160.564 452.647C157.171 453.843 153.622 454.675 150.008 454.792C146.524 454.87 143.014 453.999 139.972 452.283C139.868 452.231 139.764 452.179 139.66 452.114C139.322 451.919 138.997 451.724 138.672 451.516C136.124 449.865 133.927 447.694 132.055 445.302C132.081 445.263 132.12 445.211 132.146 445.172C133.888 447.356 135.89 449.345 138.191 450.905C138.659 451.243 139.14 451.542 139.634 451.815C139.686 451.854 139.725 451.88 139.777 451.906C142.871 453.687 146.446 454.571 150.008 454.48C153.57 454.337 157.093 453.518 160.447 452.309C161.422 451.958 162.397 451.581 163.359 451.191L163.632 451.074C165.881 450.125 168.078 449.072 170.236 447.941C174.591 445.653 178.816 443.105 183.028 440.544ZM144.392 459.147C143.04 456.794 141.597 454.48 139.972 452.283C139.868 452.127 139.751 451.971 139.634 451.815C138.555 450.398 137.411 449.046 136.163 447.772C135.045 446.641 133.823 445.588 132.484 444.743C132.38 444.886 132.263 445.029 132.146 445.172C133.459 446.017 134.668 447.057 135.76 448.175C136.618 449.046 137.424 449.956 138.191 450.905C138.347 451.1 138.516 451.308 138.672 451.516C140.622 453.999 142.312 456.703 143.885 459.446C146.407 463.879 148.643 468.455 150.749 473.109H151.425C149.267 468.351 146.979 463.671 144.392 459.147ZM172.771 464.1C171.861 463.06 170.964 462.007 170.093 460.941C169.209 459.875 168.351 458.796 167.545 457.678C166.115 455.702 164.841 453.596 163.788 451.399C163.723 451.295 163.671 451.191 163.632 451.074C163.528 450.905 163.45 450.723 163.372 450.554C161.084 445.549 159.875 440.05 159.81 434.525C159.719 429.013 160.668 423.501 162.306 418.223C163.541 414.271 165.14 410.436 167.012 406.744C166.96 406.77 166.908 406.809 166.856 406.861C164.997 410.501 163.411 414.284 162.176 418.184C160.512 423.462 159.524 428.987 159.589 434.525C159.641 440.076 160.824 445.614 163.112 450.671C163.19 450.853 163.268 451.022 163.359 451.191C163.398 451.308 163.45 451.412 163.528 451.516C164.581 453.739 165.855 455.858 167.285 457.873C168.091 459.004 168.962 460.083 169.846 461.149C170.717 462.215 171.601 463.281 172.511 464.321C173.161 465.075 173.811 465.816 174.474 466.557C174.526 466.44 174.565 466.323 174.617 466.193C173.993 465.504 173.382 464.802 172.771 464.1ZM181.273 412.984C180.155 410.852 179.297 408.564 178.829 406.211C178.439 404.274 178.322 402.285 178.413 400.309C178.244 400.361 178.075 400.413 177.893 400.491C177.815 402.428 177.932 404.391 178.322 406.302C178.816 408.72 179.7 411.034 180.844 413.218C182.586 416.546 184.978 419.484 187.747 422.019C187.786 421.85 187.825 421.668 187.864 421.486C185.225 419.029 182.937 416.182 181.273 412.984Z" fill="white"/>
<path d="M169.6 472.55C169.925 472.55 172.083 472.225 172.096 472.225C172.265 471.419 175.996 458.874 176.971 456.144C178.947 450.593 181.248 445.133 183.471 439.673C183.536 439.504 183.809 439.582 183.757 439.764C182.288 444.47 180.897 449.215 179.389 453.908C179.831 453.245 180.26 452.582 180.676 451.906C181.534 450.515 182.288 449.085 183.081 447.668C183.146 447.538 183.354 447.642 183.315 447.772C182.665 449.748 181.638 451.607 180.507 453.349C180.026 454.103 179.454 454.805 178.869 455.481C178.739 455.871 178.622 456.261 178.492 456.651C177.569 459.394 172.824 472.966 172.603 472.979C172.551 472.979 170.341 472.979 169.652 472.979C169.483 472.979 169.431 472.563 169.6 472.563V472.55Z" fill="#263238"/>
<path d="M121.057 462.007C134.265 461.279 147.538 461.474 160.785 461.929C164.529 462.059 168.273 462.267 172.004 462.579C172.108 462.579 172.121 462.748 172.004 462.748C165.4 462.969 158.796 462.93 152.179 462.917C145.549 462.917 138.919 462.852 132.289 462.657C128.545 462.553 124.801 462.449 121.07 462.254C120.914 462.254 120.888 462.007 121.057 462.007Z" fill="#263238"/>
<path d="M186.434 399.425C186.889 402.051 198.238 419.588 210.107 419.731C213.968 419.77 215.138 398.697 215.138 398.697L215.58 397.163L221.755 375.648L197.12 357.695L193.545 355.303C193.545 355.303 192.245 361.296 190.698 368.784C190.62 369.135 190.555 369.473 190.477 369.85C190.373 370.266 190.282 370.669 190.204 371.059C189.957 372.177 189.71 373.308 189.489 374.452C189.32 375.323 189.151 376.168 188.995 377.078C188.826 378.001 188.683 378.885 188.501 379.808C187.006 388.882 186.239 398.32 186.408 399.425H186.434Z" fill="#AD6359"/>
<path d="M190.698 368.784C195.911 386.503 209.353 394.407 215.58 397.163L221.755 375.648L197.12 357.695L193.545 355.303C193.545 355.303 192.245 361.296 190.698 368.784Z" fill="#263238"/>
<path d="M249.134 332.618C260.223 370.305 238.916 381.199 230.778 383.578C223.394 385.736 198.005 392.171 183.068 355.836C168.144 319.501 182.158 302.432 198.772 296.595C215.386 290.758 238.032 294.931 249.134 332.618Z" fill="#AD6359"/>
<path d="M241.905 327.678C240.982 327.821 240.124 327.795 239.201 327.834C238.161 327.886 237.342 328.029 236.406 327.457C235.912 327.158 235.717 326.326 235.964 325.806C236.536 324.61 237.797 324.246 239.045 324.129C240.397 324.012 241.476 324.272 242.594 325.039C243.686 325.78 243.114 327.496 241.892 327.678H241.905Z" fill="#263238"/>
<path d="M216.53 334.764C217.388 334.413 218.129 333.958 218.948 333.529C219.871 333.048 220.651 332.749 221.171 331.8C221.444 331.293 221.197 330.474 220.729 330.149C219.624 329.408 218.35 329.72 217.219 330.253C215.984 330.838 215.191 331.605 214.606 332.827C214.034 334.01 215.399 335.206 216.53 334.751V334.764Z" fill="#263238"/>
<path d="M223.511 342.589C223.459 342.498 223.342 342.771 223.381 342.875C224.226 345.41 224.759 348.465 222.692 349.999C222.627 350.051 222.679 350.168 222.757 350.142C225.474 348.907 224.72 344.864 223.524 342.589H223.511Z" fill="#263238"/>
<path d="M220.43 340.587C216.218 341.497 218.337 349.869 222.25 349.024C226.098 348.192 223.966 339.833 220.43 340.587Z" fill="#263238"/>
<path d="M218.896 341.445C218.285 342.108 217.778 343.122 216.92 343.434C215.932 343.798 214.931 343.109 214.047 342.446C213.956 342.381 213.904 342.472 213.93 342.576C214.307 344.188 215.347 345.67 217.128 345.475C218.753 345.293 219.52 343.59 219.507 341.874C219.507 341.562 219.13 341.185 218.883 341.445H218.896Z" fill="#263238"/>
<path d="M238.681 338.104C238.681 338 238.915 338.182 238.941 338.286C239.5 340.899 240.579 343.811 243.14 344.097C243.218 344.097 243.244 344.24 243.153 344.253C240.189 344.552 238.798 340.678 238.694 338.117L238.681 338.104Z" fill="#263238"/>
<path d="M240.332 334.828C244.427 333.489 246.819 341.783 243.023 343.031C239.279 344.253 236.9 335.959 240.332 334.828Z" fill="#263238"/>
<path d="M242.23 334.867C243.01 335.114 243.894 335.725 244.687 335.556C245.61 335.361 246.026 334.269 246.364 333.242C246.403 333.138 246.481 333.19 246.52 333.294C247.014 334.867 246.975 336.674 245.532 337.415C244.219 338.091 242.815 337.025 241.983 335.556C241.827 335.283 241.918 334.776 242.243 334.88L242.23 334.867Z" fill="#263238"/>
<path d="M229.204 364.507C229.958 364.988 230.751 365.703 231.726 365.586C232.649 365.469 233.637 364.845 234.404 364.351C234.482 364.299 234.586 364.377 234.547 364.468C234.079 365.612 232.779 366.535 231.518 366.574C230.296 366.613 229.49 365.703 228.983 364.676C228.905 364.533 229.1 364.429 229.204 364.507Z" fill="#263238"/>
<path d="M237.836 351.442C237.836 351.442 239.396 355.16 239.877 356.98C239.916 357.149 233.65 360.282 229.555 356.577C229.386 356.421 229.555 356.187 229.763 356.252C232.636 357.37 235.405 357.123 238.265 356.408C238.265 355.875 235.379 350.129 235.665 350.025C236.64 349.674 238.785 349.83 240.046 349.856C237.017 342.017 232.753 334.724 229.854 326.872C229.75 326.586 230.14 326.391 230.296 326.625C235.301 333.944 238.98 342.888 242.321 350.909C242.75 351.91 238.629 351.533 237.823 351.416L237.836 351.442Z" fill="#263238"/>
<path d="M237.784 357.032C237.784 357.032 236.965 359.658 235.106 361.153C234.417 361.699 233.624 362.102 232.662 362.18C230.686 362.336 230.062 360.685 229.906 359.151C229.763 357.89 229.958 356.694 229.958 356.694C229.958 356.694 233.455 358.254 237.797 357.045L237.784 357.032Z" fill="#263238"/>
<path d="M235.106 361.153C234.417 361.699 233.624 362.102 232.662 362.18C230.686 362.336 230.062 360.685 229.906 359.151C231.921 358.67 234.3 359.32 235.119 361.153H235.106Z" fill="#FF99BA"/>
<path d="M184.978 360.594C192.817 355.03 191.595 345.995 191.595 345.995C201.41 339.547 205.687 330.239 206.129 329.29C206.012 330.135 205.167 336.232 204.634 339.326C228.385 330.343 232.636 310.18 232.636 310.18C242.022 316.706 244.531 321.516 246.13 323.843C246.13 323.843 243.621 308.737 234.066 300.027C222.366 289.354 209.847 294.021 209.847 294.021C209.847 294.021 189.736 291.746 177.789 310.518C164.932 330.759 184.978 360.594 184.978 360.594Z" fill="#263238"/>
<path d="M222.588 331.929C219.065 334.828 214.983 337.103 210.81 338.806C210.771 338.819 210.758 338.767 210.784 338.754C217.362 335.556 222.926 330.811 226.878 324.623C228.542 322.01 229.881 319.215 230.856 316.264C231.87 313.183 232.754 309.569 232.442 306.306C232.416 306.059 232.806 306.02 232.832 306.267C233.157 309.712 233.417 312.897 232.611 316.303C231.844 319.54 230.479 322.673 228.607 325.416C226.93 327.873 224.876 330.031 222.588 331.916" fill="#263238"/>
<path d="M221.47 356.33C216.387 357.123 211.2 354.419 209.081 349.479C206.572 343.629 209.289 336.843 215.139 334.334C220.989 331.825 227.775 334.542 230.284 340.392C232.793 346.242 230.076 353.028 224.226 355.537C223.329 355.927 222.393 356.187 221.47 356.33ZM218.129 335.062C217.323 335.192 216.53 335.413 215.737 335.751C210.667 337.922 208.314 343.811 210.485 348.868C212.656 353.925 218.545 356.291 223.602 354.12C228.672 351.949 231.025 346.06 228.854 341.003C227.021 336.726 222.523 334.373 218.116 335.062H218.129Z" fill="#FFC727"/>
<path d="M246.924 349.076C242.569 349.765 237.902 345.917 236.29 340.119C235.471 337.194 235.536 334.204 236.472 331.695C237.434 329.108 239.202 327.327 241.464 326.69C243.726 326.053 246.157 326.664 248.328 328.38C250.421 330.044 252.033 332.566 252.839 335.491C254.555 341.614 252.228 347.633 247.678 348.907C247.431 348.972 247.184 349.024 246.937 349.063L246.924 349.076ZM242.439 328.055C242.244 328.081 242.062 328.12 241.867 328.185C240.099 328.679 238.695 330.122 237.902 332.228C237.083 334.438 237.031 337.09 237.759 339.703C239.241 345.007 243.479 348.478 247.236 347.425C250.98 346.385 252.813 341.211 251.331 335.907C250.603 333.294 249.186 331.045 247.34 329.589C245.754 328.341 244.038 327.808 242.426 328.055H242.439Z" fill="#FFC727"/>
<path d="M230.271 341.783L228.997 340.912C230.284 339.027 233.651 336.037 237.174 338.182L236.368 339.495C233.209 337.571 230.388 341.614 230.271 341.783Z" fill="#FFC727"/>
<path d="M181.56 358.475L180.052 358.163C180.195 357.461 181.573 351.247 184.732 349.778C187.696 348.413 208.119 344.721 208.99 344.565L209.263 346.086C203.4 347.139 187.67 350.129 185.382 351.182C183.289 352.144 181.911 356.785 181.56 358.488V358.475Z" fill="#FFC727"/>
<path d="M190.101 354.289C190.101 354.289 179.272 343.967 174.423 348.075C169.574 352.17 179.415 368.316 186.305 369.408C193.182 370.5 194.326 364.143 194.326 364.143L190.114 354.302L190.101 354.289Z" fill="#AD6359"/>
<path d="M177.36 352.638C177.256 352.638 177.269 352.794 177.36 352.82C182.222 353.73 185.42 357.409 187.955 361.4C186.278 360.009 184.276 359.463 182.378 361.504C182.274 361.608 182.43 361.777 182.547 361.725C184.302 360.958 185.693 361.01 187.24 362.232C188.332 363.09 189.203 364.299 190.074 365.365C190.36 365.729 191.049 365.365 190.802 364.936C190.789 364.91 190.763 364.871 190.75 364.845C189.71 359.099 183.639 351.988 177.373 352.664L177.36 352.638Z" fill="#263238"/>
<path d="M181.559 402.194C183.119 404.183 184.718 406.133 186.408 408.005C188.072 409.903 189.801 411.736 191.608 413.465C195.235 416.897 199.122 420.212 203.672 422.11C205.908 423.072 208.352 423.631 210.718 423.293C211.94 423.137 212.928 422.76 213.695 421.863C214.462 421.005 214.982 419.9 215.411 418.756C216.23 416.442 216.581 413.933 216.763 411.437C216.958 408.941 216.997 406.406 216.724 403.897C217.296 406.367 217.387 408.928 217.413 411.463C217.348 414.011 217.114 416.572 216.373 419.068C215.983 420.303 215.463 421.564 214.553 422.604C214.098 423.124 213.552 423.605 212.889 423.904C212.213 424.216 211.563 424.359 210.913 424.463C208.261 424.892 205.57 424.294 203.178 423.306C200.786 422.266 198.615 420.862 196.587 419.289C194.572 417.716 192.661 416.013 190.919 414.154C187.409 410.475 184.263 406.471 181.572 402.181L181.559 402.194Z" fill="#263238"/>
<path d="M548.354 126.932H426.622V204.581H548.354V126.932Z" fill="white"/>
<path d="M549.121 205.361H425.855V126.165H549.121V205.361ZM427.389 203.827H547.587V127.712H427.389V203.827Z" fill="#EBEBEB"/>
<path d="M548.354 126.932H426.622V141.622H548.354V126.932Z" fill="#455A64"/>
<path d="M549.121 142.389H425.855V126.165H549.121V142.389ZM427.389 140.855H547.587V127.712H427.389V140.855Z" fill="#EBEBEB"/>
<path d="M440.402 134.394C440.402 136.435 438.751 138.086 436.71 138.086C434.669 138.086 433.018 136.435 433.018 134.394C433.018 132.353 434.669 130.702 436.71 130.702C438.751 130.702 440.402 132.353 440.402 134.394Z" fill="#FFC727"/>
<path d="M455.494 134.394C455.494 136.435 453.843 138.086 451.802 138.086C449.761 138.086 448.11 136.435 448.11 134.394C448.11 132.353 449.761 130.702 451.802 130.702C453.843 130.702 455.494 132.353 455.494 134.394Z" fill="#EBEBEB"/>
<path d="M470.587 134.394C470.587 136.435 468.936 138.086 466.895 138.086C464.854 138.086 463.203 136.435 463.203 134.394C463.203 132.353 464.854 130.702 466.895 130.702C468.936 130.702 470.587 132.353 470.587 134.394Z" fill="white"/>
<path d="M447.63 170.664C447.669 162.565 454.455 155.987 462.645 155.935C466.246 155.935 469.522 157.118 472.096 159.12C473.071 159.939 473.24 161.369 472.499 162.396C471.68 163.423 470.172 163.579 469.223 162.851C467.429 161.382 465.167 160.602 462.632 160.602C459.811 160.602 457.198 161.746 455.274 163.54C453.428 165.425 452.284 167.882 452.284 170.651C452.284 173.42 453.428 175.968 455.274 177.762C457.198 179.556 459.811 180.7 462.632 180.7C465.167 180.7 467.377 179.92 469.223 178.451C470.159 177.762 471.68 177.918 472.499 178.906C473.24 179.933 473.071 181.402 472.096 182.182C469.522 184.184 466.246 185.367 462.645 185.367C454.468 185.367 447.682 178.776 447.63 170.638V170.664Z" fill="#EBEBEB"/>
<path d="M479.532 178.269C480.273 177.372 481.612 177.242 482.522 177.983C484.316 179.452 487.436 181.168 490.335 181.129C492.376 181.129 494.222 180.518 495.444 179.621C496.666 178.724 497.199 177.697 497.199 176.67C497.199 176.137 497.082 175.773 496.835 175.357C496.588 174.941 496.224 174.538 495.613 174.135C494.43 173.355 492.428 172.666 490.01 172.211H489.932C488.008 171.847 486.214 171.353 484.654 170.612C483.094 169.871 481.755 168.857 480.845 167.427C480.234 166.439 479.909 165.295 479.909 164.073C479.909 161.616 481.3 159.497 483.185 158.106C485.109 156.715 487.605 155.935 490.257 155.935C494.183 155.935 497.082 157.859 499.175 159.211C500.111 159.861 500.397 161.174 499.747 162.11C499.136 163.098 497.823 163.384 496.848 162.721C494.768 161.33 492.753 160.108 490.257 160.108C488.411 160.108 486.786 160.68 485.681 161.499C484.576 162.318 484.121 163.215 484.121 164.073C484.121 164.567 484.199 164.892 484.407 165.217C484.615 165.542 484.979 165.919 485.512 166.283C486.578 167.024 488.411 167.674 490.621 168.077H490.699C492.792 168.48 494.703 169.013 496.341 169.793C498.018 170.612 499.487 171.678 500.436 173.186C501.047 174.161 501.424 175.396 501.424 176.657C501.424 179.27 499.955 181.519 497.901 183.001C495.899 184.47 493.234 185.328 490.335 185.328C485.915 185.289 482.197 183.079 479.87 181.233C478.973 180.492 478.843 179.153 479.545 178.243L479.532 178.269Z" fill="#EBEBEB"/>
<path d="M506.402 178.269C507.143 177.372 508.482 177.242 509.392 177.983C511.186 179.452 514.306 181.168 517.205 181.129C519.246 181.129 521.092 180.518 522.314 179.621C523.536 178.724 524.069 177.697 524.069 176.67C524.069 176.137 523.952 175.773 523.705 175.357C523.458 174.941 523.094 174.538 522.483 174.135C521.3 173.355 519.298 172.666 516.88 172.211H516.802C514.878 171.847 513.084 171.353 511.524 170.612C509.964 169.871 508.625 168.857 507.715 167.427C507.104 166.439 506.779 165.295 506.779 164.073C506.779 161.616 508.17 159.497 510.055 158.106C511.979 156.715 514.475 155.935 517.127 155.935C521.053 155.935 523.952 157.859 526.045 159.211C526.981 159.861 527.267 161.174 526.617 162.11C526.006 163.098 524.693 163.384 523.718 162.721C521.638 161.33 519.623 160.108 517.14 160.108C515.294 160.108 513.669 160.68 512.564 161.499C511.459 162.318 511.004 163.215 511.004 164.073C511.004 164.567 511.082 164.892 511.29 165.217C511.498 165.542 511.862 165.919 512.395 166.283C513.461 167.024 515.294 167.674 517.504 168.077H517.582C519.675 168.48 521.586 169.013 523.224 169.793C524.901 170.612 526.37 171.678 527.306 173.186C527.917 174.161 528.294 175.396 528.294 176.657C528.294 179.27 526.825 181.519 524.771 183.001C522.769 184.47 520.104 185.328 517.205 185.328C512.785 185.289 509.067 183.079 506.74 181.233C505.843 180.492 505.713 179.153 506.415 178.243L506.402 178.269Z" fill="#EBEBEB"/>
<path d="M162.097 292.825H93.7559V323.531H162.097V292.825Z" fill="#455A64"/>
<path d="M114.088 309.53H111.254V314.535C111.254 315.224 110.682 315.809 109.967 315.809C109.252 315.809 108.693 315.237 108.693 314.535V300.924C108.693 300.209 109.265 299.65 109.967 299.65H114.101C116.844 299.65 119.067 301.86 119.067 304.616C119.067 307.372 116.844 309.53 114.101 309.53H114.088ZM111.254 306.969H114.088C115.427 306.969 116.467 305.903 116.493 304.616C116.467 303.277 115.427 302.211 114.088 302.211H111.254V306.969Z" fill="white"/>
<path d="M122.147 314.549V300.938C122.147 300.223 122.706 299.664 123.421 299.664C124.136 299.664 124.708 300.223 124.708 300.938V306.476H130.688V300.938C130.688 300.223 131.247 299.664 131.962 299.664C132.677 299.664 133.249 300.223 133.249 300.938V314.549C133.249 315.264 132.677 315.823 131.962 315.823C131.247 315.823 130.688 315.264 130.688 314.549V309.011H124.708V314.549C124.708 315.264 124.136 315.823 123.421 315.823C122.706 315.823 122.147 315.264 122.147 314.549Z" fill="white"/>
<path d="M143.911 309.53H141.077V314.535C141.077 315.224 140.505 315.809 139.79 315.809C139.075 315.809 138.516 315.237 138.516 314.535V300.924C138.516 300.209 139.088 299.65 139.79 299.65H143.924C146.667 299.65 148.89 301.86 148.89 304.616C148.89 307.372 146.68 309.53 143.924 309.53H143.911ZM141.077 306.969H143.911C145.25 306.969 146.29 305.903 146.316 304.616C146.29 303.277 145.25 302.211 143.911 302.211H141.077V306.969Z" fill="white"/>
<path d="M306.488 198.016H184.756V275.665H306.488V198.016Z" fill="white"/>
<path d="M307.255 276.432H183.989V197.236H307.255V276.432ZM185.523 274.898H305.708V198.783H185.523V274.898Z" fill="#EBEBEB"/>
<path d="M306.488 198.016H184.756V212.706H306.488V198.016Z" fill="#455A64"/>
<path d="M307.255 213.473H183.989V197.249H307.255V213.473ZM185.523 211.939H305.708V198.796H185.523V211.939Z" fill="#EBEBEB"/>
<path d="M198.536 205.465C198.536 207.506 196.885 209.157 194.844 209.157C192.803 209.157 191.152 207.506 191.152 205.465C191.152 203.424 192.803 201.773 194.844 201.773C196.885 201.773 198.536 203.424 198.536 205.465Z" fill="#FFC727"/>
<path d="M213.629 205.465C213.629 207.506 211.978 209.157 209.937 209.157C207.896 209.157 206.245 207.506 206.245 205.465C206.245 203.424 207.896 201.773 209.937 201.773C211.978 201.773 213.629 203.424 213.629 205.465Z" fill="#EBEBEB"/>
<path d="M228.722 205.465C228.722 207.506 227.071 209.157 225.03 209.157C222.989 209.157 221.338 207.506 221.338 205.465C221.338 203.424 222.989 201.773 225.03 201.773C227.071 201.773 228.722 203.424 228.722 205.465Z" fill="white"/>
<path d="M207.481 241.735C207.52 233.636 214.306 227.058 222.496 227.006C226.097 227.006 229.373 228.189 231.947 230.191C232.922 231.01 233.091 232.44 232.35 233.467C231.531 234.494 230.023 234.65 229.074 233.922C227.28 232.453 225.031 231.673 222.496 231.673C219.675 231.673 217.062 232.817 215.138 234.611C213.292 236.496 212.148 238.953 212.148 241.722C212.148 244.491 213.292 247.039 215.138 248.833C217.062 250.627 219.675 251.784 222.496 251.784C225.031 251.784 227.241 251.004 229.074 249.535C230.01 248.846 231.531 249.002 232.35 249.99C233.091 251.017 232.922 252.486 231.947 253.266C229.373 255.268 226.097 256.451 222.496 256.451C214.319 256.451 207.533 249.873 207.481 241.722V241.735Z" fill="#EBEBEB"/>
<path d="M246.703 244.322H240.892C239.67 244.322 238.643 243.347 238.643 242.073C238.643 240.799 239.67 239.824 240.892 239.824H246.703V234.143C246.703 232.83 247.73 231.816 249.03 231.816C250.33 231.816 251.357 232.843 251.357 234.143V239.824H257.168C258.39 239.824 259.417 240.851 259.417 242.073C259.417 243.295 258.39 244.322 257.168 244.322H251.357V250.003C251.357 251.316 250.291 252.33 249.03 252.33C247.769 252.33 246.703 251.303 246.703 250.003V244.322Z" fill="#EBEBEB"/>
<path d="M272.066 244.322H266.255C265.033 244.322 264.006 243.347 264.006 242.073C264.006 240.799 265.033 239.824 266.255 239.824H272.066V234.143C272.066 232.83 273.093 231.816 274.393 231.816C275.693 231.816 276.72 232.843 276.72 234.143V239.824H282.531C283.753 239.824 284.78 240.851 284.78 242.073C284.78 243.295 283.753 244.322 282.531 244.322H276.72V250.003C276.72 251.316 275.654 252.33 274.393 252.33C273.132 252.33 272.066 251.303 272.066 250.003V244.322Z" fill="#EBEBEB"/>
<g opacity="0.6">
<path d="M532.168 215.527H329.16V357.747H532.168V215.527Z" fill="white"/>
<path d="M532.949 358.514H328.394V214.747H532.949V358.514ZM329.941 356.98H531.415V216.294H329.941V356.98Z" fill="#EBEBEB"/>
<path d="M532.168 215.527H329.16V230.217H532.168V215.527Z" fill="#455A64"/>
<path d="M532.949 230.971H328.394V214.747H532.949V230.971ZM329.941 229.437H531.415V216.294H329.941V229.437Z" fill="#EBEBEB"/>
<path d="M342.952 222.976C342.952 225.017 341.301 226.668 339.26 226.668C337.219 226.668 335.568 225.017 335.568 222.976C335.568 220.935 337.219 219.284 339.26 219.284C341.301 219.284 342.952 220.935 342.952 222.976Z" fill="#FFC727"/>
<path d="M358.046 222.976C358.046 225.017 356.395 226.668 354.354 226.668C352.313 226.668 350.662 225.017 350.662 222.976C350.662 220.935 352.313 219.284 354.354 219.284C356.395 219.284 358.046 220.935 358.046 222.976Z" fill="#EBEBEB"/>
<path d="M373.125 222.976C373.125 225.017 371.474 226.668 369.433 226.668C367.392 226.668 365.741 225.017 365.741 222.976C365.741 220.935 367.392 219.284 369.433 219.284C371.474 219.284 373.125 220.935 373.125 222.976Z" fill="white"/>
<path d="M352.768 259.415H344.916V262.288H352.768V259.415Z" fill="#EBEBEB"/>
<path d="M448.552 259.415H358.488V262.288H448.552V259.415Z" fill="#EBEBEB"/>
<path d="M468.286 259.415H453.375V262.288H468.286V259.415Z" fill="#FFC727"/>
<path d="M497.301 259.415H471.522V262.288H497.301V259.415Z" fill="#A6A6A6"/>
<path d="M360.62 267.098H352.768V269.971H360.62V267.098Z" fill="#EBEBEB"/>
<path d="M425.243 267.098H366.145V269.971H425.243V267.098Z" fill="#A6A6A6"/>
<path d="M414.934 290.121H358.488V292.994H414.934V290.121Z" fill="#A6A6A6"/>
<path d="M405.743 274.768H366.145V277.641H405.743V274.768Z" fill="#FFC727"/>
<path d="M478.452 282.451H463.346V285.324H478.452V282.451Z" fill="#A6A6A6"/>
<path d="M473.382 274.768H410.137V277.641H473.382V274.768Z" fill="#A6A6A6"/>
<path d="M433.979 297.791H358.488V300.664H433.979V297.791Z" fill="#FFC727"/>
<path d="M510.783 267.098H469.872V269.971H510.783V267.098Z" fill="#FFC727"/>
<path d="M466.623 267.098H428.962V269.971H466.623V267.098Z" fill="#EBEBEB"/>
<path d="M501.774 274.768H476.359V277.641H501.774V274.768Z" fill="#EBEBEB"/>
<path d="M360.62 274.768H352.768V277.641H360.62V274.768Z" fill="#EBEBEB"/>
<path d="M352.768 282.451H344.916V285.324H352.768V282.451Z" fill="#A6A6A6"/>
<path d="M404.885 282.451H358.488V285.324H404.885V282.451Z" fill="#EBEBEB"/>
<path d="M468.287 290.121H418.133V292.994H468.287V290.121Z" fill="#EBEBEB"/>
<path d="M503.437 290.121H471.522V292.994H503.437V290.121Z" fill="#FFC727"/>
<path d="M459.693 282.451H409.604V285.324H459.693V282.451Z" fill="#FFC727"/>
<path d="M352.768 290.121H344.916V292.994H352.768V290.121Z" fill="#EBEBEB"/>
<path d="M352.768 297.791H344.916V300.664H352.768V297.791Z" fill="#EBEBEB"/>
<path d="M349.765 251.862C350.038 252.148 350.038 252.564 349.765 252.837C349.622 252.967 349.466 253.032 349.297 253.032C349.115 253.032 348.946 252.967 348.803 252.837L345.774 249.769C345.774 249.769 345.735 249.743 345.722 249.704L345.683 249.678C345.657 249.652 345.657 249.626 345.657 249.587C345.631 249.587 345.618 249.561 345.618 249.548C345.618 249.522 345.618 249.496 345.592 249.483C345.592 249.457 345.566 249.444 345.566 249.431V249.353C345.566 249.353 345.566 249.327 345.566 249.288C345.566 249.288 345.566 249.249 345.566 249.236V249.158C345.566 249.158 345.592 249.132 345.592 249.119C345.592 249.093 345.592 249.067 345.618 249.028C345.618 249.028 345.618 249.028 345.618 249.002C345.644 248.976 345.657 248.924 345.67 248.911C345.67 248.911 345.67 248.885 345.696 248.885C345.696 248.859 345.722 248.833 345.761 248.807L348.79 245.739C349.063 245.479 349.505 245.479 349.765 245.739C350.038 246.012 350.038 246.441 349.765 246.714L347.217 249.288L349.765 251.862Z" fill="#FFC727"/>
<path d="M352.508 252.213L355.147 245.934C355.277 245.635 355.615 245.492 355.927 245.622C356.213 245.739 356.356 246.09 356.226 246.389L353.587 252.681C353.483 252.902 353.262 253.032 353.041 253.032C352.976 253.032 352.885 253.032 352.82 252.993C352.508 252.876 352.365 252.525 352.495 252.213H352.508Z" fill="#FFC727"/>
<path d="M361.452 249.678C361.426 249.704 361.413 249.73 361.374 249.756L358.345 252.824C358.215 252.954 358.033 253.019 357.864 253.019C357.682 253.019 357.526 252.954 357.383 252.824C357.11 252.551 357.11 252.135 357.383 251.849L359.931 249.275L357.383 246.701C357.11 246.428 357.11 245.999 357.383 245.726C357.643 245.466 358.085 245.466 358.358 245.726L361.387 248.794C361.387 248.794 361.439 248.846 361.465 248.872V248.898C361.491 248.937 361.504 248.963 361.517 248.989C361.517 248.989 361.517 248.989 361.517 249.015C361.517 249.054 361.517 249.067 361.543 249.119C361.543 249.119 361.543 249.119 361.543 249.145V249.223C361.543 249.223 361.543 249.262 361.543 249.275C361.543 249.275 361.543 249.314 361.543 249.327V249.418C361.543 249.418 361.543 249.418 361.543 249.444C361.517 249.483 361.517 249.522 361.517 249.535C361.517 249.535 361.517 249.535 361.517 249.561C361.517 249.587 361.478 249.613 361.465 249.652L361.452 249.678Z" fill="#FFC727"/>
</g>
<path d="M206.519 169.39H123.592V200.096H206.519V169.39Z" fill="#FFC727"/>
<path d="M135.564 191.113V177.502C135.564 176.787 136.123 176.228 136.838 176.228C137.553 176.228 138.125 176.787 138.125 177.502V183.04H144.105V177.502C144.105 176.787 144.664 176.228 145.379 176.228C146.094 176.228 146.666 176.787 146.666 177.502V191.113C146.666 191.828 146.094 192.387 145.379 192.387C144.664 192.387 144.105 191.828 144.105 191.113V185.575H138.125V191.113C138.125 191.828 137.553 192.387 136.838 192.387C136.123 192.387 135.564 191.828 135.564 191.113Z" fill="white"/>
<path d="M161.812 178.789H158.146V191.113C158.146 191.828 157.587 192.387 156.872 192.387C156.157 192.387 155.598 191.828 155.598 191.113V178.789H151.945C151.23 178.789 150.671 178.191 150.671 177.502C150.671 176.813 151.23 176.228 151.945 176.228H161.799C162.488 176.228 163.073 176.787 163.073 177.502C163.073 178.217 162.501 178.789 161.799 178.789H161.812Z" fill="white"/>
<path d="M180.778 177.502V191.113C180.778 191.802 180.18 192.387 179.491 192.387C178.802 192.387 178.217 191.815 178.217 191.113V181.402L174.889 186.017C174.629 186.368 174.265 186.55 173.849 186.55H173.797C173.381 186.55 172.991 186.368 172.731 186.017L169.429 181.402V191.113C169.429 191.802 168.857 192.387 168.142 192.387C167.427 192.387 166.868 191.815 166.868 191.113V177.502C166.868 176.813 167.44 176.228 168.142 176.228H168.207C168.571 176.228 168.987 176.41 169.221 176.761L173.81 183.131L178.399 176.761C178.659 176.41 179.023 176.228 179.439 176.228H179.465C180.154 176.254 180.752 176.8 180.752 177.502H180.778Z" fill="white"/>
<path d="M186.368 191.113V177.502C186.368 176.813 186.927 176.228 187.642 176.228C188.357 176.228 188.929 176.8 188.929 177.502V189.826H195.182C195.845 189.826 196.456 190.398 196.456 191.113C196.456 191.828 195.858 192.387 195.182 192.387H187.629C186.914 192.387 186.355 191.815 186.355 191.113H186.368Z" fill="white"/>
<path d="M338.962 334.724H292.669V365.43H338.962V334.724Z" fill="#FFC727"/>
<path d="M305.24 353.054C305.643 354.289 306.8 355.173 308.165 355.173C309.868 355.173 311.246 353.782 311.246 352.105V343.226C311.246 342.537 311.805 341.991 312.494 341.991C313.183 341.991 313.729 342.524 313.729 343.226V352.105C313.729 355.173 311.22 357.643 308.165 357.643C305.708 357.643 303.602 356.031 302.887 353.795C302.666 353.119 303.043 352.43 303.667 352.248C304.343 352.027 305.032 352.378 305.227 353.028L305.24 353.054Z" fill="white"/>
<path d="M316.849 353.769C317.252 353.275 317.993 353.21 318.487 353.613C319.475 354.419 321.165 355.355 322.751 355.329C323.869 355.329 324.87 354.991 325.546 354.497C326.222 354.003 326.508 353.444 326.508 352.885C326.508 352.599 326.443 352.391 326.313 352.17C326.183 351.949 325.975 351.728 325.637 351.494C324.987 351.065 323.895 350.688 322.569 350.441H322.53C321.477 350.246 320.502 349.973 319.644 349.57C318.799 349.167 318.058 348.608 317.564 347.828C317.226 347.295 317.044 346.671 317.044 345.995C317.044 344.656 317.798 343.486 318.838 342.732C319.891 341.978 321.256 341.549 322.712 341.549C324.857 341.549 326.443 342.602 327.587 343.343C328.107 343.707 328.263 344.422 327.899 344.929C327.561 345.462 326.846 345.618 326.313 345.267C325.169 344.513 324.077 343.837 322.712 343.837C321.711 343.837 320.814 344.149 320.203 344.591C319.605 345.033 319.358 345.527 319.358 345.995C319.358 346.268 319.397 346.437 319.514 346.619C319.631 346.801 319.826 346.996 320.112 347.204C320.697 347.607 321.698 347.958 322.907 348.192H322.946C324.09 348.413 325.13 348.712 326.027 349.128C326.937 349.57 327.743 350.155 328.263 350.987C328.601 351.52 328.796 352.196 328.796 352.885C328.796 354.315 327.99 355.55 326.872 356.356C325.78 357.162 324.324 357.63 322.738 357.63C320.32 357.604 318.292 356.408 317.018 355.394C316.524 354.991 316.459 354.25 316.836 353.756L316.849 353.769Z" fill="white"/>
<path opacity="0.6" d="M135.343 552.747C135.343 552.747 163.774 539.656 163.774 522.093C163.774 504.53 126.906 493.233 126.906 479.518C126.906 465.803 142.987 457.73 142.987 457.73C142.987 457.73 117.598 466.401 117.598 483.756C117.598 501.111 141.895 512.863 144.222 523.913C147.446 539.253 135.356 552.747 135.356 552.747H135.343Z" fill="#DBDBDB"/>
<path opacity="0.6" d="M136.747 552.748C136.747 552.748 108.316 542.452 108.316 528.646C108.316 514.84 145.184 505.961 145.184 495.171C145.184 484.381 129.103 478.037 129.103 478.037C129.103 478.037 154.492 484.862 154.492 498.499C154.492 512.136 126.581 521.522 124.592 532.611C122.629 543.479 136.734 552.748 136.734 552.748H136.747Z" fill="#DBDBDB"/>
<path d="M149.161 596.896H122.121V601.121H149.161V596.896Z" fill="#37474F"/>
<path d="M149.161 596.896H122.121V599.678H149.161V596.896Z" fill="#263238"/>
<path d="M90.0249 585.547C93.2229 590.045 98.8779 593.256 105.248 592.06C106.158 591.891 107.055 591.631 107.991 591.267C109.252 590.786 110.526 590.123 111.813 589.252L108.381 584.156C107.679 584.637 107.003 585.014 106.353 585.313C99.9179 588.238 95.8359 583.155 95.0429 581.998C91.3379 576.785 90.0119 564.89 93.7689 560.314C94.0159 559.976 95.1079 559.443 99.4629 560.366C100.269 560.548 101.179 560.756 102.206 561.029C103.35 561.354 104.026 561.536 104.676 561.562L104.78 558.507L105.079 555.452C104.793 555.4 104.364 555.27 103.792 555.114C102.154 554.672 99.9309 554.074 97.6429 553.84C94.4449 553.502 91.0779 553.892 89.0239 556.427C82.9269 563.902 85.3969 579.008 90.0379 585.547H90.0249Z" fill="#37474F"/>
<path d="M108.381 584.168C107.679 584.649 107.003 585.026 106.353 585.325L107.991 591.279C109.252 590.798 110.526 590.135 111.813 589.264L108.381 584.168Z" fill="#263238"/>
<path d="M97.6302 553.853L99.4372 560.379C100.243 560.561 101.153 560.769 102.18 561.042C103.324 561.367 104 561.549 104.65 561.575L104.754 558.52L105.053 555.465C104.767 555.413 104.338 555.283 103.766 555.127C102.128 554.685 99.9052 554.087 97.6172 553.853H97.6302Z" fill="#263238"/>
<path d="M171.613 545.871C171.613 545.871 168.363 573.431 162.76 585.04C157.157 596.623 149.344 597.923 144.482 597.923H126.802C121.94 597.923 114.127 596.623 108.524 585.04C102.921 573.431 99.6709 545.871 99.6709 545.871H171.613Z" fill="#37474F"/>
<path d="M167.766 568.764C167.207 571.299 166.596 573.808 165.92 576.174H105.366C104.69 573.808 104.079 571.299 103.52 568.764H167.766Z" fill="#455A64"/>
<path d="M165.087 578.982C164.671 580.295 164.242 581.543 163.787 582.687H107.497C107.042 581.543 106.613 580.295 106.197 578.982H165.087Z" fill="#455A64"/>
<path d="M169.156 561.796C168.935 563.005 168.701 564.24 168.441 565.501H102.843C102.583 564.24 102.349 563.005 102.128 561.796H169.156Z" fill="#455A64"/>
</g>
<defs>
<clipPath id="clip0_757_5237">
<rect width="551.447" height="575.549" fill="white" transform="translate(49.4004 37.7002)"/>
</clipPath>
</defs>
</svg>
