<svg width="17" height="16" viewBox="0 0 17 16" fill="none" xmlns="http://www.w3.org/2000/svg">
<g opacity="0.7">
<path d="M9.23418 12.6666C9.10234 12.6661 8.97361 12.6264 8.86429 12.5527C8.75497 12.479 8.66996 12.3745 8.62001 12.2525C8.57006 12.1305 8.55741 11.9964 8.58367 11.8672C8.60992 11.738 8.6739 11.6195 8.76752 11.5266L11.8342 8.47329C11.8967 8.41132 11.9463 8.33758 11.9801 8.25634C12.014 8.1751 12.0314 8.08797 12.0314 7.99996C12.0314 7.91195 12.014 7.82481 11.9801 7.74357C11.9463 7.66233 11.8967 7.5886 11.8342 7.52663L8.76752 4.47329C8.70503 4.41132 8.65544 4.33758 8.62159 4.25634C8.58774 4.1751 8.57032 4.08797 8.57032 3.99996C8.57032 3.91195 8.58774 3.82481 8.62159 3.74357C8.65544 3.66233 8.70503 3.5886 8.76752 3.52663C8.89243 3.40246 9.06139 3.33276 9.23752 3.33276C9.41364 3.33276 9.58261 3.40246 9.70752 3.52663L12.7675 6.58663C13.1421 6.96163 13.3524 7.46996 13.3524 7.99996C13.3524 8.52996 13.1421 9.03829 12.7675 9.41329L9.70752 12.4733C9.64522 12.5351 9.57135 12.584 9.49012 12.6171C9.4089 12.6503 9.32192 12.6671 9.23418 12.6666Z" fill="white"/>
<path d="M4.56622 12.6666C4.43437 12.6661 4.30564 12.6264 4.19632 12.5527C4.087 12.479 4.00199 12.3745 3.95204 12.2525C3.90209 12.1305 3.88944 11.9964 3.9157 11.8672C3.94195 11.738 4.00593 11.6195 4.09955 11.5266L7.62622 7.99996L4.09955 4.47329C4.03706 4.41132 3.98747 4.33758 3.95362 4.25634C3.91978 4.1751 3.90235 4.08797 3.90235 3.99996C3.90235 3.91195 3.91978 3.82481 3.95362 3.74357C3.98747 3.66233 4.03706 3.5886 4.09955 3.52663C4.22446 3.40246 4.39342 3.33276 4.56955 3.33276C4.74567 3.33276 4.91464 3.40246 5.03955 3.52663L9.03955 7.52663C9.10204 7.5886 9.15163 7.66233 9.18548 7.74357C9.21932 7.82481 9.23675 7.91195 9.23675 7.99996C9.23675 8.08797 9.21932 8.1751 9.18548 8.25634C9.15163 8.33758 9.10204 8.41132 9.03955 8.47329L5.03955 12.4733C4.97726 12.5351 4.90338 12.584 4.82215 12.6171C4.74093 12.6503 4.65395 12.6671 4.56622 12.6666Z" fill="white"/>
</g>
</svg>
