<svg width="261" height="69" viewBox="0 0 261 69" fill="none" xmlns="http://www.w3.org/2000/svg">
<path d="M18.5548 0.35024L6.02661 7.47242C5.1954 7.94496 5.19337 9.14221 6.02299 9.61756L22.5635 19.0948C22.9476 19.3149 23.1845 19.7237 23.1845 20.1664V39.2596C23.1845 40.2041 24.2017 40.799 25.025 40.336L37.3746 33.3893C37.7635 33.1706 38.0041 32.7591 38.0041 32.313V11.6207C38.0041 11.1801 37.7694 10.7729 37.3881 10.552L19.7841 0.355208C19.4044 0.135226 18.9364 0.133334 18.5548 0.35024Z" fill="#E7B900"/>
<path d="M12.9568 23.3708L0.6072 30.6605C0.230906 30.8826 0 31.287 0 31.724V52.4485C0 52.881 0.226204 53.2819 0.596346 53.5056L12.946 60.9668C13.7691 61.4641 14.8196 60.8714 14.8196 59.9098V24.4343C14.8196 23.4783 13.7801 22.8848 12.9568 23.3708Z" fill="white"/>
<path d="M52.2552 39.1246V39.5344H52.665H58.5914H59.0012V39.1246V30.51L74.497 30.4728C74.4971 30.4728 74.4971 30.4728 74.4972 30.4728C75.6113 30.4727 76.6278 30.2002 77.5364 29.6502C78.4608 29.1059 79.1976 28.3693 79.7421 27.4452C80.3158 26.5148 80.6038 25.4984 80.6038 24.4043V17.2926C80.6038 16.1986 80.3158 15.1821 79.7421 14.2518C79.1976 13.3276 78.4608 12.591 77.5364 12.0468C76.6278 11.4966 75.6112 11.2241 74.497 11.2241H52.665H52.2552V11.6339V39.1246ZM107.218 39.388L107.341 39.5344H107.532H113.65H114.06V39.1246V37.0981V36.9479L113.963 36.8333L108.555 30.4487C109.451 30.3712 110.278 30.106 111.031 29.6501C111.955 29.1059 112.692 28.3694 113.236 27.4453C113.81 26.5148 114.098 25.4984 114.098 24.4043V17.2926C114.098 16.1985 113.81 15.1821 113.236 14.2517C112.692 13.3276 111.955 12.591 111.031 12.0468C110.122 11.4967 109.105 11.2241 107.991 11.2241H86.1592H85.7494V11.6339V39.1246V39.5344H86.1592H92.0855H92.4953V39.1246V30.51L99.752 30.4926L107.218 39.388ZM155.54 39.1246V39.5344H155.95H177.782C178.896 39.5344 179.912 39.2618 180.821 38.7117C181.746 38.1674 182.482 37.4307 183.027 36.5064C183.6 35.5761 183.888 34.5598 183.888 33.4659V17.2544C183.888 16.1378 183.602 15.1197 183.025 14.2111C182.481 13.2881 181.745 12.5523 180.821 12.0085C179.912 11.4584 178.896 11.1859 177.782 11.1859H155.95H155.54V11.5957V39.1246ZM190.677 39.1246V39.5344H191.087H216.513H216.922V39.1246V33.16V32.7502H216.513H197.499V28.7522H212.727H213.137V28.3424V22.3778V21.968H212.727H197.499V17.9701H216.513H216.922V17.5603V11.5957V11.1859H216.513H191.087H190.677V11.5957V39.1246ZM238.32 39.3299L238.438 39.5344H238.674H243.607H243.843L243.961 39.3299L259.905 11.8011L260.261 11.1859H259.551H252.707H252.47L252.352 11.3908L241.16 30.7728L229.968 11.3908L229.849 11.1859H229.613H222.731H222.02L222.376 11.8011L238.32 39.3299ZM73.7813 17.9701V23.6886H59.0012V17.9701H73.7813ZM107.275 17.9701V23.6886H92.4953V17.9701H107.275ZM123.505 38.7131C124.436 39.2605 125.451 39.5344 126.542 39.5344H142.754C143.845 39.5344 144.848 39.2609 145.755 38.7117C146.679 38.1675 147.416 37.431 147.961 36.5068C148.534 35.5764 148.822 34.56 148.822 33.4659V17.2544C148.822 16.1378 148.536 15.1197 147.959 14.211C147.415 13.288 146.679 12.5523 145.755 12.0085C144.848 11.4594 143.845 11.1859 142.754 11.1859H126.542C125.451 11.1859 124.436 11.4598 123.505 12.0072C122.579 12.5519 121.841 13.2894 121.296 14.215C120.746 15.1237 120.474 16.1403 120.474 17.2544V33.4659C120.474 34.5574 120.748 35.5724 121.295 36.503C121.84 37.4297 122.579 38.168 123.505 38.7131ZM142 17.9701V32.7502H127.22V17.9701H142ZM177.066 17.9701V32.7502H162.248V17.9701H177.066Z" fill="white" stroke="white" stroke-width="0.819599"/>
<path d="M169.227 51.7807V63.1611H166.633V51.7807H169.227ZM176.505 56.0984V63.1611H173.912V51.7807H176.505L181.029 58.8435H181.057V51.7807H183.65V63.1611H181.057L176.532 56.0984H176.505ZM194.923 51.7807V54.0568H190.936V56.3191H194.619V58.5952H190.936V63.1611H188.343V51.7807H194.923ZM198.694 57.464C198.694 54.1395 201.301 51.5738 204.433 51.5738C207.592 51.5738 210.157 54.1395 210.157 57.464C210.157 60.7885 207.702 63.3681 204.433 63.3681C201.067 63.3681 198.694 60.7885 198.694 57.464ZM201.494 57.464C201.494 59.1607 202.308 60.8575 204.433 60.8575C206.502 60.8575 207.357 59.1607 207.357 57.464C207.357 55.7673 206.447 54.0706 204.433 54.0706C202.432 54.0706 201.494 55.7673 201.494 57.464ZM213.175 54.0568V51.7807H221.175V54.0568H218.472V63.1611H215.878V54.0568H213.175ZM231.655 51.7807V54.0568H227.737V56.3191H231.49V58.5952H227.737V60.885H231.655V63.1611H225.144V51.7807H231.655ZM242.237 60.8161C243.561 60.8161 244.471 60.1126 244.471 60.1126L245.575 62.3197C245.575 62.3197 244.306 63.3681 241.836 63.3681C238.622 63.3681 235.67 60.7471 235.67 57.4916C235.67 54.2223 238.609 51.5738 241.836 51.5738C244.306 51.5738 245.575 52.6221 245.575 52.6221L244.471 54.8293C244.471 54.8293 243.561 54.1257 242.237 54.1257C239.629 54.1257 238.484 55.9466 238.484 57.464C238.484 58.9952 239.629 60.8161 242.237 60.8161ZM252.195 58.5952V63.1611H249.602V51.7807H252.195V56.3191H255.864V51.7807H258.458V63.1611H255.864V58.5952H252.195Z" fill="white"/>
</svg>
