<svg width="52" height="52" viewBox="0 0 52 52" fill="none" xmlns="http://www.w3.org/2000/svg">
<rect width="52" height="52" rx="12" fill="#00769D"/>
<g clip-path="url(#clip0_869_355)">
<path d="M24.8118 10.0375C24.6931 10.05 24.3306 10.0938 24.0118 10.1313C23.2243 10.2188 22.0993 10.4563 21.3431 10.6938C18.9056 11.45 16.7306 12.7375 14.9118 14.5C13.4993 15.8625 12.5056 17.2313 11.6556 18.9688C10.6056 21.0938 10.1056 23.1 10.0181 25.4688C9.9243 28.1313 10.4743 30.6688 11.6618 33.0562C12.4431 34.6312 13.3118 35.8562 14.5431 37.1312C15.8556 38.4812 17.2181 39.475 18.9056 40.3125C20.1306 40.9187 20.8743 41.1937 22.0931 41.5C25.2181 42.2875 28.3556 42.1375 31.4056 41.0562C32.3368 40.725 33.9493 39.9187 34.7806 39.3625C37.0618 37.8437 38.9493 35.75 40.1931 33.3437C42.5431 28.8188 42.5931 23.4813 40.3368 18.9438C39.5618 17.3813 38.6931 16.15 37.4743 14.8938C36.1431 13.5125 34.8618 12.575 33.0931 11.6813C31.5431 10.9063 29.9618 10.4063 28.2243 10.15C27.6243 10.0625 25.2743 9.98127 24.8118 10.0375ZM27.6368 11.7188C30.1056 12.0063 32.3431 12.8688 34.3743 14.3125C34.6993 14.5438 35.1243 14.875 35.3243 15.05L35.6743 15.3563L35.2931 15.4C34.1368 15.5188 33.1993 16.5563 33.1368 17.7813C33.0931 18.6563 33.3618 19.4 34.2931 20.9313C35.3931 22.75 35.7368 23.8938 35.6681 25.5188C35.6306 26.4625 35.4868 27.0938 34.8806 29.0625C34.6743 29.7313 34.2243 31.2375 33.8743 32.4062C33.5243 33.575 33.2181 34.55 33.1931 34.5812C33.1681 34.6062 31.9868 31.175 30.5743 26.9625C29.1556 22.7438 28.0056 19.2875 28.0118 19.275C28.0243 19.2688 28.4118 19.2313 28.8743 19.1875C29.3368 19.1438 29.7931 19.075 29.8868 19.025C30.1243 18.9 30.2181 18.575 30.0993 18.2938C29.9493 17.925 29.8806 17.9125 28.5368 18.0063C27.0056 18.1125 24.4931 18.1125 22.9618 18.0063C21.7056 17.9188 21.5806 17.9375 21.3931 18.1813C21.2993 18.3 21.2868 18.7125 21.3743 18.8688C21.4618 19.0438 21.5806 19.075 22.4993 19.1813L23.3431 19.2813L24.4556 22.3375L25.5681 25.3875L24.0243 30.025C23.1806 32.5688 22.4618 34.6812 22.4368 34.7062C22.4118 34.7312 21.2368 31.3188 19.8243 27.1125C18.4118 22.9063 17.2431 19.425 17.2181 19.3688C17.1868 19.2813 17.2931 19.2563 18.0431 19.1938C18.5181 19.15 18.9743 19.075 19.0681 19.0313C19.4243 18.8438 19.4493 18.3 19.1118 18.0438C18.9556 17.925 18.9056 17.925 17.8618 17.9938C16.4118 18.0875 13.9993 18.1563 13.9993 18.1C13.9993 18.025 14.4743 17.3875 15.0118 16.7313C16.3806 15.075 18.3931 13.5875 20.3868 12.7625C21.6806 12.225 23.1931 11.825 24.4431 11.6938C25.2931 11.6063 26.7806 11.6188 27.6368 11.7188ZM39.0868 20.0375C40.9931 24.3 40.7806 29.0375 38.5056 33.0812C37.6056 34.6875 36.1306 36.3687 34.6556 37.475C33.9306 38.0125 33.3243 38.4062 33.2806 38.3625C33.2681 38.3562 34.2993 35.35 35.5743 31.6875C38.5618 23.0875 38.3868 23.6188 38.5931 22.225C38.6931 21.5313 38.7306 19.675 38.6493 19.3313C38.5681 18.9875 38.7493 19.2813 39.0868 20.0375ZM16.3056 29.5813C18.1743 34.7 19.6868 38.8937 19.6743 38.9125C19.6306 38.95 18.1056 38.0437 17.6056 37.6812C12.9868 34.3 10.7931 28.7063 11.9056 23.1438C12.1306 22.0438 12.7681 20.1125 12.8743 20.2313C12.8993 20.2563 14.4431 24.4688 16.3056 29.5813ZM28.5118 33.4375C29.7118 36.7187 30.6993 39.4437 30.7056 39.4937C30.7306 39.6875 29.0181 40.1187 27.5868 40.2875C26.5556 40.4062 24.8306 40.375 23.8243 40.2187C23.2556 40.1312 22.0118 39.85 21.9618 39.7937C21.9431 39.7812 26.0181 27.8938 26.1868 27.4688C26.2431 27.3375 26.2743 27.3125 26.2993 27.375C26.3181 27.425 27.3118 30.1563 28.5118 33.4375Z" fill="white"/>
</g>
<defs>
<clipPath id="clip0_869_355">
<rect width="32" height="32" fill="white" transform="translate(10 10)"/>
</clipPath>
</defs>
</svg>
