<svg width="49" height="48" viewBox="0 0 49 48" fill="none" xmlns="http://www.w3.org/2000/svg">
<g clip-path="url(#clip0_445_2139)">
<path opacity="0.983" fill-rule="evenodd" clip-rule="evenodd" d="M11.4219 -0.046875C11.7969 -0.046875 12.1719 -0.046875 12.5469 -0.046875C12.9882 0.160795 13.285 0.504546 13.4375 0.984375C13.4844 1.95263 13.4999 2.92137 13.4844 3.89062C20.7969 3.89062 28.1094 3.89062 35.4219 3.89062C35.4063 2.92137 35.4219 1.95263 35.4688 0.984375C35.6187 0.506813 35.9156 0.163063 36.3594 -0.046875C36.7344 -0.046875 37.1094 -0.046875 37.4844 -0.046875C37.9591 0.193856 38.2873 0.568856 38.4688 1.07812C38.5156 2.0151 38.5312 2.9526 38.5156 3.89062C40.2034 3.87501 41.8909 3.89063 43.5781 3.9375C46.1486 4.39898 47.7735 5.88337 48.4531 8.39062C48.4531 20.0782 48.4531 31.7656 48.4531 43.4531C47.8569 45.8618 46.3569 47.3618 43.9531 47.9531C30.9531 47.9531 17.9532 47.9531 4.95312 47.9531C2.54438 47.3569 1.04438 45.8569 0.453125 43.4531C0.453125 31.7656 0.453125 20.0782 0.453125 8.39062C1.13189 5.88423 2.75689 4.39986 5.32812 3.9375C7.01533 3.89063 8.70283 3.87501 10.3906 3.89062C10.3751 2.9526 10.3906 2.0151 10.4375 1.07812C10.6215 0.566596 10.9497 0.191596 11.4219 -0.046875ZM5.60938 6.98438C7.20312 6.98438 8.79688 6.98438 10.3906 6.98438C10.375 8.266 10.3906 9.54722 10.4375 10.8281C10.8193 11.7926 11.5225 12.152 12.5469 11.9062C12.9825 11.7088 13.2794 11.3807 13.4375 10.9219C13.4844 9.60975 13.5 8.29725 13.4844 6.98438C20.7969 6.98438 28.1094 6.98438 35.4219 6.98438C35.4062 8.29725 35.4219 9.60975 35.4688 10.9219C35.9824 11.9818 36.7793 12.2474 37.8594 11.7188C38.1752 11.497 38.3784 11.2001 38.4688 10.8281C38.5156 9.54722 38.5313 8.266 38.5156 6.98438C40.1097 6.96876 41.7034 6.98438 43.2969 7.03125C44.6058 7.34052 45.3089 8.16864 45.4062 9.51562C45.4531 11.6404 45.4688 13.7654 45.4531 15.8906C31.4532 15.8906 17.4531 15.8906 3.45312 15.8906C3.41272 13.5437 3.45959 11.1999 3.59375 8.85938C3.92431 7.85661 4.59618 7.2316 5.60938 6.98438ZM3.45312 18.9844C17.4531 18.9844 31.4532 18.9844 45.4531 18.9844C45.4688 26.7969 45.4531 34.6094 45.4062 42.4219C45.2781 43.8937 44.4812 44.7218 43.0156 44.9062C30.6406 44.9688 18.2656 44.9688 5.89062 44.9062C4.42499 44.7218 3.62812 43.8937 3.5 42.4219C3.45312 34.6094 3.4375 26.7969 3.45312 18.9844Z" fill="#E7B900"/>
<path opacity="0.959" fill-rule="evenodd" clip-rule="evenodd" d="M33.642 24.8906C34.7654 24.8115 35.3904 25.3271 35.517 26.4375C35.4827 26.7903 35.3733 27.1184 35.1888 27.4219C31.267 31.3437 27.345 35.2656 23.4232 39.1875C22.6275 39.672 21.8931 39.5939 21.2201 38.9531C19.2908 36.3134 17.3846 33.6572 15.5013 30.9844C15.2779 29.489 15.9185 28.8171 17.4232 28.9687C17.6107 29.0625 17.7982 29.1562 17.9857 29.25C19.5326 31.3594 21.0795 33.4687 22.6263 35.5781C26.0794 32.125 29.5326 28.6718 32.9857 25.2187C33.213 25.105 33.4319 24.9957 33.642 24.8906Z" fill="#E7B900"/>
</g>
<defs>
<clipPath id="clip0_445_2139">
<rect width="48" height="48" fill="white" transform="translate(0.5)"/>
</clipPath>
</defs>
</svg>
