<svg width="52" height="52" viewBox="0 0 52 52" fill="none" xmlns="http://www.w3.org/2000/svg">
<rect width="52" height="52" rx="12" fill="#470137"/>
<g clip-path="url(#clip0_776_368)">
<path d="M25.5882 9.43299C24.0069 9.85799 23.0257 11.5017 23.4257 13.0517C23.6882 14.0455 24.5132 14.9017 25.5382 15.233C25.6382 15.2642 25.6444 15.508 25.6444 19.2017V23.1392L25.3632 23.2642C25.2069 23.333 24.9944 23.4517 24.8944 23.5205L24.7132 23.6517L21.4132 21.7392C19.6007 20.6892 18.0757 19.808 18.0319 19.783C17.9694 19.7392 17.9694 19.6392 18.0194 19.2767C18.1944 18.183 17.6694 16.983 16.7507 16.3767C16.1819 16.0017 15.7194 15.8767 14.9569 15.908C14.1757 15.9392 13.7632 16.083 13.2132 16.4955C11.8444 17.5267 11.7007 19.658 12.9132 20.9455C13.5007 21.558 14.1757 21.8392 15.0819 21.8392C15.8819 21.8392 16.5069 21.6142 17.0569 21.133L17.2757 20.9392L18.4757 21.633C19.1382 22.0142 20.6444 22.8892 21.8319 23.5705L23.9882 24.8205L24.0194 25.383L24.0507 25.9455L20.7132 27.8705C18.8819 28.933 17.3569 29.808 17.3319 29.8205C17.3007 29.833 17.1132 29.7142 16.9132 29.5642C16.3569 29.1392 15.9757 29.008 15.2257 28.9705C14.7069 28.9455 14.5194 28.9642 14.1632 29.0705C12.4007 29.608 11.5569 31.533 12.3694 33.1955C12.8132 34.1018 13.6757 34.7393 14.6632 34.8955C16.5569 35.1893 18.2507 33.4705 17.9632 31.5393C17.9257 31.2768 17.9007 31.058 17.9069 31.0455C17.9194 31.0393 19.4382 30.158 21.2819 29.0892L24.6382 27.1517L24.9944 27.3642C25.1944 27.483 25.4069 27.5955 25.4694 27.6205C25.5757 27.6517 25.5819 27.8267 25.5819 31.5893C25.5819 35.283 25.5757 35.5268 25.4757 35.558C24.1444 36.0018 23.2694 37.158 23.2694 38.458C23.2694 39.5705 23.9319 40.6518 24.9132 41.133C25.3132 41.333 25.3257 41.333 26.2694 41.333C27.2069 41.333 27.2319 41.333 27.6132 41.1393C28.4319 40.7393 29.0757 39.8393 29.2257 38.9018C29.4444 37.458 28.5569 36.0768 27.0694 35.5643C26.9632 35.5268 26.9569 35.2768 26.9569 31.5205V27.5205L27.1319 27.4517C27.2257 27.4142 27.4319 27.3017 27.5944 27.2017L27.8882 27.0142L31.1882 28.9205C33.0007 29.9705 34.5257 30.858 34.5694 30.883C34.6319 30.9268 34.6319 31.0268 34.5757 31.383C34.3882 32.5143 34.9257 33.7143 35.8819 34.3268C36.8194 34.9205 38.1757 34.9205 39.1007 34.333C39.8132 33.883 40.3757 33.033 40.5194 32.1955C40.7069 31.108 40.1444 29.8892 39.1632 29.2705C38.0757 28.5767 36.5007 28.6955 35.5444 29.533L35.3257 29.7267L35.1194 29.608C35.0069 29.5455 33.4819 28.658 31.7319 27.6517L28.5507 25.808V25.258V24.7142L28.8007 24.5767C28.9382 24.4955 30.4569 23.6205 32.1757 22.6267C34.1632 21.4767 35.3194 20.8392 35.3694 20.8705C35.4069 20.9017 35.5757 21.033 35.7444 21.158C36.2757 21.558 36.6819 21.6767 37.5507 21.6767C38.4382 21.6767 38.7944 21.5642 39.4132 21.0955C40.8444 20.0017 40.9757 17.8455 39.6819 16.558C39.2257 16.1017 38.7444 15.858 38.0694 15.7205C37.6257 15.633 37.5319 15.633 37.0757 15.7267C36.4194 15.8517 35.9757 16.0767 35.5194 16.5017C34.8257 17.1392 34.4882 18.1205 34.6319 19.0642C34.6757 19.3267 34.7007 19.5455 34.6944 19.5517C34.6819 19.5642 33.1632 20.4392 31.3194 21.508L27.9569 23.4517L27.6069 23.2392C27.4069 23.1205 27.1944 23.008 27.1319 22.983C27.0257 22.9517 27.0194 22.7767 27.0194 19.108C27.0194 15.508 27.0257 15.2642 27.1319 15.233C28.7257 14.6955 29.6319 13.1455 29.2382 11.6142C28.8132 10.0017 27.1569 9.00798 25.5882 9.43299ZM26.8007 11.4767C27.0944 11.6392 27.3319 12.0267 27.3319 12.333C27.3319 12.6392 27.0944 13.0267 26.8007 13.1892C26.6632 13.2705 26.4507 13.333 26.3319 13.333C25.8444 13.333 25.3319 12.8205 25.3319 12.333C25.3319 11.8455 25.8444 11.333 26.3319 11.333C26.4507 11.333 26.6632 11.3955 26.8007 11.4767ZM15.6944 18.0642C15.9257 18.2392 16.1132 18.6955 16.0569 18.9767C15.8944 19.8455 14.8757 20.1392 14.2757 19.4955C14.0444 19.2517 14.0194 18.6955 14.2194 18.3955C14.3007 18.2767 14.4632 18.1142 14.5819 18.033C14.7632 17.908 14.8569 17.8892 15.1632 17.908C15.3944 17.9267 15.5819 17.9767 15.6944 18.0642ZM38.0882 18.0392C38.5694 18.3642 38.7007 18.8392 38.4382 19.2955C38.1944 19.7267 37.7819 19.9205 37.3382 19.8267C36.6944 19.683 36.3882 18.958 36.7257 18.3642C36.9819 17.9017 37.6507 17.7455 38.0882 18.0392ZM26.8007 24.4767C27.0944 24.6392 27.3319 25.0267 27.3319 25.333C27.3319 25.8205 26.8194 26.333 26.3319 26.333C26.2132 26.333 26.0007 26.2705 25.8632 26.1892C25.5694 26.0267 25.3319 25.6392 25.3319 25.333C25.3319 24.8455 25.8444 24.333 26.3319 24.333C26.4507 24.333 26.6632 24.3955 26.8007 24.4767ZM15.7007 31.008C16.2444 31.4018 16.1694 32.3643 15.5819 32.658C14.9319 32.9893 14.1444 32.5018 14.1444 31.7768C14.1444 30.983 15.0569 30.533 15.7007 31.008ZM38.0819 31.008C38.4944 31.2143 38.7069 31.8518 38.4944 32.258C38.2507 32.7205 37.8069 32.9268 37.3194 32.8018C36.9569 32.7143 36.8444 32.6205 36.7007 32.3018C36.5569 31.9893 36.5569 31.8393 36.6819 31.5143C36.9007 30.9768 37.5507 30.7393 38.0819 31.008ZM26.8007 37.4768C27.0944 37.6393 27.3319 38.0268 27.3319 38.333C27.3319 38.8205 26.8194 39.333 26.3319 39.333C25.8444 39.333 25.3319 38.8205 25.3319 38.333C25.3319 37.8455 25.8444 37.333 26.3319 37.333C26.4507 37.333 26.6632 37.3955 26.8007 37.4768Z" fill="white"/>
<path d="M22.2376 16.7078C21.1001 16.939 20.3063 17.9953 20.4188 19.139C20.5751 20.8453 22.5251 21.7578 23.9376 20.7953C25.5813 19.6703 25.0563 17.1328 23.0938 16.714C22.7251 16.639 22.6001 16.639 22.2376 16.7078Z" fill="white"/>
<path d="M29.4886 16.7328C29.0323 16.8453 28.7136 17.0328 28.3886 17.3765C28.0323 17.7453 27.8636 18.064 27.7761 18.5515C27.6448 19.2578 27.9011 20.039 28.4323 20.5515C29.3386 21.4328 30.8011 21.3953 31.6511 20.4703C32.7386 19.2953 32.2948 17.4015 30.7948 16.814C30.4261 16.6703 29.8573 16.6328 29.4886 16.7328Z" fill="white"/>
<path d="M18.2563 23.1643C17.2625 23.5393 16.6875 24.3268 16.6875 25.333C16.6875 26.208 17.1125 26.908 17.9062 27.3393C18.2812 27.5393 18.3313 27.5518 18.925 27.5518C19.4813 27.5518 19.5875 27.533 19.9 27.3768C20.3375 27.1643 20.7875 26.6955 21.0062 26.2205C21.1438 25.9205 21.175 25.7768 21.175 25.333C21.175 24.8893 21.1438 24.7455 21.0062 24.4455C20.7875 23.9705 20.3375 23.5018 19.9 23.2893C19.475 23.0893 18.6375 23.0268 18.2563 23.1643Z" fill="white"/>
<path d="M32.9761 23.2018C32.3886 23.4205 31.9386 23.8393 31.6636 24.4268C31.5199 24.7455 31.4886 24.883 31.4949 25.333C31.4949 26.0205 31.6949 26.4955 32.1824 26.958C32.6824 27.433 32.9824 27.5455 33.7386 27.5518C34.3074 27.5518 34.3949 27.533 34.7261 27.3643C36.0699 26.6893 36.4011 24.9143 35.3949 23.8143C34.9574 23.333 34.5074 23.1268 33.8324 23.1018C33.4199 23.083 33.2261 23.108 32.9761 23.2018Z" fill="white"/>
<path d="M22.0078 29.5765C21.5578 29.7203 21.2765 29.8953 20.989 30.2203C20.4828 30.7765 20.2828 31.6015 20.4828 32.3078C20.9828 34.039 23.0765 34.5703 24.289 33.2765C25.4703 32.014 24.8953 29.9765 23.239 29.5515C22.764 29.4328 22.4515 29.439 22.0078 29.5765Z" fill="white"/>
<path d="M29.3946 29.5582C27.7634 29.9895 27.1946 32.077 28.3821 33.2895C29.6259 34.5645 31.6884 34.0332 32.1821 32.3082C32.5134 31.127 31.7821 29.8707 30.5696 29.5457C30.1571 29.4395 29.8321 29.4395 29.3946 29.5582Z" fill="white"/>
</g>
<defs>
<clipPath id="clip0_776_368">
<rect width="32" height="32" fill="white" transform="translate(10.332 9.33301)"/>
</clipPath>
</defs>
</svg>
